<svg id="b4f2fed3-3db3-448f-8670-b6e51e000150" data-name="Layer 1" xmlns="http://www.w3.org/2000/svg" viewBox="0 0 84.72 39.19">
  <defs>
    <style>
      .aa4a44e4-1289-425d-81af-3fb8305e1439 {
        fill: #3d3d3d;
      }
    </style>
  </defs>
  <g>
    <g>
      <path class="aa4a44e4-1289-425d-81af-3fb8305e1439" d="M343.27,397.74c.3,0,.05-.08-.08-.21Z" transform="translate(-261.64 -362.43)"/>
      <path class="aa4a44e4-1289-425d-81af-3fb8305e1439" d="M343.19,397.53l-.05-.14A.13.13,0,0,0,343.19,397.53Z" transform="translate(-261.64 -362.43)"/>
      <path class="aa4a44e4-1289-425d-81af-3fb8305e1439" d="M342.52,396.25c.36.15.35.64.73.63C343.22,396.49,342.85,396.11,342.52,396.25Z" transform="translate(-261.64 -362.43)"/>
      <polygon class="aa4a44e4-1289-425d-81af-3fb8305e1439" points="80.99 34.34 81.16 34.28 80.77 34.2 80.99 34.34"/>
      <polygon class="aa4a44e4-1289-425d-81af-3fb8305e1439" points="80.98 34.6 81.01 34.53 80.6 34.26 80.98 34.6"/>
      <path class="aa4a44e4-1289-425d-81af-3fb8305e1439" d="M342,395.25l.24.25c0,.39-.39,0-.4.28.24.34.49-.17.73.3.16-.16-.48-.68-.15-.82C342.23,394.84,342.21,395.37,342,395.25Z" transform="translate(-261.64 -362.43)"/>
      <path class="aa4a44e4-1289-425d-81af-3fb8305e1439" d="M327.1,382.09a.11.11,0,0,0,0-.06S327.07,382.11,327.1,382.09Z" transform="translate(-261.64 -362.43)"/>
      <path class="aa4a44e4-1289-425d-81af-3fb8305e1439" d="M322.66,379.14a1.33,1.33,0,0,0-.14-.19.27.27,0,0,0,0,.13Z" transform="translate(-261.64 -362.43)"/>
      <path class="aa4a44e4-1289-425d-81af-3fb8305e1439" d="M330.1,383.76a2.09,2.09,0,0,0,.1.21A.26.26,0,0,0,330.1,383.76Z" transform="translate(-261.64 -362.43)"/>
      <path class="aa4a44e4-1289-425d-81af-3fb8305e1439" d="M299.18,369.61a.18.18,0,0,0,0-.11h0l-.06.09Z" transform="translate(-261.64 -362.43)"/>
      <path class="aa4a44e4-1289-425d-81af-3fb8305e1439" d="M317.29,376.65a.94.94,0,0,0-.22-.07C317.19,376.65,317.25,376.66,317.29,376.65Z" transform="translate(-261.64 -362.43)"/>
      <path class="aa4a44e4-1289-425d-81af-3fb8305e1439" d="M331.54,385.08l-.06-.06a.41.41,0,0,0,0,.09v0Z" transform="translate(-261.64 -362.43)"/>
      <path class="aa4a44e4-1289-425d-81af-3fb8305e1439" d="M323.81,380.52a.69.69,0,0,0-.13-.15A.47.47,0,0,0,323.81,380.52Z" transform="translate(-261.64 -362.43)"/>
      <path class="aa4a44e4-1289-425d-81af-3fb8305e1439" d="M339.17,391a.3.3,0,0,0-.18-.17C339,390.87,339,390.94,339.17,391Z" transform="translate(-261.64 -362.43)"/>
      <path class="aa4a44e4-1289-425d-81af-3fb8305e1439" d="M337.88,389.46h0S337.9,389.43,337.88,389.46Z" transform="translate(-261.64 -362.43)"/>
      <path class="aa4a44e4-1289-425d-81af-3fb8305e1439" d="M337.07,388.49l0,0S337.1,388.46,337.07,388.49Z" transform="translate(-261.64 -362.43)"/>
      <path class="aa4a44e4-1289-425d-81af-3fb8305e1439" d="M339,390.79c0-.21.32-.54-.19-.39l0,.08c0-.17-.26-.19-.36-.3a.45.45,0,0,0-.06.12l.16.28C338.54,390.79,338.8,390.73,339,390.79Z" transform="translate(-261.64 -362.43)"/>
      <path class="aa4a44e4-1289-425d-81af-3fb8305e1439" d="M327.17,382c0,.08.09.12,0,0Z" transform="translate(-261.64 -362.43)"/>
      <path class="aa4a44e4-1289-425d-81af-3fb8305e1439" d="M328.68,382.81l-.12-.12A.23.23,0,0,0,328.68,382.81Z" transform="translate(-261.64 -362.43)"/>
      <path class="aa4a44e4-1289-425d-81af-3fb8305e1439" d="M333.15,387.18v0S333.13,387.19,333.15,387.18Z" transform="translate(-261.64 -362.43)"/>
      <path class="aa4a44e4-1289-425d-81af-3fb8305e1439" d="M328.45,382.59l.11.1A.18.18,0,0,0,328.45,382.59Z" transform="translate(-261.64 -362.43)"/>
      <path class="aa4a44e4-1289-425d-81af-3fb8305e1439" d="M332,385.66a0,0,0,0,1,0,0A0,0,0,0,0,332,385.66Z" transform="translate(-261.64 -362.43)"/>
      <path class="aa4a44e4-1289-425d-81af-3fb8305e1439" d="M273.18,374.3c.1-.09.22,0,.35,0,.13-.41-.53.2-.27-.22a.71.71,0,0,0-.25.2l.27.22C273.46,374.3,273.1,374.46,273.18,374.3Z" transform="translate(-261.64 -362.43)"/>
      <path class="aa4a44e4-1289-425d-81af-3fb8305e1439" d="M297.54,369l.06,0c0-.14,0-.19-.23-.25-.17.22.13.53-.17.78a.37.37,0,0,1,.23,0C297.29,369.4,297.41,369.19,297.54,369Z" transform="translate(-261.64 -362.43)"/>
      <path class="aa4a44e4-1289-425d-81af-3fb8305e1439" d="M297.43,369.59h0l.06.07a.24.24,0,0,1,.12,0A.32.32,0,0,0,297.43,369.59Z" transform="translate(-261.64 -362.43)"/>
      <path class="aa4a44e4-1289-425d-81af-3fb8305e1439" d="M277.23,372.9l.15,0C277.29,372.85,277.25,372.87,277.23,372.9Z" transform="translate(-261.64 -362.43)"/>
      <path class="aa4a44e4-1289-425d-81af-3fb8305e1439" d="M319.41,373.34h.21A.29.29,0,0,0,319.41,373.34Z" transform="translate(-261.64 -362.43)"/>
      <path class="aa4a44e4-1289-425d-81af-3fb8305e1439" d="M300.64,369.26a.94.94,0,0,0,.15.06h.1Z" transform="translate(-261.64 -362.43)"/>
      <path class="aa4a44e4-1289-425d-81af-3fb8305e1439" d="M291,373.13c0-.36-.07,0-.31-.12l-.16.22A1.26,1.26,0,0,0,291,373.13Z" transform="translate(-261.64 -362.43)"/>
      <polygon class="aa4a44e4-1289-425d-81af-3fb8305e1439" points="11.35 11.83 11.36 11.86 11.37 11.85 11.35 11.83"/>
      <path class="aa4a44e4-1289-425d-81af-3fb8305e1439" d="M285.48,374.55l-.11,0A.13.13,0,0,0,285.48,374.55Z" transform="translate(-261.64 -362.43)"/>
      <path class="aa4a44e4-1289-425d-81af-3fb8305e1439" d="M298.64,369.68h.77l-.23-.08C299.08,369.78,298.74,369.47,298.64,369.68Z" transform="translate(-261.64 -362.43)"/>
      <path class="aa4a44e4-1289-425d-81af-3fb8305e1439" d="M294.13,372.82l.09.2c.66-.54,1.55,0,2.06-.67.93.68.53-.7,1.38-.08l0-.11a19.38,19.38,0,0,1,2,.07c.67,0,1.34.1,2,.18l1,.09,1,.11a13.41,13.41,0,0,0,1.89.08l0,.15a44.57,44.57,0,0,1,11.13,3.6c.39,0,.33-.36.69-.36.12.08.41.21.33.37-.29,0-.22.18-.34.2.41.2.81.65,1.27.64l-.18-.37c.18,0,.37.16.49.24-.11.08-.06.4-.19.39,1-.12.45.52,1.17.69.37-.36,1.35-.25,2-.25l.2.28c-.35-.22-.19.31-.62,0,.29.35.75.35,1,.65a.22.22,0,0,1,.28-.23c.17.2,0,.43.26.61l-.31,0c0,.26.32.15.48.22-.07.21.25.48.06.63.47,0,.49.19.93.28-.22-.43.26-.17.32-.34l-.45-.2c.48.5-.2-.1-.37.22-.16-.31.71-.23.23-.49a7.71,7.71,0,0,0,1.37.57c-.36-.19.2-.14.09-.36.41.3,0,.18,0,.46.22.16.18.38.54.33.29.36-.22.17-.13.43-.28.09-.8-1-1.17-.3-.19-.12-.6,0-.86-.23.17.25.37.68.75.75l.28-.35c.22.16.45-.05.58.11-.16,0-.13.3.07.41,0-.09-.09-.13,0-.18.34.22.57,0,1,.25a4.42,4.42,0,0,1-.41-.88c.27-.19.24.12.44.23-.05,0-.1,0-.08.08l.28,0c.31.41-.33.32-.1.69.07.38.4.12.48.37l0-.09a.36.36,0,0,1,.07.09v0c.25.12.45.33.65.2,0,.1.2.13.31.13s.62.05.55.48h0c.22.25.34.51.2.56l.35.42L329,384c.43.25.51.09,1,.07a1.72,1.72,0,0,0,.92.77.75.75,0,0,0,.15.13l-.07-.23c.27.27.35.13.53.3,0-.06,0-.08.06.06l.09.11s-.07,0-.1-.08l0,.11c0,.44.47.19.63.5l-.1-.06c.07.18,0,.67.2.54,0,.05.09.06.18.06l.07.13a.69.69,0,0,1-.06-.13c.11,0,.25,0,.21,0l.29.38a.39.39,0,0,0,.24.19l0,.15c.14.11.08.16,0,.17.1.73.81.51,1,1.23.24-.06.12-.31.19-.4a2.07,2.07,0,0,1,.76.19c0,.41.37,1.24,0,1.41.33.42.09-.29.37-.19l0,.05a.7.7,0,0,1,0-.55c.14-.18.5.12.55.28l-.31.13c.41.3.7-.1,1.15-.08.17.38-.2.4-.37.65l.34.26-.19.15c.23.16.45.06.61.41-.34-.06.18.57-.29.48.07.21.46,0,.28.25.29-.06,0-.23,0-.36.23-.3.42.23.65.36-.13.14-.27,0-.19.33a.23.23,0,0,1,.32.26c.19-.15.25.22.34.36-.08-.17-.11-.49.13-.53a.78.78,0,0,1,.46.39l-.05-.24c.46,0,.1.53.44.76a2.31,2.31,0,0,0-.52-.12,4.13,4.13,0,0,1,.83.4l-.08.48c.16-.08.21.3.4.16.12.42-.43-.09-.59,0,.18.5.57.08.57.7h-.28c.09.14.39.33.31.41s0-.09-.07-.17c.45-.22.73.4,1.09.05l-.11-.2c.29.22.71.22.73.54s-.36.08-.54.06c.18.28.61-.11.8.24-.06-.21.11-.28.29-.26-.1-.21-.32-.65-.44-.45v.09c-.11.06-.23,0-.32,0-.19-.25.1-.25.14-.36-.25-.46-.43.26-.7-.12l0-.11c-.24-.11-.47-.38-.75-.24.13-.36-.43-.35-.41-.65.53-.47.45.67.92.65,0-.28.35-.09.54-.1l-.72-.45c0-.1.18-.5-.11-.46l0,.06c-.26-.2-.43,0-.52-.23,0-.07.16-.08.21-.09-.1-.24-.25-.07-.4-.16s.31-.08.23-.29c-.39-.06-.24-.4-.41-.58-.24.33-1.06-.43-1,.21l-.59-.28c.05-.28.7,0,.85-.39l.3.38c.33-.38-.89-.57-.66-1.17-.15-.21-.16-.12-.28-.65l-.29.35a.58.58,0,0,1,.1-.54,1.36,1.36,0,0,1-.28-.31.27.27,0,0,1,.23,0c.07-.3,0-.28-.19-.25s-.24-.13-.34-.25h.22c-.1-.05-.21-.11-.28-.06a.33.33,0,0,0-.15-.11,1,1,0,0,0-.1.57c-.25-.55-.63-.83-.69-1.45.11-.07.37,0,.34-.08a.41.41,0,0,0-.6-.14.45.45,0,0,1-.1-.09c.05-.11.1-.24,0-.33a.23.23,0,0,0-.05-.18c-.32.18-.52-.29-.71-.25a1,1,0,0,0,.26.3c-.32,0-.64.07-.61-.17.43.11,0-.54.46-.21.05-.59-.38.08-.56-.33l-.06-.32c.21-.15.4.22.43.11l-.16-.11c.27,0,.68.6,1.2.72l-.52-.74c-1-.59-1.72-1.84-2.81-2.07l0,0a.53.53,0,0,0-.14.1v-.08h-.27c0-.32-.24-.62-.36-1,.05.26.05.26-.07.42s-.3.22-.47-.07c.12-.13.26,0,.19-.26,0,.14-.14.17-.25.09s-.25-.43-.13-.57c.09,0,.1.11.12.17s-.14-.35.15-.3l-.28-.17c0-.24.25-.1.26-.22-.49-.26-1-.12-1.42-.34a3.75,3.75,0,0,0,.27-.28c-.21-.34-.9-.18-1.24-.43.13-.06.21.08.35.12a25.69,25.69,0,0,1-2.47-2.66l-.5.14-.09-.42a9.57,9.57,0,0,0-3-1.86c-.34-.18,0-.37-.13-.57-.7-.48-1.12-.18-1.85-.51.16-.06.5-.27.22-.47-.12.08-.25.22-.4,0l.16-.05c-.08-.27-.33-.21-.66-.47a3.38,3.38,0,0,0-2.15-.27c-.55-.33.26-.37.2-.51.33.35.31.08.46,0-.26,0-.55-.08-.53-.4a1.22,1.22,0,0,0-.83-.18c.19,0,.26.18.05.24-.2-.2-.89-.38-.7-.71-.75-.28-1.5-.67-2.32-1l-2.44-.9c-.33.08.18.14,0,.22-.47.1-.28-.22-.66-.13l.2-.15a4,4,0,0,0-1.61.1c.14-.2-.33-.3.09-.32-.23,0-.25-1.11-.48-1v1c0,.09-.34-.05-.32,0-.15-.24-.34-.53-.48-.57,0-.26.32-.11.51-.05.13-.39-.58-.44-.21-.72-.44,0,0,.21-.28.3l-.34-.16.25.2c-.34.05-.51.34-.87,0l-.5.31c0-.33-.29-.12-.49-.24l.17-.17a.88.88,0,0,1-.55-.28c.22-.25.25.12.37-.13l-.3-.16c0,.18-.26.28-.05.44a1.28,1.28,0,0,1-1.28.38c-.29-.35.4-.23.31-.56-.76-.22-1.06.7-1.5.61s-.55.09-1.12.05c.2-.19-.38-.28-.47-.49l.24-.2c-.18.05-.34-.05-.28-.2,0,.28-.77.23-1.18.35l.06.24a2.66,2.66,0,0,1-1.08.13c-.49.07-.38.29-.75.56a.73.73,0,0,1-.12-.75c.14.12.36.05.57.12.62-.2,1.13-.68,1.75-.54.31-.58-.42.05-.72-.17a.06.06,0,0,1,.06-.05l-.08,0c.23-.07.6-.14.68-.44-.38,0-.3.58-.76.3-.35.15-.62-.34-.84-.38-.24.23-.25.7-.82.61l.25-.33c-.64,0-.3.49-.89.48.21,0-.2.33.2.33a1.07,1.07,0,0,1-.94.13c-.08.06,0,.11,0,.23.35.22.55-.23.84.1l.24-.37c.33.13.36.42.16.57.09,0,.17-.07.24,0,.06.55-.39-.19-.5.27l.23,0c.1.35-.52.32-.82.29s-.64-.2-.67-.45l.44-.14c-.23-.19-.56.15-.82.16a.2.2,0,0,0-.08-.08.11.11,0,0,1,0,.07.22.22,0,0,1-.15-.1c-.23,0-.56.18-.78.11l0,.23,0-.13c.2,0,.49.12.35.3-.46.18-.58-.25-.71-.44.08-.36.46,0,.69-.16-.16-.33-.48,0-1-.2.17-.4.57,0,.66-.39-.41,0-.49.22-.92.18,0-.19.45-.24.4-.46l-.27-.09c.66-.07-.16-.46.35-.59-.26-.14-.32.34-.69.13.12.16.42.43.1.61l-.38-.07c-.18-.17.35-.45.09-.57l-.38.17c0,.11.22.14.11.31-.24-.1-.33.47-.57.67-.21,0-.38,0-.47-.12-.49.4-1.16.49-1.59.88.29-.28-.08-.38-.3-.52.37-.11.32-.46.26-.68-.23.07-.32.46-.19.56-.41-.09-.23.28-.61.1s0-.37,0-.49c-.43.07,0,.45-.51.45,0,0,.05-.07,0-.13a.5.5,0,0,0-.52.37c-.35-.4-.72.19-.76-.26-.57.23.14.22,0,.4s-.68.17-.83.14c.14-.05.25-.2.4-.16l-.18-.28c-.79-.05-.32.8-1.08.69.33-.24.07-.25.2-.51-.09.1-.67.14-.28.3a3.71,3.71,0,0,1-.66,0,1.46,1.46,0,0,0-.53.55,1.73,1.73,0,0,1-.91-.16c-.71.41-1.52.24-2.26.71h.06c-.64.13.4.32-.25.5,0-.39-.46-.14-.73-.27-.85.07-1.28.7-2.08.69a.19.19,0,0,1,.13-.24,8.1,8.1,0,0,0-1.51.45v-.05c-.9,0-1.5.59-2.28,1,.05-.07,0-.21.05-.28-.44.07-1.11.26-1.28.7-.61-.17-.28.23-1,.12-.06-.05,0-.08.08-.11a3.22,3.22,0,0,0-.88.2c-.59.49-.58,1-1.42,1.18-.24-.46.43-.31.3-.7-.12.15-.22.3-.48.27.05-.24,0-.13,0-.34-.22-.06-.47.77-.49.72,0,.1.11.13.26.05-.07.37-.76.33-1.09.61.12-.05.55-.11.49.18-.54.1-.53.63-.8,1-.56,0,.18-.55-.05-.85-.13-.09-.42-.28-.28-.5-.45.1-.63.51-1,.74l0-.1c-.51.25-.89.89-1.41.88l.28,0c-.06.09-.34.17-.41.42-.05-.16-.45-.16-.37-.35,0,.6-1.08.83-1.13,1.43-.2-.06-.18-.31-.19-.45.36-.11.52-.06.61-.34-.28.13-.55.1-.56,0-.14.44-.75.89-.73,1.27-.28-.05-.52,0-.58-.31-.76.63.83.53-.1,1.06-.56,0,.22-.58-.41-.3l.08-.11c-.81-.35,0,.63-.49.91-.29-.28.17-.45-.32-.47-.38.4-.19,1-.65,1.23l-.05-.18a9.16,9.16,0,0,0-.94.93c-.07,0,0-.07,0-.14-.53.39,0,.33-.54.57l.07.23c.26-.13.7-.38.74-.77,0,.38.7,0,.84.35l-.06-.14a15.57,15.57,0,0,0,2.6-.87c.3-.65.94-.33,1.39-.85-.11-.46.07-.14.54-.45-.25.17.11.34.3.32a.78.78,0,0,1,.26-.33c.17.1,1,.18,1.08-.22.38,0,0,.17,0,.29.22.17.19-.28.36-.17a.13.13,0,0,1,0,.08,8.1,8.1,0,0,1,1.35-.37c-.13-.44.44-.37.6-.61,0,.17.35,0,.53.07l.15-.43c.16-.38.45,0,.74-.25l-.11,0a1.64,1.64,0,0,1,1.32-.11c2-1.76,3.83-.95,6.24-2.05.12-.18-.2-.18-.14-.41a2.73,2.73,0,0,1,.54-.23c-.25,0-.17.09-.18,0l-.32.24s0-.05,0-.1-.22.22-.38.25c.18-.19.13-.53.47-.51,0,.05,0,.08-.11.13.26-.06.22-.22.44-.2s.16-.08.24.05l.76-.07c.23-.5.79-.28.92-.28,0,.32-.45.24-.53.58l.33.13-.06-.24.38-.05v.05c0-.1,0-.21.14-.16s.09.08,0,.11l.22-.21c-.08.29.25,0,.3.28.88-.13,1-.69,1.82-.54-.16-.09.12-.51.36-.52s.2.08.15.21l.26-.23c.5.34.8,0,1.39,0v.13a1,1,0,0,1,.68-.41v.26c.42.09.16-.59.62-.52-.06-.27-.36-.35-.46-.59.16.25.62.19.47,0,.4-.21.3-.06.35,0l.21-.22c.3-.05.17.33.1.51.21-.35.55-.22.88-.23l-.11.14.43,0a1.07,1.07,0,0,1,1-.3l-.18.4c.28.14.1-.15.16-.22.35-.25.48,0,.71.14C292.93,372.57,293.68,373.43,294.13,372.82Zm39,14.13v-.08C333.31,386.92,333.4,386.94,333.17,387Zm-2.45-2.52c.41.18.19.22.15.31-.24-.36-.48-.43-.67-.77a.69.69,0,0,1-.09.23.41.41,0,0,1-.07-.44C330.43,383.6,330.71,384.71,330.72,384.43Zm6.86,4.52h0Zm-1.66-1.39a.31.31,0,0,0,0-.21C335.88,387.44,335.85,387.52,335.92,387.56Zm-2.67-3.37c0-.18-.17-.3-.31-.39A1.79,1.79,0,0,0,333.25,384.19Zm-23.16-13.64c.14,0,.42-.1.23-.27-.13.1-.28-.17-.42,0l0,0A2.37,2.37,0,0,0,310.09,370.55Zm-12.63-.06c0-.15.1-.31,0-.42h0c0-.05-.07-.09,0-.12s-.22-.06-.29,0C297.2,370.43,297,370.52,297.46,370.49Z" transform="translate(-261.64 -362.43)"/>
      <path class="aa4a44e4-1289-425d-81af-3fb8305e1439" d="M301.7,368.48h0Z" transform="translate(-261.64 -362.43)"/>
      <path class="aa4a44e4-1289-425d-81af-3fb8305e1439" d="M297.22,370s.12.07.27.12C297.46,370,297.38,370,297.22,370Z" transform="translate(-261.64 -362.43)"/>
      <path class="aa4a44e4-1289-425d-81af-3fb8305e1439" d="M340.63,395.37l-.12-.07,0,.28a.83.83,0,0,0,.81.07c-.39-.17-.44-.41-.78-.75Z" transform="translate(-261.64 -362.43)"/>
      <path class="aa4a44e4-1289-425d-81af-3fb8305e1439" d="M341.8,394.25c0-.07.09-.25.06-.31l-.15,0Z" transform="translate(-261.64 -362.43)"/>
      <path class="aa4a44e4-1289-425d-81af-3fb8305e1439" d="M339.27,389.89l.16.39C339.61,390.3,339.49,389.8,339.27,389.89Z" transform="translate(-261.64 -362.43)"/>
      <path class="aa4a44e4-1289-425d-81af-3fb8305e1439" d="M338.41,392.86l.26.05c0-.22-.19-.4-.35-.32C338.55,392.72,338.28,392.7,338.41,392.86Z" transform="translate(-261.64 -362.43)"/>
      <path class="aa4a44e4-1289-425d-81af-3fb8305e1439" d="M338.61,389c-.3.09-.17-.39-.43-.27C338.31,388.8,338.38,389.21,338.61,389Z" transform="translate(-261.64 -362.43)"/>
      <path class="aa4a44e4-1289-425d-81af-3fb8305e1439" d="M336.69,391c-.13.27.18.27.29.5C336.85,391.39,336.89,391,336.69,391Z" transform="translate(-261.64 -362.43)"/>
      <path class="aa4a44e4-1289-425d-81af-3fb8305e1439" d="M336.57,388c.17-.12.27,0,.36.18a.61.61,0,0,1-.27,0,4,4,0,0,1,.56.29c-.06-.28-.24-.63,0-.77C336.93,387.66,336.56,387.68,336.57,388Z" transform="translate(-261.64 -362.43)"/>
      <path class="aa4a44e4-1289-425d-81af-3fb8305e1439" d="M336.28,390.61c.07.21,0,.42.18.6a.37.37,0,0,0,0-.52l.25-.08C336.65,390.3,336.51,390.9,336.28,390.61Z" transform="translate(-261.64 -362.43)"/>
      <path class="aa4a44e4-1289-425d-81af-3fb8305e1439" d="M336.21,386.74v.17c.34.09.52.43.86.35A1.89,1.89,0,0,0,336.21,386.74Z" transform="translate(-261.64 -362.43)"/>
      <path class="aa4a44e4-1289-425d-81af-3fb8305e1439" d="M336,389.57l-.28.19c.16.25.07-.09.2-.07s.08.21.17.21C335.78,389.69,336.23,389.71,336,389.57Z" transform="translate(-261.64 -362.43)"/>
      <path class="aa4a44e4-1289-425d-81af-3fb8305e1439" d="M335.05,389.11l-.35-.17-.09.46C335,389.63,334.78,389.27,335.05,389.11Z" transform="translate(-261.64 -362.43)"/>
      <path class="aa4a44e4-1289-425d-81af-3fb8305e1439" d="M334.92,388.62l0-.07-.74-.07A2.13,2.13,0,0,0,334.92,388.62Z" transform="translate(-261.64 -362.43)"/>
      <path class="aa4a44e4-1289-425d-81af-3fb8305e1439" d="M331.66,382.28c-.14.06,0,.43,0,.21C331.77,382.44,331.57,382,331.66,382.28Z" transform="translate(-261.64 -362.43)"/>
      <path class="aa4a44e4-1289-425d-81af-3fb8305e1439" d="M330.8,385.19c0-.19-.55-.39-.78-.47C330.26,384.85,330.69,385.36,330.8,385.19Z" transform="translate(-261.64 -362.43)"/>
      <path class="aa4a44e4-1289-425d-81af-3fb8305e1439" d="M329.92,384.69l.1,0Z" transform="translate(-261.64 -362.43)"/>
      <path class="aa4a44e4-1289-425d-81af-3fb8305e1439" d="M322.18,379.57h0Z" transform="translate(-261.64 -362.43)"/>
      <path class="aa4a44e4-1289-425d-81af-3fb8305e1439" d="M322.4,379.62a.45.45,0,0,0,.52.12,2.88,2.88,0,0,0-.74-.17C322.27,379.61,322.31,379.78,322.4,379.62Z" transform="translate(-261.64 -362.43)"/>
      <path class="aa4a44e4-1289-425d-81af-3fb8305e1439" d="M320.66,378.44c.14,0,.24.1.29,0S320.65,378.32,320.66,378.44Z" transform="translate(-261.64 -362.43)"/>
      <path class="aa4a44e4-1289-425d-81af-3fb8305e1439" d="M308.57,369c-.2-.11-.34-.08-.33.14C308.49,369.17,308.38,369,308.57,369Z" transform="translate(-261.64 -362.43)"/>
      <polygon class="aa4a44e4-1289-425d-81af-3fb8305e1439" points="46.32 6.68 46.31 6.57 46.2 6.38 46.32 6.68"/>
      <path class="aa4a44e4-1289-425d-81af-3fb8305e1439" d="M306.51,368.51a.18.18,0,0,1,.11-.07C306.53,368.45,306.45,368.46,306.51,368.51Z" transform="translate(-261.64 -362.43)"/>
      <path class="aa4a44e4-1289-425d-81af-3fb8305e1439" d="M306.66,368.43h0Z" transform="translate(-261.64 -362.43)"/>
      <path class="aa4a44e4-1289-425d-81af-3fb8305e1439" d="M306.75,368.52l0-.11-.13,0A.1.1,0,0,1,306.75,368.52Z" transform="translate(-261.64 -362.43)"/>
      <path class="aa4a44e4-1289-425d-81af-3fb8305e1439" d="M306.06,368.4l.24.36c.32-.11-.32-.22,0-.51Z" transform="translate(-261.64 -362.43)"/>
      <path class="aa4a44e4-1289-425d-81af-3fb8305e1439" d="M305,368.37c-.27-.14-.72.32-.84-.08-.8.11.11.65-.79.69.82.29.5-.68,1.23-.38C304.29,368.32,304.9,368.44,305,368.37Z" transform="translate(-261.64 -362.43)"/>
      <path class="aa4a44e4-1289-425d-81af-3fb8305e1439" d="M305.08,369c.07-.19-.28-.24-.4-.13C304.78,368.92,304.92,369.21,305.08,369Z" transform="translate(-261.64 -362.43)"/>
      <polygon class="aa4a44e4-1289-425d-81af-3fb8305e1439" points="41.84 5.92 41.61 5.75 41.54 5.86 41.84 5.92"/>
      <path class="aa4a44e4-1289-425d-81af-3fb8305e1439" d="M302.57,368.2l.25-.21C302.74,368.08,302.38,368,302.57,368.2Z" transform="translate(-261.64 -362.43)"/>
      <path class="aa4a44e4-1289-425d-81af-3fb8305e1439" d="M301.3,367.87c-.22-.09-.43.41,0,.32l-.11,0C301.26,368.09,301,367.9,301.3,367.87Z" transform="translate(-261.64 -362.43)"/>
      <path class="aa4a44e4-1289-425d-81af-3fb8305e1439" d="M298.37,368.66c.15,0,.32-.06.29-.17s-.28.07-.41.12Z" transform="translate(-261.64 -362.43)"/>
      <path class="aa4a44e4-1289-425d-81af-3fb8305e1439" d="M298.47,369.89c.14.31.37,0,.64.08A1.45,1.45,0,0,0,298.47,369.89Z" transform="translate(-261.64 -362.43)"/>
      <path class="aa4a44e4-1289-425d-81af-3fb8305e1439" d="M297.88,368.24c.1-.13.28-.06.39-.05C298.21,368,297.92,368.08,297.88,368.24Z" transform="translate(-261.64 -362.43)"/>
      <path class="aa4a44e4-1289-425d-81af-3fb8305e1439" d="M297.22,368.38c-.14-.11,0-.17-.08-.25a.67.67,0,0,0-.76.09c.08.13.21.48.11.65.44-.14.65-.73.9-.3l.36-.56C297.37,367.94,297.48,368.4,297.22,368.38Z" transform="translate(-261.64 -362.43)"/>
      <path class="aa4a44e4-1289-425d-81af-3fb8305e1439" d="M298.2,369.36l-.25-.17c.05.17-.13.22-.26.28C297.78,369.86,298.06,369.39,298.2,369.36Z" transform="translate(-261.64 -362.43)"/>
      <polygon class="aa4a44e4-1289-425d-81af-3fb8305e1439" points="33.06 6.4 32.55 6.55 32.72 6.55 33.06 6.4"/>
      <polygon class="aa4a44e4-1289-425d-81af-3fb8305e1439" points="32.71 6.31 32.69 6.2 32.31 6.45 32.71 6.31"/>
      <polygon class="aa4a44e4-1289-425d-81af-3fb8305e1439" points="32.15 6.24 32.21 6.25 32.51 6.12 32.15 6.24"/>
      <path class="aa4a44e4-1289-425d-81af-3fb8305e1439" d="M292.7,368.76l.12.15c.12-.06.41.08.35-.14A.38.38,0,0,1,292.7,368.76Z" transform="translate(-261.64 -362.43)"/>
      <path class="aa4a44e4-1289-425d-81af-3fb8305e1439" d="M290,373.54c.07-.12,0-.21-.08-.29l-.08.3S290,373.49,290,373.54Z" transform="translate(-261.64 -362.43)"/>
      <path class="aa4a44e4-1289-425d-81af-3fb8305e1439" d="M289.36,373.22l-.28.4c.41,0,.42-.31.76-.44-.17-.06-.33.21-.54.17Z" transform="translate(-261.64 -362.43)"/>
      <path class="aa4a44e4-1289-425d-81af-3fb8305e1439" d="M282.22,375c0-.21-.1-.15.12-.36a5,5,0,0,1-1,.46c.11.1-.12.42,0,.31l.41-.27,0,.16C282.08,375.29,281.85,375,282.22,375Z" transform="translate(-261.64 -362.43)"/>
      <path class="aa4a44e4-1289-425d-81af-3fb8305e1439" d="M263.34,380.6c0-.11-.14-.14-.25-.17C262.92,380.72,263.37,380.54,263.34,380.6Z" transform="translate(-261.64 -362.43)"/>
    </g>
    <g>
      <path class="aa4a44e4-1289-425d-81af-3fb8305e1439" d="M309.19,391.12c-.17.24,0,.1.15.1Z" transform="translate(-261.64 -362.43)"/>
      <path class="aa4a44e4-1289-425d-81af-3fb8305e1439" d="M309.34,391.22l.1.06A.1.1,0,0,0,309.34,391.22Z" transform="translate(-261.64 -362.43)"/>
      <path class="aa4a44e4-1289-425d-81af-3fb8305e1439" d="M310.37,391.64c-.29.15-.52-.2-.75.08A.44.44,0,0,0,310.37,391.64Z" transform="translate(-261.64 -362.43)"/>
      <polygon class="aa4a44e4-1289-425d-81af-3fb8305e1439" points="48.41 28.92 48.34 29.08 48.62 28.87 48.41 28.92"/>
      <polygon class="aa4a44e4-1289-425d-81af-3fb8305e1439" points="48.29 28.73 48.31 28.8 48.69 28.7 48.29 28.73"/>
      <path class="aa4a44e4-1289-425d-81af-3fb8305e1439" d="M311.18,392h-.26c-.18-.29.23-.28.11-.48-.31-.06-.22.47-.59.3,0,.23.62.14.48.47C311.22,392.43,311,392,311.18,392Z" transform="translate(-261.64 -362.43)"/>
      <path class="aa4a44e4-1289-425d-81af-3fb8305e1439" d="M326.56,393.5l0,0S326.58,393.47,326.56,393.5Z" transform="translate(-261.64 -362.43)"/>
      <path class="aa4a44e4-1289-425d-81af-3fb8305e1439" d="M330.71,394.18a.42.42,0,0,0,.16.11.54.54,0,0,0-.05-.11Z" transform="translate(-261.64 -362.43)"/>
      <path class="aa4a44e4-1289-425d-81af-3fb8305e1439" d="M323.85,393.56l-.14-.12A.19.19,0,0,0,323.85,393.56Z" transform="translate(-261.64 -362.43)"/>
      <path class="aa4a44e4-1289-425d-81af-3fb8305e1439" d="M344.47,392.86l.11,0h0l-.09,0Z" transform="translate(-261.64 -362.43)"/>
      <path class="aa4a44e4-1289-425d-81af-3fb8305e1439" d="M335.42,394.69a.67.67,0,0,0,.2,0C335.51,394.67,335.45,394.67,335.42,394.69Z" transform="translate(-261.64 -362.43)"/>
      <path class="aa4a44e4-1289-425d-81af-3fb8305e1439" d="M322.37,393.25l.06,0a.18.18,0,0,0-.07,0v0Z" transform="translate(-261.64 -362.43)"/>
      <path class="aa4a44e4-1289-425d-81af-3fb8305e1439" d="M329.48,393.41a.41.41,0,0,0,.14.08A.39.39,0,0,0,329.48,393.41Z" transform="translate(-261.64 -362.43)"/>
      <path class="aa4a44e4-1289-425d-81af-3fb8305e1439" d="M314.89,393.21a.19.19,0,0,0,.19,0C315.05,393.15,315,393.13,314.89,393.21Z" transform="translate(-261.64 -362.43)"/>
      <path class="aa4a44e4-1289-425d-81af-3fb8305e1439" d="M316.37,393.5h0C316.36,393.55,316.36,393.54,316.37,393.5Z" transform="translate(-261.64 -362.43)"/>
      <path class="aa4a44e4-1289-425d-81af-3fb8305e1439" d="M317.3,393.75h0S317.29,393.79,317.3,393.75Z" transform="translate(-261.64 -362.43)"/>
      <path class="aa4a44e4-1289-425d-81af-3fb8305e1439" d="M315.08,393.22c.09.16,0,.61.29.16v-.07c.07.13.25,0,.36,0a.49.49,0,0,0,0-.12,1.13,1.13,0,0,1-.23-.11C315.37,392.93,315.23,393.14,315.08,393.22Z" transform="translate(-261.64 -362.43)"/>
      <path class="aa4a44e4-1289-425d-81af-3fb8305e1439" d="M326.53,393.58c0-.09-.11-.07,0,0Z" transform="translate(-261.64 -362.43)"/>
      <path class="aa4a44e4-1289-425d-81af-3fb8305e1439" d="M325.18,393.65l.12.05A.13.13,0,0,0,325.18,393.65Z" transform="translate(-261.64 -362.43)"/>
      <path class="aa4a44e4-1289-425d-81af-3fb8305e1439" d="M320.45,392.44l0,0C320.49,392.42,320.47,392.42,320.45,392.44Z" transform="translate(-261.64 -362.43)"/>
      <path class="aa4a44e4-1289-425d-81af-3fb8305e1439" d="M325.42,393.73l-.12,0A.16.16,0,0,0,325.42,393.73Z" transform="translate(-261.64 -362.43)"/>
      <path class="aa4a44e4-1289-425d-81af-3fb8305e1439" d="M321.82,393s0,0,0,0Z" transform="translate(-261.64 -362.43)"/>
      <path class="aa4a44e4-1289-425d-81af-3fb8305e1439" d="M346,372.81c0,.1-.09.15-.13.25.33.2,0-.43.3-.13a.43.43,0,0,0-.09-.23l-.31.13C345.87,373,345.85,372.71,346,372.81Z" transform="translate(-261.64 -362.43)"/>
      <path class="aa4a44e4-1289-425d-81af-3fb8305e1439" d="M345.11,391.63l0,.05c.14,0,.19,0,.26-.17-.21-.14-.53.08-.77-.16a.26.26,0,0,1,0,.19A.57.57,0,0,1,345.11,391.63Z" transform="translate(-261.64 -362.43)"/>
      <path class="aa4a44e4-1289-425d-81af-3fb8305e1439" d="M344.55,391.54h0l-.08,0a.14.14,0,0,1,0,.09A.22.22,0,0,0,344.55,391.54Z" transform="translate(-261.64 -362.43)"/>
      <path class="aa4a44e4-1289-425d-81af-3fb8305e1439" d="M345.85,376.06l0,.11C345.88,376.12,345.88,376.08,345.85,376.06Z" transform="translate(-261.64 -362.43)"/>
      <path class="aa4a44e4-1289-425d-81af-3fb8305e1439" d="M334.26,398.45l-.15.06A.19.19,0,0,0,334.26,398.45Z" transform="translate(-261.64 -362.43)"/>
      <path class="aa4a44e4-1289-425d-81af-3fb8305e1439" d="M344.81,394a.56.56,0,0,0,0,.12v.07Z" transform="translate(-261.64 -362.43)"/>
      <path class="aa4a44e4-1289-425d-81af-3fb8305e1439" d="M341.82,386.25c.35.08,0-.06.17-.23l-.18-.15A.69.69,0,0,0,341.82,386.25Z" transform="translate(-261.64 -362.43)"/>
      <path class="aa4a44e4-1289-425d-81af-3fb8305e1439" d="M346.08,372.69h0Z" transform="translate(-261.64 -362.43)"/>
      <path class="aa4a44e4-1289-425d-81af-3fb8305e1439" d="M341.73,381.71l0-.08A.16.16,0,0,0,341.73,381.71Z" transform="translate(-261.64 -362.43)"/>
      <path class="aa4a44e4-1289-425d-81af-3fb8305e1439" d="M344.41,392.45l0,.58.08-.17C344.3,392.78,344.62,392.53,344.41,392.45Z" transform="translate(-261.64 -362.43)"/>
      <path class="aa4a44e4-1289-425d-81af-3fb8305e1439" d="M341.63,388.75l-.22.06c.46.57-.19,1.25.45,1.71-.75.71.67.45,0,1.11l.11,0c-.08,1.07-.17,2.17-.25,3.26l0,.81v.1h0v0l.15.27-.15-.14-.06,0a.55.55,0,0,0-.16-.09h0l-.13,0-1.06-.22c-1.41-.29-2.82-.57-4.21-.95-.33.07-.22.43-.51.54-.11,0-.36-.08-.32-.26.24-.05.15-.23.24-.29-.35-.06-.76-.37-1.12-.22l.21.29c-.14.07-.32,0-.43-.08.08-.1,0-.39.08-.43-.79.43-.45-.36-1.06-.26-.22.47-1,.71-1.54,1l-.21-.19c.31.08.07-.36.46-.24-.3-.22-.65-.08-.94-.23a.26.26,0,0,1-.16.33c-.18-.12-.14-.37-.35-.44l.25-.11c-.11-.21-.29,0-.43,0,0-.22-.31-.33-.2-.54-.36.21-.43,0-.79.13.28.3-.14.26-.15.43h.39c-.49-.26.18,0,.22-.36.21.22-.47.5,0,.54-.54.07-.6-.11-1.18.06.32,0-.11.22,0,.36-.39-.07-.06-.14-.13-.4-.21,0-.25-.25-.5,0-.32-.18.11-.25,0-.43.18-.21.88.51,1-.28.18,0,.46-.21.71-.14-.2-.15-.46-.47-.78-.36l-.11.43c-.21,0-.32.25-.47.17.11-.1,0-.32-.17-.32,0,.07.11.07.07.14-.32,0-.43.25-.82.25.28.18.31.32.56.58-.15.28-.21,0-.39,0,0,0,.07,0,0-.1l-.21.1c-.35-.22.15-.43-.13-.65s-.34.08-.47-.1l0,.08-.08,0v0c-.21,0-.42-.07-.53.14,0-.11-.19,0-.27,0s-.47.28-.55-.13h0c-.24-.1-.41-.26-.33-.37l-.39-.18.11-.29c-.39,0-.39.18-.72.43a1,1,0,0,0-.92-.14.38.38,0,0,0-.15,0l.13.16c-.29-.08-.29.08-.48,0,0,0,0,.05-.06,0l-.11-.05s.06,0,.1,0v-.11c-.16-.37-.4.1-.62-.07a.14.14,0,0,1,.09,0c-.12-.11-.23-.58-.34-.33,0,0-.09,0-.15.05l-.09-.07.09.07c-.08.07-.17.16-.16.1l-.35-.14a.25.25,0,0,0-.24,0l0-.14c-.14,0-.12-.09-.1-.12-.35-.52-.75.06-1.15-.42-.14.19,0,.33,0,.44s-.42.22-.59.3c-.15-.34-.76-.74-.56-1.12-.39-.12.07.28-.17.37l0,0a.64.64,0,0,1,.25.42c0,.22-.39.21-.48.12l.14-.3c-.39,0-.42.52-.72.78-.27-.19,0-.44,0-.73h-.32l.05-.23c-.22,0-.31.22-.57.07.25-.18-.37-.32,0-.55-.14-.12-.29.33-.3,0-.16.22.11.15.18.25,0,.38-.38.1-.59.15,0-.19.17-.19,0-.37-.08.13-.24.21-.32,0-.06.23-.26,0-.39-.05.13.08.3.29.16.48a.5.5,0,0,1-.48,0l.15.15c-.3.3-.3-.33-.62-.29.16-.11.23-.09.38-.24a4.15,4.15,0,0,1-.71.25l-.17-.4c-.07.17-.27-.08-.33.16-.27-.23.31-.23.39-.39-.36-.25-.4.32-.69-.13l.17-.19c-.12,0-.4,0-.39-.09,0,.08.05.07.13.08-.18.46-.65.2-.71.7l.16.07c-.28,0-.54.32-.71.1s.19-.3.31-.41c-.24-.08-.32.49-.61.38.14.11.07.28-.05.38.16.07.5.25.48,0l-.05-.06c0-.12.15-.15.21-.2.23.05.06.24.08.35.37.16.14-.48.5-.39l0,.11c.2-.09.47-.05.58-.33.09.35.43,0,.56.19-.12.7-.59-.18-.88.15.15.18-.18.3-.3.44l.66-.16c0,.1.12.49.28.26l0,0c.25,0,.25-.32.43-.18,0,.07-.07.17-.09.21.17.1.19-.12.33-.16.17.11-.16.26,0,.38.27-.22.32.14.51.16,0-.41.87-.36.54-.8l.51-.16c.1.23-.43.47-.38.83l-.36-.09c0,.5.82-.15.94.45.18.06.15,0,.46.31l0-.45a.59.59,0,0,1,.16.47.68.68,0,0,1,.31.08.28.28,0,0,1-.17.11c.09.28.15.19.23.08s.21,0,.33,0l-.14.13c.08,0,.17,0,.2-.12a.26.26,0,0,0,.15,0,1,1,0,0,0-.18-.5c.4.27.76.25,1,.7,0,.12-.23.24-.19.27s.42-.07.45-.26h.1c0,.12,0,.24.12.28a.15.15,0,0,0,.09.12c.15-.33.46-.08.58-.22a.55.55,0,0,0-.29-.09c.2-.19.39-.43.47-.22-.33.16.21.43-.23.43.2.51.23-.28.5-.05l.17.22c-.09.24-.36.05-.33.15h.14c-.18.16-.68-.08-1.07.13l.62.28c.89-.11,1.84.47,2.66.08h0a.58.58,0,0,0,.06-.16l0,.07.18-.16c.11.27.39.38.59.63-.12-.19-.12-.19-.09-.39s.14-.34.35-.2c0,.18-.18.15,0,.33-.07-.11,0-.22.14-.22s.32.22.28.4-.1,0-.14-.07.21.22,0,.32h.25c.1.18-.15.22-.12.33.43,0,.72-.4,1.11-.44,0,.09-.14.49-.11.37.25.19.69-.3,1-.26-.07.11-.18,0-.29.07a10.75,10.75,0,0,1,2.51,1.14l.33-.36.17.33a5.83,5.83,0,0,0,2.59.46c.28,0,.1.32.21.47.6.18.85-.25,1.46-.2-.11.1-.33.42-.08.5.07-.11.15-.29.29-.18l-.11.11c.1.22.28.07.56.22a2.2,2.2,0,0,0,1.65-.42c.46.15-.15.43-.08.54-.3-.22-.25,0-.35.15.2-.08.43-.1.45.21a.81.81,0,0,0,.64-.06c-.14.07-.21-.11-.07-.22.18.15.71.15.6.51,1.17.19,2.45.56,3.69.83.25-.14-.15-.11,0-.22.36-.17.21.19.5.05l-.15.17a.94.94,0,0,0,.59-.05l.87-.17c-.1.22.45.3,0,.34.24,0,.72,1.2,1,1-.18-.37-.34-.74-.48-1.1,0-.1.38.05.33,0a2.83,2.83,0,0,0,.81.61c.18.29-.29.13-.54.07.05.43,1,.49.7.81.57.06-.16-.25.13-.34l.54.21-.45-.24c.36,0,.3-.38.95,0a1.74,1.74,0,0,0,.22-.36c.31.4.42.15.74.3l0,.22a2.39,2.39,0,0,1,.47.14.38.38,0,0,1,.12-.16c.19.35.11.37.1.44s-.08,0,0,.11l.15.06.07-.24c-.18-.22-.33-.65-.44-.49a4.28,4.28,0,0,1-.6-2c.31-.13.28.66.59.77.13-.93-.82-1.75-.79-2.16.13-.57-.16-.64-.18-1.22.21.23.22-.4.43-.52l.22.27a.41.41,0,0,1,0-.27.14.14,0,0,1,.17-.05c-.29,0-.27-.56-.41-.85l-.25.05a1.51,1.51,0,0,1-.17-.8c-.08-.37-.3-.28-.57-.56a1,1,0,0,1,.75-.1c-.12.1-.05.27-.12.43.21.46.73.82.61,1.28.6.19-.07-.31.14-.54,0,0,.05,0,.05,0s0,0,0-.05c.08.16.17.43.48.47-.07-.28-.6-.19-.35-.54-.16-.25.31-.47.35-.62-.23-.17-.71-.17-.61-.59l.33.18c0-.48-.49-.22-.48-.66,0,.16-.33-.14-.33.15a.63.63,0,0,1-.12-.7c-.05-.06-.12,0-.23,0-.23.26.23.41-.11.63l.37.18a.36.36,0,0,1-.57.13c0,.07.07.13,0,.18-.55.05.19-.3-.27-.38l0,.18c-.35.08-.31-.41-.29-.63s.22-.49.48-.51l.11.34c.2-.18-.12-.43-.11-.63a.16.16,0,0,0,.08-.06l-.07,0a.17.17,0,0,1,.1-.11c0-.18-.14-.43-.06-.59l-.23,0,.13,0c0,.16-.15.38-.32.26-.16-.36.28-.43.48-.52.35.08,0,.35.12.53.34-.11,0-.37.26-.74.38.15,0,.43.34.51.07-.3-.2-.37-.11-.69.18,0,.2.34.42.32l.11-.2c0,.49.47-.09.56.29.16-.18-.31-.25-.07-.51-.16.07-.46.28-.61,0l.11-.28c.18-.12.4.28.56.1l-.13-.29c-.12,0-.17.15-.33.06.12-.17-.43-.27-.6-.47,0-.15,0-.28.16-.34-.34-.4-.33-.9-.64-1.27.22.25.38,0,.55-.16,0,.28.41.28.63.26a.43.43,0,0,0-.52-.2c.14-.29-.25-.2,0-.46s.35.08.48,0c0-.31-.43-.08-.34-.43,0,0,.06.05.12,0a.34.34,0,0,0-.27-.43c.47-.2-.05-.56.4-.52-.12-.45-.24.07-.4,0s0-.53,0-.63c0,.11.14.21.07.32l.31-.1c.22-.56-.71-.35-.44-.9.16.28.24.1.46.23-.08-.08,0-.51-.23-.25a1.84,1.84,0,0,1,.13-.48c-.12-.18-.2-.38-.41-.48a1.12,1.12,0,0,1,.39-.64c-.23-.6.15-1.15-.09-1.78l0,.05c.06-.5-.41.21-.4-.3.38.07.26-.3.46-.47.19-.62-.29-1.08,0-1.65a.17.17,0,0,1,.18.15,4.4,4.4,0,0,0,.06-1.19l0,0c.31-.64-.07-1.21-.16-1.87.05.06.19.07.24.11.09-.33.14-.86-.21-1.09.38-.39-.11-.26.25-.77.07,0,.06.05.08.09a2.34,2.34,0,0,0,.13-.68c-.25-.55-.74-.69-.6-1.34.52,0,.13.4.55.42-.09-.13-.2-.25-.08-.42.21.1.13,0,.32.09.14-.13-.54-.54-.49-.54-.11,0-.16,0-.14.17-.32-.16,0-.64-.16-.95,0,.1-.11.42-.36.3.11-.42-.39-.56-.6-.85.24-.39.44.28.8.21.14-.06.43-.22.57-.05.08-.35-.24-.6-.32-.91h.11c-.05-.43-.5-.9-.29-1.26l-.12.19c-.06-.07,0-.29-.24-.41.17,0,.32-.26.46-.15-.55-.19-.34-1-.86-1.2.14-.12.36,0,.49,0-.05.28-.16.37.06.51,0-.22.14-.39.26-.35-.34-.23-.48-.77-.82-.89.17-.17.26-.32.55-.26-.18-.7-.88.33-.88-.45.28-.36.38.35.47-.14l0,.09c.74-.35-.52-.26-.5-.66.4,0,.29.28.57,0-.1-.37-.69-.54-.56-.91l.17.06c0-.24,0-.7,0-.93.08,0,.07,0,.09.07.15-.44-.2-.19.07-.54l-.19-.11c-.14.18-.33.53-.1.76-.23-.23-.51.35-.85.23l.14.05a4.45,4.45,0,0,0-.87,2.1c.41.48-.16.81.12,1.32.47.08.09.09.19.53-.06-.23-.35,0-.42.12a.57.57,0,0,1,.21.29c-.16.09-.53.64-.21.84-.15.27-.15-.06-.25-.12-.24.11.19.22,0,.31a.18.18,0,0,1-.08,0,5.84,5.84,0,0,1-.15,1.08c.45,0,.17.42.33.61-.14-.07-.17.23-.25.35l.34.23c.29.23-.2.31-.05.61l.09-.07c.13.21-.14.77-.38,1,.9,2-.5,3-.25,5.11.14.13.24-.1.44,0a1.79,1.79,0,0,1,0,.45c.12-.17,0-.14.1-.12l-.13-.29s.05,0,.11,0-.13-.21-.11-.34c.12.18.46.23.33.48-.05,0-.06-.05-.09-.12,0,.21.14.22.05.37s0,.14-.12.17l-.18.58c.4.29,0,.65,0,.75-.3-.07-.09-.39-.39-.53l-.22.21h.24l-.06.3-.05,0c.1,0,.19.07.11.15s-.1,0-.12,0l.14.21c-.25-.12-.08.19-.36.16-.15.7.39.89,0,1.5.13-.1.45.2.4.39s-.14.13-.25.06l.15.25c-.45.31-.16.61-.31,1.07l-.13,0a.64.64,0,0,1,.23.6l-.25-.05c-.18.31.53.24.37.58.27,0,.41-.22.67-.26-.27.09-.31.45-.12.37.12.34,0,.23-.07.26l.17.2c0,.24-.36.08-.52,0,.3.22.09.47.05.72l-.13-.1L342,386a.71.71,0,0,1,.12.81l-.36-.2c-.18.2.13.11.19.16.18.31-.07.38-.27.54C342.05,387.83,341.08,388.33,341.63,388.75Zm-21.1,3.89,0,.06C320.45,392.74,320.38,392.78,320.53,392.64Zm2.64.71c-.35.06-.21-.08-.21-.19.29.17.49.1.75.28a.69.69,0,0,1,0-.24.32.32,0,0,1,.2.33C323.67,393.85,323.08,393.11,323.17,393.35Zm-6.4.36.06-.07h0Zm1.67.05a.21.21,0,0,0,.07.17C318.5,393.83,318.49,393.75,318.44,393.76Zm3.06,1.16c0,.16.22.16.35.15A1.23,1.23,0,0,0,321.5,394.92Zm20.31,4.46c-.12,0-.38.13-.13.3.11-.11.37.18.43,0l0,0A2.35,2.35,0,0,0,341.81,399.38Zm1.84-7.86c.15,0,.31.09.42,0v0c.05,0,.09,0,.12,0s.07-.16,0-.21C343.72,391.33,343.64,391.16,343.65,391.52Z" transform="translate(-261.64 -362.43)"/>
      <path class="aa4a44e4-1289-425d-81af-3fb8305e1439" d="M345.65,394.71s0-.06,0-.09A.37.37,0,0,0,345.65,394.71Z" transform="translate(-261.64 -362.43)"/>
      <path class="aa4a44e4-1289-425d-81af-3fb8305e1439" d="M344.2,391.36s-.08.09-.13.2S344.18,391.48,344.2,391.36Z" transform="translate(-261.64 -362.43)"/>
      <path class="aa4a44e4-1289-425d-81af-3fb8305e1439" d="M312,390.94l.1,0-.15-.19c-.35.09-.41.29-.54.51.33-.16.47,0,.84,0Z" transform="translate(-261.64 -362.43)"/>
      <path class="aa4a44e4-1289-425d-81af-3fb8305e1439" d="M311.77,392.55c0,.07.05.24.1.27l.08-.13Z" transform="translate(-261.64 -362.43)"/>
      <path class="aa4a44e4-1289-425d-81af-3fb8305e1439" d="M315.28,394.07l-.26-.19C314.9,394,315.19,394.28,315.28,394.07Z" transform="translate(-261.64 -362.43)"/>
      <path class="aa4a44e4-1289-425d-81af-3fb8305e1439" d="M314.54,391.29l-.19.13c.11.15.3.18.37,0C314.51,391.49,314.7,391.33,314.54,391.29Z" transform="translate(-261.64 -362.43)"/>
      <path class="aa4a44e4-1289-425d-81af-3fb8305e1439" d="M316.07,394.29c.15-.27.26.19.39-.07C316.36,394.29,316.15,394,316.07,394.29Z" transform="translate(-261.64 -362.43)"/>
      <path class="aa4a44e4-1289-425d-81af-3fb8305e1439" d="M316.47,391.55c0-.29-.24-.09-.41-.19C316.22,391.39,316.37,391.72,316.47,391.55Z" transform="translate(-261.64 -362.43)"/>
      <path class="aa4a44e4-1289-425d-81af-3fb8305e1439" d="M317.83,393.84c-.06.2-.18.16-.31.08.06-.05.11-.14.18-.16a1.85,1.85,0,0,1-.48.12c.15.19.41.34.32.59C317.72,394.31,318,394.07,317.83,393.84Z" transform="translate(-261.64 -362.43)"/>
      <path class="aa4a44e4-1289-425d-81af-3fb8305e1439" d="M316.93,391.62c-.14-.11-.19-.32-.38-.35,0,.15,0,.37.24.38l-.13.22C316.82,392.09,316.65,391.54,316.93,391.62Z" transform="translate(-261.64 -362.43)"/>
      <path class="aa4a44e4-1289-425d-81af-3fb8305e1439" d="M318.56,394.58l-.07-.13c-.26.14-.52,0-.71.26A1.21,1.21,0,0,0,318.56,394.58Z" transform="translate(-261.64 -362.43)"/>
      <path class="aa4a44e4-1289-425d-81af-3fb8305e1439" d="M317.59,392.23l.11-.32c-.21-.1,0,.11-.11.17s-.14-.11-.2-.06C317.65,392,317.35,392.29,317.59,392.23Z" transform="translate(-261.64 -362.43)"/>
      <path class="aa4a44e4-1289-425d-81af-3fb8305e1439" d="M318.39,392l.31-.08-.14-.41C318.21,391.59,318.5,391.74,318.39,392Z" transform="translate(-261.64 -362.43)"/>
      <path class="aa4a44e4-1289-425d-81af-3fb8305e1439" d="M318.68,392.33v.07l.53-.39A1.55,1.55,0,0,0,318.68,392.33Z" transform="translate(-261.64 -362.43)"/>
      <path class="aa4a44e4-1289-425d-81af-3fb8305e1439" d="M323.25,395.62c.07-.13-.13-.36-.06-.18S323.4,395.8,323.25,395.62Z" transform="translate(-261.64 -362.43)"/>
      <path class="aa4a44e4-1289-425d-81af-3fb8305e1439" d="M322.85,392.75c.09.14.53,0,.72,0C323.35,392.74,322.87,392.56,322.85,392.75Z" transform="translate(-261.64 -362.43)"/>
      <path class="aa4a44e4-1289-425d-81af-3fb8305e1439" d="M323.65,392.7l-.08,0Z" transform="translate(-261.64 -362.43)"/>
      <path class="aa4a44e4-1289-425d-81af-3fb8305e1439" d="M331,393.6l.06,0Z" transform="translate(-261.64 -362.43)"/>
      <path class="aa4a44e4-1289-425d-81af-3fb8305e1439" d="M330.79,393.64a.34.34,0,0,0-.43.11,2.05,2.05,0,0,0,.62-.15C330.9,393.6,330.82,393.47,330.79,393.64Z" transform="translate(-261.64 -362.43)"/>
      <path class="aa4a44e4-1289-425d-81af-3fb8305e1439" d="M332.42,394.09c-.11.07-.21,0-.21.14S332.46,394.2,332.42,394.09Z" transform="translate(-261.64 -362.43)"/>
      <path class="aa4a44e4-1289-425d-81af-3fb8305e1439" d="M344.42,401.16c.34.16.48.13.24-.14C344.35,401,344.61,401.14,344.42,401.16Z" transform="translate(-261.64 -362.43)"/>
      <polygon class="aa4a44e4-1289-425d-81af-3fb8305e1439" points="83.35 38.61 83.47 38.75 83.8 38.99 83.35 38.61"/>
      <path class="aa4a44e4-1289-425d-81af-3fb8305e1439" d="M346.14,400.44a.91.91,0,0,1,.09.22C346.2,400.51,346.17,400.38,346.14,400.44Z" transform="translate(-261.64 -362.43)"/>
      <path class="aa4a44e4-1289-425d-81af-3fb8305e1439" d="M346.24,400.73v0Z" transform="translate(-261.64 -362.43)"/>
      <path class="aa4a44e4-1289-425d-81af-3fb8305e1439" d="M346.17,400.8l.12.15c0-.05,0-.14-.05-.22S346.23,400.85,346.17,400.8Z" transform="translate(-261.64 -362.43)"/>
      <path class="aa4a44e4-1289-425d-81af-3fb8305e1439" d="M346.17,399.84l-.32.1c.16.56.16-.32.51.41Z" transform="translate(-261.64 -362.43)"/>
      <path class="aa4a44e4-1289-425d-81af-3fb8305e1439" d="M346.08,398.37c.1-.36-.41-1.09,0-1.16-.1-.57-.26-.53-.41-.53s-.3,0-.37-.53c-.19.91.73.67.53,1.59C346,397.35,346,398.15,346.08,398.37Z" transform="translate(-261.64 -362.43)"/>
      <path class="aa4a44e4-1289-425d-81af-3fb8305e1439" d="M345.44,398.17c.19.17.2-.27.07-.46C345.49,397.83,345.23,397.88,345.44,398.17Z" transform="translate(-261.64 -362.43)"/>
      <polygon class="aa4a44e4-1289-425d-81af-3fb8305e1439" points="84.26 33.8 84.41 33.48 84.28 33.39 84.26 33.8"/>
      <path class="aa4a44e4-1289-425d-81af-3fb8305e1439" d="M346,395.33l.22.17C346.1,395.44,346.12,395.19,346,395.33Z" transform="translate(-261.64 -362.43)"/>
      <path class="aa4a44e4-1289-425d-81af-3fb8305e1439" d="M346.24,394.4c.08-.17-.44-.31-.32,0l0-.07C346,394.37,346.2,394.19,346.24,394.4Z" transform="translate(-261.64 -362.43)"/>
      <path class="aa4a44e4-1289-425d-81af-3fb8305e1439" d="M345.43,392.25c0,.11.06.24.16.22l-.1-.3Z" transform="translate(-261.64 -362.43)"/>
      <path class="aa4a44e4-1289-425d-81af-3fb8305e1439" d="M344.19,392.31c-.31.11,0,.29-.07.49A.85.85,0,0,0,344.19,392.31Z" transform="translate(-261.64 -362.43)"/>
      <path class="aa4a44e4-1289-425d-81af-3fb8305e1439" d="M345.87,391.9c.13.08.05.21,0,.28C346.07,392.15,346,391.94,345.87,391.9Z" transform="translate(-261.64 -362.43)"/>
      <path class="aa4a44e4-1289-425d-81af-3fb8305e1439" d="M345.76,391.41c.13-.1.18,0,.26-.05a.39.39,0,0,0,0-.56,1,1,0,0,1-.65.05c.11.34.69.51.25.68l.54.28C346.2,391.54,345.73,391.6,345.76,391.41Z" transform="translate(-261.64 -362.43)"/>
      <path class="aa4a44e4-1289-425d-81af-3fb8305e1439" d="M344.74,392.12l.18-.19c-.18,0-.21-.1-.27-.19C344.26,391.79,344.71,392,344.74,392.12Z" transform="translate(-261.64 -362.43)"/>
      <polygon class="aa4a44e4-1289-425d-81af-3fb8305e1439" points="83.88 27.09 83.79 26.71 83.77 26.83 83.88 27.09"/>
      <polygon class="aa4a44e4-1289-425d-81af-3fb8305e1439" points="84.01 26.84 84.12 26.83 83.91 26.54 84.01 26.84"/>
      <polygon class="aa4a44e4-1289-425d-81af-3fb8305e1439" points="84.14 26.44 84.12 26.48 84.22 26.71 84.14 26.44"/>
      <path class="aa4a44e4-1289-425d-81af-3fb8305e1439" d="M345.85,388.06l-.16.07c0,.1-.15.3.08.28A.24.24,0,0,1,345.85,388.06Z" transform="translate(-261.64 -362.43)"/>
      <path class="aa4a44e4-1289-425d-81af-3fb8305e1439" d="M341.61,385.42a.32.32,0,0,0,.3,0l-.28-.11S341.67,385.39,341.61,385.42Z" transform="translate(-261.64 -362.43)"/>
      <path class="aa4a44e4-1289-425d-81af-3fb8305e1439" d="M342.07,384.94l-.33-.28c-.05.33.21.37.26.66.1-.12-.13-.29,0-.45Z" transform="translate(-261.64 -362.43)"/>
      <path class="aa4a44e4-1289-425d-81af-3fb8305e1439" d="M342.29,379.17c.21,0,.18,0,.32.17a2.5,2.5,0,0,1-.12-.88c-.13.06-.36-.19-.3-.06l.12.37-.14,0C342,379,342.4,378.89,342.29,379.17Z" transform="translate(-261.64 -362.43)"/>
      <path class="aa4a44e4-1289-425d-81af-3fb8305e1439" d="M344.44,364.11a.39.39,0,0,0,.29-.06C344.61,363.83,344.46,364.15,344.44,364.11Z" transform="translate(-261.64 -362.43)"/>
    </g>
  </g>
</svg>
