<svg id="a1689ef8-7939-40a6-ae57-4e37550fd06b" data-name="Layer 1" xmlns="http://www.w3.org/2000/svg" viewBox="0 0 74.45 57.53">
  <defs>
    <style>
      .f6510515-1abb-4230-870e-7cb95d0d36c9 {
        fill: #3d3d3d;
      }
    </style>
  </defs>
  <g>
    <g>
      <path class="f6510515-1abb-4230-870e-7cb95d0d36c9" d="M300.18,369.82c0-.3-.09-.05-.21.07Z" transform="translate(-225.73 -321.68)"/>
      <path class="f6510515-1abb-4230-870e-7cb95d0d36c9" d="M300,369.89l-.15,0A.15.15,0,0,0,300,369.89Z" transform="translate(-225.73 -321.68)"/>
      <path class="f6510515-1abb-4230-870e-7cb95d0d36c9" d="M298.66,370.48c.17-.35.65-.31.65-.69C298.93,369.8,298.55,370.13,298.66,370.48Z" transform="translate(-225.73 -321.68)"/>
      <polygon class="f6510515-1abb-4230-870e-7cb95d0d36c9" points="73.46 48.72 73.4 48.55 73.3 48.93 73.46 48.72"/>
      <polygon class="f6510515-1abb-4230-870e-7cb95d0d36c9" points="73.72 48.75 73.65 48.71 73.36 49.1 73.72 48.75"/>
      <path class="f6510515-1abb-4230-870e-7cb95d0d36c9" d="M297.65,370.93l.26-.2c.39.06,0,.38.25.42.35-.21-.13-.5.34-.7-.15-.17-.69.43-.81.07C297.27,370.63,297.78,370.71,297.65,370.93Z" transform="translate(-225.73 -321.68)"/>
      <path class="f6510515-1abb-4230-870e-7cb95d0d36c9" d="M279.11,378.33l-.05,0S279.1,378.37,279.11,378.33Z" transform="translate(-225.73 -321.68)"/>
      <path class="f6510515-1abb-4230-870e-7cb95d0d36c9" d="M273.44,378.2a1.09,1.09,0,0,0-.23-.09.39.39,0,0,0,.08.1Z" transform="translate(-225.73 -321.68)"/>
      <path class="f6510515-1abb-4230-870e-7cb95d0d36c9" d="M282.57,377.43l.22.06A.21.21,0,0,0,282.57,377.43Z" transform="translate(-225.73 -321.68)"/>
      <path class="f6510515-1abb-4230-870e-7cb95d0d36c9" d="M251.5,364.57a.2.2,0,0,0,.09-.05v0l-.11,0Z" transform="translate(-225.73 -321.68)"/>
      <path class="f6510515-1abb-4230-870e-7cb95d0d36c9" d="M267.09,377.25a.85.85,0,0,0-.26-.05A.43.43,0,0,0,267.09,377.25Z" transform="translate(-225.73 -321.68)"/>
      <path class="f6510515-1abb-4230-870e-7cb95d0d36c9" d="M284.54,377.11h-.08l.1,0,0,0Z" transform="translate(-225.73 -321.68)"/>
      <path class="f6510515-1abb-4230-870e-7cb95d0d36c9" d="M275.24,378.87a.56.56,0,0,0-.2-.06A.76.76,0,0,0,275.24,378.87Z" transform="translate(-225.73 -321.68)"/>
      <path class="f6510515-1abb-4230-870e-7cb95d0d36c9" d="M293.05,372.82a.24.24,0,0,0-.2.13C292.92,373,293,373,293.05,372.82Z" transform="translate(-225.73 -321.68)"/>
      <path class="f6510515-1abb-4230-870e-7cb95d0d36c9" d="M291.31,373.58h0S291.29,373.55,291.31,373.58Z" transform="translate(-225.73 -321.68)"/>
      <path class="f6510515-1abb-4230-870e-7cb95d0d36c9" d="M290.15,374l0,0S290.14,373.92,290.15,374Z" transform="translate(-225.73 -321.68)"/>
      <path class="f6510515-1abb-4230-870e-7cb95d0d36c9" d="M292.85,373c-.2-.07-.42-.46-.41.07l.06.05c-.15-.06-.25.18-.37.25l.09.09.31-.06C292.73,373.37,292.74,373.11,292.85,373Z" transform="translate(-225.73 -321.68)"/>
      <path class="f6510515-1abb-4230-870e-7cb95d0d36c9" d="M279.13,378.24c0,.09.16,0,0,0Z" transform="translate(-225.73 -321.68)"/>
      <path class="f6510515-1abb-4230-870e-7cb95d0d36c9" d="M280.85,377.8h-.17A.25.25,0,0,0,280.85,377.8Z" transform="translate(-225.73 -321.68)"/>
      <path class="f6510515-1abb-4230-870e-7cb95d0d36c9" d="M287.26,376.89h0C287.23,376.93,287.25,376.92,287.26,376.89Z" transform="translate(-225.73 -321.68)"/>
      <path class="f6510515-1abb-4230-870e-7cb95d0d36c9" d="M280.52,377.8h.16A.22.22,0,0,0,280.52,377.8Z" transform="translate(-225.73 -321.68)"/>
      <path class="f6510515-1abb-4230-870e-7cb95d0d36c9" d="M285.31,377.06h0Z" transform="translate(-225.73 -321.68)"/>
      <path class="f6510515-1abb-4230-870e-7cb95d0d36c9" d="M238.57,342.84c.08.1,0,.22,0,.34.4.12-.2-.5.21-.26a.58.58,0,0,0-.19-.24l-.22.28C238.56,343.12,238.4,342.78,238.57,342.84Z" transform="translate(-225.73 -321.68)"/>
      <path class="f6510515-1abb-4230-870e-7cb95d0d36c9" d="M250.82,363.05l0,.05c.07-.12.12-.13,0-.32-.28,0-.31.44-.7.4a.33.33,0,0,1,.16.17C250.37,363.13,250.6,363.07,250.82,363.05Z" transform="translate(-225.73 -321.68)"/>
      <path class="f6510515-1abb-4230-870e-7cb95d0d36c9" d="M250.33,363.35v0a.31.31,0,0,0,0,.08.41.41,0,0,1,.07.11A.41.41,0,0,0,250.33,363.35Z" transform="translate(-225.73 -321.68)"/>
      <path class="f6510515-1abb-4230-870e-7cb95d0d36c9" d="M240.17,346.61l0,.14C240.23,346.66,240.21,346.63,240.17,346.61Z" transform="translate(-225.73 -321.68)"/>
      <path class="f6510515-1abb-4230-870e-7cb95d0d36c9" d="M268.66,373.63l.18,0A.23.23,0,0,0,268.66,373.63Z" transform="translate(-225.73 -321.68)"/>
      <path class="f6510515-1abb-4230-870e-7cb95d0d36c9" d="M252.75,365.29a.54.54,0,0,0,.07.13l.08.06Z" transform="translate(-225.73 -321.68)"/>
      <path class="f6510515-1abb-4230-870e-7cb95d0d36c9" d="M243.73,359.91c.35-.13-.07-.05,0-.35l-.27,0A1.26,1.26,0,0,0,243.73,359.91Z" transform="translate(-225.73 -321.68)"/>
      <polygon class="f6510515-1abb-4230-870e-7cb95d0d36c9" points="12.88 20.98 12.85 20.99 12.86 21 12.88 20.98"/>
      <path class="f6510515-1abb-4230-870e-7cb95d0d36c9" d="M240.15,355v-.11A.14.14,0,0,0,240.15,355Z" transform="translate(-225.73 -321.68)"/>
      <path class="f6510515-1abb-4230-870e-7cb95d0d36c9" d="M251.07,364.26l.53.53-.1-.22C251.3,364.63,251.29,364.18,251.07,364.26Z" transform="translate(-225.73 -321.68)"/>
      <path class="f6510515-1abb-4230-870e-7cb95d0d36c9" d="M245.69,362.62l-.11.2c.86.27,1,1.38,1.87,1.4.12,1.22.88,0,1,1.09l.05-.1c1,1,2,2.16,3,3.17a19.53,19.53,0,0,0,3.4,2.54l-.1.12c3.4,2.78,7.39,4.51,11.45,6.08.43,0,.3-.39.68-.44.14.06.47.14.42.32-.31,0-.2.21-.32.25.47.13,1,.53,1.5.45l-.29-.34c.19-.05.43.1.57.16-.1.09.05.41-.09.43,1-.33.64.41,1.46.36.27-.46,1.3-.66,2-.89l.29.2c-.42-.09-.05.37-.58.23.42.23.87.13,1.28.26a.22.22,0,0,1,.17-.33c.25.09.24.34.54.4l-.32.13c.17.2.38,0,.57,0,0,.22.49.3.38.53.44-.24.57-.07,1-.2-.44-.27.14-.27.1-.45l-.52,0c.71.22-.23,0-.22.38-.32-.2.53-.54,0-.55.69-.11.82.07,1.53-.16-.42,0,.09-.23-.12-.36.52,0,.12.14.26.39.29,0,.39.23.66,0,.47.13-.08.27.16.42-.19.26-1.29-.39-1.21.4-.25,0-.58.25-.94.2.3.14.74.44,1.14.3l.05-.44c.29,0,.37-.27.57-.23-.11.13.08.32.32.29-.06-.06-.16-.05-.13-.13.44,0,.51-.31,1-.4a3.14,3.14,0,0,1-.89-.46c.11-.31.27,0,.51-.06,0,0-.09.05,0,.11l.25-.15c.52.14-.07.45.36.61s.41-.15.64,0l0-.08.11,0v0c.28-.05.58,0,.65-.27,0,.11.24,0,.33-.12s.5-.39.75,0h0c.34,0,.62.11.56.24l.57,0,0,.31c.5-.13.43-.31.74-.66a1.63,1.63,0,0,0,1.22-.25.43.43,0,0,0,.2,0l-.23-.09c.39-.05.32-.2.58-.24-.06,0-.07,0,.08,0h.15s-.07,0-.13,0l.07.09c.37.27.44-.27.79-.22l-.11.05c.2,0,.55.41.58.13.05,0,.1,0,.15-.11h.15l-.15,0c.07-.1.13-.22.15-.16a3.86,3.86,0,0,0,.49-.06.4.4,0,0,0,.3-.11l.11.1c.16-.06.18,0,.17.05.71.28.87-.44,1.6-.27.07-.24-.22-.25-.27-.36s.37-.43.51-.59c.37.21,1.3.15,1.3.6.53-.15-.24-.19,0-.42h.07a.79.79,0,0,1-.53-.2c-.11-.2.32-.41.47-.4v.34c.44-.27.18-.69.36-1.1.41,0,.3.34.48.59l.36-.23.08.23c.23-.16.21-.4.59-.45-.17.32.61,0,.38.43.22,0,.1-.46.32-.2,0-.29-.22-.05-.35-.09-.22-.31.36-.32.55-.52.09.17-.06.28.26.28a.24.24,0,0,1,.34-.25c-.09-.22.29-.18.45-.23-.19,0-.51,0-.49-.26a.81.81,0,0,1,.51-.35H294c.11-.44.55.05.85-.23-.08.21-.18.25-.24.47.13-.17.37-.5.57-.73l.46.17c-.05-.18.34-.15.23-.37.44,0-.17.41-.13.59.54-.09.19-.55.81-.44l0,.27c.15-.06.39-.32.46-.24,0-.07-.09,0-.19.05-.13-.47.51-.67.22-1.08l-.21.08c.26-.25.31-.67.62-.65s0,.37,0,.54c.3-.13,0-.61.33-.75-.22,0-.28-.15-.23-.32-.21.08-.67.23-.49.37h.09c.05.13,0,.23-.06.31-.27.15-.23-.12-.33-.18-.48.18.2.46-.22.67l-.09,0c-.14.22-.45.39-.36.69-.33-.2-.42.35-.71.28-.36-.61.74-.31.8-.78-.29,0,0-.36,0-.55l-.55.62c-.09-.06-.45-.27-.46,0h.06c-.24.21,0,.43-.32.46-.06,0,0-.18,0-.23-.25,0-.11.24-.23.37s0-.32-.23-.3c-.14.37-.44.13-.65.24.26.32-.67.9,0,1l-.44.49c-.25-.12.16-.68-.13-.93l.43-.17c-.27-.44-.76.71-1.27.29-.24.08-.16.12-.69.06l.24.39a.59.59,0,0,1-.46-.28,1.17,1.17,0,0,1-.38.14.27.27,0,0,1,.11-.2c-.26-.16-.28-.06-.29.09s-.2.17-.35.22l.08-.2c-.08.07-.17.15-.15.23a.51.51,0,0,0-.16.09,1,1,0,0,0,.5.31c-.6,0-1,.26-1.56.06,0-.12.11-.34.05-.34-.24,0-.43.3-.35.48l-.12.06c-.08-.1-.16-.19-.28-.18a.22.22,0,0,0-.17,0c0,.36-.47.32-.52.5a.88.88,0,0,0,.37-.08c-.12.28-.22.59-.42.45.29-.32-.46-.25,0-.5-.48-.32-.1.37-.54.32l-.3-.11c0-.26.38-.23.3-.31l-.17.08c.13-.23.81-.29,1.13-.69l-.84.1c-.93.56-2.27.51-3,1.21l0,0a.72.72,0,0,0,0,.18l-.05-.06-.14.22c-.24-.2-.62-.19-1-.33.22.13.22.13.27.32s0,.38-.33.32c0-.18.15-.2-.09-.32.13.08.05.22-.08.26s-.47-.09-.49-.27.14,0,.19,0-.33-.13-.12-.31l-.29.09c-.2-.13.08-.25,0-.34-.47.19-.69.62-1.14.79a1.63,1.63,0,0,0,0-.39c-.35-.09-.71.49-1.12.55.06-.13.21-.09.33-.15a10.32,10.32,0,0,1-3.35-.55l-.32.39-.28-.31a10.82,10.82,0,0,0-3.24-.26c-.36,0-.16-.33-.3-.48-.75-.21-1,.22-1.78.15.13-.1.38-.42.07-.5-.08.11-.16.28-.34.17l.13-.1c-.14-.23-.35-.09-.7-.24a3,3,0,0,0-2,.16c-.57-.23.2-.41.11-.54.36.28.31,0,.44-.09-.25.05-.53,0-.54-.29a1.24,1.24,0,0,0-.79,0c.18-.05.25.14.07.23-.21-.18-.86-.27-.69-.61-.69-.26-1.4-.57-2.12-.89l-1.08-.48c-.36-.17-.7-.39-1.05-.57-.32.05.14.17,0,.22-.46,0-.21-.27-.57-.24l.21-.12a3.6,3.6,0,0,0-1.49-.2c.18-.17-.23-.35.17-.29-.22-.07.09-1.1-.17-1l-.28.95c-.06.08-.3-.12-.31-.05-.07-.25-.14-.59-.26-.66.08-.24.32,0,.48.09.23-.32-.37-.56,0-.73-.35-.16-.06.21-.33.21l-.24-.27.15.27c-.3-.06-.55.15-.74-.25l-.55.11c.15-.29-.2-.21-.33-.38l.22-.1a.7.7,0,0,1-.35-.44c.28-.15.16.19.36,0l-.18-.25c-.11.16-.34.17-.23.38a1.13,1.13,0,0,1-1.27-.14c-.08-.42.44,0,.51-.36-.51-.49-1.18.13-1.49-.16-.35-.44-.5-.19-.94-.52.27-.06-.16-.42-.11-.64l.31,0c-.17-.06-.24-.22-.1-.31-.16.24-.73-.23-1.11-.36l-.11.23a2,2,0,0,1-.88-.55c-.39-.26-.46,0-.9-.07a.77.77,0,0,1,.43-.64c0,.18.2.27.3.47.57.26,1.25.17,1.63.61.58-.3-.35-.19-.43-.53a.06.06,0,0,1,.07,0,.1.1,0,0,1,0-.05c.21.07.53.21.77,0-.31-.17-.58.3-.75-.17-.34-.09-.22-.62-.33-.78-.3,0-.63.37-.95-.06l.39-.09c-.43-.41-.53.17-.93-.22.12.16-.36.11-.1.37a1,1,0,0,1-.72-.53c-.1,0-.1.07-.18.14.08.4.54.2.51.63l.42-.1c.13.31,0,.55-.28.52.08.05.17.07.17.16-.33.43-.14-.4-.53-.14l.19.12c-.17.33-.6-.13-.79-.35s-.3-.59-.14-.79l.4.22c0-.3-.49-.29-.67-.47a.45.45,0,0,0,0-.11.09.09,0,0,1,0,.06.23.23,0,0,1,0-.17c-.16-.15-.49-.28-.57-.49l-.15.17.11-.07c.13.16.22.46,0,.47-.43-.23-.18-.61-.11-.83.33-.16.3.34.54.43.16-.35-.28-.37-.44-.88.4-.12.37.41.69.24-.21-.32-.47-.21-.67-.57.16-.08.44.19.58,0l-.09-.26c.43.44.27-.41.66-.12,0-.27-.44,0-.48-.42-.06.18-.1.58-.42.45l-.16-.34c0-.23.54,0,.5-.28l-.34-.18c-.07.08,0,.25-.18.28-.06-.24-.56,0-.85,0-.13-.16-.22-.29-.17-.43-.59-.16-1-.63-1.57-.79.38.1.29-.26.31-.52.26.26.53,0,.69-.13-.17-.15-.54,0-.56.13-.12-.39-.35-.05-.36-.46,0-.24.33-.13.39-.28-.23-.32-.4.19-.6-.21,0,0,.08,0,.11,0a.43.43,0,0,0-.54-.26c.21-.48-.48-.53-.09-.76-.45-.38-.14.21-.34.22s-.44-.5-.46-.65c.09.1.27.13.3.28l.17-.28c-.25-.69-.84.07-1-.64.35.19.27,0,.55,0-.13,0-.37-.53-.38-.12a3.53,3.53,0,0,1-.23-.59,1.49,1.49,0,0,0-.67-.27,1.46,1.46,0,0,1-.13-.88c-.61-.51-.68-1.29-1.33-1.82l0,.05c-.28-.55-.22.46-.54-.1.37-.12,0-.47.1-.75-.23-.79-.93-1-1.07-1.8a.19.19,0,0,1,.26.07,6.86,6.86,0,0,0-.7-1.32h.06c-.12-.84-.74-1.33-1.2-2,.07,0,.21,0,.28,0-.11-.41-.35-1-.8-1.14.12-.61-.25-.25-.2-1,.05-.06.09,0,.12.06a5.64,5.64,0,0,0-.23-.83c-.49-.54-1-.51-1.18-1.32.46-.24.31.41.69.26-.14-.11-.29-.2-.27-.45.24,0,.13,0,.34,0,.06-.21-.76-.43-.71-.45-.1,0-.13.11-.05.25-.37-.05-.33-.73-.6-1.05,0,.12.1.54-.19.49-.1-.54-.63-.52-1-.79,0-.54.55.18.85,0,.09-.12.29-.41.5-.27-.1-.43-.5-.61-.69-1l.1,0c-.22-.5-.83-.91-.78-1.41l0,.27c-.08-.07-.14-.34-.39-.42.17,0,.2-.43.38-.33-.6-.06-.72-1.08-1.3-1.18.08-.18.33-.14.46-.13.07.34,0,.48.27.59-.1-.27,0-.51.1-.51-.41-.17-.78-.78-1.13-.83.11-.25.15-.47.44-.48-.4-.81-.73.67-1-.3.15-.52.48.33.4-.31l.08.1c.58-.64-.59-.17-.7-.68.37-.17.37.28.55-.15-.22-.42-.85-.47-.85-1l.19,0c-.11-.28-.19-.87-.3-1.16.08,0,.08,0,.11.07,0-.58-.26-.18-.11-.69l-.22-.08c-.07.25-.15.73.15,1-.3-.23-.37.56-.74.51l.15,0a6.59,6.59,0,0,0-.13,2.88c.55.49.11,1.08.6,1.62.48,0,.13.09.41.6-.16-.26-.35.08-.35.28a.84.84,0,0,1,.32.3c-.12.16-.24,1,.15,1.11,0,.38-.17,0-.29-.07-.18.22.27.21.16.38a.12.12,0,0,1-.09,0,9.89,9.89,0,0,1,.31,1.4c.44-.12.34.45.59.62-.16,0,0,.35-.06.53l.43.15c.39.17,0,.46.26.75l0-.11a1.69,1.69,0,0,1,.14,1.34,4.92,4.92,0,0,1,1,1.5,8,8,0,0,1,.52,1.47,10,10,0,0,0,1.19,3.23c.21.09.13-.22.38-.19a2.11,2.11,0,0,1,.33.49c0-.25-.11-.15,0-.19l-.3-.27s0,0,.09-.06a.76.76,0,0,1-.31-.35c.21.16.54.06.59.4-.05,0-.09,0-.15-.09.11.25.26.18.28.4s.12.15,0,.25l.23.75c.54.13.45.73.48.86-.31.08-.34-.4-.69-.41l0,.35.21-.11.15.38H239c.11,0,.21,0,.19.12s0,.1-.09.07l.26.18c-.3,0,.06.25-.21.36.35.88.9.83,1,1.71,0-.18.53,0,.62.21s0,.22-.16.21l.31.19c-.14.59.32.76.54,1.35l-.13.05a1.08,1.08,0,0,1,.64.54l-.24.09c.08.45.61-.05.73.43.22-.17.17-.49.36-.67-.17.25.07.67.17.46.37.29.19.25.16.32l.29.11c.19.26-.22.3-.42.3.42.05.45.43.62.73l-.18,0,.23.38a1.22,1.22,0,0,1,.75.77l-.44,0c0,.33.18,0,.27,0,.4.21.26.44.24.74C245.19,361.43,244.89,362.56,245.69,362.62Zm41.38,14.15-.07,0C287.11,376.63,287.18,376.56,287.07,376.77Zm-3.57.6c.41-.21.3,0,.35.07a9.86,9.86,0,0,1-1.06.05.45.45,0,0,1,.12.21.39.39,0,0,1-.38-.23C282.67,377.09,283.71,377.55,283.5,377.37Zm7.24-3.69a.29.29,0,0,1,0,.09h0Zm-1.85,1a.24.24,0,0,0-.18-.1C288.77,374.62,288.83,374.69,288.89,374.64Zm-4.08.57c-.12-.13-.32,0-.47,0A1.61,1.61,0,0,0,284.81,375.21Zm-24.71-4.57c.13,0,.41,0,.28-.21-.15.07-.21-.22-.39-.09,0,0,0,0,0,0A1.3,1.3,0,0,0,260.1,370.64ZM249.66,364c.12-.09.31-.14.34-.26l0,0c0-.05,0-.1.06-.11s-.1-.18-.18-.2C249.53,363.74,249.32,363.65,249.66,364Z" transform="translate(-225.73 -321.68)"/>
      <path class="f6510515-1abb-4230-870e-7cb95d0d36c9" d="M254,365.32l-.09-.07Z" transform="translate(-225.73 -321.68)"/>
      <path class="f6510515-1abb-4230-870e-7cb95d0d36c9" d="M249.91,363.44s0,.13.09.27C250,363.65,250,363.57,249.91,363.44Z" transform="translate(-225.73 -321.68)"/>
      <path class="f6510515-1abb-4230-870e-7cb95d0d36c9" d="M297.61,372.28l-.08.11h.29a.78.78,0,0,0,.17-.79c-.21.37-.47.39-.85.68Z" transform="translate(-225.73 -321.68)"/>
      <path class="f6510515-1abb-4230-870e-7cb95d0d36c9" d="M296.65,371a.72.72,0,0,0-.29-.12l0,.16Z" transform="translate(-225.73 -321.68)"/>
      <path class="f6510515-1abb-4230-870e-7cb95d0d36c9" d="M292.09,372.41l.4,0C292.54,372.21,292.06,372.18,292.09,372.41Z" transform="translate(-225.73 -321.68)"/>
      <path class="f6510515-1abb-4230-870e-7cb95d0d36c9" d="M294.69,374l.12-.23c-.22,0-.44.08-.41.26C294.59,373.88,294.5,374.13,294.69,374Z" transform="translate(-225.73 -321.68)"/>
      <path class="f6510515-1abb-4230-870e-7cb95d0d36c9" d="M291.14,372.75c0,.32-.39,0-.37.3C290.84,372.94,291.23,373,291.14,372.75Z" transform="translate(-225.73 -321.68)"/>
      <path class="f6510515-1abb-4230-870e-7cb95d0d36c9" d="M292.4,375.22c.22.21.33-.09.59-.13C292.79,375.17,292.41,375,292.4,375.22Z" transform="translate(-225.73 -321.68)"/>
      <path class="f6510515-1abb-4230-870e-7cb95d0d36c9" d="M289.51,374.22c0-.21.11-.25.3-.26,0,.08,0,.19-.11.24a2.9,2.9,0,0,1,.46-.39c-.28-.06-.65,0-.69-.29C289.36,373.76,289.24,374.11,289.51,374.22Z" transform="translate(-225.73 -321.68)"/>
      <path class="f6510515-1abb-4230-870e-7cb95d0d36c9" d="M291.85,375.47c.22,0,.41.13.64,0a.37.37,0,0,0-.51-.15v-.26C291.67,375,292.21,375.35,291.85,375.47Z" transform="translate(-225.73 -321.68)"/>
      <path class="f6510515-1abb-4230-870e-7cb95d0d36c9" d="M288.3,374l.14.07c.21-.26.59-.27.64-.61A1.85,1.85,0,0,0,288.3,374Z" transform="translate(-225.73 -321.68)"/>
      <path class="f6510515-1abb-4230-870e-7cb95d0d36c9" d="M290.73,375.41l.07.33c.29-.05-.06-.1,0-.21s.22,0,.26-.08C290.78,375.61,291,375.2,290.73,375.41Z" transform="translate(-225.73 -321.68)"/>
      <path class="f6510515-1abb-4230-870e-7cb95d0d36c9" d="M289.93,376.07a3.88,3.88,0,0,1-.31.26l.39.26C290.4,376.32,290,376.38,289.93,376.07Z" transform="translate(-225.73 -321.68)"/>
      <path class="f6510515-1abb-4230-870e-7cb95d0d36c9" d="M289.42,376l-.06-.05-.39.64A2.15,2.15,0,0,0,289.42,376Z" transform="translate(-225.73 -321.68)"/>
      <path class="f6510515-1abb-4230-870e-7cb95d0d36c9" d="M282.47,375.28c0,.15.29.29.14.14C282.66,375.3,282.22,375.16,282.47,375.28Z" transform="translate(-225.73 -321.68)"/>
      <path class="f6510515-1abb-4230-870e-7cb95d0d36c9" d="M284.16,377.77c-.17-.08-.67.21-.89.33C283.54,378,284.23,378,284.16,377.77Z" transform="translate(-225.73 -321.68)"/>
      <path class="f6510515-1abb-4230-870e-7cb95d0d36c9" d="M283.18,378.16l.09-.06Z" transform="translate(-225.73 -321.68)"/>
      <path class="f6510515-1abb-4230-870e-7cb95d0d36c9" d="M273.16,378.81a.11.11,0,0,0-.07,0Z" transform="translate(-225.73 -321.68)"/>
      <path class="f6510515-1abb-4230-870e-7cb95d0d36c9" d="M273.42,378.75c.15.06.49,0,.56-.14a3.87,3.87,0,0,0-.82.2C273.28,378.8,273.4,378.93,273.42,378.75Z" transform="translate(-225.73 -321.68)"/>
      <path class="f6510515-1abb-4230-870e-7cb95d0d36c9" d="M271.16,378.25c.13-.07.28,0,.27-.13S271.1,378.14,271.16,378.25Z" transform="translate(-225.73 -321.68)"/>
      <path class="f6510515-1abb-4230-870e-7cb95d0d36c9" d="M259.27,368.74c-.13-.18-.26-.19-.33,0C259.13,368.88,259.1,368.7,259.27,368.74Z" transform="translate(-225.73 -321.68)"/>
      <polygon class="f6510515-1abb-4230-870e-7cb95d0d36c9" points="32.98 46.97 33.01 46.86 32.99 46.66 32.98 46.97"/>
      <path class="f6510515-1abb-4230-870e-7cb95d0d36c9" d="M257.73,367.62a.24.24,0,0,1,.12,0C257.77,367.57,257.7,367.56,257.73,367.62Z" transform="translate(-225.73 -321.68)"/>
      <path class="f6510515-1abb-4230-870e-7cb95d0d36c9" d="M257.89,367.6h0Z" transform="translate(-225.73 -321.68)"/>
      <path class="f6510515-1abb-4230-870e-7cb95d0d36c9" d="M257.93,367.71l.08-.08-.12,0A.08.08,0,0,1,257.93,367.71Z" transform="translate(-225.73 -321.68)"/>
      <path class="f6510515-1abb-4230-870e-7cb95d0d36c9" d="M257.41,367.36l0,.41c.32,0-.16-.31.26-.44Z" transform="translate(-225.73 -321.68)"/>
      <path class="f6510515-1abb-4230-870e-7cb95d0d36c9" d="M256.62,366.88c-.13-.25-.72-.07-.6-.46-.68-.3-.26.6-1,.19.49.65.77-.32,1.18.28C256.08,366.49,256.48,366.88,256.62,366.88Z" transform="translate(-225.73 -321.68)"/>
      <path class="f6510515-1abb-4230-870e-7cb95d0d36c9" d="M256.33,367.46c.15-.12-.09-.34-.25-.3C256.14,367.23,256.11,367.55,256.33,367.46Z" transform="translate(-225.73 -321.68)"/>
      <polygon class="f6510515-1abb-4230-870e-7cb95d0d36c9" points="29.7 44.45 29.62 44.2 29.5 44.26 29.7 44.45"/>
      <path class="f6510515-1abb-4230-870e-7cb95d0d36c9" d="M254.83,365.56l.31,0C255,365.54,254.79,365.33,254.83,365.56Z" transform="translate(-225.73 -321.68)"/>
      <path class="f6510515-1abb-4230-870e-7cb95d0d36c9" d="M254.11,364.62c-.09-.2-.56.06-.18.27l-.06-.08C253.94,364.77,253.9,364.47,254.11,364.62Z" transform="translate(-225.73 -321.68)"/>
      <path class="f6510515-1abb-4230-870e-7cb95d0d36c9" d="M251.61,363.36c.1.1.26.17.32.07l-.35-.18Z" transform="translate(-225.73 -321.68)"/>
      <path class="f6510515-1abb-4230-870e-7cb95d0d36c9" d="M250.79,364.29c-.12.31.29.23.41.49C251,364.53,251.08,364.52,250.79,364.29Z" transform="translate(-225.73 -321.68)"/>
      <path class="f6510515-1abb-4230-870e-7cb95d0d36c9" d="M251.61,362.75c.16,0,.22.14.27.22C252,362.82,251.75,362.67,251.61,362.75Z" transform="translate(-225.73 -321.68)"/>
      <path class="f6510515-1abb-4230-870e-7cb95d0d36c9" d="M251.09,362.41c0-.18.14-.11.13-.23-.08-.29-.28-.49-.5-.48-.05.15-.25.47-.43.49.36.25.92,0,.76.45l.65-.14C251.51,362.21,251.24,362.59,251.09,362.41Z" transform="translate(-225.73 -321.68)"/>
      <path class="f6510515-1abb-4230-870e-7cb95d0d36c9" d="M251,363.73l-.05-.29c-.08.16-.23.06-.37,0C250.35,363.78,250.88,363.66,251,363.73Z" transform="translate(-225.73 -321.68)"/>
      <polygon class="f6510515-1abb-4230-870e-7cb95d0d36c9" points="23.58 39.14 23.19 38.84 23.28 38.97 23.58 39.14"/>
      <polygon class="f6510515-1abb-4230-870e-7cb95d0d36c9" points="23.47 38.82 23.54 38.74 23.14 38.6 23.47 38.82"/>
      <polygon class="f6510515-1abb-4230-870e-7cb95d0d36c9" points="23.23 38.36 23.25 38.41 23.52 38.56 23.23 38.36"/>
      <path class="f6510515-1abb-4230-870e-7cb95d0d36c9" d="M248.33,359.24l-.07.18c.12.06.14.36.3.2A.35.35,0,0,1,248.33,359.24Z" transform="translate(-225.73 -321.68)"/>
      <path class="f6510515-1abb-4230-870e-7cb95d0d36c9" d="M242.87,359.15c.15,0,.19-.09.24-.2l-.32.06S242.9,359.09,242.87,359.15Z" transform="translate(-225.73 -321.68)"/>
      <path class="f6510515-1abb-4230-870e-7cb95d0d36c9" d="M242.86,358.38l-.5-.11c.23.38.47.28.75.55,0-.19-.34-.23-.4-.44Z" transform="translate(-225.73 -321.68)"/>
      <path class="f6510515-1abb-4230-870e-7cb95d0d36c9" d="M238.91,351.83c.2-.08.13-.14.39,0a4,4,0,0,1-.68-.95c-.08.13-.45-.05-.31.07l.36.37h-.16C238.54,351.75,238.82,351.45,238.91,351.83Z" transform="translate(-225.73 -321.68)"/>
      <path class="f6510515-1abb-4230-870e-7cb95d0d36c9" d="M233.57,332.89c.11,0,.18-.07.25-.15C233.64,332.5,233.6,332.94,233.57,332.89Z" transform="translate(-225.73 -321.68)"/>
    </g>
    <g>
      <path class="f6510515-1abb-4230-870e-7cb95d0d36c9" d="M226.19,362.84c.24.16.1,0,.09-.15Z" transform="translate(-225.73 -321.68)"/>
      <path class="f6510515-1abb-4230-870e-7cb95d0d36c9" d="M226.28,362.69l.06-.11C226.29,362.6,226.28,362.64,226.28,362.69Z" transform="translate(-225.73 -321.68)"/>
      <path class="f6510515-1abb-4230-870e-7cb95d0d36c9" d="M226.68,361.65c.15.29-.19.52.1.74A.43.43,0,0,0,226.68,361.65Z" transform="translate(-225.73 -321.68)"/>
      <polygon class="f6510515-1abb-4230-870e-7cb95d0d36c9" points="0.67 40.3 0.84 40.36 0.61 40.09 0.67 40.3"/>
      <polygon class="f6510515-1abb-4230-870e-7cb95d0d36c9" points="0.48 40.42 0.55 40.4 0.45 40.03 0.48 40.42"/>
      <path class="f6510515-1abb-4230-870e-7cb95d0d36c9" d="M227,360.83v.26c-.28.19-.28-.22-.47-.09-.07.31.46.2.31.58.23,0,.12-.63.46-.5C227.44,360.78,227.06,361,227,360.83Z" transform="translate(-225.73 -321.68)"/>
      <path class="f6510515-1abb-4230-870e-7cb95d0d36c9" d="M227.29,345.53l0,0S227.26,345.52,227.29,345.53Z" transform="translate(-225.73 -321.68)"/>
      <path class="f6510515-1abb-4230-870e-7cb95d0d36c9" d="M227.39,341.39a.89.89,0,0,0,.09-.16.21.21,0,0,0-.1.06Z" transform="translate(-225.73 -321.68)"/>
      <path class="f6510515-1abb-4230-870e-7cb95d0d36c9" d="M227.67,348.18l-.1.15A.17.17,0,0,0,227.67,348.18Z" transform="translate(-225.73 -321.68)"/>
      <path class="f6510515-1abb-4230-870e-7cb95d0d36c9" d="M233.08,331.84a.23.23,0,0,0-.08.07h0l.09-.05Z" transform="translate(-225.73 -321.68)"/>
      <path class="f6510515-1abb-4230-870e-7cb95d0d36c9" d="M227.12,336.75a1.08,1.08,0,0,0,0-.19C227.08,336.67,227.09,336.72,227.12,336.75Z" transform="translate(-225.73 -321.68)"/>
      <path class="f6510515-1abb-4230-870e-7cb95d0d36c9" d="M227.52,349.67v-.06a.43.43,0,0,0,0,.07Z" transform="translate(-225.73 -321.68)"/>
      <path class="f6510515-1abb-4230-870e-7cb95d0d36c9" d="M226.82,342.69a.48.48,0,0,0,.05-.14A.3.3,0,0,0,226.82,342.69Z" transform="translate(-225.73 -321.68)"/>
      <path class="f6510515-1abb-4230-870e-7cb95d0d36c9" d="M228.06,357.08a.18.18,0,0,0,0-.19C228,356.93,228,357,228.06,357.08Z" transform="translate(-225.73 -321.68)"/>
      <path class="f6510515-1abb-4230-870e-7cb95d0d36c9" d="M228.27,355.59h0S228.3,355.6,228.27,355.59Z" transform="translate(-225.73 -321.68)"/>
      <path class="f6510515-1abb-4230-870e-7cb95d0d36c9" d="M228.45,354.65v0S228.5,354.66,228.45,354.65Z" transform="translate(-225.73 -321.68)"/>
      <path class="f6510515-1abb-4230-870e-7cb95d0d36c9" d="M228.06,356.89c.16-.1.61-.06.15-.3l-.07,0c.13-.07,0-.25,0-.36l-.12,0a1.49,1.49,0,0,1-.09.23C227.76,356.62,228,356.75,228.06,356.89Z" transform="translate(-225.73 -321.68)"/>
      <path class="f6510515-1abb-4230-870e-7cb95d0d36c9" d="M227.38,345.55c-.09,0-.06.11,0,0Z" transform="translate(-225.73 -321.68)"/>
      <path class="f6510515-1abb-4230-870e-7cb95d0d36c9" d="M227.61,346.86l0-.12A.17.17,0,0,0,227.61,346.86Z" transform="translate(-225.73 -321.68)"/>
      <path class="f6510515-1abb-4230-870e-7cb95d0d36c9" d="M226.9,351.63l0,0C226.88,351.59,226.88,351.61,226.9,351.63Z" transform="translate(-225.73 -321.68)"/>
      <path class="f6510515-1abb-4230-870e-7cb95d0d36c9" d="M227.66,346.62a.5.5,0,0,1,0,.12A.13.13,0,0,0,227.66,346.62Z" transform="translate(-225.73 -321.68)"/>
      <path class="f6510515-1abb-4230-870e-7cb95d0d36c9" d="M227.36,350.23s0,0,0,0S227.36,350.22,227.36,350.23Z" transform="translate(-225.73 -321.68)"/>
      <path class="f6510515-1abb-4230-870e-7cb95d0d36c9" d="M248.12,345.31c-.11,0-.09-.16-.15-.24-.35.17.37.23-.05.32a.4.4,0,0,0,.26,0l0-.33C248,345.11,248.27,345.25,248.12,345.31Z" transform="translate(-225.73 -321.68)"/>
      <path class="f6510515-1abb-4230-870e-7cb95d0d36c9" d="M233.49,333.11v-.05c-.08.12-.13.14-.06.3.25-.06.31-.45.65-.46a.24.24,0,0,1-.13-.13C233.89,333,233.68,333.06,233.49,333.11Z" transform="translate(-225.73 -321.68)"/>
      <path class="f6510515-1abb-4230-870e-7cb95d0d36c9" d="M233.94,332.77v0a.24.24,0,0,0,0-.08.13.13,0,0,1,0-.09A.31.31,0,0,0,233.94,332.77Z" transform="translate(-225.73 -321.68)"/>
      <path class="f6510515-1abb-4230-870e-7cb95d0d36c9" d="M245.38,343.43l-.07-.08C245.32,343.43,245.35,343.45,245.38,343.43Z" transform="translate(-225.73 -321.68)"/>
      <path class="f6510515-1abb-4230-870e-7cb95d0d36c9" d="M231,337.22l.09.14A.2.2,0,0,0,231,337.22Z" transform="translate(-225.73 -321.68)"/>
      <path class="f6510515-1abb-4230-870e-7cb95d0d36c9" d="M232.36,331.62a.3.3,0,0,0,0-.1l0,0Z" transform="translate(-225.73 -321.68)"/>
      <path class="f6510515-1abb-4230-870e-7cb95d0d36c9" d="M239.67,334.16c-.29.22.06,0,.06.28l.23-.05C239.89,334.26,239.76,334.23,239.67,334.16Z" transform="translate(-225.73 -321.68)"/>
      <path class="f6510515-1abb-4230-870e-7cb95d0d36c9" d="M248.17,345.46l0,0h0Z" transform="translate(-225.73 -321.68)"/>
      <path class="f6510515-1abb-4230-870e-7cb95d0d36c9" d="M243.18,336.83l0,.08A.13.13,0,0,0,243.18,336.83Z" transform="translate(-225.73 -321.68)"/>
      <path class="f6510515-1abb-4230-870e-7cb95d0d36c9" d="M233.38,332l-.35-.37.05.17C233.23,331.74,233.17,332.13,233.38,332Z" transform="translate(-225.73 -321.68)"/>
      <path class="f6510515-1abb-4230-870e-7cb95d0d36c9" d="M238,332.44l.11-.19c-.73,0-.78-.94-1.54-.77,0-1-.78.19-.8-.73l-.05.09c-.42-.48-2.15-2.25-3.54-3.84a46.51,46.51,0,0,0-4.11-4.11l-.13-.35-.77-.86c-.08,2.7,0,5.77,0,8.71,0,3.52,0,4.15-.11,5.79.13.3.46.14.62.4,0,.11,0,.35-.2.35-.09-.22-.26-.11-.32-.18,0,.35-.24.79,0,1.12l.25-.25c.1.12,0,.31,0,.42-.12-.05-.38.09-.44,0,.56.69-.28.5-.08,1.07.5.14.87.86,1.2,1.34l-.15.24c0-.32-.36,0-.32-.42-.16.32,0,.65-.07,1a.24.24,0,0,1,.34.1c-.08.19-.34.19-.38.41l-.14-.23c-.2.13,0,.27.06.41-.21,0-.28.36-.51.28.27.32.1.41.25.74.26-.31.27.11.45.09l-.05-.38c-.18.51,0-.18-.39-.17.19-.23.57.39.54,0,.15.51,0,.6.23,1.14,0-.31.23.08.35-.08,0,.39-.13.09-.37.19,0,.21-.22.27,0,.49-.14.33-.26-.08-.42.09-.24-.15.39-.93-.41-.91,0-.18-.27-.42-.23-.68-.13.22-.41.52-.26.81l.44.05c0,.21.29.29.24.43-.12-.09-.32,0-.3.21.07,0,.06-.11.13-.08,0,.31.31.39.36.77.14-.3.28-.35.5-.62.3.1,0,.21,0,.38,0,0,0-.07-.11,0l.13.19c-.17.38-.45-.09-.63.22s.12.31,0,.47l.08,0a.34.34,0,0,1,0,.08h0c0,.21,0,.43.2.51-.11,0,0,.18.08.26s.33.42-.07.55h0c-.07.25-.2.44-.32.37l-.14.4-.3-.08c0,.38.22.37.5.66a1,1,0,0,0,0,.92.3.3,0,0,0,0,.15l.14-.14c-.05.29.12.28.09.47,0,0,.06,0,0,.06l0,.11s0-.06,0-.1l-.11,0c-.35.2.14.39,0,.62,0,0,0-.07,0-.09s-.56.27-.3.37c0,0,0,.08.06.14l-.05.09a.19.19,0,0,1,.05-.09c.08.07.18.15.12.15l-.1.35c-.06.06,0,.16,0,.24l-.13,0c0,.14-.07.13-.11.11-.49.39.12.73-.32,1.16.19.13.32-.06.43-.06s.25.4.34.56c-.31.17-.67.8-1.06.63-.1.4.27-.08.38.14l0,0a.66.66,0,0,1,.4-.27c.23,0,.24.37.15.47l-.3-.13c0,.39.54.39.82.67-.17.28-.43.06-.73.08l0,.32-.24,0c0,.21.25.29.11.56-.19-.24-.29.38-.54.05-.11.14.34.26,0,.29.24.15.15-.12.25-.18.37,0,.12.37.18.57-.19,0-.2-.16-.37,0,.14.07.22.23,0,.33.24,0,0,.25,0,.37.07-.13.28-.3.47-.17a.49.49,0,0,1,0,.47l.14-.15c.31.27-.31.31-.25.63-.13-.15-.11-.23-.27-.37a3.77,3.77,0,0,1,.29.69l-.39.19c.17.06-.07.27.17.32-.22.28-.24-.3-.41-.37-.23.36.34.39-.09.69l-.2-.16c0,.12,0,.39-.07.38.08,0,0-.05.07-.13.46.17.22.63.72.68l.07-.16c0,.28.34.53.13.7s-.31-.18-.42-.29c-.08.24.5.3.4.59.11-.14.27-.08.38,0,.07-.16.23-.5,0-.48l-.06.05c-.12,0-.15-.14-.21-.2,0-.23.24-.07.35-.1.15-.37-.49-.12-.4-.47l.1,0c-.1-.2-.06-.46-.36-.57.35-.09-.05-.42.17-.56.71.1-.16.6.19.87.17-.16.31.17.45.28l-.19-.65c.11,0,.49-.14.25-.29l0,0c0-.25-.33-.24-.2-.42.06,0,.17.06.21.09.1-.18-.13-.19-.17-.33s.27.15.37,0c-.23-.27.12-.34.14-.53-.41,0-.41-.84-.83-.49l-.19-.5c.23-.1.5.41.86.34l-.08.35c.5,0-.19-.8.4-1,.05-.19,0-.15.28-.48h-.45a.61.61,0,0,1,.46-.19.81.81,0,0,1,0-.31.29.29,0,0,1,.13.16c.26-.11.18-.16.06-.23s-.07-.21,0-.33l.15.13c0-.08-.06-.17-.14-.19a.26.26,0,0,0,0-.15,1,1,0,0,0-.5.21c.25-.41.21-.77.63-1.09.12,0,.26.21.28.17s-.1-.42-.29-.43a.49.49,0,0,1,0-.11c.12,0,.24,0,.27-.13a.17.17,0,0,0,.11-.11c-.34-.11-.11-.45-.26-.55a.69.69,0,0,0-.07.29c-.21-.18-.46-.36-.25-.45.18.32.41-.24.44.19.49-.23-.29-.2-.09-.49l.21-.18c.25.07.08.35.18.31v-.14c.17.17,0,.68.2,1.06l.24-.65c-.18-.87.3-1.87-.17-2.65v0a.49.49,0,0,0-.17-.05l.07,0-.18-.16c.26-.13.34-.42.56-.66-.17.14-.17.14-.37.14s-.35-.1-.23-.33c.18,0,.16.17.32,0-.1.08-.22,0-.23-.12s.19-.34.37-.32,0,.11-.06.15.2-.24.32,0l0-.24c.17-.13.23.12.33.07-.07-.41-.47-.67-.55-1l.38.06c.15-.27-.38-.65-.38-1,.12.06.06.17.11.27a11.05,11.05,0,0,1,.81-2.64l-.4-.27.3-.22a5.71,5.71,0,0,0,.07-2.63c0-.29.31-.15.43-.28.09-.63-.37-.81-.43-1.41.12.09.48.25.51,0-.12-.05-.31-.09-.22-.25l.12.09c.2-.14,0-.3.13-.6a2.25,2.25,0,0,0-.7-1.55c.06-.48.45.07.54,0-.17.34.07.24.21.32-.11-.18-.17-.4.13-.48a.83.83,0,0,0-.18-.62c.1.13-.07.23-.2.11.11-.21,0-.73.39-.69,0-.6,0-1.22,0-1.86,0-.43,0-.41,0-.52a2.17,2.17,0,0,0,0-.26c-.19-.19-.08,0-.21-.12-.25-.29.13,0-.07-.23l.2.2c0-.07-.34-.57-.52-1,.23.31.19.12.32.41,0-.15,1,1.23.78,1-.32-.47-.63-.91-.95-1.32-.1-.14,0-.17-.1-.25.19.2.41.49.41.46.24.39.19.37.18.4.4.61.26.33.63,1l-.36-.61.09.12-.14-.21c-.12-.24-.42-.85-.2-.5l-.4-.91c.32.66.06.05.14.14l.2.49c0-.08,0,0,.16.27.28.68-.07-.12.2.5l.09.2c-.18-.43-.32-.81-.43-1l-.28-.73c-.15-.43-.21-.66-.05-.48.31.76.14.53.43,1.26.17.36-.42-1.55-.24-1.31.24.41.08-.14.28,0,0,.3.2.51.27.86v.3c0-.07.07.1.09.34-.07-.47.11-.27.21-.35v-.35a.28.28,0,0,1,.37.13c.2.08.23-.2.52-.29a1.45,1.45,0,0,1-.29.76c0-.16-.09-.16-.14-.3-.3,0-.45.57-.55.3,0,.8.07,0,.13.32a.14.14,0,0,1,0,.06s0,0,0,0-.1.13-.09.56c0-.07.05-.78.09-.38.08-.15,0,.43,0,.47.09-.23.28-.71.35-.51a1.73,1.73,0,0,0-.19.28c.07.08.28-.41.4-.27,0-.08.26-.2.16-.32a.24.24,0,0,1,.23,0,.73.73,0,0,1,.24.3c.08,0,.09-.08.18-.15,0-.36-.46-.13-.34-.47a1.61,1.61,0,0,0-.3.21c0-.21.08-.5.25-.54,0,0-.11,0-.11-.1.25-.52.07.34.38,0l-.14-.07c.13-.37.47,0,.62.18s.19.5,0,.7l-.32-.15c0,.26.39.21.53.35a.14.14,0,0,0,0,.09l0-.06a.16.16,0,0,1,0,.15c.12.13.42.19.48.35l.14-.18-.1.08c-.11-.11-.18-.36,0-.4.37.12.12.49,0,.7-.29.2-.25-.24-.47-.28-.15.33.25.28.37.69-.37.19-.32-.29-.61-.09.18.25.42.11.58.39-.14.1-.38-.09-.52.09l.08.22c-.39-.32-.25.4-.6.21,0,.24.39-.06.43.3,0-.17.1-.54.39-.48l.13.27c0,.22-.49.11-.45.35l.3.1c.07-.09,0-.23.17-.29,0,.21.5-.13.76-.12s.2.21.15.34c.53,0,.91.36,1.39.36-.34,0-.24.3-.24.53-.25-.16-.48.11-.62.3a.43.43,0,0,0,.5-.26c.13.3.31-.06.36.29s-.29.22-.34.36c.24.22.35-.28.56,0,0,0-.07,0-.1.08a.36.36,0,0,0,.51.07c-.14.48.47.32.15.64.43.2.1-.23.27-.29s.44.31.47.43c-.09-.06-.25,0-.29-.16l-.12.31c.3.53.72-.32,1,.23-.32-.05-.22.12-.47.21.12,0,.4.32.35,0a2.34,2.34,0,0,1,.3.41,1.23,1.23,0,0,0,.63,0,1.17,1.17,0,0,1,.27.7c.61.19.83.83,1.49,1l0,0c.36.34.07-.47.48-.15-.28.27.09.39.11.65.4.53,1.05.41,1.38.95a.19.19,0,0,1-.24.07,4.66,4.66,0,0,0,1,.74l0,0c.36.61,1.05.63,1.66.92-.07,0-.16.13-.23.14.24.26.67.59,1.05.43.14.53.28,0,.53.63,0,.07-.08,0-.12,0,.15.24.32.3.52.47.61.09,1-.26,1.47.2-.24.46-.41-.1-.64.25.16,0,.31,0,.4.16-.19.11-.08.09-.24.22.05.19.75-.18.72-.14s.05-.15-.07-.21c.29-.19.56.31.91.35-.09-.06-.32-.3-.09-.46.31.31.68-.06,1-.1.22.4-.46.24-.58.6,0,.14,0,.47-.23.52.27.24.65.09,1,.18l-.06.08c.4.18,1,0,1.26.36l-.12-.2c.09,0,.27.11.48,0-.09.15.09.42-.08.49.43-.4,1,.17,1.46-.19,0,.17-.14.33-.23.42-.22-.17-.25-.31-.48-.18.2.1.29.3.2.4.36-.2.91-.08,1.16-.33.08.22.18.38,0,.61.71.15.08-.94.78-.59.21.41-.47.18-.07.48h-.1c0,.82.45-.35.8-.15-.12.38-.37.13-.25.51.39.07.79-.4,1.07-.13l-.13.13c.23.07.62.34.84.41,0,.07,0,.05-.09.05.33.32.24-.11.46.29l.17-.13c-.11-.2-.34-.53-.64-.41.3-.12-.12-.61.13-.87l-.1.1c-.29-.77-.94-1.15-1.5-1.68-.6.16-.64-.5-1.21-.47-.28.38-.13,0-.55-.08.23.06.18-.3.09-.42a.56.56,0,0,1-.35.05c0-.18-.31-.77-.63-.58-.16-.25.12-.1.22-.16,0-.26-.28.06-.28-.12a.15.15,0,0,1,.07-.05,3.9,3.9,0,0,1-.84-.64c-.25.38-.44,0-.68,0,.12-.1-.12-.26-.18-.4l-.36.19c-.34.14-.17-.32-.49-.34l0,.11c-.25,0-.58-.51-.63-.82-2.11-.23-2.25-2-4-2.89-.19,0,0,.24-.25.35a1.31,1.31,0,0,1-.39-.21c.07.19.13.05,0,.15l.31.05s0,0-.05.1.24,0,.33.09c-.21,0-.44.25-.57,0,0,0,.08,0,.14,0-.15-.13-.25,0-.32-.16s-.13-.06-.07-.19l-.36-.48c-.46.17-.53-.35-.58-.43.22-.22.36.14.64,0l0-.3-.15.19-.2-.23,0,0c-.09.05-.17.11-.18,0s0-.11.06-.1h-.25c.24-.14-.11-.17.09-.38-.47-.51-.93-.2-1.17-.87,0,.17-.43.25-.54.1s0-.19.09-.24l-.28,0c0-.54-.38-.49-.63-.88l.1-.09a.67.67,0,0,1-.6-.18l.19-.18c-.12-.32-.51.28-.67-.05-.17.21-.09.45-.23.68.11-.27-.14-.52-.2-.32-.33-.11-.18-.14-.16-.21H240c-.17-.15.17-.32.34-.39-.36.09-.41-.22-.57-.41l.16,0-.22-.25a.7.7,0,0,1-.68-.41l.38-.15c0-.27-.16,0-.24.05-.34-.06-.24-.29-.23-.55C238.35,333.35,238.62,332.31,238,332.44Zm-10.86,19.09.06,0C227.2,351.61,227.25,351.67,227.09,351.53Zm.44-2.66c.1.34-.05.21-.16.23.14-.31,0-.5.2-.77a.55.55,0,0,1-.24,0,.32.32,0,0,1,.31-.23C228,348.33,227.31,349,227.53,348.87Zm.92,6.3-.07-.05h0Zm-.07-1.65a.34.34,0,0,0,.17-.09C228.45,353.44,228.36,353.46,228.38,353.52Zm.89-3.15c.16-.06.13-.23.11-.36A1.16,1.16,0,0,0,229.27,350.37Zm1.14-19.09a1.21,1.21,0,0,0,.31.49c-.13-.22.09,0-.1-.29h0A1.76,1.76,0,0,0,230.41,331.28Zm4.16.84c-.11.1-.27.17-.31.28l0,0c0,.05,0,.1-.06.11s.07.16.14.16C234.67,332.3,234.84,332.36,234.57,332.12Z" transform="translate(-225.73 -321.68)"/>
      <path class="f6510515-1abb-4230-870e-7cb95d0d36c9" d="M232,332.37h0Z" transform="translate(-225.73 -321.68)"/>
      <path class="f6510515-1abb-4230-870e-7cb95d0d36c9" d="M234.31,332.63s0-.12-.05-.23C234.23,332.46,234.24,332.53,234.31,332.63Z" transform="translate(-225.73 -321.68)"/>
      <path class="f6510515-1abb-4230-870e-7cb95d0d36c9" d="M225.93,360.09l0-.1-.17.15c.1.34.3.4.52.52-.17-.32,0-.47,0-.84Z" transform="translate(-225.73 -321.68)"/>
      <path class="f6510515-1abb-4230-870e-7cb95d0d36c9" d="M227.55,360.23c.06,0,.24-.07.26-.11l-.13-.07Z" transform="translate(-225.73 -321.68)"/>
      <path class="f6510515-1abb-4230-870e-7cb95d0d36c9" d="M228.91,356.64l-.18.28C228.84,357,229.12,356.73,228.91,356.64Z" transform="translate(-225.73 -321.68)"/>
      <path class="f6510515-1abb-4230-870e-7cb95d0d36c9" d="M226.17,357.53l.13.18c.15-.12.17-.31,0-.37C226.36,357.54,226.2,357.37,226.17,357.53Z" transform="translate(-225.73 -321.68)"/>
      <path class="f6510515-1abb-4230-870e-7cb95d0d36c9" d="M229.07,355.84c-.27-.14.17-.28-.09-.38C229.05,355.55,228.78,355.78,229.07,355.84Z" transform="translate(-225.73 -321.68)"/>
      <path class="f6510515-1abb-4230-870e-7cb95d0d36c9" d="M226.31,355.61c-.28.05-.07.24-.16.42C226.17,355.87,226.49,355.7,226.31,355.61Z" transform="translate(-225.73 -321.68)"/>
      <path class="f6510515-1abb-4230-870e-7cb95d0d36c9" d="M228.51,354.11c.2.05.17.17.1.31-.06-.06-.15-.11-.17-.17a2.06,2.06,0,0,1,.15.47c.18-.17.31-.44.56-.37C229,354.18,228.72,354,228.51,354.11Z" transform="translate(-225.73 -321.68)"/>
      <path class="f6510515-1abb-4230-870e-7cb95d0d36c9" d="M226.35,355.15c-.1.15-.31.21-.32.4.15,0,.36,0,.37-.26l.22.11C226.83,355.23,226.29,355.43,226.35,355.15Z" transform="translate(-225.73 -321.68)"/>
      <path class="f6510515-1abb-4230-870e-7cb95d0d36c9" d="M229.19,353.33l-.12.08c.15.25,0,.52.3.69A1.23,1.23,0,0,0,229.19,353.33Z" transform="translate(-225.73 -321.68)"/>
      <path class="f6510515-1abb-4230-870e-7cb95d0d36c9" d="M226.92,354.46l-.33-.08c-.08.21.11,0,.18.09s-.1.15-.05.2C226.71,354.42,227,354.7,226.92,354.46Z" transform="translate(-225.73 -321.68)"/>
      <path class="f6510515-1abb-4230-870e-7cb95d0d36c9" d="M226.66,353.69l-.1-.3-.4.17C226.24,353.9,226.37,353.6,226.66,353.69Z" transform="translate(-225.73 -321.68)"/>
      <path class="f6510515-1abb-4230-870e-7cb95d0d36c9" d="M226.93,353.38l.07,0-.43-.49A1.73,1.73,0,0,0,226.93,353.38Z" transform="translate(-225.73 -321.68)"/>
      <path class="f6510515-1abb-4230-870e-7cb95d0d36c9" d="M229.79,348.56c-.14-.07-.35.16-.18.07C229.73,348.69,230,348.38,229.79,348.56Z" transform="translate(-225.73 -321.68)"/>
      <path class="f6510515-1abb-4230-870e-7cb95d0d36c9" d="M227,349.24c.12-.1,0-.52-.12-.7C226.91,348.75,226.78,349.25,227,349.24Z" transform="translate(-225.73 -321.68)"/>
      <path class="f6510515-1abb-4230-870e-7cb95d0d36c9" d="M226.83,348.47l0,.07A.08.08,0,0,0,226.83,348.47Z" transform="translate(-225.73 -321.68)"/>
      <path class="f6510515-1abb-4230-870e-7cb95d0d36c9" d="M226.78,341.21l0,0Z" transform="translate(-225.73 -321.68)"/>
      <path class="f6510515-1abb-4230-870e-7cb95d0d36c9" d="M226.85,341.39a.33.33,0,0,0,.16.4,2.17,2.17,0,0,0-.23-.58C226.79,341.3,226.67,341.39,226.85,341.39Z" transform="translate(-225.73 -321.68)"/>
      <path class="f6510515-1abb-4230-870e-7cb95d0d36c9" d="M227,339.75c.09.09,0,.2.18.18S227.14,339.7,227,339.75Z" transform="translate(-225.73 -321.68)"/>
      <path class="f6510515-1abb-4230-870e-7cb95d0d36c9" d="M231.54,332.67c.08.13,0,0-.19-.41C231.36,332.3,231.48,332.53,231.54,332.67Z" transform="translate(-225.73 -321.68)"/>
      <polygon class="f6510515-1abb-4230-870e-7cb95d0d36c9" points="5.58 10.44 5.68 10.65 5.84 10.98 5.58 10.44"/>
      <path class="f6510515-1abb-4230-870e-7cb95d0d36c9" d="M231.64,332.7l.08.21Z" transform="translate(-225.73 -321.68)"/>
      <path class="f6510515-1abb-4230-870e-7cb95d0d36c9" d="M231.73,332.94v0Z" transform="translate(-225.73 -321.68)"/>
      <path class="f6510515-1abb-4230-870e-7cb95d0d36c9" d="M231.66,332.78l.11.26,0-.1Z" transform="translate(-225.73 -321.68)"/>
      <path class="f6510515-1abb-4230-870e-7cb95d0d36c9" d="M231.69,332.81l-.29-.75.44,1.16Z" transform="translate(-225.73 -321.68)"/>
      <path class="f6510515-1abb-4230-870e-7cb95d0d36c9" d="M231.69,332.68c.06.21-.14-.7.05,0,0-.15-.07-.42-.13-.69s-.13-.54,0-.55c-.28-.56.18,1.2,0,.72A2,2,0,0,1,231.69,332.68Z" transform="translate(-225.73 -321.68)"/>
      <path class="f6510515-1abb-4230-870e-7cb95d0d36c9" d="M231.28,331.38c.11.38.18.47.13.24C231.38,331.56,231.18,331,231.28,331.38Z" transform="translate(-225.73 -321.68)"/>
      <polygon class="f6510515-1abb-4230-870e-7cb95d0d36c9" points="6.02 10.82 6.08 11.09 6.06 10.89 6.02 10.82"/>
      <path class="f6510515-1abb-4230-870e-7cb95d0d36c9" d="M231.85,332.71V333A1.93,1.93,0,0,0,231.85,332.71Z" transform="translate(-225.73 -321.68)"/>
      <path class="f6510515-1abb-4230-870e-7cb95d0d36c9" d="M231.91,333.16c0,.09.13-.48.05-.4v0A2.44,2.44,0,0,1,231.91,333.16Z" transform="translate(-225.73 -321.68)"/>
      <path class="f6510515-1abb-4230-870e-7cb95d0d36c9" d="M232.81,332.91c-.07-.08-.21-.13-.27,0l.3.14Z" transform="translate(-225.73 -321.68)"/>
      <path class="f6510515-1abb-4230-870e-7cb95d0d36c9" d="M233.63,332c.14-.3-.23-.19-.29-.39C233.45,331.78,233.41,331.8,233.63,332Z" transform="translate(-225.73 -321.68)"/>
      <path class="f6510515-1abb-4230-870e-7cb95d0d36c9" d="M232.77,333.48c-.15,0-.19-.12-.23-.19C232.45,333.45,232.63,333.56,232.77,333.48Z" transform="translate(-225.73 -321.68)"/>
      <path class="f6510515-1abb-4230-870e-7cb95d0d36c9" d="M233.2,333.73c0,.16-.13.11-.13.23s.24.39.45.34c0-.13.23-.45.4-.51-.33-.15-.85.16-.67-.28l-.58.2C232.81,334,233.08,333.58,233.2,333.73Z" transform="translate(-225.73 -321.68)"/>
      <path class="f6510515-1abb-4230-870e-7cb95d0d36c9" d="M233.39,332.51v.25c.09-.15.22-.08.33-.05C234,332.39,233.48,332.56,233.39,332.51Z" transform="translate(-225.73 -321.68)"/>
      <polygon class="f6510515-1abb-4230-870e-7cb95d0d36c9" points="9.05 13.16 9.41 13.35 9.33 13.25 9.05 13.16"/>
      <polygon class="f6510515-1abb-4230-870e-7cb95d0d36c9" points="9.16 13.42 9.09 13.51 9.46 13.55 9.16 13.42"/>
      <polygon class="f6510515-1abb-4230-870e-7cb95d0d36c9" points="9.38 13.79 9.36 13.74 9.12 13.67 9.38 13.79"/>
      <path class="f6510515-1abb-4230-870e-7cb95d0d36c9" d="M235.68,336.07l0-.18c-.1,0-.13-.3-.26-.12A.26.26,0,0,1,235.68,336.07Z" transform="translate(-225.73 -321.68)"/>
      <path class="f6510515-1abb-4230-870e-7cb95d0d36c9" d="M240.43,334.52c-.12,0-.15.14-.18.25l.26-.16S240.41,334.59,240.43,334.52Z" transform="translate(-225.73 -321.68)"/>
      <path class="f6510515-1abb-4230-870e-7cb95d0d36c9" d="M240.49,335.17l.42-.08c-.22-.24-.41-.07-.66-.21,0,.15.3.08.36.24Z" transform="translate(-225.73 -321.68)"/>
      <path class="f6510515-1abb-4230-870e-7cb95d0d36c9" d="M244.84,338.74c-.14.15-.08.17-.32.16a2.7,2.7,0,0,1,.77.4c0-.14.35-.19.22-.21l-.37-.11.13-.09C245.15,338.62,245,339,244.84,338.74Z" transform="translate(-225.73 -321.68)"/>
      <path class="f6510515-1abb-4230-870e-7cb95d0d36c9" d="M256.57,348.12a.4.4,0,0,0-.07.28C256.76,348.39,256.52,348.12,256.57,348.12Z" transform="translate(-225.73 -321.68)"/>
    </g>
  </g>
</svg>
