<svg xmlns="http://www.w3.org/2000/svg" viewBox="0 0 256.17 84.72"><defs><style>.cls-1{fill:#ff2b06;}</style></defs><title>Asset 2</title><g id="Layer_2" data-name="Layer 2"><g id="Layer_1-2" data-name="Layer 1"><path class="cls-1" d="M111,9.51c-15.27-.87-30.58-1.7-45.87-1.06-15,.62-30.12,2.69-44.39,7.6q-5.17,1.78-10.15,4C7.88,21.34,5,22.75,3,25.11a10.44,10.44,0,0,0-2,8.6A65.54,65.54,0,0,0,3.77,44.52C5.91,51,9.3,56.78,15,60.79c5.47,3.88,12,5.88,18.36,7.76a395,395,0,0,0,47.3,10.87,393,393,0,0,0,47.59,4.95,387.53,387.53,0,0,0,48.28-1,373.47,373.47,0,0,0,47-6.84C231,75,238.47,73,245.31,69.48c5.18-2.65,10.51-6.87,10.84-13.17.35-6.75-4.93-12.3-9.54-16.52a76.93,76.93,0,0,0-16.43-11.37c-11.89-6.19-25-9.66-38-12.49q-23.7-5.14-47.63-9.31A449.08,449.08,0,0,0,95.16.54,251.31,251.31,0,0,0,45.72,2.11C33.84,3.75,21.48,6.75,11.93,14.39A33.43,33.43,0,0,0,1.1,28.92a15.4,15.4,0,0,0-.54,9.67c1,3.2,3.55,5.43,6,7.52A91,91,0,0,0,25.23,58.27,108.72,108.72,0,0,0,47.64,66c15.86,3.79,32.26,5.89,48.47,7.47a468.06,468.06,0,0,0,50.07,2.18,464.43,464.43,0,0,0,50.15-3.22Q208.18,71,220,69c.47-.08.27-.8-.2-.72a465.35,465.35,0,0,1-97.12,6.26,468.06,468.06,0,0,1-48.4-4.48c-15.55-2.26-31.49-4.78-45.94-11.22A89.52,89.52,0,0,1,9.42,47.45c-2.73-2.15-6-4.46-7.57-7.64s-1.24-7.13-.1-10.49c4.08-12,16-19.31,27.48-22.93A106.58,106.58,0,0,1,47.77,2.58,228.72,228.72,0,0,1,71.29.82,322.81,322.81,0,0,1,119.56,3.6c16.3,2.05,32.48,5,48.59,8.19,13.69,2.71,27.53,5.18,40.92,9.15,12.73,3.76,25.15,9.18,35.31,17.89,4.88,4.18,10.9,9.74,11,16.67.14,7.13-6.42,11.46-12.15,14.15-6.95,3.27-14.46,5.09-22,6.63s-15.26,2.87-22.94,4A384,384,0,0,1,152,83.9a391.73,391.73,0,0,1-92.87-9.42Q47.64,71.9,36.3,68.64c-6.48-1.86-13.18-3.68-19-7.21a27.64,27.64,0,0,1-7.38-6.37A33.73,33.73,0,0,1,4.7,44.95,78.15,78.15,0,0,1,1.91,34.64c-.77-3.92-.21-7.56,2.92-10.28,2.43-2.11,5.54-3.38,8.46-4.64,3.42-1.46,6.91-2.75,10.45-3.87A136.9,136.9,0,0,1,45.1,11c14.76-2.18,29.74-2.31,44.62-1.8,7.11.24,14.22.64,21.33,1,.48,0,.48-.72,0-.75"/></g></g></svg>