<svg xmlns="http://www.w3.org/2000/svg" viewBox="0 0 154.27 69.84"><defs><style>.cls-1{fill:#ff2b06;}</style></defs><title>Asset 3</title><g id="Layer_2" data-name="Layer 2"><g id="Layer_1-2" data-name="Layer 1"><path class="cls-1" d="M90.07,11q-16-2.83-32.18-4.16-8.19-.67-16.4-.94a139,139,0,0,0-16,0c-8.63.71-16.65,4.22-21.7,11.48-2.32,3.33-4.42,7.82-3.67,12,.78,4.33,4.36,8.1,7.52,10.93C14.63,46.53,23.5,50.74,32,54.36a168.69,168.69,0,0,0,27.83,8.95A227,227,0,0,0,88.91,68,256.86,256.86,0,0,0,119,69.37c9.09-.18,19.08-1.22,26.9-6.29a18.72,18.72,0,0,0,7.3-8.16c1.74-4.15,1.09-8.68-.5-12.77-3.18-8.21-9.22-15-16-20.41a96.51,96.51,0,0,0-22.8-13.41A107.14,107.14,0,0,0,62.19.5,101.87,101.87,0,0,0,36.42,6.4c-7.76,2.9-15.85,6.9-18.2,15.54-2.22,8.17.93,16.6,6.64,22.55C31.32,51.24,40.23,54.71,49.08,57c10.28,2.71,20.78,4.73,31.24,6.59s21.25,3.43,31.95,4.65q7.88.9,15.77,1.56c.48,0,.48-.71,0-.75a520.27,520.27,0,0,1-61.41-8.84c-9.67-2-19.77-3.77-28.83-7.83C30.08,49,22.72,43.25,19.67,35.11a21.43,21.43,0,0,1-.86-12.42A17.77,17.77,0,0,1,26.1,12.26,49.24,49.24,0,0,1,37.94,6.65,99.93,99.93,0,0,1,50,3.17a106.21,106.21,0,0,1,50.73,1.4,102.53,102.53,0,0,1,23.52,9.7c7.37,4.19,14.44,9.3,20,15.72a43.4,43.4,0,0,1,7.06,10.89c1.91,4.33,3,9.26,1.12,13.79-3.34,7.88-12.71,11.27-20.47,12.74-9.63,1.82-19.64,1.34-29.38.85a264.87,264.87,0,0,1-28.25-2.86C55.9,62.44,37.63,57.14,21,48.29A68.72,68.72,0,0,1,9.63,41c-3.4-2.79-7.22-6.46-8.5-10.79s1.1-9.36,3.67-12.87a25.59,25.59,0,0,1,9.49-7.87c4.43-2.14,9.39-2.8,14.26-3,5-.17,10.11,0,15.15.21q15.43.61,30.77,2.62,7.73,1,15.41,2.37c.47.08.67-.64.2-.72"/></g></g></svg>