<svg xmlns="http://www.w3.org/2000/svg" viewBox="0 0 161.17 61.79"><defs><style>.cls-1{fill:#ff2b06;}</style></defs><title>Asset 1</title><g id="Layer_2" data-name="Layer 2"><g id="Layer_1-2" data-name="Layer 1"><path class="cls-1" d="M120,6c-10.57-2-21.23-3.38-31.94-4.32A319.28,319.28,0,0,0,55.44.28C45.16.43,34.78,1.48,25,4.72a59.48,59.48,0,0,0-12.45,5.66,33.37,33.37,0,0,0-9.78,8.47C.51,21.94-.91,25.92.67,29.62,2.37,33.56,6.57,36,10.07,38.1A126.62,126.62,0,0,0,35.77,49.75c19.1,6.38,39.37,9.48,59.39,11.14a231.45,231.45,0,0,0,33,.54c8.22-.5,17.46-1.5,24.2-6.69a22.58,22.58,0,0,0,7-10c1.7-4.34,2.8-8.82.48-13.14-2-3.79-5.5-6.93-8.79-9.62a67.62,67.62,0,0,0-11.42-7.46C121.48,5.08,100.31,2.42,80.16.91A296,296,0,0,0,47.33.17c-9.74.35-19.79,1.52-28.58,6C11.47,9.91,4.67,16.6,4.73,25.32,4.79,33.52,11.54,38.9,18.4,42,27,46,36.67,47.87,45.92,49.7c10.45,2.07,21,3.59,31.57,4.92,5.29.67,10.57,1.29,15.86,1.91.48.06.47-.69,0-.75C73,53.39,52.49,51,32.55,45.93c-7.74-2-16.34-4.33-22.24-10A14.87,14.87,0,0,1,5.48,25.32a18.13,18.13,0,0,1,5-12.05c6.07-6.69,15.31-9.77,24-11.18C44.6.43,55.13.61,65.4.9S86,2,96.19,3.28a156.81,156.81,0,0,1,29.69,6.34,78.15,78.15,0,0,1,24,12.45c3.39,2.69,6.92,5.83,9.11,9.62,2.65,4.6,1.12,9.58-.86,14.13a20.54,20.54,0,0,1-8.23,9.71,35,35,0,0,1-11.8,4.06c-9.56,1.73-19.58,1.65-29.25,1.36A299.57,299.57,0,0,1,77.62,58.2,264.82,264.82,0,0,1,49.88,53a159.63,159.63,0,0,1-26.49-8.85A115,115,0,0,1,11.53,38.1C7.9,36,3.37,33.55,1.48,29.58-.61,25.2,2.06,20.46,5,17.25A39.92,39.92,0,0,1,15.76,9.41C24.12,5,33.5,2.76,42.85,1.75,53.09.65,63.44.94,73.71,1.47,84.16,2,94.59,2.93,105,4.36q7.47,1,14.88,2.41c.47.09.67-.64.2-.72"/></g></g></svg>