<svg xmlns="http://www.w3.org/2000/svg" viewBox="0 0 1619.01 64.59"><defs><style>.cls-1{fill:#212121;}</style></defs><title>Asset 1</title><g id="Layer_2" data-name="Layer 2"><g id="Layer_1-2" data-name="Layer 1"><path class="cls-1" d="M.88,39.39C39.11,7.91,91.12,2.16,138.79,8.09,194.55,15,247.24,36.49,302.66,45.23A428.64,428.64,0,0,0,464,39.86C518,27.58,569.56,5.4,625.33,1.7,728.4-5.15,826,37.76,925.65,56.44c50.08,9.39,99.84,11.08,150.23,2.93,55.36-9,109.23-25.79,165-32.39,112.59-13.33,223.93,18.21,336.35,18.08q20.68,0,41.3-1.61c.64-.05.64-1.05,0-1-113.85,8.8-225.85-23.53-339.61-19.37-55.2,2-108.32,15.91-162.06,27.43-28.27,6.06-56.81,11.26-85.71,13-26.47,1.59-53,0-79.24-3.73C851.14,45.55,755.35,1.72,652.66,0,598.51-.85,548.6,15.35,497.17,30.14c-55.5,16-112.46,22.92-170.1,17.22C270,41.71,216.39,21,160.29,10.5c-43.9-8.23-91.75-9-132.89,10.7A134,134,0,0,0,.17,38.68c-.5.41.21,1.11.71.71"/></g></g></svg>