<svg xmlns="http://www.w3.org/2000/svg" viewBox="0 0 285.18 71.55"><defs><style>.cls-1{fill:#212121;}</style></defs><title>Asset 4</title><g id="Layer_2" data-name="Layer 2"><g id="Layer_1-2" data-name="Layer 1"><path class="cls-1" d="M217.64,8.17c-28.44-.75-56.74-4.09-85.19-4.72-26.11-.58-52.67,1.22-77.64,9.36-10.94,3.56-22.78,8-31.09,16.3-3.45,3.43-7.44,8.31-6,13.52,1.26,4.71,5.94,7.74,10,9.92,23.41,12.68,50.77,16.19,77,17.63,14.16.78,28.35,1,42.52,1.19s28.2.32,42.29-.33A277,277,0,0,0,230,66.51c12.5-2.45,25.19-5.94,36.61-11.69a43.86,43.86,0,0,0,13.51-9.94c3.33-3.81,6.23-8.88,4.69-14.08-1.29-4.36-5.18-7.36-9-9.39-5.22-2.75-11.14-4.23-16.83-5.66-13.4-3.36-27.16-5.28-40.84-7.11q-20.87-2.8-41.86-4.59C148,1.63,119.78.44,91.52.1Q70.32-.15,49.12.19c-6.9.1-13.85,0-20.74.65A48.32,48.32,0,0,0,11.46,5,27.52,27.52,0,0,0,0,14.82c-.08.12.12.24.2.11C7,4.31,20.1,1.44,31.83.82,45.33.11,58.91.24,72.42.23c27.33,0,54.67.66,81.95,2.42S208.93,7.2,236,11.49c6.59,1,13.17,2.22,19.68,3.73,6,1.39,12.15,2.86,17.78,5.35,4.49,2,9.38,5.05,11,10,2,6-2,11.84-6.1,15.87a49.33,49.33,0,0,1-14.42,9.44,133,133,0,0,1-18,6.57,210.8,210.8,0,0,1-38.63,7.14c-27.13,2.67-54.51,1.81-81.72,1.17C99.11,70.1,72,68.83,46.7,60.45a118,118,0,0,1-18-7.6c-4.44-2.34-10-5.61-10.94-11-1-6,4.82-11.71,9.07-15.16A64.24,64.24,0,0,1,41.9,17.93C65.45,7.7,91.35,4.17,116.85,3.65c27-.55,53.9,2.29,80.82,3.88,6.65.39,13.31.7,20,.88a.11.11,0,0,0,0-.23"/></g></g></svg>