<svg xmlns="http://www.w3.org/2000/svg" viewBox="0 0 1557.48 92.63"><defs><style>.cls-1{fill:#212121;}</style></defs><title>Asset 2</title><g id="Layer_2" data-name="Layer 2"><g id="Layer_1-2" data-name="Layer 1"><path class="cls-1" d="M.87,92.5C36,62.16,81.54,48.79,127,44c48.85-5.17,98.47-1.71,147.11,4,51.33,6.07,102.23,15.17,153.47,21.93,25.31,3.34,50.71,6.11,76.2,7.64,24.09,1.44,48.89,2.7,72.91-.29,21-2.62,42.51-9.82,56-27,11.15-14.19,16-33.22,8-50a.5.5,0,0,0-.43-.25c-20.33-.58-23.59,26.83-12.77,39.31,8.52,9.83,21.83,14.08,34.09,16.87A237.59,237.59,0,0,0,711.65,62c35.46.37,69.64-8.82,104.42-14.29,19-3,38.33-4.71,57.54-2.75,18.61,1.91,36.7,7.12,54.44,12.85,34.06,11,67.54,21.55,103.1,26.7,34,4.93,68.52,6.24,102.87,5.19,71.2-2.17,141.64-14.08,211.87-25.12,39.89-6.27,80-13.07,120.27-16.28,31.57-2.51,69.62-.95,90.35,26.72.38.51,1.25,0,.86-.5-27-36-79.77-29-118.72-24.26-57.9,7-115.32,17.38-173,25.68-59.18,8.52-119,15-178.9,12.61A506.14,506.14,0,0,1,999,77.67c-28.84-6.3-56.25-16.83-84.51-25.13-27.85-8.18-55.29-11.18-84.2-7.83S773,55.68,744,59.15c-29.64,3.54-61.08,2.5-89.87-5.91-12.38-3.61-27.29-10.53-31.28-24A25.35,25.35,0,0,1,624.62,11a20.23,20.23,0,0,1,5.13-6.55,16.08,16.08,0,0,1,2.63-1.88c3.28-1.79,5.16-2.15,7.61.13,4.16,3.88,4,12.68,3.68,17.93a50.89,50.89,0,0,1-5.9,19.92A61.1,61.1,0,0,1,611,66.52c-25.4,12.93-56.05,11.86-83.78,11.1C466.29,76,406,66.06,345.81,57c-57.74-8.73-115.88-16.86-174.4-16.35-48.84.43-99.88,6.8-143,31.23A174.67,174.67,0,0,0,.16,91.8c-.49.42.22,1.13.71.71"/></g></g></svg>