<svg id="Layer_1" data-name="Layer 1" xmlns="http://www.w3.org/2000/svg" xmlns:xlink="http://www.w3.org/1999/xlink" viewBox="0 0 1440 757.47"><defs><clipPath id="clip-path"><path d="M1440.43,670.47a3026.52,3026.52,0,0,1-721.43,87,3026.48,3026.48,0,0,1-719.43-87V-.53H1440.43Z" style="fill:none"/></clipPath></defs><g style="clip-path:url(#clip-path)"><path d="M-178.29-97.36C-105-132.65-18.12-138.72,59.37-114S204.14-34,243.44,37.25c7.65,13.87,14.45,29.34,12.27,45-2.44,17.45-15.82,31.76-31.28,40.21s-33,12.08-50.13,16.2c-35.08,8.45-71.86,20.95-93.77,49.63-17.85,23.37-22.92,53.77-27.44,82.83q-6.66,42.74-13.31,85.47c-.93,6-2,12.35-6.17,16.77-4.46,4.77-11.38,6.16-17.85,7-19,2.54-38.84,2.61-56.87-4-16.55-6.05-30.58-17.3-45.4-26.85s-31.7-17.73-49.28-16.36-35.12,15.49-34.61,33.1c25.74-10.08,56.27-2.94,77.94,14.23s35.18,43.07,41.71,69.94c6.58,27.09,4.77,59.84-17,77.32-26.85,21.62-71.8,4.28-84.5-27.76s1.59-70,26.79-93.56c20.28-18.91,55.24-29.12,74.28-9,11.57,12.24,12.51,30.79,12.8,47.64l1.07,63.34c.08,4.82.09,9.94-2.44,14-3,4.9-8.88,7.15-14.43,8.68a122.93,122.93,0,0,1-67.95-.88c-7.94-2.41-15.88-5.8-21.61-11.8-8.8-9.21-10.89-22.75-12.56-35.37-2.55-19.26-5.1-38.83-2.2-58s12-38.36,28.32-49c31.61-20.55,73.13-2,105.92,16.62,5.14,2.92,10.54,6.08,13.42,11.24S-8,415.35-8.25,421.19a708.6,708.6,0,0,1-7.85,80.3c-1,6.32-1.72,13.73,2.85,18.2,2.57,2.52,6.27,3.45,9.77,4.28l61.63,14.55c34.94,8.25,73.78,16,105.06-1.59,11.06-6.22,20.84-16.17,23.17-28.64,2.68-14.3-4.75-28.36-12.15-40.88-9-15.19-18.64-30.53-32.75-41.11-20.6-15.45-47.79-18.66-73.54-18.82-23.21-.15-47.83,2.22-66.49,16s-28,42.47-14,61c6,8,15.25,12.9,24.36,17.07a290.23,290.23,0,0,0,139.28,25.6c15.73-1,35.75-8.19,35.13-23.94-.29-7.39-5.45-13.55-10.16-19.26-27.51-33.31-48.22-73.18-53.91-116s4.82-88.65,33-121.37a133,133,0,0,1,91.7-45.36c10.62-.63,21.68.13,31.09,5.09,18.38,9.71,25.44,32.3,28.18,52.91a250.79,250.79,0,0,1-14.8,123.2c-10.42,26.8-27.95,53.76-55.47,62.09-22.25,6.74-46.88-.43-66-13.62S136.05,399.1,122,380.58" style="fill:none;stroke:#212121;stroke-miterlimit:10"/><path d="M1058.38,54.63a164.34,164.34,0,0,0-13.19,49.43c-.33,3.12-.53,6.42.85,9.24,1.72,3.54,5.55,5.52,9.24,6.89,27.86,10.33,63.42,1.09,85,21.46,15.1,14.23,16.72,37.13,20.16,57.58s13,43.71,33.21,48.16c8.2,1.81,16.77.06,25.12,1,18.58,2,33.13,16.52,50.38,23.71,3.2,1.34,6.79,2.43,10.09,1.36,5-1.61,7.19-7.27,10.49-11.35,13-16.16,40.22-5.88,58.78-15.16,13.52-6.77,19.79-22.64,22.27-37.55s2.45-30.53,8.53-44.38c17.12-39,72.8-46.15,95.17-82.38,11-17.79,12.07-40.44,6.71-60.65s-16.61-38.37-29-55.2c-10.26-13.89-21.65-27.32-36.15-36.69-17.4-11.25-38.21-16-58.76-18.63-69.76-9.08-143.59,4.06-201.73,43.65-21.7,14.78-40.88,32.89-60,50.91-23.86,22.55-49.08,47.58-54.09,80-1.39,9-.88,18.87,4.73,26,5.16,6.53,13.52,9.42,21.15,12.76a130.32,130.32,0,0,1,66.69,67.05c8,18.54,11.47,39.89,4.9,59s-24.9,34.83-45.07,34.11c-27.55-1-46.2-30.73-47.62-58.26-.68-13.22,1.87-27.52,11.28-36.82,15.18-15,42.79-9.82,56.76,6.34s16.78,39.28,14.75,60.54c-1.33,13.94-4.88,28.48-14.7,38.45-4.49,4.56-10.14,8-13.89,13.19-3.17,4.38-4.76,9.73-5.58,15.08-4.76,31,15.8,61.69,43,77.21S1197.66,419.18,1229,419c9-.06,18.33-.45,26.25-4.7,18.11-9.7,21-34.61,17.61-54.87-4.25-25.41-16-51.08-37.89-64.66-19-11.8-43-12.82-65-8.73-6,1.13-12.18,2.67-17.33,6.06-12.59,8.29-16.06,25-17.49,40-1.66,17.44-.89,37.69,12.72,48.73,6.25,5.07,14.3,7.3,22.13,9.18a447.52,447.52,0,0,0,51.39,9.22c6.6.79,13.28,1.43,19.86.6,17.48-2.2,32.71-15.17,39.39-31.47a56.52,56.52,0,0,0-46.34-77.63c11.06-5.77,21.63,7.71,31.9,14.79,8.07,5.55,18.57,7.63,25.14,14.91,10.5,11.63,6,29.89,9.39,45.18,5.85,26.11,34.29,40.45,60.59,45.33,8,1.48,16.44,2.37,23.91-.73,11.6-4.82,17.4-17.65,21.51-29.52,9.58-27.65,15.85-58.27,6.21-85.9s-40.15-49.61-68-40.73c-12.07,3.84-21.93,12.65-30,22.37-11.29,13.53-20.15,30.18-19.73,47.79.66,27.22,23,49.15,46.68,62.5,11.31,6.36,24,11.64,36.91,9.93,8.22-1.09,15.89-5,22.35-10.21,25.79-20.72,31-58.42,25.69-91.07s-18.89-63.59-23.29-96.37c-.92-6.79-1.35-14.07,1.86-20.12,3-5.71,8.78-9.36,14.28-12.76,12.36-7.63,25-15.37,39.11-18.78s30.23-1.83,41.24,7.65c12.32,10.59,15.64,28.87,12.38,44.79s-12,30.07-20.73,43.8c-4.06,6.41-8.35,13-14.8,17-13.88,8.57-32.7,1.7-44.26-9.81C1414.6,232.88,1408.4,204,1418,180.6s34.8-39.66,60.07-38.15c8.72.52,19.53,6.4,17.34,14.86" style="fill:none;stroke:#212121;stroke-miterlimit:10"/></g></svg>