<svg id="eniH4NuCkr81" xmlns="http://www.w3.org/2000/svg" xmlns:xlink="http://www.w3.org/1999/xlink" viewBox="0 0 439.32 137.38" shape-rendering="geometricPrecision" text-rendering="geometricPrecision"><style><![CDATA[#eniH4NuCkr83_to {animation: eniH4NuCkr83_to__to 5000ms linear infinite normal forwards}@keyframes eniH4NuCkr83_to__to { 0% {transform: translate(141.072508px,69.591121px);animation-timing-function: cubic-bezier(0.42,0,1,1)} 6% {transform: translate(139.130005px,35.054977px);animation-timing-function: cubic-bezier(0.42,0,1,1)} 90% {transform: translate(139.130005px,35.054977px)} 100% {transform: translate(141.072508px,69.591121px)}} #eniH4NuCkr83 {animation: eniH4NuCkr83_c_o 5000ms linear infinite normal forwards}@keyframes eniH4NuCkr83_c_o { 0% {opacity: 0;animation-timing-function: cubic-bezier(0.42,0,1,1)} 3.6% {opacity: 1;animation-timing-function: cubic-bezier(0.42,0,1,1)} 90% {opacity: 1} 100% {opacity: 0}} #eniH4NuCkr814 {animation: eniH4NuCkr814_c_o 5000ms linear infinite normal forwards}@keyframes eniH4NuCkr814_c_o { 0% {opacity: 0} 16% {opacity: 0;animation-timing-function: cubic-bezier(0.42,0,1,1)} 24% {opacity: 1;animation-timing-function: cubic-bezier(0.42,0,1,1)} 90% {opacity: 1} 100% {opacity: 0}} #eniH4NuCkr819_to {animation: eniH4NuCkr819_to__to 5000ms linear infinite normal forwards}@keyframes eniH4NuCkr819_to__to { 0% {transform: translate(347.805002px,-29.924988px)} 4.4% {transform: translate(347.805002px,-29.924988px);animation-timing-function: cubic-bezier(0.42,0,1,1)} 12% {transform: translate(355.275024px,29.876617px);animation-timing-function: cubic-bezier(0.42,0,1,1)} 90% {transform: translate(355.275024px,29.876617px)} 100% {transform: translate(347.805002px,-29.924988px)}} #eniH4NuCkr819 {animation: eniH4NuCkr819_c_o 5000ms linear infinite normal forwards}@keyframes eniH4NuCkr819_c_o { 0% {opacity: 0} 4.4% {opacity: 0;animation-timing-function: cubic-bezier(0.42,0,1,1)} 9% {opacity: 1;animation-timing-function: cubic-bezier(0.42,0,1,1)} 90% {opacity: 1} 100% {opacity: 0}} #eniH4NuCkr825_to {animation: eniH4NuCkr825_to__to 5000ms linear infinite normal forwards}@keyframes eniH4NuCkr825_to__to { 0% {transform: translate(347.705551px,152.115416px)} 20.6% {transform: translate(347.705551px,152.115416px);animation-timing-function: cubic-bezier(0.42,0,1,1)} 26% {transform: translate(327.450988px,97.556856px);animation-timing-function: cubic-bezier(0.42,0,1,1)} 90% {transform: translate(327.450988px,97.556856px)} 100% {transform: translate(347.705551px,152.115416px)}} #eniH4NuCkr825_tr {animation: eniH4NuCkr825_tr__tr 5000ms linear infinite normal forwards}@keyframes eniH4NuCkr825_tr__tr { 0% {transform: rotate(0.320644deg)} 20.6% {transform: rotate(0.320644deg);animation-timing-function: cubic-bezier(0.42,0,1,1)} 26% {transform: rotate(0deg);animation-timing-function: cubic-bezier(0.42,0,1,1)} 27% {transform: rotate(2.383683deg);animation-timing-function: cubic-bezier(0.42,0,1,1)} 27.8% {transform: rotate(-0.021906deg);animation-timing-function: cubic-bezier(0.42,0,1,1)} 28.6% {transform: rotate(1.637829deg);animation-timing-function: cubic-bezier(0.42,0,1,1)} 29.8% {transform: rotate(0deg);animation-timing-function: cubic-bezier(0.42,0,1,1)} 90% {transform: rotate(0deg)} 100% {transform: rotate(0.320644deg)}} #eniH4NuCkr825_ts {animation: eniH4NuCkr825_ts__ts 5000ms linear infinite normal forwards}@keyframes eniH4NuCkr825_ts__ts { 0% {transform: scale(2,2)} 20.6% {transform: scale(2,2);animation-timing-function: cubic-bezier(0.42,0,1,1)} 26% {transform: scale(1,1);animation-timing-function: cubic-bezier(0.42,0,1,1)} 90% {transform: scale(1,1)} 100% {transform: scale(2,2)}} #eniH4NuCkr825 {animation: eniH4NuCkr825_c_o 5000ms linear infinite normal forwards}@keyframes eniH4NuCkr825_c_o { 0% {opacity: 0} 20.6% {opacity: 0;animation-timing-function: cubic-bezier(0.42,0,1,1)} 26% {opacity: 1;animation-timing-function: cubic-bezier(0.42,0,1,1)} 90% {opacity: 1} 100% {opacity: 0}} #eniH4NuCkr827_to {animation: eniH4NuCkr827_to__to 5000ms linear infinite normal forwards}@keyframes eniH4NuCkr827_to__to { 0% {transform: translate(51.290001px,97.37278px)} 11.4% {transform: translate(51.290001px,97.37278px);animation-timing-function: cubic-bezier(0.42,0,1,1)} 16.8% {transform: translate(95.255005px,88.994995px);animation-timing-function: cubic-bezier(0.42,0,1,1)} 90% {transform: translate(95.255005px,88.994995px)} 100% {transform: translate(51.290001px,97.37278px)}} #eniH4NuCkr827_ts {animation: eniH4NuCkr827_ts__ts 5000ms linear infinite normal forwards}@keyframes eniH4NuCkr827_ts__ts { 0% {transform: scale(1.5,1.5)} 11.4% {transform: scale(1.5,1.5);animation-timing-function: cubic-bezier(0.42,0,1,1)} 16.8% {transform: scale(1,1);animation-timing-function: cubic-bezier(0.42,0,1,1)} 90% {transform: scale(1,1)} 100% {transform: scale(1.5,1.5)}} #eniH4NuCkr827 {animation: eniH4NuCkr827_c_o 5000ms linear infinite normal forwards}@keyframes eniH4NuCkr827_c_o { 0% {opacity: 0} 11.4% {opacity: 0;animation-timing-function: cubic-bezier(0.42,0,1,1)} 16.8% {opacity: 1;animation-timing-function: cubic-bezier(0.42,0,1,1)} 90% {opacity: 1} 100% {opacity: 0}}]]></style><g><g id="eniH4NuCkr83_to" transform="translate(141.072508,69.591121)"><g id="eniH4NuCkr83" transform="translate(-139.130005,-35.054977)" opacity="0"><path d="M765.29,468.31c-3.44,0-5,1.61-5.34,4.16l-.54,3.73h9l-.47,3.5h-9l-3.68,26.17h-4.81l3.68-26.17h-5.46l.48-3.5h5.46l.53-3.73c.71-4.93,4-8.13,9.61-8.13h5.4l-.53,4h-4.33Z" transform="translate(-724.06-455.98)" fill="#165de4"/><path d="M785.22,475.61l-.65,4.51h-3.26c-5.76,0-7.84,2.85-9,10.92l-2.08,14.83h-4.75l4.16-29.67h3.85l-.23,6.89c1.66-5,4.33-7.48,9.13-7.48Z" transform="translate(-724.06-455.98)" fill="#165de4"/><path d="M794.65,503c4.57,0,7.06-1.6,8.9-5.93h4.51c-2.37,6.58-6.58,9.43-13.94,9.43-9.67,0-13.17-4.63-11.63-15.42s6.29-15.43,16-15.43s13.11,4.81,11.51,16.08l-.3,2h-22.76c-.35,6.32,1.84,9.27,7.71,9.27ZM798,479.11c-6.29,0-9.55,3.32-10.68,11.33h18.15c1.11-8.13-1.15-11.33-7.47-11.33Z" transform="translate(-724.06-455.98)" fill="#165de4"/><path d="M829.12,517.73L831.74,499c-2.26,5.11-6,7.42-11.69,7.42-8.54,0-11.57-4.63-10-15.42s5.88-15.43,14.42-15.43c5.81,0,8.9,2.43,9.61,7.83l1.78-7.24h3.86l-5.82,41.53h-4.75Zm-6.88-15.24c6.35,0,9.55-3.45,10.68-11.45s-1.13-11.45-7.47-11.45-9.45,3.41-10.62,11.41s1.17,11.49,7.41,11.49Z" transform="translate(-724.06-455.98)" fill="#165de4"/><path d="M863.18,476.2h4.75l-4.16,29.67h-3.85l.23-6.88c-2,5.16-5.51,7.47-11,7.47-7.48,0-10.09-4.27-8.66-14.24l2.25-16h4.75l-2.14,15c-.77,5.4-1.13,11.28,5.88,11.28c5.81,0,8.66-3,9.67-10.27Z" transform="translate(-724.06-455.98)" fill="#165de4"/><path d="M879.79,503c4.57,0,7.06-1.6,8.9-5.93h4.51c-2.37,6.58-6.58,9.43-13.94,9.43-9.67,0-13.17-4.63-11.63-15.42s6.29-15.43,16-15.43s13.11,4.81,11.51,16.08l-.3,2h-22.76c-.36,6.32,1.84,9.27,7.71,9.27Zm3.33-23.85c-6.29,0-9.56,3.32-10.68,11.33h18.15c1.13-8.17-1.13-11.37-7.47-11.37Z" transform="translate(-724.06-455.98)" fill="#165de4"/><path d="M922.39,489.85l-2.25,16h-4.75l2.14-15c.77-5.4,1.12-11.27-5.88-11.27-5.81,0-8.66,3-9.67,10.26l-2.25,16h-4.73l4.16-29.67h3.84l-.24,6.89c2-5.17,5.52-7.48,11-7.48c7.44.03,10.05,4.3,8.63,14.27Z" transform="translate(-724.06-455.98)" fill="#165de4"/><path d="M932,497.21c-.41,2.78.89,4.68,4.51,4.68h3.86l-.54,4h-5.39c-5.58,0-8-3.21-7.24-8.13l2.55-18h-4.75l.48-3.5h4.74l1-7.06h4.78l-1,7.06h9l-.48,3.5h-9l-2.44,17.51Z" transform="translate(-724.06-455.98)" fill="#165de4"/><path d="M946.9,464.34h4.74l-5.81,41.53h-4.75Z" transform="translate(-724.06-455.98)" fill="#165de4"/><path d="M955.44,476.2l5.46,28.18l12-28.18h4.81l-12.94,29.07c-4.09,9.2-6.76,11.28-11.21,11.28h-5l.47-3.5h3.97c2.73,0,4.33-1.13,7.29-7.18h-3.49l-6.23-29.67h4.87Z" transform="translate(-724.06-455.98)" fill="#165de4"/></g></g><g id="eniH4NuCkr814" opacity="0"><path d="M932.26,518.81h-14.1v40.19h-5.66v-40.19h-14v-4.89h33.79Z" transform="translate(-724.06-455.98)" fill="#165de4"/><path d="M941.14,513.92v45.08h-5.66v-45.08Z" transform="translate(-724.06-455.98)" fill="#165de4"/><path d="M987.8,536.45c0,16.67-6.37,23.81-21.36,23.81s-21.44-7.14-21.44-23.81s6.44-23.82,21.44-23.82s21.36,7.15,21.36,23.82Zm-36.87,0c0,13.38,4.56,18.92,15.51,18.92s15.56-5.54,15.56-18.92-4.57-18.93-15.51-18.93-15.56,5.54-15.56,18.93Z" transform="translate(-724.06-455.98)" fill="#165de4"/><path d="M1028.23,513.92v45.08h-9.46l-21.69-43v43h-5.41v-45.08h9.46l21.69,42.93v-42.93Z" transform="translate(-724.06-455.98)" fill="#165de4"/></g><g id="eniH4NuCkr819_to" transform="translate(347.805002,-29.924988)"><g id="eniH4NuCkr819" transform="translate(-355.275024,-29.876617)" opacity="0"><path d="M995.27,513.12l13.65-41.53h9.61l13.11,41.53h-5.46L1023,503h-19.16l-3.27,10.09Zm18.16-39.87l-8.37,25.81h16.61Z" transform="translate(-724.06-455.98)" fill="#165de4"/><path d="M1059.26,456.86c1.359575,1.013847,2.112531,2.647763,2,4.34.067028,2.389628.297567,4.771863.69,7.13.2,1,.39,1.83.58,2.49l.23.55.18.38c0,.07,0,.09,0,.05.184744.186261.288895.43766.29.7.006009.218646-.081253.429529-.24.58-.161447.178832-.389156.28365-.63.29-.233652.000457-.460088-.080919-.64-.23-.421009-.527358-.718313-1.14247-.87-1.8-.266801-.893248-.480508-1.801503-.64-2.72-.431625-2.431416-.682312-4.891498-.75-7.36.108271-1.139319-.347312-2.259604-1.22-3-1.011387-.54096-2.188659-.683659-3.3-.4q-4.64.75-11.12,5.45c-3.955792,2.746717-7.406663,6.156989-10.2,10.08-1.095555,1.512102-1.917966,3.204306-2.43,5-.408011,1.282255-.30409,2.672644.29,3.88.041967.056596.078781.116836.11.18q1,3.46,7.3,8l2.32,1.59c.81.56,1.65,1.1,2.52,1.63s1.68,1,2.43,1.5s1.61,1,2.55,1.57s1.75,1.05,2.41,1.47c1.928549,1.178774,3.794408,2.457171,5.59,3.83c1.208758.890378,2.228511,2.012105,3,3.3.810395,1.166386.810395,2.713614,0,3.88-.73,1.16-2.26,2.17-4.58,3h.06c-4.185172,1.918995-8.671849,3.096494-13.26,3.48-1.869107.195308-3.758256.039292-5.57-.46-1.81-.58-2.86-1.61-3.13-3.07-.160726-1.172485.041694-2.366065.58-3.42.558358-1.127514,1.228377-2.196194,2-3.19.9439-1.243461,1.969499-2.422733,3.07-3.53.172032-.162387.403956-.245735.64-.23.476035.010582.859418.393965.87.87.012923.232648-.070224.460401-.23.63l-.47.41c-.27.31-.64.73-1.13,1.27-.463427.515146-.897448,1.056004-1.3,1.62-.699659.913195-1.321822,1.883234-1.86,2.9-.372946.713112-.532642,1.518538-.46,2.32.16.77.79,1.35,1.91,1.74c1.608952.411956,3.278986.530519,4.93.35c2.151737-.193839,4.282882-.571892,6.37-1.13c2.150501-.55456,4.245868-1.30434,6.26-2.24h.06c1.430399-.403287,2.716931-1.204335,3.71-2.31.406661-.611788.382604-1.41369-.06-2q-1.27-2.26-8-6.49c-.65-.42-1.9-1.19-3.73-2.29s-3.43-2.08-4.79-2.95-2.6-1.73-3.76-2.58q-6.72-4.87-8-8.93c-.745216-1.592273-.887345-3.400866-.4-5.09.559334-1.995978,1.459229-3.880345,2.66-5.57c2.917852-4.068811,6.505528-7.612529,10.61-10.48q6.88-5,11.93-5.74c.46-.08.89-.13,1.28-.17c1.183763-.06477,2.356364.258222,3.34.92Z" transform="translate(-724.06-455.98)" fill="#165de4"/><path d="M1096.76,513.12h-6.47l-18.8-20.65v20.65h-5.22v-41.53h5.22v19.46l17.62-19.46h6.46l-18.45,20.17Z" transform="translate(-724.06-455.98)" fill="#165de4"/><path d="M1104.36,475.8v13.53h20.29v4.21h-20.29v15.36h22.64v4.22h-27.88v-41.53h27.88v4.21Z" transform="translate(-724.06-455.98)" fill="#165de4"/><path d="M1144.23,513.12h-14.23v-41.53h14.24c13.4,0,19.16,6.23,19.16,20.76s-5.77,20.77-19.17,20.77Zm-9-37.32v33.1h8.77c9.85,0,13.94-4.86,13.94-16.55s-4.09-16.55-13.94-16.55Z" transform="translate(-724.06-455.98)" fill="#165de4"/></g></g><g id="eniH4NuCkr825_to" transform="translate(347.705551,152.115416)"><g id="eniH4NuCkr825_tr" transform="rotate(0.320644)"><g id="eniH4NuCkr825_ts" transform="scale(2,2)"><path id="eniH4NuCkr825" d="M1080.85,521.72c3.41-2.31,5-4.59,5.36-6.45.52-2.49-1.16-4.25-3.86-4.82-2.282423-.262242-4.593626.082714-6.7,1l-25.26,9.42c-3.411076,1.35571-7.1229,1.773506-10.75,1.21-4.15-.87-7.33-3.27-6.43-10.12c1.71-13.28,18.7-15.34,37.78-11.34c15.87,3.34,29.6,12.18,26.42,27.32-2.26,10.78-10.38,14.38-22.85,18.58l-26.94,9.18c-.595304.231568-1.245395.283715-1.87.15-.747951-.164065-1.39511-.629375-1.788798-1.286153s-.499041-1.446859-.291202-2.183847c.220789-.990907.788198-1.870391,1.6-2.48Zm-29.52,61.14c-6.84-1.43-15.16-5.67-12.77-13.4c1.33-4.27,3.81-7.32,11-5.82c6.85,1.44,14,5,11.53,13.15-1.65,5.61-5.71,6.92-9.76,6.07Z" transform="translate(-1063.791063,-549.502711)" opacity="0" fill="none" stroke="#fd4100" stroke-width="2" stroke-linecap="round" stroke-miterlimit="10"/></g></g></g><path d="M827.61,522c-14.48-5.57-29.12-11.2-44.5-13.21s-31.81-.09-44.76,8.45c-6.86,4.53-12.85,11.51-13.26,19.72-.61,12.23,10.77,21.42,21.49,27.35c33.759735,18.568057,72.223302,26.828875,110.63,23.76c11.1-.91,24.13-4.37,27.74-14.9c1.059299-3.613461,1.264697-7.423601.6-11.13-3.23-23.77-22.66-43.33-45.31-51.25s-47.84-5.64-70.76,1.47c-8.15,2.53-16.35,5.79-22.54,11.69s-10,14.94-7.6,23.14c3.19,11,15.39,16.3,26.26,19.91c32.904663,10.918192,66.573642,19.381396,100.73,25.32" transform="translate(-724.06-455.98)" fill="none" stroke="#fd4100" stroke-width="2" stroke-linecap="round" stroke-miterlimit="10"/><g id="eniH4NuCkr827_to" transform="translate(51.290001,97.37278)"><g id="eniH4NuCkr827_ts" transform="scale(1.5,1.5)"><g id="eniH4NuCkr827" transform="translate(-95.255005,-88.994995)" opacity="0"><path d="M786.92,573.17h-8.92l-6.41-9.77c-2.034225.317193-4.091338.464368-6.15.44-15.37,0-21.9-7-21.9-23.48s6.6-23.49,22-23.49s22,7,22,23.49c0,12.44-3.81,19.48-12.31,22.15h4.89l6.91,10.6Zm-35-32.81c0,12.25,4,17.39,13.59,17.39s13.58-5.14,13.58-17.39-4-17.4-13.58-17.4-13.63,5.15-13.63,17.4Z" transform="translate(-724.06-455.98)" fill="#fff"/><path d="M789.34,518.08h7.93v28.18c0,7.81,3,11.11,10.16,11.11s10.09-3.3,10.09-11.11v-28.18h8v28.18c0,12.25-5.46,17.52-18.09,17.52s-18.09-5.27-18.09-17.52Z" transform="translate(-724.06-455.98)" fill="#fff"/><path d="M837.9,524.11v12.31h20.37v6h-20.37v14.09h22.91v6h-30.81v-44.43h30.85v6Z" transform="translate(-724.06-455.98)" fill="#fff"/><path d="M895.09,549.88c0,9.71-5.27,13.9-17.45,13.9s-17.46-4.19-17.46-14h7.17c0,6,3,8.38,10.29,8.38c7,0,9.84-2.09,9.84-7.11c0-11.29-26.67-4.5-26.67-20.37c0-9.71,5-13.9,16.83-13.9s16.82,4.19,16.82,14h-7.24c0-5.9-2.79-8.38-9.58-8.38-6.61,0-9.27,2-9.27,7.11c0,9.83,26.72,3.49,26.72,20.37Z" transform="translate(-724.06-455.98)" fill="#fff"/></g></g></g></g></svg>