<svg id="eVwlgO4sv7n1" xmlns="http://www.w3.org/2000/svg" xmlns:xlink="http://www.w3.org/1999/xlink" viewBox="0 0 346 106.93" shape-rendering="geometricPrecision" text-rendering="geometricPrecision"><style><![CDATA[#eVwlgO4sv7n4_to {animation: eVwlgO4sv7n4_to__to 7000ms linear infinite normal forwards}@keyframes eVwlgO4sv7n4_to__to { 0% {transform: translate(-816.712437px,-481.660007px);animation-timing-function: cubic-bezier(0.42,0,1,1)} 2.714286% {transform: translate(-773.3px,-481.7px)} 91.428571% {transform: translate(-773.3px,-481.7px);animation-timing-function: cubic-bezier(0,0,0.58,1)} 100% {transform: translate(-816.712437px,-481.660007px)}} #eVwlgO4sv7n4 {animation: eVwlgO4sv7n4_c_o 7000ms linear infinite normal forwards}@keyframes eVwlgO4sv7n4_c_o { 0% {opacity: 0} 1.428571% {opacity: 1} 91.428571% {opacity: 1;animation-timing-function: cubic-bezier(0,0,0.58,1)} 100% {opacity: 0}} #eVwlgO4sv7n5_to {animation: eVwlgO4sv7n5_to__to 7000ms linear infinite normal forwards}@keyframes eVwlgO4sv7n5_to__to { 0% {transform: translate(-773.3px,-481.7px)} 6.571429% {transform: translate(-773.3px,-481.7px);animation-timing-function: cubic-bezier(0.25,1,0.25,1)} 91.428571% {transform: translate(-773.3px,-481.7px)} 100% {transform: translate(-773.3px,-481.7px)}} #eVwlgO4sv7n5 {animation: eVwlgO4sv7n5_c_o 7000ms linear infinite normal forwards}@keyframes eVwlgO4sv7n5_c_o { 0% {opacity: 0;animation-timing-function: cubic-bezier(0.25,1,0.25,1)} 4.428571% {opacity: 0;animation-timing-function: cubic-bezier(0.25,1,0.25,1)} 6.571429% {opacity: 1;animation-timing-function: cubic-bezier(0.25,1,0.25,1)} 91.428571% {opacity: 1;animation-timing-function: cubic-bezier(0,0,0.58,1)} 100% {opacity: 0}} #eVwlgO4sv7n6_to {animation: eVwlgO4sv7n6_to__to 7000ms linear infinite normal forwards}@keyframes eVwlgO4sv7n6_to__to { 0% {transform: translate(-773.3px,-481.7px)} 11.285714% {transform: translate(-773.3px,-481.7px);animation-timing-function: cubic-bezier(0.25,1,0.25,1)} 91.428571% {transform: translate(-773.3px,-481.7px)} 100% {transform: translate(-773.3px,-481.7px)}} #eVwlgO4sv7n6 {animation: eVwlgO4sv7n6_c_o 7000ms linear infinite normal forwards}@keyframes eVwlgO4sv7n6_c_o { 0% {opacity: 0;animation-timing-function: cubic-bezier(0.25,1,0.25,1)} 8% {opacity: 0;animation-timing-function: cubic-bezier(0.25,1,0.25,1)} 11.285714% {opacity: 1;animation-timing-function: cubic-bezier(0.25,1,0.25,1)} 91.428571% {opacity: 1;animation-timing-function: cubic-bezier(0,0,0.58,1)} 100% {opacity: 0}} #eVwlgO4sv7n7_to {animation: eVwlgO4sv7n7_to__to 7000ms linear infinite normal forwards}@keyframes eVwlgO4sv7n7_to__to { 0% {transform: translate(-773.3px,-481.7px)} 16.571429% {transform: translate(-773.3px,-481.7px);animation-timing-function: cubic-bezier(0.25,1,0.25,1)} 91.428571% {transform: translate(-773.3px,-481.7px)} 100% {transform: translate(-773.3px,-481.7px)}} #eVwlgO4sv7n7 {animation: eVwlgO4sv7n7_c_o 7000ms linear infinite normal forwards}@keyframes eVwlgO4sv7n7_c_o { 0% {opacity: 0;animation-timing-function: cubic-bezier(0.25,1,0.25,1)} 11.285714% {opacity: 0;animation-timing-function: cubic-bezier(0.25,1,0.25,1)} 12.285714% {opacity: 0;animation-timing-function: cubic-bezier(0.25,1,0.25,1)} 16.571429% {opacity: 1;animation-timing-function: cubic-bezier(0.25,1,0.25,1)} 91.428571% {opacity: 1;animation-timing-function: cubic-bezier(0,0,0.58,1)} 100% {opacity: 0}} #eVwlgO4sv7n8_to {animation: eVwlgO4sv7n8_to__to 7000ms linear infinite normal forwards}@keyframes eVwlgO4sv7n8_to__to { 0% {transform: translate(-773.3px,-481.7px)} 22.142857% {transform: translate(-773.3px,-481.7px);animation-timing-function: cubic-bezier(0.25,1,0.25,1)} 91.428571% {transform: translate(-773.3px,-481.7px)} 100% {transform: translate(-773.3px,-481.7px)}} #eVwlgO4sv7n8 {animation: eVwlgO4sv7n8_c_o 7000ms linear infinite normal forwards}@keyframes eVwlgO4sv7n8_c_o { 0% {opacity: 0;animation-timing-function: cubic-bezier(0.25,1,0.25,1)} 16.571429% {opacity: 0;animation-timing-function: cubic-bezier(0.25,1,0.25,1)} 17.857143% {opacity: 1;animation-timing-function: cubic-bezier(0.25,1,0.25,1)} 91.428571% {opacity: 1;animation-timing-function: cubic-bezier(0,0,0.58,1)} 100% {opacity: 0}} #eVwlgO4sv7n9 {animation: eVwlgO4sv7n9_c_o 7000ms linear infinite normal forwards}@keyframes eVwlgO4sv7n9_c_o { 0% {opacity: 0;animation-timing-function: cubic-bezier(0.42,0,1,1)} 19.857143% {opacity: 0;animation-timing-function: cubic-bezier(0.42,0,1,1)} 23% {opacity: 1;animation-timing-function: cubic-bezier(0.42,0,1,1)} 91.428571% {opacity: 1;animation-timing-function: cubic-bezier(0,0,0.58,1)} 100% {opacity: 0}} #eVwlgO4sv7n15_ts {animation: eVwlgO4sv7n15_ts__ts 7000ms linear infinite normal forwards}@keyframes eVwlgO4sv7n15_ts__ts { 0% {transform: translate(76.669983px,79.575012px) scale(-0.000447,1);animation-timing-function: cubic-bezier(0.42,0,1,1)} 18.571429% {transform: translate(76.669983px,79.575012px) scale(-0.000447,1);animation-timing-function: cubic-bezier(0.42,0,1,1)} 24.285714% {transform: translate(76.669983px,79.575012px) scale(1,1);animation-timing-function: cubic-bezier(0.42,0,1,1)} 91.428571% {transform: translate(76.669983px,79.575012px) scale(1,1);animation-timing-function: cubic-bezier(0,0,0.58,1)} 100% {transform: translate(76.669983px,79.575012px) scale(-0.000447,1)}} #eVwlgO4sv7n20 {animation: eVwlgO4sv7n20_c_o 7000ms linear infinite normal forwards}@keyframes eVwlgO4sv7n20_c_o { 0% {opacity: 0;animation-timing-function: cubic-bezier(0.42,0,1,1)} 22.857143% {opacity: 0;animation-timing-function: cubic-bezier(0.42,0,1,1)} 30% {opacity: 1;animation-timing-function: cubic-bezier(0.42,0,1,1)} 91.428571% {opacity: 1;animation-timing-function: cubic-bezier(0,0,0.58,1)} 100% {opacity: 0}} #eVwlgO4sv7n24_tr {animation: eVwlgO4sv7n24_tr__tr 7000ms linear infinite normal forwards}@keyframes eVwlgO4sv7n24_tr__tr { 0% {transform: translate(176.361914px,41.839133px) rotate(15.086986deg)} 27.571429% {transform: translate(176.361914px,41.839133px) rotate(15.086986deg);animation-timing-function: cubic-bezier(0.42,0,1,1)} 29.857143% {transform: translate(176.361914px,41.839133px) rotate(2.971691deg);animation-timing-function: cubic-bezier(0.42,0,1,1)} 32.142857% {transform: translate(176.361914px,41.839133px) rotate(-1.229043deg);animation-timing-function: cubic-bezier(0.42,0,1,1)} 34.714286% {transform: translate(176.361914px,41.839133px) rotate(-0.264461deg);animation-timing-function: cubic-bezier(0.42,0,1,1)} 35.714286% {transform: translate(176.361914px,41.839133px) rotate(0.114649deg)} 100% {transform: translate(176.361914px,41.839133px) rotate(0.114649deg)}} #eVwlgO4sv7n24 {animation: eVwlgO4sv7n24_c_o 7000ms linear infinite normal forwards}@keyframes eVwlgO4sv7n24_c_o { 0% {opacity: 0} 27.571429% {opacity: 0;animation-timing-function: cubic-bezier(0.42,0,1,1)} 31.571429% {opacity: 1} 100% {opacity: 1}}]]></style><g transform="translate(0 0.000007)"><g><g id="eVwlgO4sv7n4_to" transform="translate(-816.712437,-481.660007)"><path id="eVwlgO4sv7n4" d="M816.86,523.55c0,3.84-3.72,6.35-14.64,6.35-15.62,0-28.92-6.29-28.92-17.39c0-5.55,5.19-8.48,11.17-6l12.2,5c2.81,1.16,4-1.1,1.59-2.8L780.08,496c-2.75-2-4.27-4.15-4.27-6.41c0-6.1,7.32-7.93,15.43-7.93s17.33,1.34,20.86,3c3.24,1.53,4.94,3.48,4.76,7-.18,3.66-2.93,5.12-8.17,3.29l-25-8.72c-.987722-.416743-2.115235-.335598-3.033103.218287s-1.515209,1.513602-1.606897,2.581713c0,1.53.49,2.75,3.36,3.66l23.79,7.57c5.37,1.71,6.22,4.57,6.22,6.83c0,2.93-1.59,5.73-6.22,6.28l-21.84,2.69c-3.72.49-5.13,1.71-5.13,3.47s1.59,3.36,5.13,3.06l26.84-2.38c4.62-.44,5.66,1.39,5.66,3.34Z" transform="translate(0,0)" opacity="0" fill="#212121"/></g><g id="eVwlgO4sv7n5_to" transform="translate(-773.3,-481.7)"><path id="eVwlgO4sv7n5" d="M816.55,528.92l14-42.7h9.89L854,528.92h-5.61L845,518.55h-19.7L822,528.92Zm18.67-41l-8.6,26.54h17.08Z" transform="translate(0,0)" opacity="0" fill="#212121"/></g><g id="eVwlgO4sv7n6_to" transform="translate(-773.3,-481.7)"><path id="eVwlgO4sv7n6" d="M874.93,512.69h-13.18v16.31h-5.37v-42.7h18.24c10.44,0,14.77,5.06,14.77,13.36c0,6.77-2.81,11-9.27,12.44l9.39,16.84h-5.73Zm-.55-4.15c6.77,0,9.64-3,9.64-9s-2.81-9-9.64-9h-12.63v18Z" transform="translate(0,0)" opacity="0" fill="#212121"/></g><g id="eVwlgO4sv7n7_to" transform="translate(-773.3,-481.7)"><path id="eVwlgO4sv7n7" d="M919.4,528.92h-26.23v-42.7h5.36v38.06h20.87Z" transform="translate(0,0)" opacity="0" fill="#212121"/></g><g id="eVwlgO4sv7n8_to" transform="translate(-773.3,-481.7)"><path id="eVwlgO4sv7n8" d="M928.12,528.92v-18.3h-2.12l-12.81-24.4h6l11.53,23.24l11.53-23.24h5.75l-12.57,24.4h-2.13v18.3h-5.18Z" transform="translate(0,0)" opacity="0" fill="#212121"/></g></g><g id="eVwlgO4sv7n9" opacity="0"><path d="M963.18,490.55v13.91h20.87v4.33h-20.87v15.8h23.31v4.33h-28.67v-42.7h28.67v4.33Z" transform="translate(-773.3-481.7)" fill="none" stroke="#a4a4a4" stroke-miterlimit="10"/><path d="M987.09,528.92l14-42.7h9.91l13.48,42.7h-5.61l-3.3-10.37h-19.7l-3.36,10.37Zm18.67-41l-8.6,26.54h17.08Z" transform="translate(-773.3-481.7)" fill="none" stroke="#a4a4a4" stroke-miterlimit="10"/><path d="M1045.47,512.69h-13.18v16.31h-5.36v-42.7h18.24c10.43,0,14.76,5.06,14.76,13.36c0,6.77-2.81,11-9.27,12.44l9.39,16.84h-5.73Zm-.55-4.15c6.77,0,9.64-3,9.64-9s-2.81-9-9.64-9h-12.63v18Z" transform="translate(-773.3-481.7)" fill="none" stroke="#a4a4a4" stroke-miterlimit="10"/><path d="M1089.94,528.92h-26.23v-42.7h5.37v38.06h20.86Z" transform="translate(-773.3-481.7)" fill="none" stroke="#a4a4a4" stroke-miterlimit="10"/><path d="M1098.66,528.92v-18.3h-2.07l-12.81-24.4h6l11.53,23.24l11.53-23.24h5.68l-12.57,24.4h-2.07v18.3h-5.19Z" transform="translate(-773.3-481.7)" fill="none" stroke="#a4a4a4" stroke-miterlimit="10"/></g><g id="eVwlgO4sv7n15_ts" transform="translate(76.669983,79.575012) scale(-0.000447,1)"><g transform="translate(-76.830017,-79.575012)"><path d="M810.91,553.4c-2.12-.07-3.24,1.2-3.24,2.47-.020718,1.17149.838901,2.172946,2,2.33l7.7,1.2c9.31,1.49,11.08,7.06,11.08,11.51c0,10.59-9.67,17.72-23.44,17.72-21.46,0-31.55-11.72-31.55-27.6c0-17.3,10.17-27.11,26.75-27.11h8.9c13.27,0,18.91,2.4,18.91,9.81c0,6.36-5.57,10.24-11.15,10Zm5.16,22.45c5.15-.07,7.9-2.68,7.9-5.51c0-4.3-3.46-6.14-9.39-4.94l-25.48,5.09c-2.61.49-4.23-.36-4.66-1.7-.56-1.83.14-3.17,2.26-4.45l21.39-12.7c6.14-3.67,6-8.54,3.18-11.93-3.32-4-10.38-4.17-16.17,3.67l-14.33,19.48c-1.79003,2.368418-2.218146,5.497836-1.13,8.26c1.2,3,4.1,4.94,8.47,4.94Z" transform="translate(-773.3-481.7)" fill="#212121"/><path d="M837.46,538.16v49.41h-6.21v-49.41Z" transform="translate(-773.3-481.7)" fill="#212121"/><path d="M866,568.79h-15.27v18.85h-6.21v-49.41h21.1c12.07,0,17.09,5.86,17.09,15.46c0,7.83-3.25,12.77-10.73,14.4l10.87,19.48h-6.64Zm-.64-4.8c7.84,0,11.15-3.46,11.15-10.37c0-7.06-3.24-10.45-11.15-10.45h-14.63v20.83Z" transform="translate(-773.3-481.7)" fill="#212121"/><path d="M904,587.57h-16.91v-49.41h16.91c16,0,22.8,7.41,22.8,24.7s-6.8,24.71-22.8,24.71Zm-10.73-44.4v39.39h10.44c11.72,0,16.59-5.79,16.59-19.7s-4.87-19.69-16.59-19.69Z" transform="translate(-773.3-481.7)" fill="#212121"/></g></g><g id="eVwlgO4sv7n20" opacity="0"><path d="M974.17,573.52c0,9.81-5.3,14.05-17.58,14.05h-19.49v-49.42h19.28c10.94,0,15.67,3.81,15.67,12.64c0,9.74-8.26,10.66-8.26,10.66s10.38.77,10.38,12.07Zm-30.85-14h12.21c7.06,0,10-2.54,10-8.47s-2.9-8.19-10-8.19h-12.21Zm24.35,14c0-6.71-3.53-9.53-11.86-9.53h-12.49v18.85h12.49c8.47,0,11.86-2.69,11.86-9.32Z" transform="translate(-773.3-481.7)" fill="none" stroke="#a4a4a4" stroke-miterlimit="10"/><path d="M984.61,538.15v49.42h-6.21v-49.42Z" transform="translate(-773.3-481.7)" fill="none" stroke="#a4a4a4" stroke-miterlimit="10"/><path d="M1013.13,568.79h-15.24v18.85h-6.22v-49.42h21.11c12.07,0,17.09,5.86,17.09,15.46c0,7.84-3.25,12.78-10.73,14.4L1030,587.57h-6.64Zm-.63-4.8c7.84,0,11.15-3.46,11.15-10.38s-3.24-10.45-11.15-10.45h-14.61v20.84Z" transform="translate(-773.3-481.7)" fill="none" stroke="#a4a4a4" stroke-miterlimit="10"/><g id="eVwlgO4sv7n24_tr" transform="translate(176.361914,41.839133) rotate(15.086986)"><path id="eVwlgO4sv7n24" d="M1051.18,587.57h-16.94v-49.42h16.94c16,0,67.3,7.41,67.3,24.71s-51.34,24.71-67.3,24.71Zm-10.73-44.41v39.39h10.45c11.72,0,60.55-5.78,60.55-19.69s-48.83-19.7-60.55-19.7Z" transform="translate(-949.621914,-523.459133)" opacity="0" fill="none" stroke="#a4a4a4" stroke-miterlimit="10"/></g></g></g></svg>