<svg id="eQSFmXE7TtV1" xmlns="http://www.w3.org/2000/svg" xmlns:xlink="http://www.w3.org/1999/xlink" viewBox="0 0 324.72 105.78" shape-rendering="geometricPrecision" text-rendering="geometricPrecision"><style><![CDATA[#eQSFmXE7TtV2 {animation: eQSFmXE7TtV2_c_o 6000ms linear infinite normal forwards}@keyframes eQSFmXE7TtV2_c_o { 0% {opacity: 0} 11.666667% {opacity: 0} 16.666667% {opacity: 1} 91.666667% {opacity: 1} 100% {opacity: 0}} #eQSFmXE7TtV5_to {animation: eQSFmXE7TtV5_to__to 6000ms linear infinite normal forwards}@keyframes eQSFmXE7TtV5_to__to { 0% {transform: translate(202.73881px,25.227881px)} 13.333333% {transform: translate(202.73881px,25.227881px);animation-timing-function: cubic-bezier(0.42,0,1,1)} 18.333333% {transform: translate(255.035001px,24.893948px)} 91.666667% {transform: translate(255.035001px,24.893948px)} 100% {transform: translate(202.73881px,25.227881px)}} #eQSFmXE7TtV5_ts {animation: eQSFmXE7TtV5_ts__ts 6000ms linear infinite normal forwards}@keyframes eQSFmXE7TtV5_ts__ts { 0% {transform: scale(0.23,1)} 13.333333% {transform: scale(0.23,1);animation-timing-function: cubic-bezier(0.42,0,1,1)} 18.333333% {transform: scale(1,1)} 91.666667% {transform: scale(1,1)} 100% {transform: scale(0.23,1)}} #eQSFmXE7TtV6 {animation: eQSFmXE7TtV6_c_o 6000ms linear infinite normal forwards}@keyframes eQSFmXE7TtV6_c_o { 0% {opacity: 0} 25% {opacity: 0;animation-timing-function: cubic-bezier(0.42,0,1,1)} 30% {opacity: 1} 88.333333% {opacity: 1} 93.333333% {opacity: 0} 100% {opacity: 0}} #eQSFmXE7TtV12_to {animation: eQSFmXE7TtV12_to__to 6000ms linear infinite normal forwards}@keyframes eQSFmXE7TtV12_to__to { 0% {transform: translate(-50.760591px,84.642143px);animation-timing-function: cubic-bezier(0.42,0,1,1)} 3.333333% {transform: translate(-52.508492px,40.927683px);animation-timing-function: cubic-bezier(0.42,0,1,1)} 10% {transform: translate(-52.508492px,40.927683px)} 91.666667% {transform: translate(-52.508492px,40.927683px)} 100% {transform: translate(-50.760591px,84.642143px)}} #eQSFmXE7TtV12_tr {animation: eQSFmXE7TtV12_tr__tr 6000ms linear infinite normal forwards}@keyframes eQSFmXE7TtV12_tr__tr { 0% {transform: rotate(2.804909deg);animation-timing-function: cubic-bezier(0.42,0,1,1)} 3.333333% {transform: rotate(-0.890517deg);animation-timing-function: cubic-bezier(0.42,0,1,1)} 5% {transform: rotate(0.506021deg);animation-timing-function: cubic-bezier(0.42,0,1,1)} 6.666667% {transform: rotate(-0.197311deg);animation-timing-function: cubic-bezier(0.42,0,1,1)} 8.333333% {transform: rotate(0.652866deg);animation-timing-function: cubic-bezier(0.42,0,1,1)} 10% {transform: rotate(-0.182992deg)} 91.666667% {transform: rotate(-0.182992deg)} 100% {transform: rotate(2.804909deg)}} #eQSFmXE7TtV12 {animation: eQSFmXE7TtV12_c_o 6000ms linear infinite normal forwards}@keyframes eQSFmXE7TtV12_c_o { 0% {opacity: 0;animation-timing-function: cubic-bezier(0.42,0,1,1)} 3.333333% {opacity: 1;animation-timing-function: cubic-bezier(0.42,0,1,1)} 10% {opacity: 1} 91.666667% {opacity: 1} 100% {opacity: 0}} #eQSFmXE7TtV13_to {animation: eQSFmXE7TtV13_to__to 6000ms linear infinite normal forwards}@keyframes eQSFmXE7TtV13_to__to { 0% {transform: translate(-784.85px,-316px)} 5% {transform: translate(-784.85px,-316px);animation-timing-function: cubic-bezier(0.42,0,1,1)} 8.333333% {transform: translate(-784.85px,-367.32px)} 91.666667% {transform: translate(-784.85px,-367.32px)} 100% {transform: translate(-784.85px,-316px)}} #eQSFmXE7TtV13 {animation: eQSFmXE7TtV13_c_o 6000ms linear infinite normal forwards}@keyframes eQSFmXE7TtV13_c_o { 0% {opacity: 0} 5% {opacity: 0;animation-timing-function: cubic-bezier(0.42,0,1,1)} 8.333333% {opacity: 1} 91.666667% {opacity: 1} 100% {opacity: 0}} #eQSFmXE7TtV14_to {animation: eQSFmXE7TtV14_to__to 6000ms linear infinite normal forwards}@keyframes eQSFmXE7TtV14_to__to { 0% {transform: translate(-787.55px,-316px)} 6.666667% {transform: translate(-787.55px,-316px);animation-timing-function: cubic-bezier(0.42,0,1,1)} 10% {transform: translate(-787.55px,-367.24px)} 91.666667% {transform: translate(-787.55px,-367.24px)} 100% {transform: translate(-787.55px,-316px)}} #eQSFmXE7TtV14 {animation: eQSFmXE7TtV14_c_o 6000ms linear infinite normal forwards}@keyframes eQSFmXE7TtV14_c_o { 0% {opacity: 0} 6.666667% {opacity: 0;animation-timing-function: cubic-bezier(0.42,0,1,1)} 10% {opacity: 1} 91.666667% {opacity: 1} 100% {opacity: 0}} #eQSFmXE7TtV15_to {animation: eQSFmXE7TtV15_to__to 6000ms linear infinite normal forwards}@keyframes eQSFmXE7TtV15_to__to { 0% {transform: translate(126.090042px,62.560075px)} 18.333333% {transform: translate(126.090042px,62.560075px);animation-timing-function: cubic-bezier(0.42,0,1,1)} 25% {transform: translate(84.060028px,76.78006px)} 91.666667% {transform: translate(84.060028px,76.78006px)} 100% {transform: translate(126.090042px,62.560075px)}} #eQSFmXE7TtV15_ts {animation: eQSFmXE7TtV15_ts__ts 6000ms linear infinite normal forwards}@keyframes eQSFmXE7TtV15_ts__ts { 0% {transform: scale(1.5,1.5)} 18.333333% {transform: scale(1.5,1.5);animation-timing-function: cubic-bezier(0.42,0,1,1)} 25% {transform: scale(1,1)} 91.666667% {transform: scale(1,1)} 100% {transform: scale(1.5,1.5)}} #eQSFmXE7TtV15 {animation: eQSFmXE7TtV15_c_o 6000ms linear infinite normal forwards}@keyframes eQSFmXE7TtV15_c_o { 0% {opacity: 0} 18.333333% {opacity: 0;animation-timing-function: cubic-bezier(0.42,0,1,1)} 25% {opacity: 1} 91.666667% {opacity: 1} 100% {opacity: 0}}]]></style><g id="eQSFmXE7TtV2" opacity="0"><path d="M920,397.06h-11.7v15.78h-5.3v-42h17c10.26,0,14.52,5,14.52,13.14s-4.29,13.08-14.52,13.08Zm-.24-22h-11.49v17.7h11.46c6.72,0,9.48-2.94,9.48-8.82s-2.76-8.84-9.48-8.84Z" transform="translate(-787.55-367.24)" fill="none" stroke="#a4a4a4" stroke-miterlimit="10"/><path d="M955.73,396.88h-13v16h-5.28v-42h17.94c10.26,0,14.52,5,14.52,13.14c0,6.66-2.76,10.86-9.12,12.24l9.24,16.56h-5.64Zm-.54-4.08c6.66,0,9.48-2.94,9.48-8.82s-2.76-8.88-9.48-8.88h-12.42v17.7Z" transform="translate(-787.55-367.24)" fill="none" stroke="#a4a4a4" stroke-miterlimit="10"/><g id="eQSFmXE7TtV5_to" transform="translate(202.73881,25.227881)"><g id="eQSFmXE7TtV5_ts" transform="scale(0.23,1)"><path d="M979,375.1v13.68h132.5v4.22h-132.5v15.54h132.5v4.26h-137.83v-42h137.83v4.26Z" transform="translate(-1042.585,-392.133933)" fill="none" stroke="#a4a4a4" stroke-miterlimit="10"/></g></g></g><g id="eQSFmXE7TtV6" opacity="0"><path d="M997.79,457.18c0,10.73-5.61,15.34-18.86,15.34s-18.93-4.76-18.93-15.85h5.83c0,7.85,3.75,11,13.11,11s12.82-2.81,12.82-9.57c0-14.19-31-5.55-31-23.55c0-10.73,5.47-15.34,18.22-15.34s18.15,4.75,18.15,15.84h-5.77c0-7.77-3.6-11-12.38-11s-12.17,2.73-12.17,9.57c-.05,12.9,30.98,4.55,30.98,23.56Z" transform="translate(-787.55-367.24)" fill="none" stroke="#a4a4a4" stroke-miterlimit="10"/><path d="M996.35,471.08l16.56-50.41h11.67l15.91,50.41h-6.62L1030,458.83h-23.26l-4,12.25Zm22-48.39L1008.23,454h20.16Z" transform="translate(-787.55-367.24)" fill="none" stroke="#a4a4a4" stroke-miterlimit="10"/><path d="M1074.33,471.08h-31v-50.41h6.33v44.93h24.63Z" transform="translate(-787.55-367.24)" fill="none" stroke="#a4a4a4" stroke-miterlimit="10"/><path d="M1084.26,425.78v16.42h24.63v5.11h-24.63v18.69h27.51v5.12h-33.84v-50.45h33.84v5.11Z" transform="translate(-787.55-367.24)" fill="none" stroke="#a4a4a4" stroke-miterlimit="10"/></g><g><g id="eQSFmXE7TtV12_to" transform="translate(-50.760591,84.642143)"><g id="eQSFmXE7TtV12_tr" transform="rotate(2.804909)"><path id="eQSFmXE7TtV12" d="M812.13,367.24c13.14,0,19,6.48,19,18.66c0,9-3.78,15.78-12.84,15.78-5.16,0-8.7-2.1-12.72-7.38l-6.9-9.06c-.759804-.924307-1.893486-1.459941-3.09-1.459941s-2.330196.535634-3.09,1.459941c-1.518663,1.81605-1.414929,4.487196.24,6.18l7.38,8.28c2.46,2.82,3.48,5.1,3.48,8c0,4.2-2.58,6-7.2,6-4.14,0-7.92-1.38-7.92-8.94v-25.82c0-6.72,3.66-11.7,11.46-11.7Zm-12.78,15.12l20.82,10.56c6.06,3.06,9.42-.78,6.3-5.22l-9.12-13.08c-2.16-3.06-3.24-3.36-6.48-2l-11.1,4.56c-1.56.66-2.52,1.26-2.52,2.52c0,.98.6,1.88,2.1,2.66Z" transform="translate(-733.321508,-406.327683)" opacity="0" fill="#212121"/></g></g><g id="eQSFmXE7TtV13_to" transform="translate(-784.85,-316)"><path id="eQSFmXE7TtV13" d="M851.13,396.88h-13v16h-5.28v-42h17.94c10.26,0,14.52,5,14.52,13.14c0,6.66-2.76,10.86-9.12,12.24l9.24,16.56h-5.64Zm-.54-4.08c6.66,0,9.48-2.94,9.48-8.82s-2.76-8.88-9.48-8.88h-12.42v17.7Z" transform="translate(0,0)" opacity="0" fill="#212121"/></g><g id="eQSFmXE7TtV14_to" transform="translate(-787.55,-316)"><path id="eQSFmXE7TtV14" d="M874.35,375.1v13.68h20.52v4.22h-20.52v15.54h22.92v4.26h-28.2v-42h28.2v4.26Z" transform="translate(0,0)" opacity="0" fill="#212121"/></g></g><g id="eQSFmXE7TtV15_to" transform="translate(126.090042,62.560075)"><g id="eQSFmXE7TtV15_ts" transform="scale(1.5,1.5)"><g id="eQSFmXE7TtV15" transform="translate(-84.060028,-76.78006)" opacity="0"><path d="M787.55,455c0-4,1.59-8.57,5.91-8.57c1.545797.033414,3.012745.689032,4.068722,1.81842s1.611674,2.637025,1.541278,4.18158v12.24c0,3.45,2.16,5.25,6.48,3.16l25.21-12.16c3-1.44,5.61-2.6,4.89-5.26s-2.95-3-5.4-1.87L815,455.57c-6.84,3.17-11.52-1.44-11.67-6.62l-.07-2.74c-.07-2.66-1.22-3-4.1-3.67l-4.54-1.08c-2.927112-.8233-4.936658-3.50953-4.9-6.55c0-12.53,12.82-19.37,25.49-19.37c12.46,0,24.77,5.33,24.77,18.29c0,5.11-1.94,8.64-6.19,8.64-2.81,0-7.06-2.74-3.17-8.57l3.17-4.75c.86-1.3.65-2.6-.07-3.1-1.15-.79-2.67-.72-5-.22l-31,6.7c-3.09.65-3.81,2-3.6,3.53s1.16,2.23,3.46,2.66l36.65,6.63c3.577461.381035,6.250529,3.464673,6.12,7.06c0,10-13,20.09-29.52,20.09-17.37,0-23.28-9.15-23.28-17.5Z" transform="translate(-787.55-367.24)" fill="#212121"/><path d="M840.26,471.49l16.56-50.41h11.66l15.92,50.41h-6.63l-3.89-12.24h-23.25l-4,12.24Zm22-48.39l-10.15,31.32h20.19Z" transform="translate(-787.55-367.24)" fill="#212121"/><path d="M918.24,471.49h-31v-50.41h6.34v44.92h24.63Z" transform="translate(-787.55-367.24)" fill="#212121"/><path d="M928.17,426.19v16.42h24.62v5.11h-24.62v18.65h27.5v5.12h-33.84v-50.41h33.84v5.11Z" transform="translate(-787.55-367.24)" fill="#212121"/></g></g></g></svg>