<svg id="egMLh1Rc4JB1" xmlns="http://www.w3.org/2000/svg" xmlns:xlink="http://www.w3.org/1999/xlink" viewBox="0 0 333 113.18" shape-rendering="geometricPrecision" text-rendering="geometricPrecision"><style><![CDATA[#egMLh1Rc4JB2 {animation: egMLh1Rc4JB2_c_o 5000ms linear infinite normal forwards}@keyframes egMLh1Rc4JB2_c_o { 0% {opacity: 0;animation-timing-function: cubic-bezier(0.42,0,1,1)} 14% {opacity: 1} 88% {opacity: 1;animation-timing-function: cubic-bezier(0,0,0.58,1)} 100% {opacity: 0}} #egMLh1Rc4JB7 {animation: egMLh1Rc4JB7_c_o 5000ms linear infinite normal forwards}@keyframes egMLh1Rc4JB7_c_o { 0% {opacity: 0} 26% {opacity: 0;animation-timing-function: cubic-bezier(0.42,0,1,1)} 34% {opacity: 1} 96% {opacity: 1;animation-timing-function: cubic-bezier(0,0,0.58,1)} 100% {opacity: 0}} #egMLh1Rc4JB10_ts {animation: egMLh1Rc4JB10_ts__ts 5000ms linear infinite normal forwards}@keyframes egMLh1Rc4JB10_ts__ts { 0% {transform: translate(247.810002px,89.47px) scale(-0.007093,1)} 25.4% {transform: translate(247.810002px,89.47px) scale(-0.007093,1);animation-timing-function: cubic-bezier(0.42,0,1,1)} 33.4% {transform: translate(247.810002px,89.47px) scale(1,1)} 96% {transform: translate(247.810002px,89.47px) scale(1,1);animation-timing-function: cubic-bezier(0,0,0.58,1)} 100% {transform: translate(247.810002px,89.47px) scale(-0.007093,1)}} #egMLh1Rc4JB10 {animation: egMLh1Rc4JB10_c_o 5000ms linear infinite normal forwards}@keyframes egMLh1Rc4JB10_c_o { 0% {opacity: 0} 25.4% {opacity: 0;animation-timing-function: cubic-bezier(0.42,0,1,1)} 33.4% {opacity: 1} 96% {opacity: 1;animation-timing-function: cubic-bezier(0,0,0.58,1)} 100% {opacity: 0}} #egMLh1Rc4JB11 {animation: egMLh1Rc4JB11_c_o 5000ms linear infinite normal forwards}@keyframes egMLh1Rc4JB11_c_o { 0% {opacity: 0} 4% {opacity: 0;animation-timing-function: cubic-bezier(0.42,0,1,1)} 14% {opacity: 1} 88% {opacity: 1;animation-timing-function: cubic-bezier(0,0,0.58,1)} 100% {opacity: 0}} #egMLh1Rc4JB15_to {animation: egMLh1Rc4JB15_to__to 5000ms linear infinite normal forwards}@keyframes egMLh1Rc4JB15_to__to { 0% {transform: translate(198.585022px,92.769988px)} 13.4% {transform: translate(198.585022px,92.769988px);animation-timing-function: cubic-bezier(0.42,0,1,1)} 19.4% {transform: translate(198.585022px,31.919922px)} 92% {transform: translate(198.585022px,31.919922px);animation-timing-function: cubic-bezier(0,0,0.58,1)} 100% {transform: translate(198.585022px,92.769988px)}} #egMLh1Rc4JB15 {animation: egMLh1Rc4JB15_c_o 5000ms linear infinite normal forwards}@keyframes egMLh1Rc4JB15_c_o { 0% {opacity: 0} 13.4% {opacity: 0;animation-timing-function: cubic-bezier(0.42,0,1,1)} 19.4% {opacity: 1} 92% {opacity: 1;animation-timing-function: cubic-bezier(0,0,0.58,1)} 100% {opacity: 0}} #egMLh1Rc4JB18_ts {animation: egMLh1Rc4JB18_ts__ts 5000ms linear infinite normal forwards}@keyframes egMLh1Rc4JB18_ts__ts { 0% {transform: translate(247.810005px,33.315px) scale(0.007097,1)} 13.4% {transform: translate(247.810005px,33.315px) scale(0.007097,1);animation-timing-function: cubic-bezier(0.42,0,1,1)} 21.4% {transform: translate(247.810005px,33.315px) scale(1,1)} 92% {transform: translate(247.810005px,33.315px) scale(1,1);animation-timing-function: cubic-bezier(0,0,0.58,1)} 100% {transform: translate(247.810005px,33.315px) scale(0.007097,1)}} #egMLh1Rc4JB18 {animation: egMLh1Rc4JB18_c_o 5000ms linear infinite normal forwards}@keyframes egMLh1Rc4JB18_c_o { 0% {opacity: 0} 13.4% {opacity: 0;animation-timing-function: cubic-bezier(0.42,0,1,1)} 21.4% {opacity: 1} 92% {opacity: 1;animation-timing-function: cubic-bezier(0,0,0.58,1)} 100% {opacity: 0}}]]></style><g id="egMLh1Rc4JB2" transform="translate(0 0.000095)" opacity="0"><path d="M835.6,860.52v-19.19c0-16,3.34-19.55,10.94-19.55c5.62,0,8.74,4.41,13,11.09l16.84,26.37c1.71,2.7,2.7,3.7,4,3.7c1.78,0,2.63-.79,2.63-2.35-.193754-1.825342-.697657-3.60422-1.49-5.26L875,838.49c-1.17368-2.685881-1.730656-5.600606-1.63-8.53c0-3.63,1.85-8.25,7.82-8.25c7,0,9.16,6.83,8.45,13.36L886,868c-.78,6.83-3.13,9.95-7.75,9.95-4.33,0-6.54-3-11.58-10l-11.8-16.35c-2.84-3.9-5.83-10.23-4.91-16.13l.64-4c.57-3.63-1.63-5.47-4.19-5.47-4,0-6.33,3-6.33,7c.075429,2.302611.507219,4.579628,1.28,6.75L851,863.36c3.2,7.89,1.78,14.57-5.9,14.57-9.29,0-9.5-7.1-9.5-17.41Z" transform="translate(-835.6-821.71)" fill="#212121"/><path d="M938.44,852c0,18.41-7,26.3-23.6,26.3s-23.67-7.89-23.67-26.3s7.11-26.3,23.67-26.3s23.6,7.88,23.6,26.3Zm-40.73,0c0,14.78,5,20.9,17.13,20.9s17.16-6.13,17.16-20.9-5-20.9-17.13-20.9-17.16,6.11-17.16,20.9Z" transform="translate(-835.6-821.71)" fill="#212121"/><path d="M964.31,858h-15.31v19h-6.3v-49.81h21.3c12.16,0,17.2,5.89,17.2,15.56c0,7.89-3.27,12.87-10.8,14.5l10.95,19.62h-6.69Zm-.64-4.83c7.89,0,11.23-3.48,11.23-10.45s-3.27-10.52-11.23-10.52h-14.67v21Z" transform="translate(-835.6-821.71)" fill="#212121"/></g><g transform="translate(.599976 0)"><g id="egMLh1Rc4JB7" opacity="0"><path d="M1026,888.18h9.61v46h-5.49l-.39-42.06-13.87,42.06h-8.1L993.53,891.4v42.78h-5.53v-46h9.61l14.26,43.44Z" transform="translate(-835.6-821.71)" fill="none" stroke="#a4a4a4" stroke-miterlimit="10"/><path d="M1038.26,934.18l15-46h10.59l14.45,46h-6L1068.79,923h-21.12l-3.59,11.17Zm20-44.16l-9.22,28.59h18.3Z" transform="translate(-835.6-821.71)" fill="none" stroke="#a4a4a4" stroke-miterlimit="10"/></g><g id="egMLh1Rc4JB10_ts" transform="translate(247.810002,89.47) scale(-0.007093,1)"><path id="egMLh1Rc4JB10" d="M1168,933.8l-84.59.12v-46h5.75v41l78.84-.5Z" transform="translate(-1083.41,-911.18)" opacity="0" fill="none" stroke="#a4a4a4" stroke-miterlimit="10"/></g></g><g id="egMLh1Rc4JB11" opacity="0"><path d="M876.58,901.58c-1.84-12.7,4.85-20.62,15.63-20.62c8.61,0,12.09,4.5,12.16,21l.13,22.74c.07,7.78-4.44,10.17-8.26,10.17-5.73,0-7.51-4.44-7.51-7.92c0-2.93,1.5-7.24,2.26-9.9l7.71-27.24c1.57-5.66-5.67-7.64-7.51-1.57L880.4,923.9c-2,6.83-4.23,11-8.8,11-3.14,0-5.67-2.25-9.36-9.63l-7.91-15.7c-2.405688-4.930816-3.309788-10.459735-2.6-15.9l.62-3.9c.54-3.48-2.26-5.25-5.4-5.25-3.82,0-6.07,2.87-6.07,6.76.157419,2.225247.663594,4.411926,1.5,6.48l9.42,23.15c2.87,7,1.43,14-5.94,14-8.94,0-10-9-10-18.91v-14.4c0-15.37,4.57-20.69,12.49-20.69c5.39,0,9.9,2.73,12.83,9.83l11.06,26.83c1,2.53,2.39,3.35,3.69,3.35c2.18,0,3.21-2.19,2.46-7.17Z" transform="translate(-835.6-821.71)" fill="#212121"/><path d="M904.84,933.87l15.7-47.79h11.06l15.09,47.79h-6.29l-3.68-11.61h-22.05l-3.76,11.61ZM925.73,888l-9.63,29.7h19.12Z" transform="translate(-835.6-821.71)" fill="#212121"/><path d="M978.77,933.87h-29.36v-47.79h6v42.6h23.35Z" transform="translate(-835.6-821.71)" fill="#212121"/></g><g id="egMLh1Rc4JB15_to" transform="translate(198.585022,92.769988)"><g id="egMLh1Rc4JB15" transform="translate(-198.585022,-31.919922)" opacity="0"><path d="M1028.62,828.75v49.76h-10.45L994.22,831.1v47.41h-6v-49.76h10.48l23.95,47.41v-47.41Z" transform="translate(-835.6-821.71)" fill="none" stroke="#a4a4a4" stroke-miterlimit="10"/><path d="M1080.15,853.63c0,18.41-7,26.3-23.6,26.3s-23.67-7.89-23.67-26.3s7.11-26.3,23.67-26.3s23.6,7.89,23.6,26.3Zm-40.73,0c0,14.79,5,20.9,17.13,20.9s17.13-6.11,17.13-20.9-5-20.89-17.13-20.89-17.13,6.11-17.13,20.89Z" transform="translate(-835.6-821.71)" fill="none" stroke="#a4a4a4" stroke-miterlimit="10"/></g></g><g id="egMLh1Rc4JB18_ts" transform="translate(247.810005,33.315) scale(0.007097,1)"><path id="egMLh1Rc4JB18" d="M1150.76,861h-61.36v19h-6.25v-49.81h67.25c12.15,0,17.2,5.9,17.2,15.57c0,7.89-3.27,12.86-10.8,14.5l10.94,19.62h-6.68Zm-.64-4.83c7.88,0,11.23-3.49,11.23-10.45c0-7.11-3.27-10.52-11.23-10.52h-60.72v21Z" transform="translate(-1083.150007,-855.095)" opacity="0" fill="none" stroke="#a4a4a4" stroke-miterlimit="10"/></g></svg>