<svg id="egi0xpCTs9t1" xmlns="http://www.w3.org/2000/svg" xmlns:xlink="http://www.w3.org/1999/xlink" viewBox="0 0 711.71 288.83" shape-rendering="geometricPrecision" text-rendering="geometricPrecision"><style><![CDATA[#egi0xpCTs9t53_tr {animation: egi0xpCTs9t53_tr__tr 7000ms linear infinite normal forwards}@keyframes egi0xpCTs9t53_tr__tr { 0% {transform: translate(672.243622px,250.825867px) rotate(0deg);animation-timing-function: cubic-bezier(0.47,0,0.745,0.715)} 21.428571% {transform: translate(672.243622px,250.825867px) rotate(41.433453deg);animation-timing-function: cubic-bezier(0.47,0,0.745,0.715)} 42.857143% {transform: translate(672.243622px,250.825867px) rotate(-5.69724deg);animation-timing-function: cubic-bezier(0.47,0,0.745,0.715)} 71.428571% {transform: translate(672.243622px,250.825867px) rotate(9.006876deg);animation-timing-function: cubic-bezier(0.47,0,0.745,0.715)} 100% {transform: translate(672.243622px,250.825867px) rotate(0deg)}} #egi0xpCTs9t167 {animation: egi0xpCTs9t167_c_o 7000ms linear infinite normal forwards}@keyframes egi0xpCTs9t167_c_o { 0% {opacity: 0;animation-timing-function: cubic-bezier(0.42,0,0.58,1)} 14.285714% {opacity: 1;animation-timing-function: cubic-bezier(0.42,0,0.58,1)} 28.571429% {opacity: 0;animation-timing-function: cubic-bezier(0.42,0,0.58,1)} 42.857143% {opacity: 1;animation-timing-function: cubic-bezier(0.42,0,0.58,1)} 57.142857% {opacity: 0;animation-timing-function: cubic-bezier(0.42,0,0.58,1)} 71.428571% {opacity: 1} 85.714286% {opacity: 0;animation-timing-function: cubic-bezier(0.42,0,0.58,1)} 100% {opacity: 0}} #egi0xpCTs9t189_to {animation: egi0xpCTs9t189_to__to 7000ms linear infinite normal forwards}@keyframes egi0xpCTs9t189_to__to { 0% {transform: translate(254.435135px,204.318563px)} 14.285714% {transform: translate(254.435135px,204.318563px);animation-timing-function: cubic-bezier(0.25,1,0.25,1)} 20% {transform: translate(254.435135px,119.084991px)} 91.428571% {transform: translate(254.435135px,119.084991px)} 100% {transform: translate(254.435135px,204.318563px)}} #egi0xpCTs9t189 {animation: egi0xpCTs9t189_c_o 7000ms linear infinite normal forwards}@keyframes egi0xpCTs9t189_c_o { 0% {opacity: 0} 14.285714% {opacity: 0;animation-timing-function: cubic-bezier(0.25,1,0.25,1)} 21.428571% {opacity: 1} 91.428571% {opacity: 1} 100% {opacity: 0}} #egi0xpCTs9t198 {animation: egi0xpCTs9t198_c_o 7000ms linear infinite normal forwards}@keyframes egi0xpCTs9t198_c_o { 0% {opacity: 0;animation-timing-function: cubic-bezier(0.42,0,1,1)} 4.285714% {opacity: 1} 91.428571% {opacity: 1} 100% {opacity: 0}} #egi0xpCTs9t202_to {animation: egi0xpCTs9t202_to__to 7000ms linear infinite normal forwards}@keyframes egi0xpCTs9t202_to__to { 0% {transform: translate(175.005px,125.49px)} 2.857143% {transform: translate(175.005px,125.49px);animation-timing-function: cubic-bezier(0.42,0,1,1)} 7.142857% {transform: translate(215.86px,125.75px)} 91.428571% {transform: translate(215.86px,125.75px)} 100% {transform: translate(175.005px,125.49px)}} #egi0xpCTs9t202 {animation: egi0xpCTs9t202_c_o 7000ms linear infinite normal forwards}@keyframes egi0xpCTs9t202_c_o { 0% {opacity: 0} 2.857143% {opacity: 0;animation-timing-function: cubic-bezier(0.42,0,1,1)} 10% {opacity: 1} 91.428571% {opacity: 1} 100% {opacity: 0}} #egi0xpCTs9t203 {animation: egi0xpCTs9t203_c_o 7000ms linear infinite normal forwards}@keyframes egi0xpCTs9t203_c_o { 0% {opacity: 0} 10% {opacity: 0;animation-timing-function: cubic-bezier(0.42,0,1,1)} 14.285714% {opacity: 1} 91.428571% {opacity: 1} 100% {opacity: 0}} #egi0xpCTs9t207_to {animation: egi0xpCTs9t207_to__to 7000ms linear infinite normal forwards}@keyframes egi0xpCTs9t207_to__to { 0% {transform: translate(457.716147px,190.927215px)} 20% {transform: translate(457.716147px,190.927215px);animation-timing-function: cubic-bezier(0.25,1,0.25,1)} 25.714286% {transform: translate(458.795013px,229.777222px)} 91.428571% {transform: translate(458.795013px,229.777222px)} 100% {transform: translate(457.716147px,190.927215px)}} #egi0xpCTs9t207 {animation: egi0xpCTs9t207_c_o 7000ms linear infinite normal forwards}@keyframes egi0xpCTs9t207_c_o { 0% {opacity: 0} 20% {opacity: 0} 27.142857% {opacity: 1} 91.428571% {opacity: 1} 100% {opacity: 0}}]]></style><g><g><path d="M328.85,-72.94v20.71h3.3v20.71h-3.3v20.71h3.3v20.71h-3.35v20.7h3.3v20.71h-3.3v20.69h3.3v20.73h-3.3v20.71h3.3v20.71h-3.31v9.9h1.21c-10.140708.608116-18.171933,8.799274-18.58,18.95l-508.34-.29c-.383303-10.307417-8.633847-18.584098-18.94-19l.14-245.95c10.615251-.408578,19.00786-9.136892,19-19.76.014787-.276469.014787-.553531,0-.83l508.35.29c.373376,10.17052,8.410689,18.393943,18.57,19h-1.29v9.9h3.3v20.71Z" transform="translate(215.86 125.75)" fill="#a4a4a4"/><g><path d="M494.72,-103.43l-.14,247.54c-10.626694-.008265-19.360952,8.381569-19.78,19L351,163c-.378194-10.3058-8.625666-18.58377-18.93-19h3.3v-9.91h-3.37v-20.65h3.3v-20.71h-3.3L332,72h3.3v-20.69h-3.3v-20.71h3.3v-20.69h-3.3v-20.72h3.3v-20.71h-3.3v-20.71h3.3v-20.71h-3.3v-20.71h3.3v-9.9h-3.3c10.3058-.378194,18.58377-8.625666,19-18.93l123.83.07c.420748,10.657956,9.224031,19.058475,19.89,18.98Z" transform="translate(215.86 125.75)" fill="#a4a4a4"/><g><path d="M375.57,138.71h2.43v-4.35h1.68v4.35h2.74v-4.93h1.68v7.33h-10.22v-7.33h1.68Z" transform="translate(215.86 125.75)" fill="#a4a4a4"/><path d="M373.89,132.7v-2.15h10.18v2.16Z" transform="translate(215.86 125.75)" fill="#a4a4a4"/><path d="M382.88,125.72c.0455-.331588-.042797-.667655-.24541-.934054s-.502894-.44124-.83459-.485946v-2c1.69.32,2.42,1.36,2.41,3.47c0,2.63-1.13,3.75-3.78,3.75s-3.78-1.13-3.78-3.76s1.15-3.75,3.84-3.75h.64v5.34c1.21-.16,1.75-.64,1.75-1.63Zm-3,1.6v-3.21c-1.35,0-1.92.48-1.92,1.6s.61,1.51,1.95,1.61Z" transform="translate(215.86 125.75)" fill="#a4a4a4"/><path d="M380.46,113.36c2.64,0,3.78.89,3.77,2.84.0703.599637-.101171,1.202576-.476493,1.675482s-.923571.776814-1.523507.844518h4.77v2.17h-10.18v-1.69l1.87-.45c-.603018-.065001-1.154603-.369652-1.530729-.845452s-.545224-1.082811-.469271-1.684548c-.03-1.96,1.12-2.86,3.77-2.86Zm0,5.35c1.54,0,2.19-.47,2.19-1.59s-.65-1.6-2.19-1.6-2.2.47-2.2,1.59.64,1.6,2.18,1.6Z" transform="translate(215.86 125.75)" fill="#a4a4a4"/><path d="M373.9,112.3v-2.17h4.51c-1.095953-.13038-1.879133-1.123899-1.75-2.22c0-1.75,1-2.53,3.49-2.53h3.93v2.17h-3.93c-1.35,0-1.92.37-1.92,1.29s.57,1.31,1.92,1.31h3.93v2.15Z" transform="translate(215.86 125.75)" fill="#a4a4a4"/><path d="M382.66,99.68c1.04973.216527,1.742155,1.222087,1.57,2.28c0,1.59-.59,2.5-2.3,2.5-2.26,0-2.47-1.92-2.47-3.68v-1.09h-.32c-.87,0-1.24.36-1.24,1.22s.32,1.21,1.09,1.21v2c-1.63,0-2.32-1-2.32-3.32s.81-3.31,2.7-3.31h4.71v1.69Zm-2,.93c0,.84.06,1.67,1.12,1.67.72,0,1-.33,1-1.15c0-1.19-.68-1.44-1.71-1.44h-.36Z" transform="translate(215.86 125.75)" fill="#a4a4a4"/><path d="M378.58,94c-.553628-.045521-1.065729-.311647-1.421164-.738546s-.524375-.978741-.468836-1.531454c0-1.75,1.05-2.53,3.49-2.53h3.92v2.17h-4c-1.33,0-1.84.43-1.84,1.3s.56,1.31,1.9,1.31h3.93v2.17h-7.27v-1.66Z" transform="translate(215.86 125.75)" fill="#a4a4a4"/><path d="M382.52,84v-1.23h1.57v2c.074271.607586-.133781,1.215729-.564654,1.6505s-1.037115.648294-1.645346.5795h-3.72v1.16h-1.34v-1.16h-1.82v-2.16h1.83v-2.08h1.34v2.08h3.49c.228663.014317.452694-.068873.616595-.228962s.252338-.382101.243405-.611038Z" transform="translate(215.86 125.75)" fill="#a4a4a4"/><path d="M389.56,139.62c.55,0,.8.25.8.83s-.25.81-.8.81-.82-.25-.82-.81.26-.83.82-.83ZM399,141h-7.27v-1.18h7.27Z" transform="translate(215.86 125.75)" fill="#a4a4a4"/><path d="M395.1,131.49h3.9v1.17h-3.68c-1.32,0-2.77.11-2.77,1.83c0,1.42.75,2,2.52,2h3.93v1.16h-7.27v-.94l1.69-.18c-1.160591-.199259-1.963677-1.27004-1.83-2.44.02-1.82,1.07-2.6,3.51-2.6Z" transform="translate(215.86 125.75)" fill="#a4a4a4"/><path d="M390,118.21v3.19h9v1.28h-9v3.17h-1.11v-7.63Z" transform="translate(215.86 125.75)" fill="#a4a4a4"/><path d="M399,115.42v1.15h-10.14v-1.17h4.42c-1.086351-.269864-1.799382-1.309344-1.66-2.42c0-1.83,1.05-2.62,3.49-2.62h3.89v1.16h-3.93c-1.78,0-2.51.52-2.51,1.83s.72,2,2.51,2h3.93Z" transform="translate(215.86 125.75)" fill="#a4a4a4"/><path d="M398.33,105.48c.150014-.952245-.498313-1.846489-1.45-2v-1.11c1.61.35,2.31,1.28,2.31,3.09c0,2.37-1.14,3.38-3.78,3.38s-3.78-1-3.78-3.39s1.18-3.37,3.94-3.37h.48v5.59c1.57-.11,2.28-.75,2.28-2.19Zm-5.85,0c0,1.54.82,2.22,2.78,2.22v-4.44c-1.99,0-2.77.67-2.78,2.23Z" transform="translate(215.86 125.75)" fill="#a4a4a4"/><path d="M410.26,136.68v2.06h3.74v2.4h-10.19v-4.65c0-2.78,1.47-3.9,3.34-3.9c1.484252-.13041,2.807413.932529,3,2.41v-.66l3.87-2v2.52l-3.73,1.77Zm-1.55,2.06v-2.14c0-.571625-.304958-1.099828-.8-1.385641s-1.104958-.285812-1.6,0-.8.814016-.8,1.385641v2.14h3.2Z" transform="translate(215.86 125.75)" fill="#a4a4a4"/><path d="M410.36,124.07c2.64,0,3.78,1.16,3.78,3.9s-1.14,3.89-3.79,3.89-3.78-1.16-3.77-3.9s1.13-3.89,3.78-3.89Zm2.21,3.9c0-1.22-.67-1.75-2.21-1.75s-2.21.52-2.21,1.74.65,1.75,2.21,1.75s2.21-.52,2.21-1.71Z" transform="translate(215.86 125.75)" fill="#a4a4a4"/><path d="M410.36,115.63c2.65,0,3.78,1.17,3.78,3.9s-1.13,3.9-3.78,3.9-3.78-1.17-3.78-3.9s1.14-3.9,3.78-3.9Zm2.21,3.9c0-1.22-.67-1.74-2.21-1.74s-2.21.52-2.21,1.74.65,1.74,2.21,1.75s2.21-.53,2.21-1.75Z" transform="translate(215.86 125.75)" fill="#a4a4a4"/><path d="M410.09,112.32h3.91v2.17h-7.27v-1.69l1.64-.45c-1.073674-.110665-1.865847-1.053306-1.79-2.13-.041146-.537295.136262-1.06846.492041-1.473182s.859822-.648753,1.397959-.676818c-.543803-.027674-1.052815-.275875-1.409501-.68729s-.530208-.950477-.480499-1.49271c0-1.6,1-2.37,3.49-2.37h3.93v2.17h-3.93c-1.34,0-1.9.33-1.9,1.13s.56,1.13,1.9,1.14h3.93v2.16h-3.93c-1.35,0-1.92.32-1.92,1.12s.6,1.08,1.94,1.08Z" transform="translate(215.86 125.75)" fill="#a4a4a4"/></g><g><rect width="34.06" height="34.06" rx="17.03" ry="17.03" transform="matrix(.977453-.211154 0.211154 0.977453 650.880064 241.857332)" fill="#a4a4a4" stroke="#165de4" stroke-miterlimit="10"/><circle r="6.71" transform="translate(659.11 244.27)" fill="#a4a4a4" stroke="#165de4" stroke-miterlimit="10"/><circle r="6.71" transform="translate(668.44 239.12)" fill="#a4a4a4" stroke="#165de4" stroke-miterlimit="10"/><circle r="6.71" transform="translate(679.31 240.61)" fill="#a4a4a4" stroke="#165de4" stroke-miterlimit="10"/></g></g></g><g><g><path d="M330,-75.89v20.71h3.3v20.71h-3.3v20.71h3.3v20.76h-3.3v20.7h3.3v20.66h-3.3v20.71h3.3v20.71h-3.3v20.71h3.3v20.71h-3.3v9.9h1.29c-10.183134.527114-18.294914,8.712519-18.73,18.9l-508.35-.29c-.378194-10.3058-8.625666-18.58377-18.93-19l.14-245.95c10.610687-.418745,18.997522-9.141054,19-19.76.014961-.276464.014961-.553536,0-.83l508.34.29c.37798,10.168545,8.41277,18.389386,18.57,19h-1.33v9.9h3.3v20.71Z" transform="translate(215.86 125.75)" fill="#fff"/><g><path d="M495.86,-106.38l-.14,247.54c-10.628773-.013441-19.36604,8.379282-19.78,19l-123.84-.07c-.378194-10.3058-8.625666-18.58377-18.93-19h3.3v-9.9h-3.3v-20.7h3.3v-20.71h-3.31v-20.71h3.3v-20.71h-3.3v-20.71h3.3v-20.65h-3.3v-20.76h3.3v-20.71h-3.31v-20.71h3.3v-20.71h-3.3v-20.71h3.3v-9.9h-3.3c10.289976-.403983,18.540586-8.650239,18.95-18.94l123.84.07c.415822,10.673624,9.238699,19.084588,19.92,18.99Z" transform="translate(215.86 125.75)" fill="#fff"/><g><path d="M376.71,135.76h2.38v-4.35h1.69v4.35h2.73v-4.93h1.69v7.33h-10.2v-7.33h1.69Z" transform="translate(215.86 125.75)" fill="#165de4"/><path d="M375,129.75v-2.15h10.2v2.16Z" transform="translate(215.86 125.75)" fill="#165de4"/><path d="M384,122.77c.095058-.687182-.383241-1.321934-1.07-1.42v-2c1.68.32,2.41,1.36,2.41,3.46c0,2.64-1.14,3.76-3.78,3.75s-3.78-1.12-3.78-3.75s1.15-3.75,3.84-3.75h.64v5.34c1.21-.16,1.74-.64,1.74-1.63Zm-3,1.6v-3.21c-1.36,0-1.92.48-1.92,1.6s.63,1.51,1.92,1.61Z" transform="translate(215.86 125.75)" fill="#165de4"/><path d="M381.59,110.41c2.65,0,3.78.89,3.78,2.84.070205.598541-.101552,1.200332-.477104,1.67165s-.923792.773122-1.522896.83835h4.72v2.16h-10.09v-1.69l1.88-.45c-.600766-.070168-1.149031-.376175-1.524126-.850671s-.546279-1.078591-.475874-1.679329c-.09-1.94,1.06-2.84,3.71-2.84Zm0,5.35c1.54,0,2.2-.47,2.2-1.59s-.65-1.6-2.2-1.61-2.19.48-2.19,1.6.6,1.6,2.17,1.6Z" transform="translate(215.86 125.75)" fill="#165de4"/><path d="M375,109.35v-2.17h4.51c-1.062539-.150238-1.817149-1.112255-1.71-2.18c0-1.75,1.05-2.53,3.49-2.53h3.93v2.17h-3.92c-1.35,0-1.92.38-1.92,1.3s.56,1.31,1.92,1.31h3.92v2.15Z" transform="translate(215.86 125.75)" fill="#165de4"/><path d="M383.79,96.73c1.28.33,1.57,1.16,1.57,2.28c0,1.59-.58,2.5-2.3,2.5-2.25,0-2.47-1.92-2.47-3.68v-1.09h-.32c-.88,0-1.24.36-1.24,1.22s.32,1.21,1.09,1.21v2c-1.63,0-2.33-1-2.33-3.32s.82-3.31,2.71-3.31h4.71v1.69Zm-2,.93c0,.84.06,1.67,1.12,1.67.71,0,1-.33,1-1.15c0-1.19-.68-1.44-1.71-1.44h-.37Z" transform="translate(215.86 125.75)" fill="#165de4"/><path d="M379.71,91.08c-.553852-.040268-1.067673-.303504-1.423917-.72949s-.524431-.97827-.466083-1.53051c0-1.75,1.05-2.53,3.49-2.53h3.93v2.17h-4c-1.34,0-1.85.42-1.85,1.3s.57,1.31,1.91,1.31h3.92v2.17h-7.22v-1.71Z" transform="translate(215.86 125.75)" fill="#165de4"/><path d="M383.66,81v-1.18h1.57v2c.078885.613091-.130158,1.228206-.566274,1.666277s-1.050289.649864-1.663726.573723h-3.73v1.16h-1.27v-1.16h-1.84v-2.17h1.84v-2.08h1.34v2.08h3.49c.232886.006902.457467-.086813.616372-.257204s.236741-.400957.213628-.632796Z" transform="translate(215.86 125.75)" fill="#165de4"/><path d="M390.69,136.67c.56,0,.8.24.8.83s-.25.81-.8.81-.81-.25-.81-.81.24-.83.81-.83Zm9.47,1.41h-7.27v-1.18h7.27Z" transform="translate(215.86 125.75)" fill="#165de4"/><path d="M396.24,128.54h3.92v1.17h-3.68c-1.32,0-2.76.12-2.76,1.84c0,1.42.74,2,2.52,2h3.92v1.16h-7.27v-.95l1.69-.17c-1.160591-.199259-1.963677-1.27004-1.83-2.44c0-1.83,1.04-2.61,3.49-2.61Z" transform="translate(215.86 125.75)" fill="#165de4"/><path d="M391.1,115.26v3.18h9.07v1.28h-9.08v3.17h-1.09v-7.63Z" transform="translate(215.86 125.75)" fill="#165de4"/><path d="M400.17,112.47v1.15h-10.17v-1.17h4.42c-1.080837-.269729-1.789483-1.304782-1.65-2.41c0-1.83,1.05-2.62,3.49-2.62h3.93v1.16h-3.93c-1.79,0-2.52.52-2.52,1.83s.73,2,2.52,2h3.92Z" transform="translate(215.86 125.75)" fill="#165de4"/><path d="M399.47,102.53c.143905-.954182-.507346-1.846307-1.46-2v-1.09c1.62.35,2.32,1.28,2.31,3.09c0,2.37-1.13,3.38-3.78,3.38s-3.78-1-3.78-3.39s1.18-3.37,3.95-3.37h.48v5.58c1.56-.13,2.27-.73,2.28-2.2Zm-5.85,0c0,1.54.81,2.22,2.78,2.22v-4.45c-1.99.01-2.78.7-2.78,2.24Z" transform="translate(215.86 125.75)" fill="#165de4"/><path d="M411.4,133.73v2.06h3.72v2.4h-10.18v-4.66c0-2.77,1.48-3.89,3.35-3.89c1.484252-.13041,2.807413.932529,3,2.41v-.67l3.87-2v2.52l-3.72,1.77Zm-1.56,2.06v-2.14c.047545-.599988-.245637-1.175899-.758758-1.490467s-1.159363-.314567-1.672484,0-.806303.890479-.758758,1.490467v2.14h3.2Z" transform="translate(215.86 125.75)" fill="#165de4"/><path d="M411.49,121.12c2.65,0,3.79,1.16,3.78,3.9s-1.13,3.89-3.78,3.89-3.78-1.16-3.78-3.9s1.14-3.89,3.78-3.89Zm2.21,3.9c0-1.23-.66-1.75-2.21-1.75s-2.21.52-2.21,1.74.66,1.75,2.21,1.75s2.21-.52,2.21-1.76Z" transform="translate(215.86 125.75)" fill="#165de4"/><path d="M411.5,112.68c2.65,0,3.78,1.17,3.78,3.9s-1.14,3.9-3.78,3.9-3.79-1.17-3.78-3.9s1.13-3.9,3.78-3.9Zm2.21,3.9c0-1.22-.67-1.74-2.21-1.75s-2.21.53-2.21,1.75.65,1.74,2.21,1.74s2.21-.52,2.21-1.74Z" transform="translate(215.86 125.75)" fill="#165de4"/><path d="M411.22,109.37h3.93v2.17h-7.27v-1.69l1.64-.45c-1.065531-.115571-1.850556-1.050544-1.78-2.12-.041146-.537295.136262-1.06846.492041-1.473182s.859822-.648753,1.397959-.676818c-.543803-.027674-1.052815-.275875-1.409501-.68729s-.530208-.950477-.480499-1.49271c0-1.6,1.05-2.37,3.49-2.37h3.93v2.17h-3.93c-1.34,0-1.91.33-1.91,1.13s.57,1.13,1.91,1.13h3.92v2.16h-3.92c-1.36,0-1.92.32-1.92,1.12s.58,1.08,1.91,1.08Z" transform="translate(215.86 125.75)" fill="#165de4"/></g><g id="egi0xpCTs9t53_tr" transform="translate(672.243622,250.825867) rotate(0)"><g transform="translate(-672.243622,-250.825867)"><rect width="34.06" height="34.06" rx="17.03" ry="17.03" transform="matrix(.977453-.211154 0.211154 0.977453 652.001681 238.905242)" fill="none" stroke="#165de4" stroke-miterlimit="10"/><path d="M440.24,120.84c-1.234187-.957192-2.088286-2.321624-2.41-3.85-.532653-2.46137.357746-5.013752,2.305803-6.609726s4.625737-1.966789,6.934197-.960274c.76734.33525,1.465825.809949,2.06,1.4" transform="translate(215.86 125.75)" fill="none" stroke="#165de4" stroke-miterlimit="10"/><path d="M460.39,109.66c0-.22-.06-.43-.11-.65-.130572-.580612-.335602-1.141923-.61-1.67-1.334021-2.587723-4.18455-4.019962-7.057017-3.545777s-5.111435,2.746595-5.542983,5.625777c-.112893.805255-.085828,1.623959.08,2.42s0,0,0,.06" transform="translate(215.86 125.75)" fill="none" stroke="#165de4" stroke-miterlimit="10"/><path d="M458.4,109.31c.302857-.73594.732733-1.41291,1.27-2c.931222-1.013256,2.154267-1.712139,3.5-2c2.760769-.646818,5.629769.514312,7.163556,2.899205s1.400199,5.477067-.333556,7.720795" transform="translate(215.86 125.75)" fill="none" stroke="#165de4" stroke-miterlimit="10"/></g></g></g><g><path d="M-163,51c0,2.38-1.29,3.41-4.27,3.41h-4.73v-12h4.68c2.65,0,3.8.93,3.8,3.07.121545,1.255922-.754166,2.389969-2,2.59c1.492509.13764,2.607206,1.433697,2.52,2.93Zm-1.58,0c0-1.63-.85-2.31-2.87-2.32h-3v4.62h3c2,0,2.82-.65,2.82-2.3Zm-5.91-3.4h3c1.71,0,2.43-.61,2.43-2s-.7-2-2.43-2h-3Z" transform="translate(215.86 125.75)" fill="#a4a4a4"/><path d="M-152.85,50.17c0,3.12-1.26,4.46-4.15,4.45s-4.17-1.33-4.17-4.45s1.26-4.46,4.17-4.46s4.15,1.34,4.15,4.46ZM-157,53.48c1.95,0,2.77-1,2.77-3.31s-.8-3.31-2.77-3.31-2.79,1-2.79,3.31.79,3.31,2.79,3.31Z" transform="translate(215.86 125.75)" fill="#a4a4a4"/><path d="M-142.83,50.18c0,3.12-1.25,4.45-4.15,4.45s-4.16-1.34-4.16-4.46s1.25-4.45,4.16-4.45s4.15,1.34,4.15,4.46Zm-4.15,3.3c1.95,0,2.78-1,2.78-3.3s-.81-3.31-2.78-3.31-2.79,1-2.79,3.3.82,3.31,2.77,3.31Z" transform="translate(215.86 125.75)" fill="#a4a4a4"/><path d="M-133.36,54.47h-1.64l-4.19-4.29v4.28h-1.37v-12h1.37v7.37l3.85-3.94h1.68L-137.79,50Z" transform="translate(215.86 125.75)" fill="#a4a4a4"/><path d="M-123.08,54l2.34-8.13h1.39l-2.56,8.39c-.81,2.66-1.5,3.26-2.78,3.26h-1.46v-1h1.15c.79,0,1.2-.32,1.82-2.07h-1l-3-8.57h1.39Z" transform="translate(215.86 125.75)" fill="#a4a4a4"/><path d="M-110,50.2c0,3.12-1.25,4.45-4.15,4.45s-4.16-1.34-4.16-4.46s1.25-4.45,4.17-4.45s4.14,1.34,4.14,4.46Zm-4.15,3.3c2,0,2.78-1,2.78-3.3s-.8-3.31-2.77-3.31-2.8,1-2.8,3.3.8,3.31,2.77,3.31Z" transform="translate(215.86 125.75)" fill="#a4a4a4"/><path d="M-102,45.92h1.37v8.57h-1.12l-.2-2c-.230416,1.37162-1.499467,2.319002-2.88,2.15-2.16,0-3.09-1.23-3.08-4.11v-4.62h1.37v4.33c0,1.56.13,3.26,2.15,3.26c1.68,0,2.39-.88,2.39-3Z" transform="translate(215.86 125.75)" fill="#a4a4a4"/><path d="M-93.48,45.75v1.3h-1c-1.66,0-2.14.82-2.14,3.15v4.29h-1.37v-8.57h1.12l.2,2c.28-1.44.94-2.16,2.33-2.16Z" transform="translate(215.86 125.75)" fill="#a4a4a4"/><path d="M-79.92,52.05c0,1.83-1,2.62-3.49,2.62s-3.38-.83-3.38-2.75h1.32c0,1.29.6,1.82,2.09,1.82s2.09-.44,2.09-1.54c0-2.43-5.39-.67-5.39-4c0-1.71,1-2.45,3.31-2.44s3.24.77,3.23,2.57h-1.25c0-1.17-.58-1.65-2-1.65s-2,.39-2,1.39c.03,2.24,5.48.55,5.47,3.98Z" transform="translate(215.86 125.75)" fill="#a4a4a4"/><path d="M-74.21,53.66c1.096901.164133,2.12685-.56965,2.33-1.66h1.3c-.41,1.9-1.51,2.72-3.63,2.72-2.79,0-4-1.34-4-4.46s1.18-4.45,4-4.45s4,1.39,4,4.65v.54h-6.58c.13,1.82.88,2.66,2.58,2.66Zm0-6.89c-1.82,0-2.63,1-2.63,3.27h5.25c-.01-2.34-.8-3.27-2.63-3.27Z" transform="translate(215.86 125.75)" fill="#a4a4a4"/><path d="M-68.52,52c0-2.8,2.31-2.92,4.46-2.91h1.45v-.45c0-1.4-.63-2-2.12-2s-2.13.53-2.13,1.82h-1.32c0-1.92,1.05-2.74,3.48-2.74s3.46.92,3.46,3.07v5.67h-1.11l-.23-1.61c-.48,1.5-1.64,1.78-3,1.78-1.69.05-2.94-.63-2.94-2.63Zm5.91-2h-2c-1.77,0-2.52.57-2.52,1.9s.6,1.65,2.11,1.65s2.43-.72,2.43-2.42Z" transform="translate(215.86 125.75)" fill="#a4a4a4"/><path d="M-54.93,53.36h1.11v1.15h-1.56c-.65091.077546-1.302162-.141924-1.773372-.59762s-.712349-1.09924-.656628-1.75238v-5.16h-1.37v-1h1.37v-2h1.39v2h2.6v1h-2.6v5c0,.81.42,1.36,1.49,1.36Z" transform="translate(215.86 125.75)" fill="#a4a4a4"/><path d="M-39.34,49.89v4.63h-1.37v-4.34c0-1.56-.14-3.25-2.16-3.25-1.68,0-2.38.87-2.38,3v4.63h-1.38v-8.56h1.11l.21,2c.23504-1.36997,1.499018-2.317954,2.88-2.16c2.17-.06,3.09,1.16,3.09,4.05Z" transform="translate(215.86 125.75)" fill="#a4a4a4"/><path d="M-29,50.24c0,3.12-1.26,4.46-4.15,4.46s-4.17-1.34-4.16-4.46s1.25-4.46,4.16-4.45s4.15,1.33,4.15,4.45Zm-4.15,3.31c1.95,0,2.77-1,2.78-3.31s-.81-3.31-2.78-3.31-2.79,1-2.79,3.31.85,3.31,2.82,3.31Z" transform="translate(215.86 125.75)" fill="#a4a4a4"/><path d="M-18,54.07l2.17-8.1h1.39l-2.48,8.56h-2.08l-2-8.12-2,8.12h-2.2L-27.6,46h1.39l2.15,8l1.94-8h2.2Z" transform="translate(215.86 125.75)" fill="#a4a4a4"/><path d="M-11.65,54.43c0,1.72-.54,2.49-1.75,2.49v-.77c.56,0,.8-.43.8-1.44-.265443.053783-.540533-.02372-.738859-.208163s-.295553-.453195-.261141-.721837c0-.74.24-1.06.89-1.06s1.06.51,1.06,1.71Z" transform="translate(215.86 125.75)" fill="#a4a4a4"/><path d="M3.16,42.55v12h-1.16l-.23-2.09c-.282785,1.448438-1.634494,2.433878-3.1,2.26-2.47,0-3.53-1.34-3.53-4.45s1.07-4.46,3.54-4.46c1.448205-.180042,2.797142.766809,3.12,2.19v-5.4Zm-4,11c1.83,0,2.62-1,2.62-3.31s-.78-3.24-2.62-3.24-2.6,1-2.6,3.31.78,3.25,2.6,3.26Z" transform="translate(215.86 125.75)" fill="#a4a4a4"/><path d="M9.39,53.71c1.113302.161855,2.150562-.599396,2.33-1.71h1.28c-.41,1.9-1.51,2.72-3.63,2.72-2.8,0-4-1.34-4-4.46s1.18-4.45,4-4.45s4,1.39,4,4.65v.54h-6.59c.16,1.87.91,2.71,2.61,2.71Zm0-6.89c-1.81,0-2.62,1-2.62,3.27h5.23c0-2.34-.79-3.27-2.63-3.27Z" transform="translate(215.86 125.75)" fill="#a4a4a4"/><path d="M15.08,52.08c0-2.79,2.31-2.91,4.45-2.91h1.47v-.44c0-1.41-.63-2-2.12-2s-2.13.53-2.13,1.82h-1.33c0-1.92,1-2.74,3.48-2.74s3.46.93,3.46,3.07v5.68h-1.12L21,52.94c-.48,1.51-1.64,1.78-3,1.78-1.67,0-2.93-.63-2.92-2.64Zm5.91-2h-1.99c-1.77,0-2.52.56-2.52,1.9s.6,1.64,2.1,1.65s2.42-.7,2.42-2.4Z" transform="translate(215.86 125.75)" fill="#a4a4a4"/><path d="M29.39,45.82v1.3h-.95c-1.66,0-2.14.82-2.14,3.15v4.29h-1.37v-8.56h1.12l.2,2c.27-1.44.94-2.16,2.33-2.16Z" transform="translate(215.86 125.75)" fill="#a4a4a4"/><path d="M40.07,53.73c1.119299.150259,2.155513-.615831,2.34-1.73h1.3c-.41,1.91-1.51,2.73-3.64,2.73-2.79,0-4-1.34-4-4.46s1.19-4.45,4-4.45s4,1.39,4,4.64v.54h-6.6c.15,1.88.91,2.72,2.6,2.73Zm0-6.89c-1.82,0-2.62,1-2.62,3.27h5.24c-.01-2.35-.8-3.27-2.63-3.27Z" transform="translate(215.86 125.75)" fill="#a4a4a4"/><path d="M45.76,52.1c0-2.79,2.32-2.91,4.46-2.91h1.46v-.44c0-1.41-.64-2-2.13-2s-2.12.53-2.12,1.81h-1.32c0-1.92,1-2.74,3.48-2.74s3.46.93,3.46,3.07v5.67h-1.12L51.71,53c-.48,1.51-1.65,1.78-3,1.78-1.71-.04-2.95-.67-2.95-2.68Zm5.92-2h-2c-1.76,0-2.52.56-2.52,1.9s.6,1.64,2.11,1.64s2.43-.72,2.44-2.41Z" transform="translate(215.86 125.75)" fill="#a4a4a4"/><path d="M60.08,45.84v1.3h-.94c-1.66,0-2.14.82-2.14,3.15v4.29h-1.39v-8.58h1.11l.21,2c.27-1.44.94-2.16,2.33-2.16Z" transform="translate(215.86 125.75)" fill="#a4a4a4"/><path d="M62.15,42.58h1.37v12h-1.38Z" transform="translate(215.86 125.75)" fill="#a4a4a4"/><path d="M69.51,54.15L71.85,46h1.38l-2.55,8.39c-.81,2.66-1.5,3.26-2.78,3.26h-1.46v-1h1.13c.79,0,1.2-.32,1.82-2.07h-1L65.4,46h1.39Z" transform="translate(215.86 125.75)" fill="#a4a4a4"/><path d="M81.59,48c.347013-1.387697,1.668912-2.303187,3.09-2.14c2.47,0,3.53,1.34,3.53,4.46s-1.07,4.45-3.53,4.45c-1.466488.169459-2.818272-.812866-3.11-2.26l-.22,2.09h-1.11v-12h1.36Zm2.61-1c-1.83,0-2.62,1-2.62,3.3s.78,3.31,2.62,3.31s2.6-1,2.6-3.3-.8-3.31-2.6-3.31Z" transform="translate(215.86 125.75)" fill="#a4a4a4"/><path d="M92.22,43.44c0,.65-.29.94-1,.94s-1-.29-1-.94.3-1,1-1s1,.33,1,1ZM90.55,54.59v-8.59h1.38v8.56Z" transform="translate(215.86 125.75)" fill="#a4a4a4"/><path d="M99.24,45.86v1.3h-.94c-1.66,0-2.14.82-2.14,3.15v4.29h-1.38v-8.6h1.12l.21,2c.27-1.44.94-2.16,2.33-2.16Z" transform="translate(215.86 125.75)" fill="#a4a4a4"/><path d="M108.76,42.61v12h-1.11l-.23-2.09c-.287157,1.44565-1.635811,2.428863-3.1,2.26-2.47,0-3.53-1.33-3.53-4.45s1.07-4.46,3.54-4.46c1.41208-.157947,2.723585.75199,3.07,2.13v-5.4Zm-4,11c1.83,0,2.62-1,2.62-3.31s-.79-3.3-2.62-3.3-2.6,1-2.61,3.31.79,3.31,2.61,3.32Z" transform="translate(215.86 125.75)" fill="#a4a4a4"/><path d="M117.87,52.16c0,1.83-1.05,2.62-3.5,2.62s-3.37-.78-3.37-2.78h1.32c0,1.28.6,1.81,2.09,1.81s2.09-.44,2.09-1.54c0-2.43-5.39-.67-5.39-4c0-1.72,1-2.45,3.31-2.45s3.24.77,3.24,2.57h-1.26c0-1.16-.58-1.65-2-1.65s-2,.4-2,1.39c.02,2.3,5.47.6,5.47,4.03Z" transform="translate(215.86 125.75)" fill="#a4a4a4"/><path d="M122,53.79c0,.69-.31,1-1,1s-1-.31-1-1s.29-1,1-1s1,.31,1,1Zm-.25-11.17v3.25l-.26,4.48h-.93l-.25-4.47v-3.26Z" transform="translate(215.86 125.75)" fill="#a4a4a4"/><path d="M-172.91,71h1.45v.4c0,1.88.63,2.64,2.19,2.64s2.2-.75,2.2-2.64v-8.4h1.51v8.39c0,2.71-1.12,3.87-3.71,3.87s-3.65-1.16-3.64-3.87Z" transform="translate(215.86 125.75)" fill="#a4a4a4"/><path d="M-154.85,70.73c0,3.12-1.26,4.46-4.15,4.45s-4.17-1.33-4.16-4.45s1.25-4.46,4.16-4.46s4.15,1.34,4.15,4.46ZM-159,74c1.95,0,2.77-1,2.78-3.31s-.81-3.31-2.78-3.31-2.79,1-2.79,3.31.79,3.31,2.79,3.31Z" transform="translate(215.86 125.75)" fill="#a4a4a4"/><path d="M-150.86,63.86c0,.65-.29,1-1,1s-.95-.3-.95-1s.29-1,1-1s.95.34.95,1ZM-152.53,75v-8.55h1.39v8.55Z" transform="translate(215.86 125.75)" fill="#a4a4a4"/><path d="M-141,70.4v4.6h-1.37v-4.31c0-1.56-.14-3.26-2.16-3.26-1.68,0-2.38.87-2.38,3v4.57h-1.37v-8.55h1.11l.21,2c.23504-1.36997,1.499018-2.317954,2.88-2.16c2.15-.01,3.08,1.23,3.08,4.11Z" transform="translate(215.86 125.75)" fill="#a4a4a4"/><path d="M-127.56,66.46h1.37v8.54h-1.12l-.2-2c-.2304,1.3728-1.4976,2.3232-2.88,2.16-2.16,0-3.08-1.23-3.08-4.11v-4.59h1.37v4.34c0,1.56.13,3.25,2.16,3.25c1.68,0,2.38-.87,2.38-3Z" transform="translate(215.86 125.75)" fill="#a4a4a4"/><path d="M-117.09,72.59c0,1.83-1,2.62-3.5,2.62s-3.37-.83-3.37-2.75h1.32c0,1.29.6,1.82,2.09,1.82s2.09-.44,2.09-1.54c0-2.43-5.4-.67-5.4-4c0-1.72,1-2.46,3.31-2.45s3.24.77,3.24,2.57h-1.25c0-1.17-.59-1.65-2-1.65s-2,.4-2,1.39c.02,2.25,5.47.56,5.47,3.99Z" transform="translate(215.86 125.75)" fill="#a4a4a4"/><path d="M-106,73.9h1.11v1.1h-1.56c-.64987.080892-1.301515-.136031-1.773242-.590287s-.713077-1.097254-.656758-1.749713v-5.17h-1.37v-1h1.38v-2h1.38v2h2.61v1h-2.61v5.05c.01.81.49,1.36,1.49,1.36Z" transform="translate(215.86 125.75)" fill="#a4a4a4"/><path d="M-95,70.77c0,3.12-1.25,4.45-4.15,4.45s-4.16-1.34-4.16-4.46s1.25-4.45,4.16-4.45s4.15,1.34,4.15,4.46Zm-4.15,3.3c2,0,2.78-1,2.78-3.3s-.81-3.31-2.78-3.31-2.79,1-2.79,3.3.8,3.31,2.77,3.31Z" transform="translate(215.86 125.75)" fill="#a4a4a4"/><path d="M-80.2,72.09c-.29,2.2-1.44,3.14-3.81,3.14-2.91,0-4.16-1.34-4.16-4.46s1.25-4.45,4.17-4.45c2.36,0,3.51.94,3.8,3.14h-1.37c-.039304-.59463-.322527-1.146602-.78265-1.525305s-1.056262-.550483-1.64735-.474695c-2,0-2.8,1-2.8,3.3s.8,3.32,2.8,3.32c.591576.072769,1.187149-.099854,1.648117-.477697s.747128-.927951.791883-1.522303Z" transform="translate(215.86 125.75)" fill="#a4a4a4"/><path d="M-70.18,70.78c0,3.12-1.25,4.45-4.15,4.45s-4.16-1.34-4.16-4.45s1.26-4.46,4.17-4.46s4.14,1.34,4.14,4.46Zm-4.15,3.31c2,0,2.78-1,2.78-3.31s-.8-3.31-2.77-3.31-2.8,1-2.8,3.31.82,3.3,2.79,3.31Z" transform="translate(215.86 125.75)" fill="#a4a4a4"/><path d="M-60.67,70.44v4.63h-1.33v-4.34c0-1.56-.13-3.25-2.16-3.25-1.68,0-2.38.87-2.38,3v4.63h-1.37v-8.61h1.12l.2,2c.23504-1.36997,1.499018-2.317954,2.88-2.16c2.12-.01,3.04,1.22,3.04,4.1Z" transform="translate(215.86 125.75)" fill="#a4a4a4"/><path d="M-52,78.5v-5.4c-.326382,1.392858-1.650241,2.315678-3.07,2.14-2.47,0-3.53-1.33-3.53-4.45s1.07-4.46,3.53-4.46c1.456512-.151578,2.788095.833013,3.07,2.27l.23-2.09h1.11v12h-1.34Zm-2.62-4.4c1.84,0,2.63-1,2.63-3.31s-.79-3.31-2.62-3.31-2.61,1-2.61,3.31.75,3.31,2.56,3.31Z" transform="translate(215.86 125.75)" fill="#a4a4a4"/><path d="M-42.16,66.51h1.37v8.57h-1.12l-.2-2c-.230463,1.378309-1.502112,2.333146-2.89,2.17-2.16,0-3.09-1.24-3.09-4.11v-4.63h1.37v4.34c0,1.56.13,3.25,2.15,3.25c1.68,0,2.39-.87,2.39-3Z" transform="translate(215.86 125.75)" fill="#a4a4a4"/><path d="M-34.57,74.25c1.113805.150319,2.145576-.611332,2.33-1.72h1.3c-.41,1.91-1.51,2.73-3.64,2.73-2.79,0-4-1.34-4-4.46s1.19-4.46,4-4.45s4,1.39,4,4.64v.57h-6.58c.16,1.84.89,2.68,2.59,2.69Zm0-6.89c-1.81,0-2.62,1-2.62,3.27h5.19c0-2.35-.75-3.27-2.59-3.27Z" transform="translate(215.86 125.75)" fill="#a4a4a4"/><path d="M-23.91,66.35v1.3h-.95c-1.66,0-2.14.82-2.14,3.15v4.29h-1.37v-8.57h1.12l.2,2c.27-1.44.94-2.16,2.33-2.16Z" transform="translate(215.86 125.75)" fill="#a4a4a4"/><path d="M-13,74h1.12v1.1h-1.56c-.651685.077013-1.303561-.142266-1.776213-.597485s-.716265-1.098397-.663787-1.752515v-5.21h-1.37v-1h1.37v-2h1.39v2h2.6v1h-2.61v5c.04.86.5,1.46,1.5,1.46Z" transform="translate(215.86 125.75)" fill="#a4a4a4"/><path d="M-8.46,75.1h-1.36v-12h1.37v5.21c.297164-1.294001,1.521541-2.156238,2.84-2c2.16,0,3.09,1.24,3.09,4.12v4.67h-1.37v-4.62c0-2.11-.62-3-2.16-3-1.7,0-2.4.86-2.4,3v4.62Z" transform="translate(215.86 125.75)" fill="#a4a4a4"/><path d="M3.53,74.27c1.115214.155845,2.150441-.608358,2.33-1.72h1.31c-.42,1.9-1.51,2.72-3.64,2.72-2.79,0-4-1.34-4-4.46s1.19-4.45,4-4.45s4,1.39,4,4.64v.57h-6.6c.15,1.86.91,2.7,2.6,2.7Zm0-6.89c-1.82,0-2.62,1-2.62,3.27h5.23c0-2.35-.79-3.27-2.62-3.27Z" transform="translate(215.86 125.75)" fill="#a4a4a4"/><path d="M14.19,65.6c0-1.71.54-2.48,1.75-2.48v.77c-.56,0-.8.43-.8,1.44.65,0,.94.27,1,.92s-.24,1.07-.89,1.07-1.06-.52-1.06-1.72Zm2.87,0c0-1.71.53-2.48,1.74-2.48v.77c-.56,0-.8.43-.8,1.44.65,0,.94.27,1,.93s-.24,1.06-.89,1.06-1.06-.52-1.05-1.72Z" transform="translate(215.86 125.75)" fill="#a4a4a4"/><path d="M23.22,64.34v3.91h5.86v1.22h-5.86v4.43h6.54v1.22h-8v-12h8.05v1.21Z" transform="translate(215.86 125.75)" fill="#a4a4a4"/><path d="M32,63.13h1.37v12h-1.37Z" transform="translate(215.86 125.75)" fill="#a4a4a4"/><path d="M39.58,74.29c1.113302.161855,2.150562-.599396,2.33-1.71h1.31c-.42,1.9-1.51,2.72-3.64,2.72-2.79,0-4-1.34-4-4.46s1.19-4.45,4-4.45s4,1.39,4,4.64v.57h-6.58c.13,1.85.89,2.69,2.58,2.69Zm0-6.89c-1.82,0-2.62,1-2.63,3.27h5.25c-.01-2.34-.8-3.27-2.63-3.27Z" transform="translate(215.86 125.75)" fill="#a4a4a4"/><path d="M47.12,78.56h-1.36v-12h1.11l.23,2.09c.291473-1.442888,1.63712-2.423909,3.1-2.26c2.47,0,3.53,1.34,3.53,4.46s-1.07,4.46-3.54,4.45c-1.416187.170209-2.733974-.751381-3.06-2.14v5.4Zm2.61-11c-1.83,0-2.62,1-2.62,3.31s.78,3.31,2.62,3.31s2.6-1,2.6-3.31-.78-3.33-2.6-3.33Z" transform="translate(215.86 125.75)" fill="#a4a4a4"/><path d="M57.31,75.14h-1.31v-12h1.37v5.21c.318438-1.273893,1.536744-2.110406,2.84-1.95c2.16,0,3.09,1.23,3.08,4.11v4.63h-1.4v-4.63c0-2.1-.61-3-2.15-3-1.7,0-2.4.85-2.41,3v4.63Z" transform="translate(215.86 125.75)" fill="#a4a4a4"/><path d="M65.32,72.67c0-2.79,2.31-2.91,4.45-2.91h1.46v-.44c0-1.41-.63-2-2.12-2s-2.11.54-2.11,1.83h-1.34c0-1.92,1-2.74,3.48-2.74s3.46.93,3.46,3.07v5.68h-1.11l-.23-1.62c-.48,1.51-1.64,1.78-3,1.78-1.69-.01-2.94-.64-2.94-2.65Zm5.91-2h-2c-1.77,0-2.52.56-2.52,1.9s.6,1.64,2.11,1.65s2.43-.72,2.43-2.42Z" transform="translate(215.86 125.75)" fill="#a4a4a4"/><path d="M82.45,70.52v4.63h-1.37v-4.33c0-1.56-.13-3.26-2.15-3.26-1.68,0-2.39.87-2.39,3v4.63h-1.37v-8.61h1.12l.2,2c.23504-1.36997,1.499018-2.317954,2.88-2.16c2.16-.01,3.09,1.23,3.08,4.1Z" transform="translate(215.86 125.75)" fill="#a4a4a4"/><path d="M88.76,74h1.11v1.15h-1.56c-.64987.080892-1.301515-.136031-1.773242-.590287s-.713077-1.097254-.656758-1.749713v-5.21h-1.37v-1h1.37v-2h1.39v2h2.61v1h-2.61v5.05c0,.81.44,1.35,1.49,1.35Z" transform="translate(215.86 125.75)" fill="#a4a4a4"/><path d="M98.84,64c0,.66-.29,1-1,1s-1-.29-1-1s.29-1,1-1s1,.34,1,1ZM97.17,75.16v-8.57h1.39v8.57Z" transform="translate(215.86 125.75)" fill="#a4a4a4"/><path d="M108.69,70.54v4.63h-1.37v-4.34c0-1.56-.14-3.26-2.16-3.26-1.68,0-2.38.88-2.39,3v4.62h-1.37v-8.6h1.11l.21,2c.2303-1.368494,1.491228-2.317485,2.87-2.16c2.17,0,3.1,1.23,3.1,4.11Z" transform="translate(215.86 125.75)" fill="#a4a4a4"/><path d="M124.88,64.48h-3.75v10.69h-1.5v-10.69h-3.73v-1.31h9Z" transform="translate(215.86 125.75)" fill="#a4a4a4"/><path d="M128.44,75.18h-1.35v-12h1.37v5.21c.297505-1.29824,1.527963-2.161719,2.85-2c2.15,0,3.08,1.23,3.08,4.11v4.63h-1.39v-4.58c0-2.1-.62-3-2.16-3-1.7,0-2.4.85-2.4,3v4.63Z" transform="translate(215.86 125.75)" fill="#a4a4a4"/><path d="M140.43,74.34c1.114101.156651,2.150828-.600958,2.34-1.71h1.3c-.41,1.91-1.51,2.73-3.64,2.73-2.79,0-4-1.34-4-4.46s1.19-4.46,4-4.45s4,1.38,4,4.64v.57h-6.58c.15,1.84.89,2.68,2.58,2.68Zm0-6.88c-1.82,0-2.62,1-2.62,3.27h5.19c0-2.35-.75-3.27-2.58-3.27Z" transform="translate(215.86 125.75)" fill="#a4a4a4"/><path d="M-166.86,91h-3.7v4.58h-1.51v-12h5.12c2.93,0,4.15,1.43,4.14,3.76c0,1.9-.79,3.1-2.6,3.49l2.63,4.73h-1.61Zm-.15-1.16c1.9,0,2.71-.84,2.71-2.52s-.79-2.54-2.71-2.54h-3.55v5Z" transform="translate(215.86 125.75)" fill="#a4a4a4"/><path d="M-152.91,91.29c0,3.12-1.26,4.46-4.15,4.46s-4.16-1.34-4.16-4.46s1.25-4.46,4.16-4.45s4.15,1.34,4.15,4.45Zm-4.15,3.31c1.95,0,2.78-1,2.78-3.31s-.81-3.3-2.78-3.3-2.79,1-2.79,3.3.85,3.31,2.79,3.31Z" transform="translate(215.86 125.75)" fill="#a4a4a4"/><path d="M-142.89,91.3c0,3.12-1.25,4.45-4.15,4.45s-4.16-1.34-4.16-4.46s1.25-4.45,4.17-4.45s4.14,1.34,4.14,4.46ZM-147,94.6c2,0,2.78-1,2.78-3.3s-.84-3.3-2.78-3.3-2.8,1-2.8,3.31.8,3.29,2.8,3.29Z" transform="translate(215.86 125.75)" fill="#a4a4a4"/><path d="M-133.93,95.59h-1.39v-4.59c0-2.11-.53-3-1.87-3s-2.11.87-2.11,3v4.63h-1.37v-8.63h1.12l.23,1.8c.256479-1.257327,1.436335-2.106301,2.71-1.95c1.3079-.079881,2.434347.912465,2.52,2.22.151939-1.373643,1.385716-2.366029,2.76-2.22c1.88,0,2.74,1.23,2.74,4.11v4.63h-1.37v-4.59c0-2.07-.57-3-1.88-3-1.48,0-2.1.87-2.1,3Z" transform="translate(215.86 125.75)" fill="#a4a4a4"/><path d="M-124.59,85.14c0,1.71-.53,2.49-1.74,2.48v-.77c.56,0,.8-.42.8-1.43-.265443.053783-.540533-.02372-.738859-.208163s-.295553-.453195-.261141-.721837c0-.74.24-1.06.89-1.06s1.05.51,1.05,1.71Zm2.92,0c0,1.72-.54,2.49-1.75,2.49v-.77c.56,0,.8-.43.8-1.44-.265443.053783-.540533-.02372-.738859-.208163s-.295553-.453195-.261141-.721837c0-.74.24-1.06.89-1.06s1.06.51,1.06,1.71Z" transform="translate(215.86 125.75)" fill="#a4a4a4"/><path d="M-118,95.5c0,1.71-.53,2.48-1.75,2.48v-.77c.57,0,.81-.43.81-1.44-.264668.049167-.536983-.029945-.734108-.213271s-.295756-.449194-.265892-.716729c0-.73.24-1.06.9-1.06s1.04.51,1.04,1.72Z" transform="translate(215.86 125.75)" fill="#a4a4a4"/><path d="M-104.32,93.16c0,1.83-1.05,2.62-3.5,2.61s-3.37-.82-3.37-2.74h1.32c0,1.29.6,1.82,2.09,1.82s2.09-.44,2.09-1.54c0-2.44-5.4-.67-5.4-4c0-1.71,1-2.45,3.31-2.45s3.24.78,3.24,2.58h-1.25c0-1.17-.58-1.65-2-1.65s-2,.39-2,1.39c.02,2.24,5.47.55,5.47,3.98Z" transform="translate(215.86 125.75)" fill="#212121"/><path d="M-100.76,99h-1.35v-12h1.11l.22,2.09c.287157-1.44565,1.635811-2.428863,3.1-2.26c2.47,0,3.53,1.34,3.53,4.46s-1.07,4.45-3.53,4.45c-1.41858.170936-2.739577-.749889-3.07-2.14v5.4Zm2.61-11c-1.83,0-2.62,1-2.62,3.3s.78,3.31,2.62,3.31s2.6-1,2.6-3.3-.78-3.31-2.6-3.31Z" transform="translate(215.86 125.75)" fill="#212121"/><path d="M-88.42,94.77c1.114713.167542,2.155565-.596345,2.33-1.71h1.3c-.41,1.9-1.51,2.73-3.63,2.73-2.79,0-4-1.34-4-4.46s1.18-4.46,4-4.46s4,1.4,4,4.65v.57h-6.58c.13,1.84.88,2.68,2.58,2.68Zm0-6.88c-1.82,0-2.63,1-2.63,3.27h5.25c-.01-2.35-.8-3.27-2.63-3.27Z" transform="translate(215.86 125.75)" fill="#212121"/><path d="M-82.73,93.15c0-2.79,2.31-2.91,4.45-2.91h1.46v-.45c0-1.4-.63-2-2.12-2s-2.13.53-2.13,1.81h-1.32c0-1.92,1-2.74,3.48-2.74s3.46.93,3.46,3.07v5.67h-1.11l-.23-1.6c-.48,1.51-1.64,1.78-3,1.78-1.69.01-2.94-.62-2.94-2.63Zm5.91-2h-2c-1.77,0-2.52.56-2.52,1.9s.6,1.64,2.11,1.64s2.43-.72,2.43-2.41Z" transform="translate(215.86 125.75)" fill="#212121"/><path d="M-65.63,95.63h-1.68l-4.2-4.29v4.28h-1.37v-12h1.37v7.38l3.86-3.94h1.65l-4.1,4.11Z" transform="translate(215.86 125.75)" fill="#212121"/><path d="M-55.35,95.21L-53,87.07h1.39l-2.56,8.39c-.8,2.66-1.49,3.26-2.78,3.26h-1.45v-1h1.13c.79,0,1.2-.33,1.82-2.08h-1l-3-8.57h1.39Z" transform="translate(215.86 125.75)" fill="#212121"/><path d="M-42.29,91.36c0,3.12-1.26,4.45-4.15,4.45s-4.17-1.34-4.16-4.46s1.25-4.45,4.16-4.45s4.15,1.34,4.15,4.46Zm-4.15,3.3c1.95,0,2.77-1,2.78-3.3s-.81-3.31-2.78-3.31-2.79,1-2.79,3.3.82,3.31,2.79,3.31Z" transform="translate(215.86 125.75)" fill="#212121"/><path d="M-34.32,87.08h1.37v8.57h-1.11l-.21-2c-.230416,1.37162-1.499467,2.319002-2.88,2.15-2.16,0-3.08-1.23-3.08-4.11v-4.61h1.37v4.33c0,1.56.14,3.26,2.16,3.26c1.68,0,2.38-.88,2.38-3Z" transform="translate(215.86 125.75)" fill="#212121"/><path d="M-25.76,86.91v1.3h-.94c-1.66,0-2.14.82-2.14,3.15v4.29h-1.37v-8.57h1.11l.21,2c.27-1.44.94-2.16,2.33-2.16Z" transform="translate(215.86 125.75)" fill="#212121"/><path d="M-14.81,94.51h1.11v1.15h-1.56c-.65091.077546-1.302162-.141924-1.773372-.59762s-.712349-1.09924-.656628-1.75238v-5.21h-1.37v-1h1.37v-2h1.39v2h2.61v1h-2.61v5.05c0,.85.44,1.36,1.49,1.36Z" transform="translate(215.86 125.75)" fill="#212121"/><path d="M-12.16,93.19c0-2.79,2.32-2.91,4.46-2.91h1.46v-.45c0-1.4-.64-2-2.13-2s-2.12.53-2.12,1.81h-1.32c0-1.92,1.05-2.74,3.48-2.74s3.46.93,3.46,3.07v5.67h-1.13l-.22-1.61c-.48,1.51-1.65,1.78-3,1.78-1.69.02-2.94-.61-2.94-2.62Zm5.92-2h-2c-1.76,0-2.51.56-2.52,1.9s.6,1.64,2.11,1.64s2.44-.72,2.44-2.41Z" transform="translate(215.86 125.75)" fill="#212121"/><path d="M-1,89.07c.334807-1.391605,1.659019-2.311674,3.08-2.14c2.47,0,3.53,1.34,3.53,4.45s-1.07,4.46-3.53,4.46c-1.460137.157095-2.797828-.8288-3.08-2.27l-.23,2.09h-1.09v-12h1.32Zm2.6-1c-1.83,0-2.62,1-2.62,3.3s.78,3.31,2.62,3.31s2.6-1,2.6-3.31-.74-3.29-2.56-3.29Z" transform="translate(215.86 125.75)" fill="#212121"/><path d="M15.69,91.39c0,3.12-1.25,4.45-4.15,4.45s-4.16-1.34-4.16-4.46s1.25-4.45,4.16-4.45s4.15,1.34,4.15,4.46ZM11.54,94.7c2,0,2.78-1,2.78-3.31s-.81-3.31-2.78-3.31-2.79,1-2.79,3.31.82,3.3,2.79,3.31Z" transform="translate(215.86 125.75)" fill="#212121"/><path d="M25.71,91.4c0,3.11-1.25,4.45-4.15,4.45s-4.16-1.34-4.16-4.46s1.26-4.45,4.17-4.45s4.14,1.34,4.14,4.46Zm-4.15,3.3c2,0,2.78-1,2.78-3.31s-.8-3.3-2.77-3.3-2.8,1-2.8,3.3.82,3.31,2.79,3.31Z" transform="translate(215.86 125.75)" fill="#212121"/><path d="M29.34,95.58c0,1.71-.53,2.48-1.75,2.48v-.77c.57,0,.81-.43.81-1.44-.263518.052977-.536475-.023355-.734286-.205341s-.296586-.447647-.265714-.714659c0-.74.24-1.07.89-1.07s1.05.52,1.05,1.72Z" transform="translate(215.86 125.75)" fill="#a4a4a4"/><path d="M45.65,95.23l2.17-8.11h1.39l-2.48,8.56h-2.12l-2-8.12-1.94,8.12h-2.2L36,87.12h1.39l2.15,8.07l1.94-8.07h2.2Z" transform="translate(215.86 125.75)" fill="#d7d7d7"/><path d="M53,84.54c0,.65-.29.94-1,.94s-1-.29-1-.94.29-1,1-1s1,.33,1,1ZM51.36,95.69v-8.56h1.39v8.57Z" transform="translate(215.86 125.75)" fill="#d7d7d7"/><path d="M63,83.71v12h-1.09l-.22-2.09c-.287157,1.44565-1.635811,2.428863-3.1,2.26-2.47,0-3.53-1.34-3.53-4.46s1.07-4.42,3.53-4.42c1.422236-.167777,2.74688.749614,3.09,2.14v-5.43Zm-4,11c1.83,0,2.62-1,2.62-3.3s-.79-3.31-2.62-3.31-2.61,1-2.61,3.3.83,3.32,2.61,3.32Z" transform="translate(215.86 125.75)" fill="#d7d7d7"/><path d="M69.27,94.86c1.113302.161855,2.150562-.599396,2.33-1.71h1.3c-.41,1.9-1.51,2.73-3.63,2.72-2.8,0-4-1.33-4-4.45s1.19-4.46,4-4.46s4,1.4,4,4.65v.57h-6.61c.16,1.82.91,2.68,2.61,2.68Zm0-6.88c-1.81,0-2.62,1-2.62,3.27h5.24c-.02-2.35-.8-3.25-2.64-3.25Z" transform="translate(215.86 125.75)" fill="#d7d7d7"/><path d="M82.75,91.08v4.63h-1.37v-4.33c0-1.56-.13-3.26-2.16-3.26-1.68,0-2.38.87-2.38,3v4.63h-1.37v-8.61h1.12l.2,2c.24432-1.361901,1.50553-2.29905,2.88-2.14c2.16,0,3.08,1.21,3.08,4.08Z" transform="translate(215.86 125.75)" fill="#d7d7d7"/><path d="M93.71,95.29l2.34-8.14h1.39l-2.56,8.4c-.81,2.65-1.49,3.25-2.78,3.25h-1.45v-1h1.13c.79,0,1.2-.32,1.82-2.07h-1l-3-8.57h1.4Z" transform="translate(215.86 125.75)" fill="#d7d7d7"/><path d="M106.77,91.44c0,3.12-1.25,4.46-4.15,4.45s-4.16-1.33-4.16-4.45s1.26-4.44,4.17-4.44s4.15,1.32,4.14,4.44Zm-4.14,3.31c2,0,2.77-1,2.77-3.31s-.8-3.31-2.77-3.31-2.79,1-2.8,3.31.83,3.31,2.8,3.31Z" transform="translate(215.86 125.75)" fill="#d7d7d7"/><path d="M114.74,87.16h1.37v8.57h-1.11l-.21-2c-.23504,1.36997-1.499018,2.317954-2.88,2.16-2.16,0-3.08-1.24-3.08-4.11v-4.62h1.37v4.34c0,1.55.14,3.25,2.16,3.25c1.68,0,2.38-.87,2.38-3Z" transform="translate(215.86 125.75)" fill="#d7d7d7"/><path d="M123.31,87v1.3h-.94c-1.66,0-2.14.82-2.15,3.15v4.28h-1.37v-8.56h1.15l.2,2c.28-1.44,1-2.16,2.34-2.15Z" transform="translate(215.86 125.75)" fill="#d7d7d7"/><path d="M134,94.9c1.113302.161855,2.150562-.599396,2.33-1.71h1.3c-.41,1.9-1.51,2.72-3.63,2.72-2.8,0-4-1.34-4-4.45s1.19-4.46,4-4.46s4,1.39,4,4.65v.56h-6.6c.15,1.85.9,2.69,2.6,2.69Zm0-6.9c-1.81,0-2.62,1-2.62,3.27h5.24c-.01-2.33-.8-3.27-2.62-3.27Z" transform="translate(215.86 125.75)" fill="#d7d7d7"/><path d="M139.69,93.28c0-2.8,2.31-2.91,4.45-2.91h1.46v-.45c0-1.4-.63-2-2.12-2s-2.13.53-2.13,1.82h-1.35c0-1.92,1.05-2.74,3.48-2.74s3.46.92,3.46,3.07v5.67h-1.12l-.22-1.61c-.48,1.5-1.64,1.78-3,1.78-1.66.01-2.91-.63-2.91-2.63Zm5.91-2h-2c-1.77,0-2.52.57-2.52,1.9s.6,1.65,2.11,1.65s2.43-.72,2.43-2.42Z" transform="translate(215.86 125.75)" fill="#d7d7d7"/><path d="M154,87v1.31h-.94c-1.67,0-2.15.82-2.15,3.15v4.28h-1.37v-8.56h1.12l.2,2c.28-1.44.95-2.16,2.33-2.16Z" transform="translate(215.86 125.75)" fill="#d7d7d7"/><path d="M162.43,93.31c0,1.83-1.05,2.62-3.5,2.62s-3.38-.83-3.38-2.75h1.32c0,1.29.6,1.82,2.09,1.82s2.09-.44,2.1-1.54c0-2.43-5.4-.67-5.4-4c0-1.71,1-2.45,3.31-2.44s3.24.77,3.24,2.57h-1.21c0-1.17-.58-1.65-2-1.65s-2,.39-2,1.39c0,2.24,5.43.55,5.43,3.98Z" transform="translate(215.86 125.75)" fill="#d7d7d7"/><path d="M-168.69,115h1.11v1.15h-1.56c-.65091.077546-1.302162-.141924-1.773372-.59762s-.712349-1.09924-.656628-1.75238v-5.21h-1.38v-1h1.37v-2h1.39v2h2.61v1h-2.61v5.06c.01.78.46,1.35,1.5,1.35Z" transform="translate(215.86 125.75)" fill="#d7d7d7"/><path d="M-157.72,111.85c0,3.12-1.25,4.46-4.15,4.46s-4.13-1.31-4.13-4.46s1.25-4.46,4.16-4.45s4.12,1.33,4.12,4.45Zm-4.15,3.31c2,0,2.78-1,2.78-3.31s-.81-3.31-2.78-3.31-2.79,1-2.79,3.31.82,3.31,2.79,3.31Z" transform="translate(215.86 125.75)" fill="#d7d7d7"/><path d="M-146.62,115h1.11v1.14h-1.56c-.65091.077546-1.302162-.141924-1.773372-.59762s-.712349-1.09924-.656628-1.75238v-5.21h-1.37v-1h1.37v-2h1.38v2h2.61v1h-2.61v5c.01.87.45,1.42,1.5,1.42Z" transform="translate(215.86 125.75)" fill="#d7d7d7"/><path d="M-142.11,116.15h-1.36v-12h1.37v5.21c.297164-1.294001,1.521541-2.156238,2.84-2c2.16,0,3.09,1.23,3.08,4.11v4.63h-1.37v-4.63c0-2.11-.61-3-2.15-3-1.7,0-2.4.85-2.41,3v4.63Z" transform="translate(215.86 125.75)" fill="#d7d7d7"/><path d="M-130.12,115.31c1.113302.161855,2.150562-.599396,2.33-1.71h1.3c-.41,1.9-1.51,2.73-3.63,2.72-2.79,0-4-1.33-4-4.45s1.18-4.46,4-4.46s4,1.39,4,4.65v.56h-6.58c.13,1.85.88,2.69,2.58,2.69Zm0-6.89c-1.82,0-2.63,1-2.63,3.28h5.25c-.01-2.35-.8-3.28-2.63-3.28Z" transform="translate(215.86 125.75)" fill="#d7d7d7"/><path d="M-115,115h1.11v1.15h-1.56c-.65091.077546-1.302162-.141924-1.773372-.59762s-.712349-1.09924-.656628-1.75238v-5.2h-1.37v-1h1.37v-2h1.39v2h2.61v1h-2.61v5.06c-.04.8.4,1.34,1.49,1.34Z" transform="translate(215.86 125.75)" fill="#d7d7d7"/><path d="M-107.41,107.43v1.3h-1c-1.66,0-2.14.82-2.14,3.15v4.29h-1.37v-8.57h1.12l.2,2c.27-1.44.94-2.16,2.33-2.15Z" transform="translate(215.86 125.75)" fill="#d7d7d7"/><path d="M-99.6,107.6h1.37v8.57h-1.12l-.2-2c-.23504,1.36997-1.499018,2.317954-2.88,2.16-2.16,0-3.09-1.23-3.08-4.11v-4.62h1.37v4.33c0,1.56.13,3.26,2.15,3.26c1.68,0,2.39-.87,2.39-3Z" transform="translate(215.86 125.75)" fill="#d7d7d7"/><path d="M-91.76,115h1.12v1.15h-1.56c-.64987.080892-1.301515-.136031-1.773242-.590287s-.713077-1.097254-.656758-1.749713v-5.21h-1.37v-1h1.37v-2h1.39v2h2.6v1h-2.6v5c-.01.88.44,1.4,1.48,1.4Z" transform="translate(215.86 125.75)" fill="#d7d7d7"/><path d="M-87.25,116.18h-1.35v-12h1.37v5.21c.297505-1.29824,1.527963-2.161719,2.85-2c2.15,0,3.08,1.23,3.08,4.11v4.63h-1.38v-4.63c0-2.1-.62-3-2.16-3-1.7,0-2.4.85-2.4,3v4.63Z" transform="translate(215.86 125.75)" fill="#d7d7d7"/><path d="M-77.33,116.08c0,1.71-.53,2.49-1.75,2.48v-.77c.57,0,.81-.42.81-1.44-.263518.052977-.536475-.023355-.734286-.205341s-.296586-.447647-.265714-.714659c0-.74.24-1.06.89-1.06s1.05.51,1.05,1.71Z" transform="translate(215.86 125.75)" fill="#d7d7d7"/><g id="egi0xpCTs9t167" opacity="0"><path d="M-63.6,113.74c0,1.83-1.05,2.62-3.5,2.62s-3.38-.82-3.38-2.74h1.32c0,1.28.6,1.81,2.09,1.82s2.07-.44,2.07-1.55c0-2.43-5.4-.67-5.4-4c0-1.72,1-2.45,3.31-2.45s3.24.77,3.24,2.57h-1.26c0-1.16-.58-1.64-2-1.65s-2,.4-2,1.39c.11,2.25,5.51.56,5.51,3.99Z" transform="translate(215.86 125.75)" fill="#fd4100"/><path d="M-57.9,115.35c1.114713.167542,2.155565-.596345,2.33-1.71h1.3c-.41,1.9-1.51,2.73-3.63,2.73-2.79,0-4-1.34-4-4.46s1.18-4.46,4-4.46s4,1.39,4,4.65v.57h-6.6c.15,1.84.9,2.68,2.6,2.68Zm0-6.89c-1.82,0-2.63,1-2.63,3.28h5.25c-.01-2.35-.8-3.27-2.63-3.28Z" transform="translate(215.86 125.75)" fill="#fd4100"/><path d="M-48.22,115.36c1.113302.161855,2.150562-.599396,2.33-1.71h1.3c-.41,1.9-1.5,2.72-3.63,2.72-2.79,0-4-1.34-4-4.46s1.19-4.45,4-4.45s4,1.39,4,4.65v.56h-6.58c.13,1.85.88,2.69,2.58,2.69Zm0-6.89c-1.82,0-2.62,1-2.63,3.27h5.25c-.01-2.34-.8-3.27-2.63-3.27Z" transform="translate(215.86 125.75)" fill="#fd4100"/><path d="M-27.93,115.75l2.16-8.11h1.39l-2.47,8.56h-2.15l-2-8.12-1.94,8.12h-2.19l-2.45-8.57h1.39l2.15,8.07l2-8.07h2.19Z" transform="translate(215.86 125.75)" fill="#fd4100"/><path d="M-21,116.22h-1.36v-12h1.36v5.21c.297164-1.294001,1.521541-2.156238,2.84-2c2.16,0,3.09,1.23,3.09,4.11v4.63h-1.37v-4.63c0-2.11-.61-3-2.15-3-1.7,0-2.4.86-2.4,3v4.63Z" transform="translate(215.86 125.75)" fill="#fd4100"/><path d="M-13,113.75c0-2.79,2.31-2.91,4.46-2.91h1.45v-.44c0-1.41-.63-2-2.12-2s-2.13.53-2.13,1.81h-1.32c0-1.92,1.05-2.74,3.48-2.74s3.47.93,3.46,3.07v5.67h-1.1l-.18-1.6c-.49,1.51-1.65,1.78-3,1.78-1.74,0-3-.63-3-2.64Zm5.91-2h-2c-1.76,0-2.52.56-2.52,1.9s.6,1.64,2.11,1.64s2.43-.72,2.43-2.41Z" transform="translate(215.86 125.75)" fill="#fd4100"/><path d="M0.6,115.08h1.11v1.15h-1.56c-.65091.077546-1.302162-.141924-1.773372-.59762s-.712349-1.09924-.656628-1.75238v-5.21h-1.37v-1h1.37v-2h1.39v2h2.6v1h-2.6v5c0,.86.44,1.41,1.49,1.41Z" transform="translate(215.86 125.75)" fill="#fd4100"/><path d="M12.16,115.81l2.34-8.14h1.39l-2.56,8.39c-.81,2.66-1.5,3.26-2.78,3.26h-1.46v-1h1.13c.79,0,1.2-.33,1.82-2.08h-1l-3-8.57h1.4Z" transform="translate(215.86 125.75)" fill="#fd4100"/><path d="M25.22,112c0,3.12-1.25,4.45-4.15,4.45s-4.16-1.34-4.16-4.46s1.25-4.45,4.17-4.45s4.14,1.3,4.14,4.46Zm-4.15,3.3c2,0,2.78-1,2.78-3.3s-.8-3.31-2.77-3.31-2.8,1-2.8,3.3.82,3.27,2.79,3.27Z" transform="translate(215.86 125.75)" fill="#fd4100"/><path d="M33.19,107.68h1.37v8.57h-1.12l-.2-2c-.23504,1.36997-1.499018,2.317954-2.88,2.16-2.16,0-3.09-1.24-3.08-4.12v-4.63h1.37v4.34c0,1.56.13,3.26,2.15,3.26c1.68,0,2.39-.88,2.39-3Z" transform="translate(215.86 125.75)" fill="#fd4100"/><path d="M38.71,105.79c0,1.72-.53,2.49-1.75,2.49v-.77c.57,0,.81-.43.81-1.44-.66,0-1-.28-1-.93s.24-1.06.89-1.06s1.05.52,1.05,1.71Z" transform="translate(215.86 125.75)" fill="#fd4100"/><path d="M46.86,107.69h1.46l-2.9,8.56h-2.42l-3-8.57h1.45l2.72,8.2Z" transform="translate(215.86 125.75)" fill="#fd4100"/><path d="M53.51,115.42c1.113302.161855,2.150562-.599396,2.33-1.71h1.3c-.41,1.9-1.51,2.72-3.63,2.72-2.8,0-4-1.34-4-4.46s1.18-4.45,4-4.45s4,1.39,4,4.64v.57h-6.61c.16,1.85.91,2.69,2.61,2.69Zm0-6.89c-1.81,0-2.62,1-2.62,3.27h5.24c-.01-2.34-.8-3.27-2.64-3.27Z" transform="translate(215.86 125.75)" fill="#fd4100"/><path d="M66.62,105.11c0,.65-.29.94-1,.94s-1-.29-1-.94.3-1,1-1s1,.33,1,1ZM65,116.26v-8.56h1.39v8.57Z" transform="translate(215.86 125.75)" fill="#fd4100"/><path d="M75.53,107.7h1.11v7.72c0,3.13-1.2,4.45-4,4.45-2.23,0-3.31-.83-3.65-2.73h1.32c.069519.528742.347326,1.007822.771696,1.330794s.960154.463085,1.488304.389206c1.89,0,2.68-.94,2.68-3.22v-1.32c-.338916,1.382069-1.657491,2.292616-3.07,2.12-2.43,0-3.53-1.34-3.53-4.46s1.1-4.45,3.54-4.45c1.45472-.170908,2.799463.796439,3.1,2.23Zm-.26,4.3c0-2.35-.75-3.31-2.6-3.31s-2.67.94-2.67,3.31s2.62,3.31,2.62,3.31s2.65-.98,2.65-3.31Z" transform="translate(215.86 125.75)" fill="#fd4100"/><path d="M86.66,111.65v4.63h-1.37v-4.34c0-1.56-.13-3.26-2.15-3.26-1.68,0-2.39.88-2.39,3v4.62h-1.37v-8.6h1.12l.2,2c.235087-1.368763,1.500878-2.313711,2.88-2.15c2.16-.01,3.09,1.22,3.08,4.1Z" transform="translate(215.86 125.75)" fill="#fd4100"/><path d="M97,112c0,3.12-1.25,4.45-4.15,4.45s-4.16-1.34-4.16-4.46s1.25-4.45,4.17-4.45s4.14,1.34,4.14,4.46Zm-4.15,3.3c2,0,2.78-1,2.78-3.3s-.8-3.31-2.77-3.31-2.8,1-2.8,3.3.85,3.31,2.82,3.31Z" transform="translate(215.86 125.75)" fill="#fd4100"/><path d="M103.71,107.55v1.3h-.94c-1.66,0-2.14.82-2.14,3.15v4.28h-1.38v-8.56h1.11l.21,2c.27-1.44.94-2.16,2.33-2.15Z" transform="translate(215.86 125.75)" fill="#fd4100"/><path d="M109.26,115.45c1.113302.161855,2.150562-.599396,2.33-1.71h1.31c-.42,1.9-1.51,2.72-3.64,2.72-2.79,0-4-1.34-4-4.46s1.19-4.45,4-4.45s4,1.39,4,4.65v.56h-6.58c.13,1.85.89,2.69,2.58,2.69Zm0-6.89c-1.82,0-2.62,1-2.63,3.27h5.25c-.01-2.34-.8-3.27-2.63-3.27Z" transform="translate(215.86 125.75)" fill="#fd4100"/><path d="M122.91,104.3v12h-1.11l-.23-2.09c-.287157,1.44565-1.635811,2.428863-3.1,2.26-2.47,0-3.53-1.34-3.52-4.46s1.06-4.46,3.53-4.46c1.42168-.161528,2.741516.759786,3.08,2.15v-5.4Zm-4,11c1.83,0,2.62-1,2.62-3.31s-.78-3.31-2.62-3.31-2.6,1-2.6,3.31.78,3.33,2.6,3.33Z" transform="translate(215.86 125.75)" fill="#fd4100"/><path d="M127.08,115.48c0,.68-.31,1-1,1s-1-.29-.95-1s.29-1,.95-1s1,.31,1,1Z" transform="translate(215.86 125.75)" fill="#fd4100"/></g></g><g id="egi0xpCTs9t189_to" transform="translate(254.435135,204.318563)"><g id="egi0xpCTs9t189" transform="translate(-254.435135,-119.084991)" opacity="0"><path d="M-117.2,-18.19h-15.92l-6.08,43.12h-22.16l6.09-43.12h-15.92L-169,-34h54Z" transform="translate(215.86 125.75)" fill="#165de4"/><path d="M-83.88,-34L-92.2,25h-22.15l8.35-59Z" transform="translate(215.86 125.75)" fill="#165de4"/><path d="M-38.43,4.43h22.16c-5,15.58-15,22.23-33.21,22.22-23.33,0-31.87-9.37-28.79-31.18s14.27-31.15,37.58-31.14c19.12,0,27.28,6.67,26.94,22.25h-22.16c.13-5.05-2.15-7.41-7-7.41-7,0-10.64,5-12.25,16.33s.65,16.34,7.64,16.34c5.3,0,8.25-2.35,9-7.4Z" transform="translate(215.86 125.75)" fill="#165de4"/><path d="M20.82,-33.95L17,-7.08l17.38-26.86h26.45L41.29,-5.3L54.28,25h-26.36L16.72,-3.71L12.67,25h-22.15l8.32-59Z" transform="translate(215.86 125.75)" fill="#165de4"/><path d="M121.67,17.66c0,5.3-5.14,8.76-20.22,8.75-21.56,0-39.92-8.7-39.91-24c0-7.7,7.16-11.74,15.46-8.36L93.8,1c3.87,1.57,5.56-1.55,2.2-3.91L70.9,-20.36c-3.79-2.7-5.9-5.73-5.9-8.85c0-8.42,10.11-10.94,21.32-10.93s23.92,1.86,28.8,4.14c4.46,2.11,6.82,4.81,6.56,9.61-.25,5.05-4,7.07-11.28,4.54L76,-33.92c-1.375721-.588977-2.951281-.476705-4.229586.301394s-2.101705,2.126063-2.210414,3.618606c0,2.1.67,3.79,4.63,5.05L107,-14.53c7.41,2.37,8.59,6.33,8.59,9.44c0,4.05-2.2,7.92-8.6,8.67L76.87,7.27c-5.14.67-7.08,2.36-7.08,4.8s2.21,4.63,7.07,4.22L113.92,13c6.32-.56,7.75,2,7.75,4.66Z" transform="translate(215.86 125.75)" fill="#165de4"/><path d="M190.17,-18h-15.92l-6.09,43.1h-22.15L152.1,-18h-15.92l2.23-15.83h54Z" transform="translate(215.86 125.75)" fill="#165de4"/><path d="M216.8,-18.67c-1,7.24,31.88,2.71,28.65,25.62-2,13.89-10.9,19.87-29.85,19.86s-26.25-5.58-24.42-18.55h19.88c-.56,4,1.46,5.72,6.35,5.73c4.13,0,6.24-1.26,6.63-4c1.43-10.11-31.53-4.57-28.56-25.62c2-13.9,10.64-19.88,29-19.87s25.41,5.56,23.58,18.5h-19.88c.56-4-1.21-5.73-5.59-5.73-3.54,0-5.4,1.26-5.79,4Z" transform="translate(215.86 125.75)" fill="#165de4"/></g></g><g><g id="egi0xpCTs9t198" transform="translate(0 0.000001)" opacity="0"><path d="M-139.7,-66.08h-10.05l-3.84,27.23h-14l3.85-27.22h-10.05l1.41-10h34.08Z" transform="translate(215.86 125.75)" fill="#fd4100"/><path d="M-121.23,-67.35l-.72,5.11h13l-1.23,8.72h-13l-.84,6h15.15l-1.23,8.72h-29.14l5.24-37.28h29.14l-1.23,8.72Z" transform="translate(215.86 125.75)" fill="#fd4100"/><path d="M-88.4,-38.83h-16.91l5.25-37.23h16.91c14.2,0,19.47,5.6,17.63,18.63s-8.69,18.61-22.88,18.6Zm1-28.5l-2.79,19.78h2.23c4.36,0,6.7-3,7.67-9.89s-.52-9.89-4.88-9.9Z" transform="translate(215.86 125.75)" fill="#fd4100"/></g><g id="egi0xpCTs9t202_to" transform="translate(175.005,125.49)"><path id="egi0xpCTs9t202" d="M-58.46,-65.4l6,12.18l5.7-12.17h6.49l-6.6,12.76l7.11,13.83h-6.48L-52.51,-52L-59,-38.81h-6.49l7.4-13.82-6.85-12.77h6.48Z" transform="translate(0,0)" opacity="0" fill="#fd4100"/></g><g id="egi0xpCTs9t203" transform="translate(.000001 0)" opacity="0"><path d="M-25.75,-76v37.22h-8.77v-37.23Z" transform="translate(215.86 125.75)" fill="#4d4d4d"/><path d="M10.72,-69.35h-11v30.58h-8.72v-30.58h-11v-6.65h30.63Z" transform="translate(215.86 125.75)" fill="#4d4d4d"/><path d="M44,-49.6c0,8.35-4.58,11.91-15.32,11.91s-15.32-3.52-15.31-11.71h7.87c0,4.2,2.18,6,7.44,6c5,0,7-1.48,7-4.89c0-8.5-21.8-3.52-21.79-16.81.02-8.39,4.44-11.9,14.81-11.9s14.78,3.52,14.78,11.71h-7.88c0-4.15-2.07-6-6.9-6-4.58,0-6.49,1.43-6.49,4.88C22.2,-59.29,44,-63.85,44,-49.6Z" transform="translate(215.86 125.75)" fill="#4d4d4d"/></g></g><g id="egi0xpCTs9t207_to" transform="translate(457.716147,190.927215)"><g id="egi0xpCTs9t207" transform="translate(-458.795013,-229.777222)" opacity="0"><path d="M212.17,105.59c0,5.64-1.41,8.06-4.36,8.06-2.46,0-3.72-1.3-4-4.24-.74,2.42-2.42,3.5-5.2,3.5-4.24,0-6.06-2.21-6.06-7.37c0-5.4,1.83-7.72,6.07-7.71c2.77,0,4.42,1.12,5.19,3.58l.46-3.23h1.73v9.47c0,2.84.56,4.07,1.86,4.07c1.51,0,2.17-1.85,2.18-6.17c0-8.28-3-11.72-10.17-11.72-7.75,0-11,3.43-11,11.71c0,8,2.83,11.37,9.6,11.37c2.013914.053917,3.992734-.534476,5.65-1.68v2.28c-1.690388,1.017726-3.637739,1.527995-5.61,1.47-8.28,0-11.82-4-11.82-13.44c0-9.69,3.94-13.79,13.13-13.78c8.67,0,12.35,4.18,12.35,13.83Zm-8.49,0c0-4-1.26-5.65-4.35-5.65s-4.53,1.61-4.53,5.65s1.29,5.47,4.52,5.47s4.35-1.62,4.36-5.48Z" transform="translate(215.86 125.75)" fill="#165de4"/><path d="M224.88,91.42c-4,0-5.65,1.89-5.66,6.42h-2.8c0-6.13,2.53-8.76,8.46-8.76s8.45,2.32,8.45,7.37c0,6.53-6.6,11-15.06,15.53h14.73v2.35h-16.94v-3.33c6.81-4.49,14.46-8.59,14.46-14.2c0-3.8-1.61-5.38-5.64-5.38Z" transform="translate(215.86 125.75)" fill="#165de4"/><path d="M257.28,102.07c0,9.08-3,13-10,13s-10.06-3.9-10.06-13s3-13,10.08-13s9.99,3.93,9.98,13Zm-2.94,0c0-7.48-2.1-10.63-7.08-10.64s-7.13,3.16-7.13,10.63s2.1,10.63,7.12,10.63s7.08-3.15,7.09-10.62Z" transform="translate(215.86 125.75)" fill="#165de4"/><path d="M270,91.45c-4,0-5.65,1.89-5.66,6.41h-2.8c0-6.14,2.53-8.77,8.46-8.76s8.45,2.32,8.45,7.37c0,6.52-6.6,11-15.06,15.53h14.7v2.35h-16.95v-3.35c6.81-4.49,14.46-8.58,14.46-14.2c0-3.8-1.6-5.35-5.6-5.35Z" transform="translate(215.86 125.75)" fill="#165de4"/><path d="M290.72,91.46c-4,0-5.64,1.89-5.65,6.41h-2.8c0-6.14,2.53-8.77,8.46-8.76s8.45,2.32,8.45,7.37c0,6.52-6.6,11-15.06,15.53h14.7v2.35h-16.91v-3.36c6.81-4.48,14.46-8.58,14.46-14.2c0-3.8-1.61-5.34-5.65-5.34Z" transform="translate(215.86 125.75)" fill="#165de4"/></g></g></g><g><rect width="76.85" height="6.39" rx="0" ry="0" transform="translate(598.23 188.07)" fill="#808080"/><rect width="76.85" height="3.97" rx="0" ry="0" transform="translate(598.25 162.01)" fill="#808080"/><rect width="76.85" height="3.66" rx="0" ry="0" transform="translate(598.25 154.6)" fill="#808080"/><rect width="76.85" height="2.57" rx="0" ry="0" transform="translate(598.24 177.54)" fill="#808080"/><rect width="76.85" height="1.34" rx="0" ry="0" transform="translate(598.24 167.96)" fill="#808080"/><rect width="76.85" height="1.34" rx="0" ry="0" transform="translate(598.23 184.87)" fill="#808080"/><rect width="76.85" height="1.34" rx="0" ry="0" transform="translate(598.24 181.67)" fill="#808080"/><rect width="76.85" height="5.49" rx="0" ry="0" transform="translate(598.26 146.15)" fill="#808080"/><rect width="76.85" height="3.96" rx="0" ry="0" transform="translate(598.27 119.2)" fill="#808080"/><rect width="76.85" height="3.97" rx="0" ry="0" transform="translate(598.28 111.63)" fill="#808080"/><rect width="76.85" height="2.57" rx="0" ry="0" transform="translate(598.26 134.73)" fill="#808080"/><rect width="76.85" height="2.57" rx="0" ry="0" transform="translate(598.27 130.15)" fill="#808080"/><rect width="76.85" height="1.1" rx="0" ry="0" transform="translate(598.27 125.91)" fill="#808080"/><rect width="76.85" height="2.57" rx="0" ry="0" transform="translate(598.28 106.25)" fill="#808080"/><rect width="76.85" height="2.57" rx="0" ry="0" transform="translate(598.28 101.68)" fill="#808080"/><rect width="76.85" height="1.47" rx="0" ry="0" transform="translate(598.28 97.25)" fill="#808080"/><rect width="76.85" height="1.83" rx="0" ry="0" transform="translate(598.29 92.49)" fill="#808080"/><rect width="76.85" height="1.1" rx="0" ry="0" transform="translate(598.29 88.27)" fill="#808080"/><rect width="76.85" height="2.57" rx="0" ry="0" transform="translate(598.29 82.56)" fill="#808080"/><rect width="76.85" height="3.97" rx="0" ry="0" transform="translate(598.29 76.2)" fill="#808080"/><rect width="76.85" height="5.49" rx="0" ry="0" transform="translate(598.3 67.9)" fill="#808080"/><rect width="76.85" height="1.83" rx="0" ry="0" transform="translate(598.31 56.86)" fill="#808080"/><rect width="76.85" height="2.57" rx="0" ry="0" transform="translate(598.31 51.91)" fill="#808080"/><rect width="76.85" height="1.83" rx="0" ry="0" transform="translate(598.3 61.66)" fill="#808080"/><rect width="76.85" height="1.83" rx="0" ry="0" transform="translate(598.26 141.49)" fill="#808080"/></g></g></g></svg>