<svg xmlns="http://www.w3.org/2000/svg" viewBox="0 0 19.9653 21.1257"><defs><style>.cls-1{fill:none;stroke:#4d4d4d;stroke-miterlimit:10;}.cls-2{fill:#ee673f;}</style></defs><g id="Layer_2" data-name="Layer 2"><g id="guides"><rect class="cls-1" x="0.5" y="7.5916" width="13.0341" height="13.0341"/><path class="cls-2" d="M19.9653.0892c-.1074-.1463-.0525-.0268-.07.0249Z" transform="translate(0 -0.019)"/><path class="cls-2" d="M19.8952.1141l-.05.0174C19.8757.1413,19.8891.1315,19.8952.1141Z" transform="translate(0 -0.019)"/><path class="cls-2" d="M19.5261.3577c-.0425-.1649.1794-.1284.0559-.3144C19.4206.035,19.3623.1856,19.5261.3577Z" transform="translate(0 -0.019)"/><polygon class="cls-2" points="19.727 0.317 19.646 0.232 19.729 0.416 19.727 0.317"/><polygon class="cls-2" points="19.848 0.341 19.808 0.322 19.811 0.501 19.848 0.341"/><path class="cls-2" d="M19.2468.554l.039-.0956c.1812.0342.1238.1858.2454.2091C19.61.5736,19.3056.419,19.445.337c-.1223-.0885-.1582.1868-.3218.0146C18.9829.4008,19.2251.4469,19.2468.554Z" transform="translate(0 -0.019)"/><path class="cls-2" d="M16.3806,5.868l-.0259-.0039C16.3774,5.8764,16.395,5.884,16.3806,5.868Z" transform="translate(0 -0.019)"/><path class="cls-2" d="M15.4567,7.2046a.1979.1979,0,0,0-.08.0187.2461.2461,0,0,0,.0657.0219Z" transform="translate(0 -0.019)"/><path class="cls-2" d="M16.7006,4.81a.3571.3571,0,0,0,.086-.0105A.0739.0739,0,0,0,16.7006,4.81Z" transform="translate(0 -0.019)"/><path class="cls-2" d="M9.361,12.0791a.3748.3748,0,0,0-.0468-.0512l-.0061-.0012.0368.055Z" transform="translate(0 -0.019)"/><path class="cls-2" d="M14.5588,8.8183a.1464.1464,0,0,0-.0288.0711C14.5605,8.86,14.5664,8.8378,14.5588,8.8183Z" transform="translate(0 -0.019)"/><path class="cls-2" d="M17.0654,4.3548l-.0169.0176a.1216.1216,0,0,0,.0379-.0072l-.02-.0114Z" transform="translate(0 -0.019)"/><path class="cls-2" d="M16.0419,7.0107a.1059.1059,0,0,0-.06.026A.0957.0957,0,0,0,16.0419,7.0107Z" transform="translate(0 -0.019)"/><path class="cls-2" d="M18.072,1.5216c-.0344.007-.0381.0341-.03.0678C18.08,1.599,18.1,1.5861,18.072,1.5216Z" transform="translate(0 -0.019)"/><path class="cls-2" d="M17.7148,1.9768l.0012-.0034C17.6923,1.9577,17.6958,1.9628,17.7148,1.9768Z" transform="translate(0 -0.019)"/><path class="cls-2" d="M17.4582,2.2437l-.0005-.0089C17.44,2.2248,17.435,2.2239,17.4582,2.2437Z" transform="translate(0 -0.019)"/><path class="cls-2" d="M18.0417,1.5894c-.102-.0243-.3394-.2084-.1294.0524l.0415.0194c-.0813-.0208-.0188.1047-.0388.1443l.071.04a.3727.3727,0,0,1,.0874-.0492C18.16,1.8016,18.0625,1.6737,18.0417,1.5894Z" transform="translate(0 -0.019)"/><path class="cls-2" d="M16.3386,5.8239c.05.0351.051-.0145,0,0Z" transform="translate(0 -0.019)"/><path class="cls-2" d="M16.4748,5.2851l-.0395.0306C16.4545,5.3114,16.4733,5.3072,16.4748,5.2851Z" transform="translate(0 -0.019)"/><path class="cls-2" d="M17.7605,3.9136l-.0162-.0019C17.7688,3.936,17.77,3.927,17.7605,3.9136Z" transform="translate(0 -0.019)"/><path class="cls-2" d="M16.4038,5.3482a.2059.2059,0,0,1,.0315-.0325C16.4174,5.3186,16.4013,5.3239,16.4038,5.3482Z" transform="translate(0 -0.019)"/><path class="cls-2" d="M17.2583,4.2261l-.0118,0A.022.022,0,0,0,17.2583,4.2261Z" transform="translate(0 -0.019)"/><path class="cls-2" d="M5.1611,14.6045c.0381.0049-.0222.07-.0278.107.2045-.0893-.0628-.0972.1381-.1488-.0149-.0192-.049-.0177-.0844-.0144l-.1441.151C5.1362,14.6933,5.0788,14.63,5.1611,14.6045Z" transform="translate(0 -0.019)"/><path class="cls-2" d="M8.7309,12.1574l.0244,0c-.0783-.0524-.094-.0789-.1723-.0644.0742.1328.2907.21.3506.3824-.0008-.0239.0222-.0395.0532-.0459A.5965.5965,0,0,1,8.7309,12.1574Z" transform="translate(0 -0.019)"/><path class="cls-2" d="M8.9868,12.4292l.01.005.0473.0229a.052.052,0,0,1,.0416-.0131A.1626.1626,0,0,0,8.9868,12.4292Z" transform="translate(0 -0.019)"/><path class="cls-2" d="M5.3542,14.93l.0017.023C5.3635,14.9111,5.3618,14.9112,5.3542,14.93Z" transform="translate(0 -0.019)"/><path class="cls-2" d="M12.6477,7.03a.5957.5957,0,0,0-.0162-.08A.0908.0908,0,0,0,12.6477,7.03Z" transform="translate(0 -0.019)"/><path class="cls-2" d="M9.465,11.6115a.1238.1238,0,0,0,.0535-.0129l.011-.0279Z" transform="translate(0 -0.019)"/><path class="cls-2" d="M9.0344,15.1557c-.1565-.1758-.0015.0307-.1453-.0087l.0559.1255C9.0083,15.2554,9.0117,15.1927,9.0344,15.1557Z" transform="translate(0 -0.019)"/><polygon class="cls-2" points="5.198 14.518 5.181 14.53 5.187 14.529 5.198 14.518"/><path class="cls-2" d="M7.8547,16.5735l-.0474.0023A.0653.0653,0,0,0,7.8547,16.5735Z" transform="translate(0 -0.019)"/><path class="cls-2" d="M9.2907,12.2286l.1568-.1619-.0865.0124C9.4284,12.1778,9.2043,12.1136,9.2907,12.2286Z" transform="translate(0 -0.019)"/><path class="cls-2" d="M9.7617,14.5158l.1206.0769c-.0838-.366.4118-.28.2055-.6907.5557.1166-.2226-.4255.2786-.3257l-.0593-.04a6.3615,6.3615,0,0,0,1.6789-1.8026l.0745.0659c.9348-.83,1.56-1.8815,2.4163-2.763.0044-.1468-.2073-.237-.2276-.3842.0344-.0269.0882-.1083.1817-.0291-.003.1067.11.1417.1279.1945.08-.1133.3035-.1566.27-.3473l-.187-.0244c-.0193-.08.0637-.1076.0979-.1353.05.0664.2217.1309.2266.1843-.13-.453.26-.0443.2842-.3114a1.9723,1.9723,0,0,1-.323-.9311l.1276-.0153c-.0832.0944.1878.1576.0743.2657.1582-.0361.1269-.2216.248-.28-.08-.0366-.1594-.1129-.1562-.1752.0842-.0277.2165.0769.2856.0224l.0247.1332c.1333.0383.039-.1073.0581-.1612.1181.0781.2214-.0033.3254.1157-.07-.213.0388-.1742.0278-.3482-.197.0028-.1186-.1455-.217-.21l-.053.1478c.2056-.0965-.0249.0673.1673.2111-.1473.0021-.2132-.358-.2906-.21.0337-.2273.1421-.189.1206-.4692-.0437.1206-.1035-.1189-.2009-.1172.0923-.1219.0884.0256.2358.09.0489-.0675.1722-.0023.0874-.1753.1424-.0553.1236.1322.2417.1438.0933.1452-.3979.1525.0262.4668-.0413.0572.0561.2532-.0179.3232.11-.0223.3233-.0059.3033-.1669l-.222-.1972c.0484-.0676-.0937-.2116-.0349-.24.0445.08.1768.1175.2017.051-.0444-.013-.0542.0137-.0889-.0255.0635-.1084-.0791-.253-.0261-.401a1.2847,1.2847,0,0,1-.3928.0059c-.1382-.1584.029-.08.0532-.1477.0151.026.01.04.0544.0523l-.03-.119c.1665-.0568.2165.21.3737.18.1885.0479.0027-.1531.1209-.1391L16.3061,5.84a.0822.0822,0,0,1,.0325-.0156l-.0117-.0086c.029-.0806.0976-.1353-.0057-.2536.0591.0393.03-.0667.0105-.1178-.018-.0746-.0881-.2754.1453-.1636l-.0022.0048c.0879-.0567.198-.065.2478.006l.1521-.0822.1423.1447c.054-.1474-.0451-.2131-.1381-.4253.16-.0021.2058-.205.1938-.3067.0137-.0036.0256-.0166.0366-.0458l-.1-.005c.081-.0816-.009-.1405.04-.1984-.0246,0-.0349-.0061.0169-.0176l.04-.0233c.0137.0168,0,.0275-.0188.0337l.06.0334c.2229.07-.0012-.1864.12-.2119,0,.0121,0,.0331-.008.0394.0771-.0066.3464.12.2282-.0115.0254.0049.0113-.0327-.0095-.0754l.0493-.0111a.165.165,0,0,1-.0495.01c-.0276-.0568-.0667-.1217-.0318-.0961l.1189-.0835c.04-.0014.044-.0453.0415-.0861l.0794.0364c.0237-.0473.062-.0152.0757.0046.3371.0538.0656-.3064.3828-.2887-.0826-.1189-.1826-.1-.2437-.144a1.0166,1.0166,0,0,1-.0862-.3307c.2029.0607.5037-.0282.6883.1854.12-.1066-.1629-.0742-.1846-.1974l.02-.0067a.4229.4229,0,0,1-.2625-.0554c-.1223-.0888-.0647-.2239-.0039-.2284l.1438.1625c.0378-.16-.2268-.3463-.3308-.5553.14-.0334.2444.144.4065.25l.0388-.1279.1226.1048c.019-.0882-.0833-.2.0363-.2426.0638.159.2215-.0281.3052.1883.0808-.0113-.1445-.2273.0391-.1114-.1031-.1441-.1009-.0141-.1621-.0257-.2039-.1416-.0025-.179-.0037-.2767.1011.0784.0825.1351.2034.1248-.062-.0763-.0835-.167.0383-.1274-.1223-.1047.0391-.0955.0784-.1264a.2723.2723,0,0,1-.2835-.1127.1416.1416,0,0,1,.0581-.1838l-.1008.0023c-.1243-.2186.2214.0039.24-.1333a1.2918,1.2918,0,0,0,.0838.2325,1.927,1.927,0,0,1-.0449-.36l.2424.0782c-.0818-.0859.08-.0769-.0427-.1815.1613-.0225.0835.2.1653.2864.18-.0471-.1243-.2676.1582-.2191l.0825.1347c.04-.03.0381-.1605.0993-.1162-.041-.0351-.0407-.0024-.0605.0208-.2253-.2324-.0244-.3181-.2893-.5208l-.06.0373c.0183-.1205-.1052-.3232.0354-.3074.1213.0232.1435.1791.1855.2627.08-.06-.226-.2975-.1262-.3651-.0806.0116-.1628-.0743-.2041-.1577-.06.0371-.2.1024-.0776.1745l.04.0025A.3706.3706,0,0,1,19.17.81c-.06.07-.1421-.0652-.2032-.0931-.14.0819.2447.2257.1455.3252l-.0607-.028c.0214.1072-.0372.1938.1062.3406-.2037-.0933-.0384.1762-.1792.144-.3672-.2972.1789-.16.0344-.3885-.1211-.0071-.1441-.1786-.2058-.2719l.0046.3091c-.061-.0278-.2842-.1294-.1809.0144l.02-.0067c-.019.1046.1443.2117.0435.23-.0408-.0185-.0821-.086-.1023-.1116-.0806.0278.0417.1163.0427.1816-.08.0282-.1233-.1538-.2031-.1414.0835.1834-.12.0742-.16.1375.2241.15.0874.46.37.4926l.0242.2534c-.1419-.0487-.2063-.3365-.41-.446l.0991-.1008c-.2685-.199-.0261.3659-.37.1949-.06.0479-.0122.0642-.2309.0646l.2422.175a.5.5,0,0,1-.2825-.1084.1621.1621,0,0,1-.0806.0923.1584.1584,0,0,1-.042-.1041c-.1616-.0651-.1252-.0126-.071.0593.0376.0717,0,.1-.0317.1332l-.0572-.1036a.1586.1586,0,0,0,.0413.1222.0787.0787,0,0,0-.0159.0587.826.826,0,0,0,.301.1139c-.2.0539-.2385.1978-.521.15-.0617-.06-.1035-.1763-.1235-.1693-.0806.0277-.0181.186.0845.2649a.1063.1063,0,0,1-.0169.0389c-.0654-.0374-.1367-.0759-.1694-.0578a.0838.0838,0,0,0-.0759-.0039c.1638.1723-.0176.2022.0442.2954a.1409.1409,0,0,0,.0859-.0782c.0813.1474.1841.3047.0579.2569-.043-.1809-.263-.0709-.2054-.239-.3032-.1066.1238.1855-.0368.21L16.7409,3c-.1228-.1211.0183-.1537-.0429-.1817l-.0193.0559c-.0623-.1257.1374-.2287.0739-.4516l-.24.1332c-.0547.3794-.4964.5334-.3887.9874l.0041-.012a.7143.7143,0,0,0,.08.0825l-.0408-.0184.0633.1256c-.1626-.0576-.2622.01-.4234.0012a.3456.3456,0,0,1,.2229.1012c.1228.1214.1722.1761.064.2045-.0933-.0785-.0542-.12-.1719-.1311a.1241.1241,0,0,1,.0992.1324c-.0938-.012-.1626.0425-.2566-.0365-.01-.04.0349-.0271.059-.0275-.0092-.04-.1469.0022-.177-.1171l-.0341.0939c-.1131-.0252-.0987-.1322-.1629-.1585-.0376.1723.1243.4155.0962.5764-.0452-.0472-.2517-.2258-.1924-.1732-.1328.0288.0745.3693.0113.4772-.05-.0663.0048-.08,0-.134a2.6405,2.6405,0,0,1-.9556.5493l.1531.2521L14.36,5.28c-.3777.1662-.4255.5006-.5915.824-.0584.0951-.1917-.0769-.2852-.0887-.1811.1629.0208.4134-.081.6293-.0447-.08-.1932-.2779-.2664-.21.05.0667.1384.1586.06.1736l-.0447-.08c-.1328-.0382-.0783.0811-.1963.1362a.8237.8237,0,0,0,.0127.7756c-.1418.1221-.2165-.2107-.2856-.2235.1628-.0324.0212-.1012-.0339-.1856.0153.104-.002.1991-.1773.0959a.247.247,0,0,0-.0478.268c-.02-.08.0883-.0414.1281.0517-.1042.0145-.1765.2163-.3591.0454-.259.378-.6306.7313-.9392,1.11.0444.1464.0786-.015.1182.0784.05.2-.1277.0152-.0882.1749l-.0781-.1188c-.1082.0951-.0144.3743-.0083.5612-.1033-.1183-.1716.0026-.1675-.1448-.0239.0683-.6054-.3214-.5312-.1893l.5415.3633c.0459.0442-.0454.09-.0066.1112-.1355-.0382-.2969-.081-.3228-.05-.1374-.0913-.0439-.1463-.0049-.1866-.2021-.184-.2558.03-.3935-.1947-.044.1206.1177.078.1477.1985l-.1126.0417.1224-.002c.0051.12.1435.2779-.0481.2676l.1237.2658c-.1718-.1309-.0876.0415-.1665.0561l-.0791-.1191c-.0485.0675-.0976.0679-.1916.0559-.1135-.1587.0837-.0274-.04-.1593l-.1077.0279c.0933.0791.1284.1856.2271.1839.1179.2123.2319.3706.08.52-.2212-.0632-.074-.1987-.2566-.3026-.21.1095.2378.5575.135.6388-.1714.0692-.0188.1874-.1167.3226-.0739-.1327-.1914-.0106-.3144-.0755L9.6442,10.78c.0008.0673-.0732.0679-.1423-.011.1524.118-.0037.281-.0085.4277l.1379.0915c-.0168.1037-.0188.2655-.1128.31-.0517.1417.08.2117.1448.4108a1.0422,1.0422,0,0,1-.4038-.3012c.0884.0257.0928-.0548.1716-.0692.0086-.2278-.1641-.5585.0125-.6421-.252-.3174-.043.1214-.2059.0963-.0163-.0175-.018-.0272-.0168-.0348a.028.028,0,0,1-.0229.009.3818.3818,0,0,0-.1189-.3458c-.0386.1078.2514.317.0351.307.0205.1472-.27.0045-.3293.0319.07.1466.3112.3562.1594.4387l-.1233-.1986c-.1223.1357.1924.2774.0747.3994.0588-.028.1292.1859.207.104a.1762.1762,0,0,1-.1171.2557c.01.04.0544.053.1088.1056.1839.0233-.01-.22.2137-.1386l-.1365-.21a.3411.3411,0,0,1,.3149.2086c.01-.0267,0-.066.0442-.0536.2854.2229-.1716.0026.04.2269l.0237-.0675c.1972.13.0554.2526-.013.3074-.1472.0023-.2356.044-.3691-.0615l.03-.147c-.1474-.0368-.0478.179-.1025.2323a.1421.1421,0,0,0-.0539-.0183.1865.1865,0,0,1,.04.0259.11.11,0,0,1-.0811-.0128c-.05.045-.0346.1871-.1164.1989l.12.0928-.06-.0619a.1526.1526,0,0,1,.2253.064c-.0093.1733-.25.0043-.3716-.0566-.1565-.1757.0892-.101.0743-.206-.2024-.1175-.11.091-.3179.1-.1553-.2075.11-.1231-.0464-.2984-.1074.0592.0093.1986-.1179.2486-.0791-.0879-.0108-.1843-.13-.2762l-.1053.012c.1126-.1542-.2605-.1789-.2107-.3318-.1242-.0142.0931.2082-.0935.18.1018.05.3057.12.3189.2568l-.1267.0336c-.1219-.045-.1311-.26-.2552-.2739l-.008.1417c.06.046.1235.03.18.1227-.1042-.0032.1514.27.1863.4012a.1263.1263,0,0,1-.1687.0286c.0691.262-.0637.4053.0049.651-.052-.172-.1983-.1647-.3225-.1946.0483-.1053-.1307-.26-.251-.3524-.0249.0681.1313.26.2138.2855-.1474.0233.0735.1662-.1123.1383-.104-.0041-.1562-.1762-.2382-.2171-.0879.0861.1965.212.0678.2769-.0193-.026-.0188-.0415-.0588-.062-.0845.0224-.05.1533.0286.2411-.2837-.1421-.1148.1853-.3323-.0205-.052.1842.1411.0867.1982.1807.0547.14-.1137.1694-.1765.17.023-.0369-.0137-.12.0486-.1212L6.91,13.7015c-.2534.0678.2686.41-.0041.4515-.0127-.1522-.0967-.13-.1734-.2655.0183.0583-.1323.1446.053.1728a.5.5,0,0,1-.1919.0818.6654.6654,0,0,0,.0891.3162c-.0857.0657-.2483.0281-.3479.003-.0312.2621-.3447.2238-.37.47l.019-.0006c-.137.076.2412.1525.1174.2589-.1523-.2047-.1977-.054-.2964-.1469-.1235-.0653-.0275.2564-.1728.1338a.3564.3564,0,0,1-.0247-.1291c-.0647-.0592-.0786.0018-.12-.0049l-.0012-.0336a.41.41,0,0,0-.0291-.0713c-.0271-.068-.083.1322-.1631.15.0159-.0292.0476-.1249.0608-.1577-.0073-.0708.0005-.109-.14.0787.1123-.233-.0718.0413.05-.18.0283-.0351.03-.03.0374-.0359.0447-.0744.0288-.0513.0356-.0932-.1894.0323-.4909.1738-.52-.0374.2812-.2025.1379.0444.3637-.1133-.0693.0083-.146.0226-.1067-.0631a1.7109,1.7109,0,0,0,.19-.0987c.0566-.0709-.3855.07-.3592.0507-.0578.0339-.0808.0658-.0517.0945-.2036.0726-.1214-.1567-.2446-.203.01.0344.0068.155-.1543.2063-.0088-.1568-.3189-.038-.493-.065.0716-.1948.3055-.0493.5044-.1912.0667-.0627.2127-.1993.3211-.199-.0086-.12-.2305-.0958-.3247-.1694l.0625-.0281c-.0913-.1146-.4322-.1355-.36-.3125l-.043.0949c-.0476-.0061-.0617-.0848-.2077-.0672.1062-.0427.1582-.1754.2614-.1759-.3623.0841-.3427-.239-.6938-.1814a.63.63,0,0,1,.3005-.1179c.0093.1036-.0439.1632.1109.1546a.1424.1424,0,0,1,.1079-.1856c-.242.0116-.398-.1429-.6257-.099a.4825.4825,0,0,1,.3032-.2248c-.2027-.2-.5.3327-.6021.0535.1241-.1919.2788.035.272-.1614l.04.0215c.41-.2971-.3588.035-.3979-.1152.2424-.1109.2153.0334.3569-.13-.1108-.1068-.5012-.0318-.4692-.1934l.1138-.0171c-.0508-.0772-.0574-.2608-.1065-.3387.0481-.0213.0454-.0065.0645.005.0407-.19-.1509-.0214-.022-.21l-.1345.0049c-.0645.0942-.1436.2624.0278.2943-.1716-.0322-.2727.24-.5005.2742l.0916-.0137a1.4189,1.4189,0,0,0-.2674.9728c.3191.0764.0157.3378.2637.456.2986-.0883.0723.0113.197.1468-.0713-.0694-.2221.0813-.2375.1522a.28.28,0,0,1,.1723.0536c-.0864.0732-.22.3813.0059.3686-.0454.14-.1008.0188-.17.0237-.126.1071.15.0288.0684.1065a.1136.1136,0,0,1-.05.0087,1.7448,1.7448,0,0,1,.1.4513c.2769-.1257.18.1036.3177.1225-.0994.0241-.0513.1435-.0765.2173l.2434-.0279c.2125-.0155-.0468.184.1082.2379l.03-.0546c.1216.0286.0991.3284.0285.505a2.3378,2.3378,0,0,1,.9925.8877,1.5823,1.5823,0,0,0,1.3564.7072l.1316-.0252c.0774-.0993-.0693-.1482-.0132-.29a.9973.9973,0,0,1,.252-.067c-.1062-.0628-.0767.0335-.0762-.0519l-.1555.1112c-.01-.0216.008-.0323-.0108-.0742a.7132.7132,0,0,1-.1325.0834.0947.0947,0,0,1-.0584,0,.1958.1958,0,0,0,.0574-.0645c.0613-.1025.0908-.2238.1968-.1744-.0069.0321-.0227.0459-.0564.07.1125.0007.1037-.1083.1924-.0629.1062.0238.07-.039.1006.054a2.3142,2.3142,0,0,0,.3437.0094c.0608-.32.3223-.181.3911-.1932.0589.199-.17.1756-.18.3951.0584.026.12.0537.1809.0748l-.0576-.1522.1885-.0576.0049.0333c-.0086-.068-.02-.1355.0491-.1142.0178.0147.0561.0423.0422.0628l.0708-.1556c.0217.1892.1279-.0293.2192.14.4776-.2513.2242-.5261.6316-.5525-.0964-.0318-.1521-.2773-.0722-.3115a.1286.1286,0,0,1,.14.0915l.0022-.1468c.3123.1046.2576-.1238.4556-.1952l.0576.063c-.03-.1186-.043-.2256.0456-.2809l.1167.1243c.1709-.016-.2109-.3016-.0427-.3315-.1389-.1181-.2639-.1161-.4038-.2188.1611.0969.2737.0078.1521-.053.0286-.1479.0625-.0659.1033-.0457l-.0344-.1307c.0664-.064.2006.1331.258.2267-.0935-.1927.0723-.1738.1592-.2276l.0366.0831.1084-.0757a.1955.1955,0,0,1,.1411-.285l.1341.2126c.1443.024-.0379-.0836-.0559-.1253-.0115-.1672.1293-.08.2734-.0406C9.3159,14.6,9.9289,14.8748,9.7617,14.5158ZM17.644,3.8741l-.0388-.01C17.6,3.8069,17.5849,3.7642,17.644,3.8741Zm-.7358.7552c.0109-.1573.071-.053.1279-.0171-.1311.0521-.1179.1547-.25.1874a.76.76,0,0,1,.1333.0787c-.0374.0259-.106.0251-.2085-.0429C16.5632,4.6371,17.05,4.6784,16.9082,4.6293Zm.6374-2.5723.031.0462,0,.0006Zm-.2451.6156a.1769.1769,0,0,0-.104-.0317C17.2529,2.6739,17.3007,2.7,17.3005,2.6726Zm-1.0374.7557c-.0949-.0434-.1147.0265-.1281.0778A.3.3,0,0,0,16.2631,3.4283ZM11.226,9.4836c-.0049-.054-.0351-.1736-.133-.1718.0451.08-.1074.0284-.0244.1339l-.0132-.0025A.8.8,0,0,0,11.226,9.4836ZM9.4406,12.8284a1.1329,1.1329,0,0,0-.2026-.1954l.0129-.003a.1542.1542,0,0,1-.07-.0463c-.0344.01-.073.0186-.0652.0534C9.3544,12.8544,9.352,12.9363,9.4406,12.8284Z" transform="translate(0 -0.019)"/><path class="cls-2" d="M9.2375,11.0273c-.0056.0141-.0144.0211-.0166.0311A.11.11,0,0,0,9.2375,11.0273Z" transform="translate(0 -0.019)"/><path class="cls-2" d="M9.1208,12.6332c.0137.0153.0613.0092.1172,0A.1128.1128,0,0,0,9.1208,12.6332Z" transform="translate(0 -0.019)"/><path class="cls-2" d="M19.7,1.214l.0007.0489.1213.0072c-.0022-.163-.1042-.2585-.2072-.3861.0432.1812-.0579.1832-.1163.3188Z" transform="translate(0 -0.019)"/><path class="cls-2" d="M18.8437.5636a.5717.5717,0,0,0-.1623-.0582l.0622.0773Z" transform="translate(0 -0.019)"/><path class="cls-2" d="M17.5434,1.36l.1406-.0326C17.6428,1.2437,17.4406,1.2481,17.5434,1.36Z" transform="translate(0 -0.019)"/><path class="cls-2" d="M19.1687,2.0713l-.0423-.1165c-.1011-.0142-.1406.0488-.0588.1347C19.0664,1.9917,19.1289,2.1178,19.1687,2.0713Z" transform="translate(0 -0.019)"/><path class="cls-2" d="M17.3247,1.5838c.1235.1533-.1409.0325-.0176.1694C17.2861,1.6952,17.468,1.7139,17.3247,1.5838Z" transform="translate(0 -0.019)"/><path class="cls-2" d="M18.7744,2.7165c.1628.0907.08-.0607.16-.0887C18.895,2.6745,18.6926,2.6141,18.7744,2.7165Z" transform="translate(0 -0.019)"/><path class="cls-2" d="M17.3364,2.414c-.1011-.0944-.062-.1254-.0015-.1463.02.0419.0615.0929.062.1257a.8352.8352,0,0,1-.0029-.2281c-.1213-.0071-.241.0357-.364-.0852C17.0927,2.2055,17.1953,2.3822,17.3364,2.414Z" transform="translate(0 -0.019)"/><path class="cls-2" d="M18.6765,2.8654c.0805-.0116.2016.0437.2412-.0192-.0816-.0529-.2039-.1253-.2425-.0455l-.1025-.1281C18.4311,2.6563,18.7556,2.7879,18.6765,2.8654Z" transform="translate(0 -0.019)"/><path class="cls-2" d="M16.8335,2.427l.0805.02c-.0422-.1489.0781-.1907-.0456-.36A.4012.4012,0,0,0,16.8335,2.427Z" transform="translate(0 -0.019)"/><path class="cls-2" d="M18.2534,2.8991l.1635.1551c.08-.0445-.0612-.0444-.082-.1024.04.0026.08-.0119.0591-.0534C18.3559,2.9941,18.2517,2.7848,18.2534,2.8991Z" transform="translate(0 -0.019)"/><path class="cls-2" d="M18.2592,3.2738l.002.146.2429.095C18.5224,3.3615,18.4018,3.4192,18.2592,3.2738Z" transform="translate(0 -0.019)"/><path class="cls-2" d="M18.0573,3.2786,18.0166,3.26l.146.3416A1.0123,1.0123,0,0,0,18.0573,3.2786Z" transform="translate(0 -0.019)"/><path class="cls-2" d="M15.6474,3.8424c.0613.0768.2153.0817.1067.0431C15.7053,3.82,15.5268,3.836,15.6474,3.8424Z" transform="translate(0 -0.019)"/><path class="cls-2" d="M17.2751,4.7172c-.0859-.0118-.0813.1941-.0745.2883C17.217,4.9143,17.3818,4.7936,17.2751,4.7172Z" transform="translate(0 -0.019)"/><path class="cls-2" d="M17.2026,5.0435l-.002-.038A.0652.0652,0,0,0,17.2026,5.0435Z" transform="translate(0 -0.019)"/><path class="cls-2" d="M15.7421,7.5154a.0413.0413,0,0,0,.0061.0322Z" transform="translate(0 -0.019)"/><path class="cls-2" d="M15.7431,7.4275c.0542-.0136.0686-.1207-.0007-.2a.7536.7536,0,0,0,0,.2883C15.7539,7.4839,15.8347,7.5021,15.7431,7.4275Z" transform="translate(0 -0.019)"/><path class="cls-2" d="M15.2829,7.8885c-.0246-.0657.0293-.08-.05-.1326C15.1889,7.7431,15.2187,7.8631,15.2829,7.8885Z" transform="translate(0 -0.019)"/><path class="cls-2" d="M10.2978,9.381c-.0791.0144-.0735.0675.0447.1464C10.3862,9.4728,10.2976,9.4473,10.2978,9.381Z" transform="translate(0 -0.019)"/><polygon class="cls-2" points="10.313 9.589 10.254 9.55 10.146 9.511 10.313 9.589"/><path class="cls-2" d="M9.8764,9.8011a.14.14,0,0,1-.03-.0595C9.8457,9.7726,9.8469,9.8011,9.8764,9.8011Z" transform="translate(0 -0.019)"/><path class="cls-2" d="M9.8479,9.7265a.1059.1059,0,0,0-.0013.0151Z" transform="translate(0 -0.019)"/><path class="cls-2" d="M9.9,9.734l-.0537-.0524a.143.143,0,0,1,.0013.0449C9.8518,9.7144,9.8674,9.7115,9.9,9.734Z" transform="translate(0 -0.019)"/><path class="cls-2" d="M9.7732,9.8829,9.99,9.96c-.0247-.1334-.147.0024-.2659-.21Z" transform="translate(0 -0.019)"/><path class="cls-2" d="M9.6325,10.1392c-.104.0143.0789.3195-.1423.1885-.0435.2551.3545.2359.2624.4914.2554-.0975-.2917-.41-.0463-.4807C9.52,10.3145,9.6565,10.2048,9.6325,10.1392Z" transform="translate(0 -0.019)"/><path class="cls-2" d="M9.9812,10.3876c-.0882-.0923-.1617-.024-.1175.0546C9.8933,10.4294,10.0607,10.5069,9.9812,10.3876Z" transform="translate(0 -0.019)"/><polygon class="cls-2" points="9.437 10.524 9.319 10.512 9.369 10.579 9.437 10.524"/><path class="cls-2" d="M9.2309,10.7057,9.1621,10.56C9.1916,10.6137,9.1186,10.6816,9.2309,10.7057Z" transform="translate(0 -0.019)"/><path class="cls-2" d="M8.8584,10.8589c-.0784.0149.1435.279.1726.1308l-.03.0142C8.9665,10.9638,8.8293,10.94,8.8584,10.8589Z" transform="translate(0 -0.019)"/><path class="cls-2" d="M8.7251,11.8368a.0849.0849,0,0,0-.0259-.1334l-.0237.1342Z" transform="translate(0 -0.019)"/><path class="cls-2" d="M9.3649,12.3614c.1829.1045.0589-.0945.1614-.1094C9.4384,12.2933,9.4238,12.2669,9.3649,12.3614Z" transform="translate(0 -0.019)"/><path class="cls-2" d="M8.4145,11.7476c-.0442-.0793.03-.0809.0591-.0944C8.3747,11.5877,8.3454,11.6687,8.4145,11.7476Z" transform="translate(0 -0.019)"/><path class="cls-2" d="M8.3469,11.936c-.0886-.0253-.0825-.0816-.1448-.0967-.1245.0018-.1711.0755-.1147.1853a1.1121,1.1121,0,0,1,.3391.2673c.03-.1473-.2178-.4476.0478-.3046L8.2717,11.67C8.1591,11.7115,8.4108,11.8948,8.3469,11.936Z" transform="translate(0 -0.019)"/><path class="cls-2" d="M9.04,12.18l-.1372-.025a.1661.1661,0,0,1,.084.1727C9.1989,12.4847,9.0258,12.22,9.04,12.18Z" transform="translate(0 -0.019)"/><polygon class="cls-2" points="7.994 12.574 7.943 12.727 7.986 12.7 7.994 12.574"/><polygon class="cls-2" points="7.868 12.592 7.807 12.545 7.839 12.723 7.868 12.592"/><polygon class="cls-2" points="7.698 12.652 7.718 12.646 7.725 12.537 7.698 12.652"/><path class="cls-2" d="M7.4565,12.8743l.1021.0512c.0024-.0478.1464-.0242.0273-.1164C7.6032,12.8671,7.5383,12.9148,7.4565,12.8743Z" transform="translate(0 -0.019)"/><path class="cls-2" d="M8.9321,15.4932a.33.33,0,0,0-.1592-.1291l.116.1556C8.89,15.5037,8.892,15.4727,8.9321,15.4932Z" transform="translate(0 -0.019)"/><path class="cls-2" d="M8.5813,15.43l.092.2246c.1082-.0754-.0093-.1993.0376-.3055-.0825-.0087-.0081.1418-.0916.1486Z" transform="translate(0 -0.019)"/><path class="cls-2" d="M6.4738,17.1591c-.0393-.1371-.062-.099.01-.2423a.8976.8976,0,0,1-.4424.2757c.0547.0761-.0635.2658.0059.2078a2.2476,2.2476,0,0,0,.199-.1559l-.0059.1037C6.43,17.391,6.2922,17.16,6.4738,17.1591Z" transform="translate(0 -0.019)"/><path class="cls-2" d="M2.9777,12.2983a.4.4,0,0,0,.1712-.0839C3.05,12.16,2.997,12.3094,2.9777,12.2983Z" transform="translate(0 -0.019)"/></g></g></svg>