<svg xmlns="http://www.w3.org/2000/svg" viewBox="0 0 525 111.461"><defs><style>.cls-1{fill:none;stroke:#a5a5a5;stroke-miterlimit:10;}.cls-2{fill:#2561dd;}.cls-3{fill:#212121;}.cls-4{fill:#eb5124;}</style></defs><g id="Layer_2" data-name="Layer 2"><g id="guides"><path class="cls-1" d="M219.4453,30.4672c0,12.3193-4.7093,17.5992-15.7921,17.5992s-15.8393-5.28-15.8393-17.5992,4.7566-17.5992,15.8393-17.5992S219.4453,18.1479,219.4453,30.4672Zm-27.2555,0c0,9.8936,3.3775,13.9844,11.4634,13.9844s11.4635-4.0908,11.4635-13.9844-3.3775-13.9844-11.4635-13.9844S192.19,20.5736,192.19,30.4672Z"/><path class="cls-1" d="M236.7612,34.4628H226.4873v12.7h-4.1855V13.8668h14.2216c8.1343,0,11.5109,3.9478,11.5109,10.4169,0,5.28-2.1879,8.6092-7.23,9.7032L248.13,47.115h-4.4715Zm-.4281-3.2346c5.28,0,7.5157-2.3309,7.5157-6.9919,0-4.7566-2.188-7.04-7.5157-7.04h-9.8458V31.2282Z"/><path class="cls-1" d="M262.4008,47.115H250.9856V13.8194h11.4152c10.75,0,15.3639,4.9944,15.3639,16.6478S273.151,47.115,262.4008,47.115Zm-7.23-29.9185V43.7379H262.21c7.8965,0,11.1784-3.9,11.1784-13.2707,0-9.3229-3.2819-13.2707-11.1784-13.2707Z"/><path class="cls-1" d="M284.8067,17.1965v10.845h154.314v3.3771H284.8067V43.7379H441.0235V47.115H280.6212V13.8194H441.0235v3.3771Z"/><path class="cls-1" d="M459.73,34.4628H449.4556v12.7H445.27V13.8668h14.2216c8.1342,0,11.5109,3.9478,11.5109,10.4169,0,5.28-2.188,8.6092-7.23,9.7032l7.3253,13.1281h-4.4715Zm-.4282-3.2346c5.28,0,7.5157-2.3309,7.5157-6.9919,0-4.7566-2.1879-7.04-7.5157-7.04h-9.8457V31.2282Z"/><path class="cls-2" d="M282.0859,80.6832c0,7.0889-3.7109,10.1338-12.4648,10.1338s-12.5127-3.14-12.5127-10.4668h3.8535c0,5.1856,2.4746,7.2788,8.6592,7.2788,6.09,0,8.4687-1.8554,8.4687-6.3276,0-9.3725-20.5058-3.6631-20.5058-15.5576,0-7.0889,3.6162-10.1338,12.0371-10.1338S281.61,58.75,281.61,66.0768h-3.8057c0-5.1382-2.3789-7.2793-8.1836-7.2793-5.7568,0-8.04,1.8081-8.04,6.3281C261.5811,73.6417,282.0859,68.1227,282.0859,80.6832Z"/><path class="cls-2" d="M284.4609,56.5617h4.1866V77.7809c0,6.6606,2.5693,9.42,8.8017,9.42,6.1846,0,8.7539-2.7593,8.7539-9.42V56.5617H310.39V77.7809c0,9.1348-3.9013,13.0361-12.94,13.0361-9.0869,0-12.9883-3.9013-12.9883-13.0361Z"/><path class="cls-2" d="M342.31,56.5617h6.9941V89.8654h-3.9961l-.2861-30.4492-10.086,30.4492h-5.8994l-10.372-30.9727V89.8654H314.668V56.5617h6.9941L332.0332,88.01Z"/><path class="cls-2" d="M381.6973,56.5617h6.9941V89.8654h-3.9961l-.2861-30.4492-10.086,30.4492h-5.8994l-10.372-30.9727V89.8654h-3.9961V56.5617H361.05L371.4209,88.01Z"/><path class="cls-2" d="M414.8057,75.7829l2.0449-16.8423c.334-2.6167-.9512-4.2823-2.9492-3.9014s-3.711,3.9966-4.4248,5.4712L403.72,72.31a6.33,6.33,0,0,1-5.9472,3.7583,5.1705,5.1705,0,0,1-5.0909-5.2808c0-2.0458,1.4278-3.9013,3.6163-5.6616l9.5625-7.6123c4.14-3.2832,5.8525-4.52,8.9453-4.52,2.8545,0,4.8047,2.0459,5.4238,5.2808l4.3291,22.8847c.999,5.3286-.6182,9.42-5.5186,9.42-3.9013,0-5.7568-2.4741-5.7568-5.3764V82.7287c0-2.6167-1.38-2.95-3.0449-1.5225l-4.6631,3.9966c-2.1885,1.8554-5.709,5.3764-9.61,5.3764-2.76,0-5.8515-1.57-5.8515-6.0424,0-3.8062,3.4248-5.376,7.6123-5.4712L410,78.78C412.7119,78.7326,414.52,78.2091,414.8057,75.7829Z"/><path class="cls-2" d="M441.2041,77.21H430.9277V89.9127h-4.1865V56.609h14.2256c8.1357,0,11.5137,3.9492,11.5137,10.4195,0,5.2812-2.1885,8.6113-7.2325,9.7055l7.3272,13.1314h-4.4717Zm-.4277-3.2354c5.2812,0,7.5166-2.3315,7.5166-6.9936,0-4.7578-2.1885-7.0415-7.5166-7.0415h-9.8487V73.9747Z"/><path class="cls-2" d="M461.7539,89.8654V75.5924h-1.6172l-9.9912-19.0307h4.6621L463.8,74.6881l8.9922-18.1264h4.4248L467.416,75.5924h-1.6181v14.273h-4.044Z"/><path class="cls-1" d="M63.8232,80.6832c0,7.0889-3.7109,10.1338-12.4648,10.1338S38.8457,87.6769,38.8457,80.35h3.8535c0,5.1856,2.4746,7.2788,8.6592,7.2788,6.09,0,8.4687-1.8554,8.4687-6.3276,0-9.3725-20.5058-3.6631-20.5058-15.5576,0-7.0889,3.6162-10.1338,12.0371-10.1338s11.9893,3.14,11.9893,10.4668H59.542c0-5.1382-2.3789-7.2793-8.1836-7.2793-5.7568,0-8.04,1.8081-8.04,6.3281C43.3184,73.6417,63.8232,68.1227,63.8232,80.6832Z"/><path class="cls-1" d="M66.1982,56.5617h4.1866V77.7809c0,6.6606,2.5693,9.42,8.8017,9.42,6.1846,0,8.7539-2.7593,8.7539-9.42V56.5617H92.127V77.7809c0,9.1348-3.9014,13.0361-12.94,13.0361-9.0869,0-12.9883-3.9013-12.9883-13.0361Z"/><path class="cls-1" d="M124.0469,56.5617h6.9941V89.8654h-3.9961l-.2861-30.4492L116.6729,89.8654h-5.9l-10.372-30.9727V89.8654H96.4053V56.5617h6.9941L113.7705,88.01Z"/><path class="cls-1" d="M163.4346,56.5617h6.9941V89.8654h-3.9961l-.2861-30.4492-10.086,30.4492h-5.8994l-10.372-30.9727V89.8654H135.793V56.5617h6.9941L153.1582,88.01Z"/><path class="cls-1" d="M172.3262,89.8654l10.9424-33.3037h7.707L201.49,89.8654h-4.3769l-2.5694-8.0879H179.1768l-2.6163,8.0879Zm14.5586-31.9717L180.1758,78.59H193.498Z"/><path class="cls-1" d="M217.8525,77.21H207.5762V89.9127H203.39V56.609h14.2256c8.1358,0,11.5137,3.9492,11.5137,10.4195,0,5.2812-2.1885,8.6113-7.2324,9.7055l7.3271,13.1314H224.752Zm-.4277-3.2354c5.2813,0,7.5166-2.3315,7.5166-6.9936,0-4.7578-2.1885-7.0415-7.5166-7.0415h-9.8486V73.9747Z"/><path class="cls-1" d="M238.4014,89.8654V75.5924h-1.6172L226.793,56.5617h4.6621l8.9922,18.1264L249.44,56.5617h4.4248l-9.8008,19.0307h-1.6172v14.273h-4.0449Z"/><path class="cls-3" d="M68.2813,30.463c0,12.3223-4.71,17.6035-15.7959,17.6035S36.6426,42.7853,36.6426,30.463,41.4,12.86,52.4854,12.86,68.2813,18.1408,68.2813,30.463Zm-27.2618,0c0,9.896,3.378,13.9878,11.4659,13.9878S63.9521,40.359,63.9521,30.463,60.5742,16.4752,52.4854,16.4752,41.02,20.567,41.02,30.463Z"/><path class="cls-3" d="M85.5938,34.46H75.3174V47.1622H71.1309V13.8585H85.3564c8.1358,0,11.5137,3.9488,11.5137,10.42,0,5.2812-2.1885,8.6113-7.2324,9.7055l7.3271,13.1314H92.4932Zm-.4278-3.2353c5.2813,0,7.5166-2.3316,7.5166-6.9937,0-4.7578-2.1885-7.0415-7.5166-7.0415H75.3174V31.2243Z"/><path class="cls-3" d="M111.2334,47.1149H99.8154V13.8112h11.418c10.7529,0,15.3682,4.9956,15.3682,16.6518S121.9863,47.1149,111.2334,47.1149ZM104.002,17.1891V43.737h7.0419c7.8975,0,11.18-3.9014,11.18-13.274,0-9.3252-3.2822-13.2739-11.18-13.2739Z"/><path class="cls-3" d="M161.042,42.9284c0,2.997-2.9024,4.9477-11.418,4.9477-12.18,0-22.5517-4.9-22.5517-13.56,0-4.3295,4.0439-6.6127,8.706-4.71l9.5156,3.9014c2.1885.9038,3.1407-.8565,1.2374-2.1885l-14.1778-9.8487c-2.1416-1.5224-3.331-3.2353-3.331-4.9956,0-4.7578,5.71-6.185,12.0371-6.185,6.3759-.0474,13.5117,1.0469,16.2715,2.3315,2.5214,1.1895,3.8535,2.7119,3.7109,5.4239-.1426,2.8544-2.2832,3.996-6.375,2.5688l-19.459-6.8032A2.6122,2.6122,0,0,0,131.5918,16c0,1.1894.3809,2.1411,2.6172,2.8544l18.5547,5.9c4.1865,1.3325,4.8525,3.5683,4.8525,5.3286,0,2.2837-1.2363,4.4721-4.8525,4.9l-17.0323,2.0937c-2.9023.38-3.997,1.332-3.997,2.7119,0,1.3321,1.2373,2.6167,3.997,2.3784l20.9336-1.8554C160.2334,39.9782,161.042,41.4059,161.042,42.9284Z"/><path class="cls-3" d="M178.1162,34.46H167.84V47.1622h-4.1865V13.8585h14.2256c8.1357,0,11.5137,3.9488,11.5137,10.42,0,5.2812-2.1885,8.6113-7.2324,9.7055l7.3271,13.1314h-4.4717Zm-.4277-3.2353c5.2812,0,7.5166-2.3316,7.5166-6.9937,0-4.7578-2.1885-7.0415-7.5166-7.0415H167.84V31.2243Z"/><rect class="cls-2" y="68.014" width="43.4469" height="43.4469" rx="21.7234"/><rect class="cls-4" x="451.2305" y="31.0526" width="73.7695" height="11.6642" rx="5.8321"/><rect class="cls-4" x="451.2305" y="31.0526" width="73.7695" height="11.6642" rx="5.8321" transform="translate(525 -451.2305) rotate(90)"/><rect class="cls-4" x="451.2305" y="31.0526" width="73.7695" height="11.6642" rx="5.8321" transform="translate(116.8842 355.9529) rotate(-45)"/><rect class="cls-4" x="451.2305" y="31.0526" width="73.7695" height="11.6642" rx="5.8321" transform="translate(169.0471 -334.3463) rotate(45)"/></g></g></svg>