<svg id="en1pDA2lCLi1" xmlns="http://www.w3.org/2000/svg" xmlns:xlink="http://www.w3.org/1999/xlink" viewBox="0 0 895.59 339.3" shape-rendering="geometricPrecision" text-rendering="geometricPrecision"><style><![CDATA[#en1pDA2lCLi3_to {animation: en1pDA2lCLi3_to__to 5000ms linear infinite normal forwards}@keyframes en1pDA2lCLi3_to__to { 0% {transform: translate(140.739266px,165px);animation-timing-function: cubic-bezier(0,0,0.58,1)} 6% {transform: translate(148.3px,-228.779093px);animation-timing-function: cubic-bezier(0.42,0,1,1)} 8% {transform: translate(148.3px,-219.35px);animation-timing-function: cubic-bezier(0.42,0,1,1)} 10% {transform: translate(148.3px,-227.957151px)} 12% {transform: translate(148.3px,-220.18px)} 96% {transform: translate(148.3px,-220.18px)} 100% {transform: translate(140.739266px,165px)}} #en1pDA2lCLi3_ts {animation: en1pDA2lCLi3_ts__ts 5000ms linear infinite normal forwards}@keyframes en1pDA2lCLi3_ts__ts { 0% {transform: scale(0.7,0.7)} 6% {transform: scale(1,1)} 96% {transform: scale(1,1)} 100% {transform: scale(0.7,0.7)}} #en1pDA2lCLi4_to {animation: en1pDA2lCLi4_to__to 5000ms linear infinite normal forwards}@keyframes en1pDA2lCLi4_to__to { 0% {transform: translate(1087.759348px,166.939251px)} 30% {transform: translate(770.047027px,169.65px);animation-timing-function: cubic-bezier(0.42,0,0.58,1)} 96% {transform: translate(770.047027px,169.65px);animation-timing-function: cubic-bezier(0.42,0,0.58,1)} 100% {transform: translate(1087.759348px,166.939251px)}} #en1pDA2lCLi4_tr {animation: en1pDA2lCLi4_tr__tr 5000ms linear infinite normal forwards}@keyframes en1pDA2lCLi4_tr__tr { 0% {transform: rotate(0deg)} 30% {transform: rotate(0deg);animation-timing-function: cubic-bezier(0.42,0,0.58,1)} 38% {transform: rotate(3deg);animation-timing-function: cubic-bezier(0.42,0,0.58,1)} 44% {transform: rotate(-1.958017deg);animation-timing-function: cubic-bezier(0.42,0,0.58,1)} 48% {transform: rotate(2.646426deg)} 58% {transform: rotate(2.646426deg)} 60% {transform: rotate(0deg)} 96% {transform: rotate(0deg)} 100% {transform: rotate(0deg)}} #en1pDA2lCLi4_ts {animation: en1pDA2lCLi4_ts__ts 5000ms linear infinite normal forwards}@keyframes en1pDA2lCLi4_ts__ts { 0% {transform: scale(30,100)} 12% {transform: scale(30,100);animation-timing-function: cubic-bezier(0.42,0,0.58,1)} 30% {transform: scale(1,1);animation-timing-function: cubic-bezier(0.42,0,0.58,1)} 32% {transform: scale(1.05,1.05);animation-timing-function: cubic-bezier(0.42,0,0.58,1)} 34% {transform: scale(0.95,0.95);animation-timing-function: cubic-bezier(0.42,0,0.58,1)} 36% {transform: scale(1,1)} 96% {transform: scale(1,1)} 100% {transform: scale(30,100)}} #en1pDA2lCLi6_ts {animation: en1pDA2lCLi6_ts__ts 5000ms linear infinite normal forwards}@keyframes en1pDA2lCLi6_ts__ts { 0% {transform: translate(449.806885px,169.671463px) scale(0,0)} 7.4% {transform: translate(449.806885px,169.671463px) scale(0,0)} 11.4% {transform: translate(449.806885px,169.671463px) scale(1,1)} 12.4% {transform: translate(449.806885px,169.671463px) scale(0.85,0.85)} 13.2% {transform: translate(449.806885px,169.671463px) scale(0.9,0.9)} 96% {transform: translate(449.806885px,169.671463px) scale(0.9,0.9)} 100% {transform: translate(449.806885px,169.671463px) scale(0,0)}} #en1pDA2lCLi8_ts {animation: en1pDA2lCLi8_ts__ts 5000ms linear infinite normal forwards}@keyframes en1pDA2lCLi8_ts__ts { 0% {transform: translate(148.3px,-220.18px) scale(0,0)} 44% {transform: translate(148.3px,-220.18px) scale(0,0);animation-timing-function: cubic-bezier(0.42,0,1,1)} 50% {transform: translate(148.3px,-220.18px) scale(1,1)} 96% {transform: translate(148.3px,-220.18px) scale(1,1)} 100% {transform: translate(148.3px,-220.18px) scale(0,0)}} #en1pDA2lCLi9_ts {animation: en1pDA2lCLi9_ts__ts 5000ms linear infinite normal forwards}@keyframes en1pDA2lCLi9_ts__ts { 0% {transform: translate(148.3px,-220.18px) scale(0,0)} 42% {transform: translate(148.3px,-220.18px) scale(0,0);animation-timing-function: cubic-bezier(0.42,0,1,1)} 48% {transform: translate(148.3px,-220.18px) scale(1,1)} 96% {transform: translate(148.3px,-220.18px) scale(1,1)} 100% {transform: translate(148.3px,-220.18px) scale(0,0)}} #en1pDA2lCLi10_ts {animation: en1pDA2lCLi10_ts__ts 5000ms linear infinite normal forwards}@keyframes en1pDA2lCLi10_ts__ts { 0% {transform: translate(148.3px,-220.18px) scale(0,0)} 40% {transform: translate(148.3px,-220.18px) scale(0,0);animation-timing-function: cubic-bezier(0.42,0,1,1)} 46% {transform: translate(148.3px,-220.18px) scale(1,1)} 96% {transform: translate(148.3px,-220.18px) scale(1,1)} 100% {transform: translate(148.3px,-220.18px) scale(0,0)}} #en1pDA2lCLi11_ts {animation: en1pDA2lCLi11_ts__ts 5000ms linear infinite normal forwards}@keyframes en1pDA2lCLi11_ts__ts { 0% {transform: translate(148.3px,-220.18px) scale(0,0)} 46% {transform: translate(148.3px,-220.18px) scale(0,0);animation-timing-function: cubic-bezier(0.42,0,1,1)} 52% {transform: translate(148.3px,-220.18px) scale(1,1)} 96% {transform: translate(148.3px,-220.18px) scale(1,1)} 100% {transform: translate(148.3px,-220.18px) scale(0,0)}}]]></style><g><g id="en1pDA2lCLi3_to" transform="translate(140.739266,165)"><g id="en1pDA2lCLi3_ts" transform="scale(0.7,0.7)"><path d="M73.7,249v160h28v60.8h-28v59.2h-94.4v-59.2h-127.6v-69.6L-29.9,249ZM-69.5,409h48.8v-61.6L-69.9,409Z" transform="translate(0,0)" fill="#eeece9"/></g></g><g id="en1pDA2lCLi4_to" transform="translate(1087.759348,166.939251)"><g id="en1pDA2lCLi4_tr" transform="rotate(0)"><g id="en1pDA2lCLi4_ts" transform="scale(30,100)"><path d="M719.29,249v160h28v60.8h-28v59.2h-94.39v-59.2h-127.6v-69.6L615.7,249ZM576.1,409h48.8v-61.6L575.7,409Z" transform="translate(-630.525611,-389)" fill="#eeece9"/></g></g></g></g><g><g id="en1pDA2lCLi6_ts" transform="translate(449.806885,169.671463) scale(0,0)"><g transform="translate(-449.806885,-169.671463)"><path d="M459.34,408.76c-.212789-8.688022-1.837335-17.283589-4.81-25.45-2.13-5.66-4.41-11.27-6.89-16.77-1.41-3.12-3.56-3.9-6.89-3.21-.78943.135702-1.56329.350104-2.31.64-3.58,1.54-7.2,3-10.7,4.74-3.48581,1.678425-7.283283,2.611616-11.15,2.74-9.54281.464429-19.017356-1.830432-27.29-6.61-15.142358-8.536347-28.029218-20.562712-37.59-35.08-4.7-7.07-7.86-8.3-16-6.25-5.14,1.29-10.23,2.72-15.57,3-7.55.37-14.87-.3-21.49-4.47-3-1.88-6.05-3.65-9.13-5.38-4.2-2.36-8.37-4.79-13.16-5.84-3.65-.8-6.51.46-8.79,3.29-2.43,3-3.71,6.61-4.9,10.22-.58,1.73-1.22,3.44-1.66,5.2-2,8-7,13.88-13.59,18.49-3.523959,2.440004-7.175837,4.689881-10.94,6.74-5.76,3.19-8.84,7.84-8.39,14.51.100303,2.888913.455008,5.763366,1.06,8.59c2.363526,9.138229,2.907171,18.652017,1.6,28-1.427751,9.306393-3.830988,18.436681-7.17,27.24-3.22,8.75-8.87,15.2-16.65,20.13-7.06,4.47-13.95,9.19-20.85,13.89-2.074334,1.424789-4.036718,3.006062-5.87,4.73-1.61,1.5-1.6,2.48-.54,4.43s2.13,3.85,3.21,5.76c7.701963,13.825843,17.017067,26.689079,27.75,38.32c11.628431,12.281973,25.145686,22.625846,40.04,30.64c5.45,3,11,5.73,17.25,6.7c9.89,1.53,19.82,1.93,34.3,1.8c8.893983-.079266,17.76164-.979757,26.49-2.69c15.05-3.16,28.87-9.41,42-17.2c15.058299-8.870206,29.43176-18.854747,43-29.87c11.06-9,21.05-19.07,29.1-30.92c9.722213-14.108855,15.419316-30.598651,16.48-47.7.393029-7.44774.409717-14.910576.05-22.36ZM305.5,449.5c-19.882251,0-36-16.117749-36-36s16.117749-36,36-36s36,16.117749,36,36-16.117749,36-36,36Z" transform="matrix(.999998 0.001852-.001852 0.999998 148.3-220.18)" fill="#eeece9"/><g id="en1pDA2lCLi8_ts" transform="translate(148.3,-220.18) scale(0,0)"><path d="M354.92,269.51c-.790749,2.444175-1.766918,4.824423-2.92,7.12-2.47,5.11-4.92,10.24-7.64,15.21-3.816656,7.132153-10.178647,12.565908-17.82,15.22-3.228663.970685-6.544396,1.623784-9.9,1.95-7.691999,1.313817-15.583437.834719-23.06-1.4-10.22-3.24-18.71-9.13-26-16.83-4.12-4.32-7.93-8.91-10.36-14.42-6.13-13.87-4.46-27,4.42-39.12c5.73-7.84,13.29-13.51,22.92-15.47c5.61-1.15,11.48-1.1,17.24-1.59v.4c10.31,0,20.56.64,30.56,3.4c5.35856,1.364709,10.394891,3.774128,14.82,7.09c4.202909,3.176456,7.05838,7.816597,8,13c1.64,8.47,2.31,17-.26,25.44Z" transform="translate(0,0)" fill="#eeece9"/></g><g id="en1pDA2lCLi9_ts" transform="translate(148.3,-220.18) scale(0,0)"><path d="M252,301.23l-.41.06c-.07,9.1-1.55,17.9-5.78,26.08-5.84,11.25-15,17.89-27.68,19.06-14.084899,1.401242-28.293458-.844027-41.26-6.52-2.339544-1.058038-4.561694-2.358482-6.63-3.88-6.58-4.76-8.42-11.61-8-19.27.42-8.34,3.67-15.81,7.81-22.88c6.653227-11.674298,15.422787-22.007185,25.86-30.47c5.693714-4.531173,11.709599-8.642027,18-12.3c8.21-4.75,15.26-3.29,21.3,4c7.314058,8.828287,12.345089,19.319618,14.65,30.55c1.06,5.13,1.44,10.39,2.14,15.57Z" transform="translate(0,0)" fill="#eeece9"/></g><g id="en1pDA2lCLi10_ts" transform="translate(148.3,-220.18) scale(0,0)"><path d="M208.27,440.74c-5.83,10.82-15.07,16.85-27.3,18.19-3.073338.317569-6.152981-.539872-8.62-2.4-2.761328-2.132417-5.101244-4.760583-6.9-7.75-11.35-17-17.67-35.8-20.87-55.79-1.305317-7.510127-1.514159-15.169905-.62-22.74.485304-3.709662,1.38768-7.352711,2.69-10.86c2.33-6.32,7.19-9.83,13.83-10.75c3.49-.48,7-.68,10.54-1c16.11-1.16,34.09,13.14,40,24.46c4.149309,7.772198,6.539055,16.361628,7,25.16.853174,15.117734-2.523093,30.174152-9.75,43.48Z" transform="translate(0,0)" fill="#eeece9"/></g><g id="en1pDA2lCLi11_ts" transform="translate(148.3,-220.18) scale(0,0)"><path d="M434.47,352.37c-8,4.67-16.78,6-26,5.43-8.861119-.510736-17.214225-4.304037-23.43-10.64-5.06-5-10.4-9.62-15.25-14.75-8.3-8.79-12.37-19.29-12.2-32.59.142437-10.239348,4.36036-19.999591,11.72-27.12c6.09-5.84,13.31-9.39,22.07-8.32c5.39.66,10.1,3.11,14.52,6.12c8.69,5.91,15.43,13.74,21.48,22.17c8.139828,11.202201,13.92307,23.938941,17,37.44c2.33,10.14-2.18,17.76-9.91,22.26Z" transform="translate(0,0)" fill="#eeece9"/></g></g></g></g></svg>