<svg id="Layer_1" data-name="Layer 1" xmlns="http://www.w3.org/2000/svg" viewBox="0 0 254.07 69.22">
  <defs>
    <style>
      .cls-1 {
        fill: #252020;
      }
    </style>
  </defs>
  <g id="barcode">
    <rect class="cls-1" x="30.44" y="394.28" width="69.22" height="9.47" transform="translate(-394.28 99.66) rotate(-90)"/>
    <rect class="cls-1" x="77.78" y="394.28" width="69.22" height="9.47" transform="translate(-346.94 147) rotate(-90)"/>
    <rect class="cls-1" x="65.95" y="396.65" width="69.22" height="4.73" transform="translate(-358.77 135.17) rotate(-90)"/>
    <rect class="cls-1" x="42.28" y="396.65" width="69.22" height="4.73" transform="translate(-382.44 111.49) rotate(-90)"/>
    <rect class="cls-1" x="84.88" y="398.22" width="69.22" height="1.58" transform="translate(-339.84 154.1) rotate(-90)"/>
    <rect class="cls-1" x="56.48" y="398.22" width="69.22" height="1.58" transform="translate(-368.24 125.7) rotate(-90)"/>
    <rect class="cls-1" x="50.17" y="398.22" width="69.22" height="1.58" transform="translate(-374.55 119.39) rotate(-90)"/>
    <rect class="cls-1" x="95.14" y="394.28" width="69.22" height="9.47" transform="translate(-329.58 164.36) rotate(-90)"/>
    <rect class="cls-1" x="136.79" y="388.59" width="69.22" height="20.85" transform="translate(-287.93 206.01) rotate(-90)"/>
    <rect class="cls-1" x="111.68" y="391.94" width="69.22" height="14.13" transform="translate(-313.04 180.9) rotate(-90)"/>
    <rect class="cls-1" x="149.58" y="398.22" width="69.22" height="1.58" transform="translate(-275.14 218.8) rotate(-90)"/>
    <rect class="cls-1" x="121.18" y="398.22" width="69.22" height="1.58" transform="translate(-303.54 190.4) rotate(-90)"/>
    <rect class="cls-1" x="159.84" y="394.28" width="69.22" height="9.47" transform="translate(-264.88 229.06) rotate(-90)"/>
    <rect class="cls-1" x="202.16" y="389.26" width="69.22" height="19.51" transform="translate(-222.56 271.38) rotate(-90)"/>
    <rect class="cls-1" x="195.35" y="396.65" width="69.22" height="4.73" transform="translate(-229.37 264.57) rotate(-90)"/>
    <rect class="cls-1" x="171.68" y="396.65" width="69.22" height="4.73" transform="translate(-253.04 240.9) rotate(-90)"/>
    <rect class="cls-1" x="214.28" y="398.22" width="69.22" height="1.58" transform="translate(-210.44 283.5) rotate(-90)"/>
    <rect class="cls-1" x="185.88" y="398.22" width="69.22" height="1.58" transform="translate(-238.84 255.1) rotate(-90)"/>
    <rect class="cls-1" x="179.57" y="398.22" width="69.22" height="1.58" transform="translate(-245.15 248.79) rotate(-90)"/>
    <rect class="cls-1" x="224.54" y="394.28" width="69.22" height="9.47" transform="translate(-200.18 293.76) rotate(-90)"/>
    <rect class="cls-1" x="271.88" y="394.28" width="69.22" height="9.47" transform="translate(-152.84 341.1) rotate(-90)"/>
    <rect class="cls-1" x="260.05" y="396.65" width="69.22" height="4.73" transform="translate(-164.67 329.27) rotate(-90)"/>
    <rect class="cls-1" x="236.38" y="396.65" width="69.22" height="4.73" transform="translate(-188.34 305.6) rotate(-90)"/>
    <rect class="cls-1" x="278.98" y="398.22" width="69.22" height="1.58" transform="translate(-145.73 348.2) rotate(-90)"/>
    <rect class="cls-1" x="250.58" y="398.22" width="69.22" height="1.58" transform="translate(-174.14 319.8) rotate(-90)"/>
    <rect class="cls-1" x="244.27" y="398.22" width="69.22" height="1.58" transform="translate(-180.45 313.49) rotate(-90)"/>
  </g>
</svg>
