<svg xmlns="http://www.w3.org/2000/svg" viewBox="0 0 1029.88 299.96"><defs><style>.cls-1{fill:#fff;}</style></defs><g id="Layer_2" data-name="Layer 2"><g id="Layer_3" data-name="Layer 3"><path class="cls-1" d="M1023.64,53.6l0,21.63h6.2l0,21.64-6.2,0,0,21.63,6.2,0,0,21.63-6.2,0-.05,21.62h6.21l0,21.63h-6.21l0,21.63h6.21l0,21.63h-6.2l0,21.63h6.2l0,21.63h-6.2l0,10.34h2.42c-19,.58-34.18,9.1-35,19.72L35.56,298.17c-.73-10.73-16.24-19.4-35.56-19.85L.48,21.44C20.32,21.05,36.16,12,36.18.86A4.15,4.15,0,0,0,36.12,0L991.24,1.78c.72,10.62,15.87,19.2,34.88,19.86h-2.42l0,10.34h6.2l0,21.63Z"/></g></g></svg>