<svg id="a130ba3a-d0ed-4a19-9cf8-9bc60d7acb30" data-name="Layer 1" xmlns="http://www.w3.org/2000/svg" viewBox="0 0 217.7 4">
  <defs>
    <style>
      .e2103c60-8d91-4c17-999c-f7c2ebfb3b18 {
        fill: #fff;
      }
    </style>
  </defs>
  <path class="e2103c60-8d91-4c17-999c-f7c2ebfb3b18" d="M217.7,3.26V301.43H0V3.26H.2A2.88,2.88,0,0,0,3.08.39a2.42,2.42,0,0,0,0-.39H7.71a1.61,1.61,0,0,0,0,.39,2.89,2.89,0,0,0,2.89,2.88A2.88,2.88,0,0,0,13.44.39a1.61,1.61,0,0,0,0-.39H18c0,.12,0,.25,0,.39a2.89,2.89,0,0,0,2.89,2.88A2.89,2.89,0,0,0,23.79.39a2.38,2.38,0,0,0,0-.39H28.4a1.61,1.61,0,0,0,0,.39,2.89,2.89,0,0,0,2.89,2.88A2.88,2.88,0,0,0,34.13.39c0-.14,0-.27,0-.39h4.65a2.38,2.38,0,0,0,0,.39A2.88,2.88,0,0,0,41.6,3.27,2.89,2.89,0,0,0,44.48.39a2.38,2.38,0,0,0,0-.39H49.1a1.63,1.63,0,0,0,0,.39,2.88,2.88,0,1,0,5.76,0,2.38,2.38,0,0,0,0-.39h4.64c0,.12,0,.25,0,.39a2.87,2.87,0,0,0,2.87,2.88A2.89,2.89,0,0,0,65.18.39a2.38,2.38,0,0,0,0-.39h4.64a1.63,1.63,0,0,0,0,.39,2.89,2.89,0,0,0,2.89,2.88A2.88,2.88,0,0,0,75.53.39a2.38,2.38,0,0,0,0-.39h4.64a2.38,2.38,0,0,0,0,.39A2.89,2.89,0,0,0,83,3.27,2.89,2.89,0,0,0,85.87.39a2.42,2.42,0,0,0,0-.39h4.64a1.63,1.63,0,0,0,0,.39,2.88,2.88,0,1,0,5.76,0,2.38,2.38,0,0,0,0-.39h4.64a2.42,2.42,0,0,0,0,.39,2.88,2.88,0,0,0,2.88,2.88A2.89,2.89,0,0,0,106.57.39a1.63,1.63,0,0,0,0-.39h4.65a1.61,1.61,0,0,0,0,.39A2.9,2.9,0,0,0,114,3.27,2.88,2.88,0,0,0,116.92.39a1.63,1.63,0,0,0,0-.39h4.64c0,.12,0,.25,0,.39a2.88,2.88,0,0,0,2.87,2.88A2.89,2.89,0,0,0,127.27.39a2.38,2.38,0,0,0,0-.39h4.64a1.63,1.63,0,0,0,0,.39,2.89,2.89,0,0,0,5.77,0,2.38,2.38,0,0,0,0-.39h4.64a2.38,2.38,0,0,0,0,.39,2.88,2.88,0,1,0,5.76,0,2.42,2.42,0,0,0,0-.39h4.65a1.61,1.61,0,0,0,0,.39,2.88,2.88,0,0,0,2.88,2.88A2.87,2.87,0,0,0,158.31.39a1.63,1.63,0,0,0,0-.39h4.64c0,.12,0,.25,0,.39a2.89,2.89,0,0,0,2.89,2.88A2.89,2.89,0,0,0,168.66.39a1.63,1.63,0,0,0,0-.39h4.65a1.61,1.61,0,0,0,0,.39,2.89,2.89,0,0,0,2.89,2.88A2.88,2.88,0,0,0,179,.39,2.38,2.38,0,0,0,179,0h4.65a2.38,2.38,0,0,0,0,.39,2.88,2.88,0,0,0,2.88,2.88A2.89,2.89,0,0,0,189.36.39a2.38,2.38,0,0,0,0-.39H194a1.61,1.61,0,0,0,0,.39,2.89,2.89,0,0,0,5.77,0,2.38,2.38,0,0,0,0-.39h4.64a2.42,2.42,0,0,0,0,.39,2.88,2.88,0,0,0,2.88,2.88A2.89,2.89,0,0,0,210.06.39,1.61,1.61,0,0,0,210,0h4.65a1.63,1.63,0,0,0,0,.39,2.89,2.89,0,0,0,2.89,2.88Z"/>
</svg>
