<svg id="Layer_1" data-name="Layer 1" xmlns="http://www.w3.org/2000/svg" viewBox="0 0 663 140.29">
  <defs>
    <style>
      .cls-1 {
        fill: #eeece9;
      }

      .cls-2 {
        fill: none;
        stroke: #eeece9;
        stroke-linecap: round;
        stroke-linejoin: round;
        stroke-width: 4px;
      }
    </style>
  </defs>
  <g>
    <path class="cls-1" d="M107.22,457.63a17.39,17.39,0,0,1-8.34-4.18,27,27,0,0,1-4.95-6.07,64.56,64.56,0,0,1-4.43-8.59,25.4,25.4,0,0,1-2.13-8.11,27,27,0,0,1,.14-4.91,38.32,38.32,0,0,1,1.16-6.24,9.61,9.61,0,0,1,1.65-3,29.18,29.18,0,0,1,6.57-6.6,36.76,36.76,0,0,1,7.68-4.15l1.13-.45c.39-.15.57-.13.8.2a9.73,9.73,0,0,1,.73,1.19c.69,1.38,1.39,2.76,2,4.16a7.28,7.28,0,0,0,3.29,3.53,24.56,24.56,0,0,0,4.81,2,13.27,13.27,0,0,0,5.17.39,9.5,9.5,0,0,1,1.6,0,2.68,2.68,0,0,1,2.45,1.89,21.93,21.93,0,0,0,1,2.16,5.82,5.82,0,0,0,3.06,2.94c.31.12.6.28.91.43a5.81,5.81,0,0,1,1.75,1.14,1.55,1.55,0,0,1,.39,1.69,8.82,8.82,0,0,1-1.39,2.27c-.39.52-.79,1-1.2,1.54a6.5,6.5,0,0,0-1.34,3.83,15,15,0,0,0,.17,2.92c.17,1.55-.13,2.09-1.54,2.78a20.15,20.15,0,0,0-7.33,6,9.2,9.2,0,0,0-1.87,4.83,5,5,0,0,0,.24,2.11c.22.68.41,1.38.6,2.07a2.13,2.13,0,0,1,.07.44,1,1,0,0,1-.76,1.18c-1.07.32-2.15.61-3.24.86a14.43,14.43,0,0,1-4.77.26C109.93,458,108.56,457.89,107.22,457.63Z" transform="translate(68 -321.43)"/>
    <path class="cls-1" d="M139.32,442.43a10.17,10.17,0,0,1-1.24-.71c-.87-.57-1.75-1.15-2.6-1.77a5.93,5.93,0,0,1-2.35-3.62,9.64,9.64,0,0,1-.12-1.86,9.32,9.32,0,0,1,.82-4.19,11.34,11.34,0,0,1,3.71-4.36,9.36,9.36,0,0,1,2.89-1.54,6.82,6.82,0,0,1,7,1.75,6.92,6.92,0,0,1,2.28,4.57,28.36,28.36,0,0,1-.13,3.19h-.07a21.28,21.28,0,0,1-1.36,5.51,7.71,7.71,0,0,1-1.66,2.54,3.82,3.82,0,0,1-2.57,1.15A9.6,9.6,0,0,1,139.32,442.43Z" transform="translate(68 -321.43)"/>
    <path class="cls-1" d="M136,422.82v-.07a10.5,10.5,0,0,1-4.63-1.69,6.15,6.15,0,0,1-2.83-5.53,15.24,15.24,0,0,1,2.2-7.4,6.61,6.61,0,0,1,.87-1.12,3.8,3.8,0,0,1,3.72-1,9.3,9.3,0,0,1,4,2,20,20,0,0,1,4.95,5.47,28.24,28.24,0,0,1,1.82,3.6,2.78,2.78,0,0,1-1.26,3.8,12.82,12.82,0,0,1-5.94,1.94C137.94,422.88,137,422.82,136,422.82Z" transform="translate(68 -321.43)"/>
    <path class="cls-1" d="M111.52,411.44a6.18,6.18,0,0,1-2.67-5.44,2.33,2.33,0,0,1,.65-1.52,5.13,5.13,0,0,1,1.58-1.07,25.35,25.35,0,0,1,10.72-2.47,14.72,14.72,0,0,1,4.18.43,9.59,9.59,0,0,1,1.92.76,3,3,0,0,1,1.64,2.79c0,.65,0,1.3-.08,1.95-.17,3-3.23,5.93-5.44,6.74a11.14,11.14,0,0,1-4.78.67A15,15,0,0,1,111.52,411.44Z" transform="translate(68 -321.43)"/>
    <path class="cls-1" d="M122.22,455a8.25,8.25,0,0,1-.36-4.89,6.58,6.58,0,0,1,2.51-4c1-.81,2-1.67,3.07-2.44a8.11,8.11,0,0,1,6.26-1.44,7.08,7.08,0,0,1,4.68,2.8,4.87,4.87,0,0,1,1,4.24,6.09,6.09,0,0,1-1.47,2.51,16,16,0,0,1-4.58,3.39,18.88,18.88,0,0,1-7.26,2.22A3.61,3.61,0,0,1,122.22,455Z" transform="translate(68 -321.43)"/>
  </g>
  <g>
    <path class="cls-1" d="M251.8,449.17a17.47,17.47,0,0,1-7.11-6,27.38,27.38,0,0,1-3.38-7.07,65,65,0,0,1-2.26-9.4,25.35,25.35,0,0,1-.15-8.38,27.32,27.32,0,0,1,1.3-4.74,37.77,37.77,0,0,1,2.61-5.78,9.58,9.58,0,0,1,2.31-2.52,29.18,29.18,0,0,1,7.94-4.86,36.78,36.78,0,0,1,8.45-2.21l1.21-.17c.4-.05.57,0,.72.39a9,9,0,0,1,.43,1.33c.34,1.5.69,3,1,4.52a7.3,7.3,0,0,0,2.35,4.21,25.23,25.23,0,0,0,4.21,3.05,13.24,13.24,0,0,0,4.93,1.6,9.26,9.26,0,0,1,1.55.39,2.69,2.69,0,0,1,1.94,2.42,20.73,20.73,0,0,0,.43,2.33,5.88,5.88,0,0,0,2.27,3.58,9.34,9.34,0,0,1,.78.63,5.82,5.82,0,0,1,1.44,1.53,1.52,1.52,0,0,1,0,1.73,8.77,8.77,0,0,1-1.88,1.87c-.5.42-1,.83-1.54,1.22a6.52,6.52,0,0,0-2.2,3.4,14,14,0,0,0-.53,2.87c-.2,1.55-.62,2-2.15,2.35a20.09,20.09,0,0,0-8.55,4.12,9.19,9.19,0,0,0-3,4.26,5.14,5.14,0,0,0-.28,2.1c.06.72.08,1.44.1,2.16a2.25,2.25,0,0,1,0,.44c-.11.62-.38.93-1,1-1.11.06-2.23.07-3.34.06a14.43,14.43,0,0,1-4.7-.87A39.67,39.67,0,0,1,251.8,449.17Z" transform="translate(68 -321.43)"/>
    <path class="cls-1" d="M286.58,442a9.5,9.5,0,0,1-1-1c-.71-.77-1.43-1.53-2.1-2.33a6,6,0,0,1-1.43-4.09,9.78,9.78,0,0,1,.33-1.83,9.32,9.32,0,0,1,1.78-3.87,11.26,11.26,0,0,1,4.64-3.36,9.46,9.46,0,0,1,3.17-.82,6.86,6.86,0,0,1,6.44,3.38,7,7,0,0,1,1.13,5,28.15,28.15,0,0,1-.88,3.07l-.07,0a21,21,0,0,1-2.63,5,7.81,7.81,0,0,1-2.21,2.08,3.86,3.86,0,0,1-2.77.51A9.66,9.66,0,0,1,286.58,442Z" transform="translate(68 -321.43)"/>
    <path class="cls-1" d="M288,422.17v-.07a10.44,10.44,0,0,1-4.1-2.74,6.16,6.16,0,0,1-1.43-6,15.28,15.28,0,0,1,3.88-6.66,6.29,6.29,0,0,1,1.12-.88,3.79,3.79,0,0,1,3.85-.1,9.21,9.21,0,0,1,3.41,2.87,20.09,20.09,0,0,1,3.52,6.49,26.35,26.35,0,0,1,.91,3.93,2.77,2.77,0,0,1-2.11,3.39,12.84,12.84,0,0,1-6.24.48C289.88,422.69,289,422.4,288,422.17Z" transform="translate(68 -321.43)"/>
    <path class="cls-1" d="M266.92,405.32a6.19,6.19,0,0,1-1.3-5.92,2.27,2.27,0,0,1,1-1.32,5.3,5.3,0,0,1,1.8-.67,25.36,25.36,0,0,1,11,.14,14.9,14.9,0,0,1,4,1.41,9.53,9.53,0,0,1,1.69,1.19,3,3,0,0,1,.93,3.1c-.15.64-.35,1.26-.53,1.88-.88,2.85-4.54,5-6.89,5.26a11.15,11.15,0,0,1-4.8-.49A15,15,0,0,1,266.92,405.32Z" transform="translate(68 -321.43)"/>
    <path class="cls-1" d="M267,450.16a8.28,8.28,0,0,1,.81-4.84A6.61,6.61,0,0,1,271.2,442c1.19-.54,2.36-1.14,3.56-1.64a8.21,8.21,0,0,1,6.43.08,7.14,7.14,0,0,1,3.88,3.83,4.88,4.88,0,0,1,0,4.36,6.15,6.15,0,0,1-2,2.09,15.91,15.91,0,0,1-5.25,2.21,18.81,18.81,0,0,1-7.58.43A3.59,3.59,0,0,1,267,450.16Z" transform="translate(68 -321.43)"/>
  </g>
  <g>
    <path class="cls-1" d="M411.39,457.33a17.29,17.29,0,0,1-7.1-6,26.76,26.76,0,0,1-3.38-7.07,64.36,64.36,0,0,1-2.27-9.4,25.62,25.62,0,0,1-.15-8.38,27.2,27.2,0,0,1,1.31-4.74,37.77,37.77,0,0,1,2.61-5.78,9.53,9.53,0,0,1,2.3-2.52,29.1,29.1,0,0,1,8-4.85,37.32,37.32,0,0,1,8.45-2.22l1.2-.16c.41-.06.58,0,.73.38a8.92,8.92,0,0,1,.42,1.33c.35,1.5.7,3,1,4.52a7.27,7.27,0,0,0,2.35,4.21,24.73,24.73,0,0,0,4.21,3.06,13.41,13.41,0,0,0,4.93,1.59,9.54,9.54,0,0,1,1.55.4,2.69,2.69,0,0,1,1.94,2.41,20.3,20.3,0,0,0,.42,2.33,5.91,5.91,0,0,0,2.28,3.58c.27.19.52.42.78.63a5.78,5.78,0,0,1,1.43,1.53,1.52,1.52,0,0,1,0,1.73,9.06,9.06,0,0,1-1.88,1.88c-.51.41-1,.82-1.54,1.21a6.54,6.54,0,0,0-2.21,3.4,15.7,15.7,0,0,0-.53,2.88c-.19,1.54-.61,2-2.14,2.34a20.21,20.21,0,0,0-8.55,4.12,9.14,9.14,0,0,0-3,4.26,5.16,5.16,0,0,0-.27,2.1c.06.72.07,1.44.1,2.16a1.65,1.65,0,0,1,0,.44c-.1.62-.38.94-1,1-1.11.06-2.23.08-3.35.07a14.81,14.81,0,0,1-4.7-.88C413.94,458.38,412.64,457.91,411.39,457.33Z" transform="translate(68 -321.43)"/>
    <path class="cls-1" d="M446.18,450.17a8.66,8.66,0,0,1-1-1c-.71-.76-1.43-1.53-2.11-2.33a5.91,5.91,0,0,1-1.42-4.08,9,9,0,0,1,.32-1.84,9.33,9.33,0,0,1,1.79-3.87,11.38,11.38,0,0,1,4.63-3.36,9.5,9.5,0,0,1,3.18-.81,7.4,7.4,0,0,1,7.56,8.35,26.18,26.18,0,0,1-.87,3.08l-.08,0a20.51,20.51,0,0,1-2.63,5,7.66,7.66,0,0,1-2.21,2.07,3.86,3.86,0,0,1-2.77.51A9.62,9.62,0,0,1,446.18,450.17Z" transform="translate(68 -321.43)"/>
    <path class="cls-1" d="M447.61,430.34v-.08a10.37,10.37,0,0,1-4.1-2.74,6.09,6.09,0,0,1-1.43-6,15.26,15.26,0,0,1,3.88-6.67,7.28,7.28,0,0,1,1.11-.88,3.83,3.83,0,0,1,3.86-.1,9.3,9.3,0,0,1,3.41,2.88,19.88,19.88,0,0,1,3.52,6.49,29.31,29.31,0,0,1,.91,3.92,2.79,2.79,0,0,1-2.12,3.4,13.07,13.07,0,0,1-6.24.48C449.47,430.85,448.54,430.56,447.61,430.34Z" transform="translate(68 -321.43)"/>
    <path class="cls-1" d="M426.52,413.48a6.18,6.18,0,0,1-1.31-5.91,2.32,2.32,0,0,1,1-1.33,5.22,5.22,0,0,1,1.8-.67,25.67,25.67,0,0,1,11,.14,14.7,14.7,0,0,1,3.95,1.42,8.6,8.6,0,0,1,1.69,1.19,3,3,0,0,1,.93,3.1c-.16.63-.36,1.25-.54,1.88-.87,2.85-4.54,5-6.88,5.25a11.3,11.3,0,0,1-4.8-.48A15.08,15.08,0,0,1,426.52,413.48Z" transform="translate(68 -321.43)"/>
    <path class="cls-1" d="M426.6,458.32a8.25,8.25,0,0,1,.8-4.83,6.61,6.61,0,0,1,3.4-3.33c1.19-.53,2.35-1.14,3.56-1.63a8.17,8.17,0,0,1,6.43.08,7.1,7.1,0,0,1,3.88,3.83,4.86,4.86,0,0,1,0,4.35,6.15,6.15,0,0,1-2,2.09,16.24,16.24,0,0,1-5.25,2.22,19,19,0,0,1-7.59.43A3.6,3.6,0,0,1,426.6,458.32Z" transform="translate(68 -321.43)"/>
  </g>
  <g>
    <path class="cls-1" d="M180.22,322.6a17.37,17.37,0,0,0-8.34,4.17,27,27,0,0,0-4.95,6.07,65.17,65.17,0,0,0-4.43,8.59,25.4,25.4,0,0,0-2.13,8.11,27.1,27.1,0,0,0,.14,4.92,38.17,38.17,0,0,0,1.16,6.23,9.77,9.77,0,0,0,1.65,3,29.14,29.14,0,0,0,6.57,6.59,36.8,36.8,0,0,0,7.68,4.16l1.13.45c.39.14.57.12.8-.21a9.73,9.73,0,0,0,.73-1.19c.69-1.38,1.39-2.75,2-4.15a7.26,7.26,0,0,1,3.29-3.54,24.56,24.56,0,0,1,4.81-2,13.27,13.27,0,0,1,5.17-.38,9.5,9.5,0,0,0,1.6,0,2.67,2.67,0,0,0,2.45-1.88,21.09,21.09,0,0,1,1-2.17,5.9,5.9,0,0,1,3.06-2.94c.31-.12.6-.28.91-.43a5.63,5.63,0,0,0,1.75-1.14,1.55,1.55,0,0,0,.39-1.69,9,9,0,0,0-1.39-2.27c-.39-.52-.79-1-1.2-1.54a6.47,6.47,0,0,1-1.34-3.82,15,15,0,0,1,.17-2.92c.17-1.55-.13-2.1-1.54-2.79a20.23,20.23,0,0,1-7.33-6,9.24,9.24,0,0,1-1.87-4.84,5,5,0,0,1,.24-2.1c.22-.69.41-1.39.6-2.08a2.13,2.13,0,0,0,.07-.44,1,1,0,0,0-.76-1.18c-1.07-.32-2.15-.6-3.24-.86a15,15,0,0,0-4.77-.26A39.6,39.6,0,0,0,180.22,322.6Z" transform="translate(68 -321.43)"/>
    <path class="cls-1" d="M212.32,337.8a8.94,8.94,0,0,0-1.24.7c-.87.58-1.75,1.15-2.6,1.77a6,6,0,0,0-2.35,3.63,9.59,9.59,0,0,0-.12,1.86,9.25,9.25,0,0,0,.82,4.18,11.19,11.19,0,0,0,3.71,4.36,9.39,9.39,0,0,0,2.89,1.55,6.84,6.84,0,0,0,7-1.76,6.92,6.92,0,0,0,2.28-4.57,28.46,28.46,0,0,0-.13-3.19h-.07a21.48,21.48,0,0,0-1.36-5.51,7.92,7.92,0,0,0-1.66-2.54,3.87,3.87,0,0,0-2.57-1.15A9.6,9.6,0,0,0,212.32,337.8Z" transform="translate(68 -321.43)"/>
    <path class="cls-1" d="M209,357.4v.08a10.27,10.27,0,0,0-4.63,1.69,6.13,6.13,0,0,0-2.83,5.53,15.23,15.23,0,0,0,2.2,7.39,6.23,6.23,0,0,0,.87,1.12,3.83,3.83,0,0,0,3.72,1,9.32,9.32,0,0,0,4-2,19.89,19.89,0,0,0,4.95-5.47,28.79,28.79,0,0,0,1.82-3.59,2.79,2.79,0,0,0-1.26-3.81,12.93,12.93,0,0,0-5.94-1.94C210.94,357.35,210,357.4,209,357.4Z" transform="translate(68 -321.43)"/>
    <path class="cls-1" d="M184.52,368.78a6.19,6.19,0,0,0-2.67,5.44,2.29,2.29,0,0,0,.65,1.52,5.35,5.35,0,0,0,1.58,1.08,25.65,25.65,0,0,0,10.72,2.47,15.09,15.09,0,0,0,4.18-.44,9.59,9.59,0,0,0,1.92-.76,3,3,0,0,0,1.64-2.79c0-.65,0-1.3-.08-1.95-.17-3-3.23-5.92-5.44-6.73a11.14,11.14,0,0,0-4.78-.67A15.06,15.06,0,0,0,184.52,368.78Z" transform="translate(68 -321.43)"/>
    <path class="cls-1" d="M195.22,325.24a8.24,8.24,0,0,0-.36,4.89,6.58,6.58,0,0,0,2.51,4c1,.8,2,1.67,3.07,2.43A8.16,8.16,0,0,0,206.7,338a7.12,7.12,0,0,0,4.68-2.8,4.9,4.9,0,0,0,1-4.25,6.09,6.09,0,0,0-1.47-2.51,16.23,16.23,0,0,0-4.58-3.39,18.7,18.7,0,0,0-7.26-2.21A3.59,3.59,0,0,0,195.22,325.24Z" transform="translate(68 -321.43)"/>
  </g>
  <g>
    <path class="cls-1" d="M338.27,323.54a17.43,17.43,0,0,0-7.74,5.18,27,27,0,0,0-4.15,6.65,65.33,65.33,0,0,0-3.32,9.08,25.45,25.45,0,0,0-1.09,8.31,26.3,26.3,0,0,0,.76,4.86,39,39,0,0,0,1.93,6,9.65,9.65,0,0,0,2,2.76,29.16,29.16,0,0,0,7.35,5.72,37.12,37.12,0,0,0,8.14,3.16l1.18.3c.4.1.58,0,.77-.3a10.28,10.28,0,0,0,.57-1.27c.51-1.46,1-2.91,1.5-4.38a7.26,7.26,0,0,1,2.81-3.92,24.65,24.65,0,0,1,4.53-2.56,13.18,13.18,0,0,1,5.08-1,8.47,8.47,0,0,0,1.58-.22,2.68,2.68,0,0,0,2.2-2.18,20.43,20.43,0,0,1,.69-2.27,5.83,5.83,0,0,1,2.66-3.29c.29-.16.57-.36.85-.54a5.77,5.77,0,0,0,1.59-1.36,1.53,1.53,0,0,0,.18-1.72,8.79,8.79,0,0,0-1.66-2.08c-.46-.47-.92-.93-1.39-1.38a6.52,6.52,0,0,1-1.81-3.62,15,15,0,0,1-.2-2.92c0-1.56-.39-2.07-1.87-2.57a20.13,20.13,0,0,1-8-5.07,9.15,9.15,0,0,1-2.46-4.56,5.22,5.22,0,0,1,0-2.12c.14-.7.24-1.42.35-2.13a2.26,2.26,0,0,0,0-.45,1,1,0,0,0-.9-1.07c-1.09-.19-2.2-.33-3.31-.45a15,15,0,0,0-4.77.34A39.05,39.05,0,0,0,338.27,323.54Z" transform="translate(68 -321.43)"/>
    <path class="cls-1" d="M372,334.58a9.46,9.46,0,0,0-1.14.86c-.79.68-1.59,1.36-2.35,2.08a5.93,5.93,0,0,0-1.88,3.89,8.9,8.9,0,0,0,.11,1.86,9.3,9.3,0,0,0,1.34,4.05,11.21,11.21,0,0,0,4.23,3.86,9.33,9.33,0,0,0,3.06,1.17,6.86,6.86,0,0,0,6.78-2.62,6.94,6.94,0,0,0,1.68-4.82,26.38,26.38,0,0,0-.53-3.16l-.07,0a20.78,20.78,0,0,0-2-5.3,7.82,7.82,0,0,0-2-2.32,3.88,3.88,0,0,0-2.7-.81A9.59,9.59,0,0,0,372,334.58Z" transform="translate(68 -321.43)"/>
    <path class="cls-1" d="M371.2,354.45v.08a10.42,10.42,0,0,0-4.38,2.25,6.12,6.12,0,0,0-2.11,5.84,15.35,15.35,0,0,0,3.1,7.06,7.42,7.42,0,0,0,1,1,3.82,3.82,0,0,0,3.82.52,9.23,9.23,0,0,0,3.72-2.46,19.91,19.91,0,0,0,4.22-6.06,26.69,26.69,0,0,0,1.35-3.79,2.79,2.79,0,0,0-1.72-3.62,13,13,0,0,0-6.14-1.18C373.12,354.15,372.16,354.33,371.2,354.45Z" transform="translate(68 -321.43)"/>
    <path class="cls-1" d="M348.35,368.82a6.17,6.17,0,0,0-2,5.73,2.27,2.27,0,0,0,.83,1.42,5.32,5.32,0,0,0,1.71.87,25.39,25.39,0,0,0,10.95,1.1A14.27,14.27,0,0,0,364,377a9.42,9.42,0,0,0,1.82-1,3,3,0,0,0,1.27-3c-.08-.65-.21-1.29-.32-1.93-.55-2.93-4-5.47-6.25-6a11.2,11.2,0,0,0-4.82-.07A15.07,15.07,0,0,0,348.35,368.82Z" transform="translate(68 -321.43)"/>
    <path class="cls-1" d="M353.49,324.27a8.37,8.37,0,0,0,.25,4.9,6.61,6.61,0,0,0,3,3.68c1.12.67,2.2,1.41,3.35,2a8.17,8.17,0,0,0,6.39.65,7.13,7.13,0,0,0,4.29-3.37,4.87,4.87,0,0,0,.45-4.33,6.1,6.1,0,0,0-1.78-2.31,16.1,16.1,0,0,0-5-2.79,18.78,18.78,0,0,0-7.49-1.28A3.59,3.59,0,0,0,353.49,324.27Z" transform="translate(68 -321.43)"/>
  </g>
  <line class="cls-2" x1="2" y1="79.07" x2="97" y2="79.07"/>
  <line class="cls-2" x1="54" y1="60.07" x2="116" y2="60.07"/>
  <line class="cls-2" x1="97" y1="96.07" x2="127" y2="96.07"/>
  <line class="cls-2" x1="550" y1="26.07" x2="601" y2="26.07"/>
  <line class="cls-2" x1="592" y1="44.07" x2="661" y2="44.07"/>
  <line class="cls-2" x1="583" y1="68.07" x2="601" y2="68.07"/>
</svg>
