<svg id="exXRqKQyLbs1" xmlns="http://www.w3.org/2000/svg" xmlns:xlink="http://www.w3.org/1999/xlink" viewBox="0 0 663 140.29" shape-rendering="geometricPrecision" text-rendering="geometricPrecision"><style><![CDATA[#exXRqKQyLbs2_to {animation: exXRqKQyLbs2_to__to 4000ms linear infinite normal forwards}@keyframes exXRqKQyLbs2_to__to { 0% {transform: translate(135.006744px,108.054809px)} 12.5% {transform: translate(135.006744px,108.054809px);animation-timing-function: cubic-bezier(0.42,0,1,1)} 20% {transform: translate(186.515305px,108.149002px)} 97.5% {transform: translate(186.515305px,108.149002px)} 100% {transform: translate(135.006744px,108.054809px)}} #exXRqKQyLbs2 {animation: exXRqKQyLbs2_c_o 4000ms linear infinite normal forwards}@keyframes exXRqKQyLbs2_c_o { 0% {opacity: 0} 12.5% {opacity: 0;animation-timing-function: cubic-bezier(0.42,0,1,1)} 20% {opacity: 1} 97.5% {opacity: 1} 100% {opacity: 0}} #exXRqKQyLbs8_to {animation: exXRqKQyLbs8_to__to 4000ms linear infinite normal forwards}@keyframes exXRqKQyLbs8_to__to { 0% {transform: translate(196.530229px,29.213082px)} 20% {transform: translate(196.530229px,29.213082px);animation-timing-function: cubic-bezier(0.42,0,1,1)} 27.5% {transform: translate(259.515244px,29.212906px)} 97.5% {transform: translate(259.515244px,29.212906px)} 100% {transform: translate(196.530229px,29.213082px)}} #exXRqKQyLbs8 {animation: exXRqKQyLbs8_c_o 4000ms linear infinite normal forwards}@keyframes exXRqKQyLbs8_c_o { 0% {opacity: 0} 20% {opacity: 0;animation-timing-function: cubic-bezier(0.42,0,1,1)} 27.5% {opacity: 1} 97.5% {opacity: 1} 100% {opacity: 0}} #exXRqKQyLbs14_to {animation: exXRqKQyLbs14_to__to 4000ms linear infinite normal forwards}@keyframes exXRqKQyLbs14_to__to { 0% {transform: translate(278.474511px,103.787946px)} 25% {transform: translate(278.474511px,103.787946px);animation-timing-function: cubic-bezier(0.42,0,1,1)} 32.5% {transform: translate(337.121811px,103.787933px)} 97.5% {transform: translate(337.121811px,103.787933px)} 100% {transform: translate(278.474511px,103.787946px)}} #exXRqKQyLbs14 {animation: exXRqKQyLbs14_c_o 4000ms linear infinite normal forwards}@keyframes exXRqKQyLbs14_c_o { 0% {opacity: 0} 25% {opacity: 0;animation-timing-function: cubic-bezier(0.42,0,1,1)} 32.5% {opacity: 1} 97.5% {opacity: 1} 100% {opacity: 0}} #exXRqKQyLbs20_to {animation: exXRqKQyLbs20_to__to 4000ms linear infinite normal forwards}@keyframes exXRqKQyLbs20_to__to { 0% {transform: translate(358.83403px,28.354339px)} 30% {transform: translate(358.83403px,28.354339px);animation-timing-function: cubic-bezier(0.42,0,1,1)} 37.5% {transform: translate(420.895126px,28.333221px)} 97.5% {transform: translate(420.895126px,28.333221px)} 100% {transform: translate(358.83403px,28.354339px)}} #exXRqKQyLbs20 {animation: exXRqKQyLbs20_c_o 4000ms linear infinite normal forwards}@keyframes exXRqKQyLbs20_c_o { 0% {opacity: 0} 30% {opacity: 0;animation-timing-function: cubic-bezier(0.42,0,1,1)} 37.5% {opacity: 1} 97.5% {opacity: 1} 100% {opacity: 0}} #exXRqKQyLbs26_to {animation: exXRqKQyLbs26_to__to 4000ms linear infinite normal forwards}@keyframes exXRqKQyLbs26_to__to { 0% {transform: translate(439.531723px,111.946402px)} 37.5% {transform: translate(439.531723px,111.946402px);animation-timing-function: cubic-bezier(0.42,0,1,1)} 45% {transform: translate(496.703781px,111.955322px)} 97.5% {transform: translate(496.703781px,111.955322px)} 100% {transform: translate(439.531723px,111.946402px)}} #exXRqKQyLbs26 {animation: exXRqKQyLbs26_c_o 4000ms linear infinite normal forwards}@keyframes exXRqKQyLbs26_c_o { 0% {opacity: 0} 37.5% {opacity: 0;animation-timing-function: cubic-bezier(0.42,0,1,1)} 45% {opacity: 1} 97.5% {opacity: 1} 100% {opacity: 0}} #exXRqKQyLbs33_ts {animation: exXRqKQyLbs33_ts__ts 4000ms linear infinite normal forwards}@keyframes exXRqKQyLbs33_ts__ts { 0% {transform: translate(97px,79.07px) scale(-0.000082,1);animation-timing-function: cubic-bezier(0.42,0,1,1)} 12.5% {transform: translate(97px,79.07px) scale(1,1)} 97.5% {transform: translate(97px,79.07px) scale(1,1)} 100% {transform: translate(97px,79.07px) scale(-0.000082,1)}} #exXRqKQyLbs34_ts {animation: exXRqKQyLbs34_ts__ts 4000ms linear infinite normal forwards}@keyframes exXRqKQyLbs34_ts__ts { 0% {transform: translate(116px,60.07px) scale(-0.000286,1)} 2.5% {transform: translate(116px,60.07px) scale(-0.000286,1);animation-timing-function: cubic-bezier(0.42,0,1,1)} 15% {transform: translate(116px,60.07px) scale(1,1)} 97.5% {transform: translate(116px,60.07px) scale(1,1)} 100% {transform: translate(116px,60.07px) scale(-0.000286,1)}} #exXRqKQyLbs35_ts {animation: exXRqKQyLbs35_ts__ts 4000ms linear infinite normal forwards}@keyframes exXRqKQyLbs35_ts__ts { 0% {transform: translate(127px,96.07px) scale(0.000859,1)} 7.5% {transform: translate(127px,96.07px) scale(0.000859,1);animation-timing-function: cubic-bezier(0.42,0,1,1)} 15% {transform: translate(127px,96.07px) scale(1,1)} 97.5% {transform: translate(127px,96.07px) scale(1,1)} 100% {transform: translate(127px,96.07px) scale(0.000859,1)}} #exXRqKQyLbs37_ts {animation: exXRqKQyLbs37_ts__ts 4000ms linear infinite normal forwards}@keyframes exXRqKQyLbs37_ts__ts { 0% {transform: translate(583px,68.07px) scale(0,1)} 50% {transform: translate(583px,68.07px) scale(0,1)} 52.5% {transform: translate(583px,68.07px) scale(1,1)} 97.5% {transform: translate(583px,68.07px) scale(1,1)} 100% {transform: translate(583px,68.07px) scale(0,1)}} #exXRqKQyLbs38_ts {animation: exXRqKQyLbs38_ts__ts 4000ms linear infinite normal forwards}@keyframes exXRqKQyLbs38_ts__ts { 0% {transform: translate(592px,44.485222px) scale(0,1)} 47.5% {transform: translate(592px,44.485222px) scale(0,1)} 50% {transform: translate(592px,44.485222px) scale(1,1)} 97.5% {transform: translate(592px,44.485222px) scale(1,1)} 100% {transform: translate(592px,44.485222px) scale(0,1)}} #exXRqKQyLbs39_ts {animation: exXRqKQyLbs39_ts__ts 4000ms linear infinite normal forwards}@keyframes exXRqKQyLbs39_ts__ts { 0% {transform: translate(557.499966px,26.070032px) scale(-0.000074,1)} 45% {transform: translate(557.499966px,26.070032px) scale(-0.000074,1)} 50% {transform: translate(557.499966px,26.070032px) scale(1,1)} 97.5% {transform: translate(557.499966px,26.070032px) scale(1,1)} 100% {transform: translate(557.499966px,26.070032px) scale(-0.000074,1)}}]]></style><g id="exXRqKQyLbs2_to" transform="translate(135.006744,108.054809)"><g id="exXRqKQyLbs2" transform="translate(-186.515305,-108.149002)" opacity="0"><path d="M107.22,457.63c-3.108817-.607745-5.992588-2.053088-8.34-4.18-1.936265-1.771981-3.603806-3.816825-4.95-6.07-1.689223-2.748623-3.170038-5.62-4.43-8.59-1.15439-2.566663-1.874196-5.307333-2.13-8.11-.102615-1.637521-.055755-3.280987.14-4.91.213451-2.108498.601448-4.195655,1.16-6.24.365992-1.090704.92486-2.106828,1.65-3c1.822556-2.53753,4.040799-4.765902,6.57-6.6c2.386077-1.683469,4.964251-3.076623,7.68-4.15l1.13-.45c.39-.15.57-.13.8.2.271513.378676.515474.776366.73,1.19.69,1.38,1.39,2.76,2,4.16.663466,1.516474,1.823915,2.761575,3.29,3.53c1.527899.835298,3.1403,1.505735,4.81,2c1.680927.46867,3.437787.601199,5.17.39.532384-.044992,1.067616-.044992,1.6,0c1.134612.047303,2.116238.804557,2.45,1.89.293985.737572.62781,1.458634,1,2.16.613649,1.33018,1.706348,2.380027,3.06,2.94.31.12.6.28.91.43.647406.271172,1.240317.657411,1.75,1.14.46251.43107.616844,1.099849.39,1.69-.345832.822626-.814501,1.588007-1.39,2.27-.39.52-.79,1-1.2,1.54-.843914,1.10097-1.313468,2.443053-1.34,3.83-.038593.976547.018344,1.954529.17,2.92.17,1.55-.13,2.09-1.54,2.78-2.8854,1.389119-5.39816,3.445949-7.33,6-1.073017,1.397697-1.722075,3.074141-1.87,4.83-.072006.712405.00984,1.431965.24,2.11.22.68.41,1.38.6,2.07.038651.143816.062112.29129.07.44.111613.534915-.226819,1.060376-.76,1.18-1.07.32-2.15.61-3.24.86-1.564512.351079-3.176598.438949-4.77.26-1.37-.14-2.74-.25-4.08-.51Z" transform="translate(68-321.43)" fill="#eeece9"/><path d="M139.32,442.43c-.429468-.207301-.843824-.444554-1.24-.71-.87-.57-1.75-1.15-2.6-1.77-1.210223-.868655-2.049171-2.160992-2.35-3.62-.099984-.614669-.140172-1.237579-.12-1.86-.054565-1.441302.226133-2.875599.82-4.19.84343-1.746709,2.120801-3.247878,3.71-4.36.865353-.679171,1.843656-1.200481,2.89-1.54c2.476117-.799814,5.191574-.12095,7,1.75c1.314897,1.1769,2.130497,2.811678,2.28,4.57.016601,1.064931-.026801,2.129951-.13,3.19h-.07c-.205283,1.889151-.662683,3.742295-1.36,5.51-.379619.948267-.943878,1.811652-1.66,2.54-.678997.696573-1.598158,1.107871-2.57,1.15-1.564246.160044-3.143858-.066596-4.6-.66Z" transform="translate(68-321.43)" fill="#eeece9"/><path d="M136,422.82v-.07c-1.655562-.187996-3.242617-.767288-4.63-1.69-1.873393-1.196441-2.955367-3.310686-2.83-5.53.086056-2.614604.843698-5.163037,2.2-7.4.248995-.403453.540673-.778947.87-1.12.966655-.983698,2.390408-1.366427,3.72-1c1.476163.331387,2.849192,1.017902,4,2c1.974913,1.500616,3.653463,3.355498,4.95,5.47.691707,1.155081,1.299925,2.35815,1.82,3.6.351167.668485.415295,1.45106.177641,2.167797s-.756644,1.305962-1.437641,1.632203c-1.789679,1.126704-3.830295,1.793168-5.94,1.94-.96.06-1.9,0-2.9,0Z" transform="translate(68-321.43)" fill="#eeece9"/><path d="M111.52,411.44c-1.778983-1.222594-2.791137-3.28481-2.67-5.44.023601-.569083.254833-1.109811.65-1.52.455113-.452343.991049-.815287,1.58-1.07c3.349454-1.598096,7.008945-2.441281,10.72-2.47c1.406727-.057302,2.8144.087506,4.18.43.665488.183491,1.309219.438301,1.92.76c1.044433.530115,1.684844,1.619594,1.64,2.79c0,.65,0,1.3-.08,1.95-.17,3-3.23,5.93-5.44,6.74-1.525222.569976-3.156849.798677-4.78.67-2.787699-.208794-5.461584-1.192451-7.72-2.84Z" transform="translate(68-321.43)" fill="#eeece9"/><path d="M122.22,455c-.612801-1.555848-.738347-3.261184-.36-4.89.312915-1.597973,1.207223-3.023165,2.51-4c1-.81,2-1.67,3.07-2.44c1.799536-1.32113,4.064078-1.842047,6.26-1.44c1.871304.270957,3.556477,1.27918,4.68,2.8.982119,1.177154,1.352613,2.74805,1,4.24-.280064.943122-.784451,1.804353-1.47,2.51-1.311534,1.394935-2.862795,2.54314-4.58,3.39-2.244721,1.223939-4.714648,1.979205-7.26,2.22-1.685795.208321-3.288775-.786775-3.85-2.39Z" transform="translate(68-321.43)" fill="#eeece9"/></g></g><g id="exXRqKQyLbs8_to" transform="translate(196.530229,29.213082)"><g id="exXRqKQyLbs8" transform="translate(-259.515244,-29.212906)" opacity="0"><path d="M180.22,322.6c-3.108099.603908-5.992014,2.045866-8.34,4.17-1.936265,1.771981-3.603806,3.816825-4.95,6.07-1.687247,2.749737-3.167985,5.620964-4.43,8.59-1.15439,2.566663-1.874196,5.307333-2.13,8.11-.102669,1.640851-.055809,3.287642.14,4.92.213314,2.10523.601317,4.189076,1.16,6.23.369126,1.089327.927701,2.104918,1.65,3c1.822856,2.534418,4.041134,4.759449,6.57,6.59c2.38578,1.686629,4.963934,3.083129,7.68,4.16l1.13.45c.39.14.57.12.8-.21.271513-.378676.515474-.776366.73-1.19.69-1.38,1.39-2.75,2-4.15.660215-1.521095,1.821243-2.770347,3.29-3.54c1.527899-.835298,3.1403-1.505735,4.81-2c1.681593-.46532,3.438443-.59445,5.17-.38.532384.044992,1.067616.044992,1.6,0c1.132999-.042908,2.11534-.796704,2.45-1.88.292059-.741649.625928-1.466145,1-2.17.620078-1.325589,1.710678-2.37342,3.06-2.94.31-.12.6-.28.91-.43.649329-.267527,1.242874-.654179,1.75-1.14.46251-.43107.616844-1.099849.39-1.69-.348261-.821379-.816716-1.58641-1.39-2.27-.39-.52-.79-1-1.2-1.54-.843778-1.097218-1.313443-2.436113-1.34-3.82-.038593-.976547.018344-1.954529.17-2.92.17-1.55-.13-2.1-1.54-2.79-2.883742-1.391719-5.395939-3.448087-7.33-6-1.072818-1.401611-1.72174-3.081174-1.87-4.84-.070561-.709105.011267-1.425101.24-2.1.22-.69.41-1.39.6-2.08.038651-.143816.062112-.29129.07-.44.111613-.534915-.226819-1.060376-.76-1.18-1.07-.32-2.15-.6-3.24-.86-1.565902-.340921-3.17632-.428701-4.77-.26-1.368265.10585-2.730102.282756-4.08.53Z" transform="translate(68-321.346046)" fill="#eeece9"/><path d="M212.32,337.8c-.431288.199993-.845936.434068-1.24.7-.87.58-1.75,1.15-2.6,1.77-1.207293.875848-2.045084,2.169969-2.35,3.63-.100298.614633-.140488,1.237574-.12,1.86-.055576,1.438152.225202,2.869433.82,4.18.837693,1.75044,2.1162,3.252945,3.71,4.36.864955.682189,1.843204,1.206856,2.89,1.55c2.478164.792392,5.191296.110233,7-1.76c1.314897-1.1769,2.130497-2.811678,2.28-4.57.01639-1.064928-.027011-2.129937-.13-3.19h-.07c-.207632-1.888735-.664956-3.74157-1.36-5.51-.384457-.945742-.948134-1.808235-1.66-2.54-.68189-.692418-1.599329-1.102945-2.57-1.15-1.565067-.156882-3.144709.073196-4.6.67Z" transform="translate(68-321.43)" fill="#eeece9"/><path d="M209,357.4v.08c-1.657635.179152-3.246729.759188-4.63,1.69-1.876649,1.193479-2.959673,3.309778-2.83,5.53.087313,2.611261.844926,5.156151,2.2,7.39.246423.405232.538314.780999.87,1.12.969959.978022,2.390395,1.35986,3.72,1c1.475891-.33215,2.848745-1.018577,4-2c1.976661-1.49871,3.655532-3.353949,4.95-5.47.689676-1.152742,1.297829-2.352339,1.82-3.59.351537-.669973.415902-1.453989.178342-2.172326s-.756673-1.309391-1.438342-1.637674c-1.791612-1.122581-3.831169-1.788699-5.94-1.94-.96-.05-1.9,0-2.9,0Z" transform="translate(68-321.43)" fill="#eeece9"/><path d="M184.52,368.78c-1.777449,1.223919-2.78915,3.285213-2.67,5.44.019848.569926.251631,1.111941.65,1.52.457471.452041.9927.817894,1.58,1.08c3.352645,1.588935,7.010084,2.431647,10.72,2.47c1.407037.049048,2.814015-.099055,4.18-.44.665488-.183491,1.309219-.438301,1.92-.76c1.044433-.530115,1.684844-1.619594,1.64-2.79c0-.65,0-1.3-.08-1.95-.17-3-3.23-5.92-5.44-6.73-1.525222-.569976-3.156849-.798677-4.78-.67-2.78602.208986-5.458986,1.188843-7.72,2.83Z" transform="translate(68-321.43)" fill="#eeece9"/><path d="M195.22,325.24c-.613423,1.555706-.738984,3.261233-.36,4.89.312915,1.597973,1.207223,3.023165,2.51,4c1,.8,2,1.67,3.07,2.43c1.802039,1.315658,4.064218,1.836031,6.26,1.44c1.869789-.275212,3.553444-1.282527,4.68-2.8.980938-1.181675,1.351109-2.754902,1-4.25-.280064-.943122-.784451-1.804353-1.47-2.51-1.314805-1.39125-2.865364-2.538934-4.58-3.39-2.243514-1.225133-4.714386-1.977285-7.26-2.21-1.690265-.215012-3.298823.787726-3.85,2.4Z" transform="translate(68-321.43)" fill="#eeece9"/></g></g><g id="exXRqKQyLbs14_to" transform="translate(278.474511,103.787946)"><g id="exXRqKQyLbs14" transform="translate(-337.121811,-103.787933)" opacity="0"><path d="M251.8,449.17c-2.868756-1.320585-5.325887-3.394113-7.11-6-1.459833-2.182411-2.598156-4.563459-3.38-7.07-.985632-3.072887-1.741055-6.214909-2.26-9.4-.514625-2.765661-.565318-5.597693-.15-8.38.290039-1.61585.725132-3.202268,1.3-4.74.706422-1.99643,1.579499-3.92991,2.61-5.78.612686-.971702,1.395142-1.825289,2.31-2.52c2.369533-2.034465,5.050307-3.675342,7.94-4.86c2.718889-1.069679,5.555552-1.811575,8.45-2.21l1.21-.17c.4-.05.57,0,.72.39.177596.431516.321362.87619.43,1.33.34,1.5.69,3,1,4.52.283917,1.628984,1.112465,3.11332,2.35,4.21c1.294567,1.15892,2.705388,2.181012,4.21,3.05c1.521871.852928,3.197303,1.396679,4.93,1.6.526941.085084,1.045539.21557,1.55.39c1.093435.315132,1.870288,1.284197,1.94,2.42.098795.784229.242363,1.562166.43,2.33.285237,1.434062,1.09454,2.710409,2.27,3.58.271092.195883.531467.406186.78.63.568845.418417,1.056794.936864,1.44,1.53.360173.520428.360173,1.209572,0,1.73-.528266.715016-1.162177,1.345555-1.88,1.87-.5.42-1,.83-1.54,1.22-1.075633.871087-1.846146,2.06188-2.2,3.4-.276173.935589-.453804,1.897481-.53,2.87-.2,1.55-.62,2-2.15,2.35-3.138147.670765-6.069953,2.083519-8.55,4.12-1.390029,1.10085-2.431909,2.58032-3,4.26-.238147.672962-.333506,1.388151-.28,2.1.06.72.08,1.44.1,2.16.014375.146314.014375.293686,0,.44-.11.62-.38.93-1,1-1.11.06-2.23.07-3.34.06-1.604137-.026705-3.192591-.320738-4.7-.87-1.326637-.450762-2.628461-.971492-3.9-1.56Z" transform="translate(68-321.43)" fill="#eeece9"/><path d="M286.58,442c-.357716-.308025-.691975-.642284-1-1-.71-.77-1.43-1.53-2.1-2.33-.969463-1.137628-1.479408-2.596141-1.43-4.09.051628-.619097.162127-1.231866.33-1.83.286626-1.410113.895871-2.734707,1.78-3.87c1.231122-1.501302,2.829521-2.658763,4.64-3.36c1.000971-.455515,2.073703-.733004,3.17-.82c2.616418-.197664,5.116394,1.114435,6.44,3.38.995319,1.463837,1.399084,3.250408,1.13,5-.235001,1.039162-.528807,2.064144-.88,3.07h-.07c-.647455,1.777519-1.532125,3.459402-2.63,5-.593573.831171-1.344413,1.537844-2.21,2.08-.826138.512824-1.815388.694961-2.77.51-1.58823-.206285-3.100252-.804221-4.4-1.74Z" transform="translate(68-321.43)" fill="#eeece9"/><path d="M288,422.17v-.07c-1.565858-.572829-2.971741-1.51237-4.1-2.74-1.515756-1.600142-2.061075-3.888197-1.43-6c.702959-2.515086,2.038792-4.808037,3.88-6.66.33881-.334794.714551-.63002,1.12-.88c1.169508-.731481,2.644095-.769782,3.85-.1c1.354496.663056,2.525448,1.648579,3.41,2.87c1.564187,1.927305,2.75767,4.12779,3.52,6.49.40331,1.284822.707535,2.598671.91,3.93.185047.730308.064642,1.504485-.333465,2.144097s-1.039566,1.089475-1.776535,1.245903c-2.008572.672224-4.152247.837122-6.24.48-.93-.19-1.81-.48-2.81-.71Z" transform="translate(68-321.43)" fill="#eeece9"/><path d="M266.92,405.32c-1.43589-1.61169-1.928504-3.85498-1.3-5.92.155219-.550227.512338-1.021624,1-1.32.554189-.331093,1.164203-.558154,1.8-.67c3.632742-.758755,7.387745-.710964,11,.14c1.393746.27686,2.740722.751669,4,1.41.60481.334223,1.171476.733236,1.69,1.19.888611.763163,1.251778,1.97372.93,3.1-.15.64-.35,1.26-.53,1.88-.88,2.85-4.54,5-6.89,5.26-1.616586.188958-3.25494.021709-4.8-.49-2.684224-.848907-5.075369-2.436073-6.9-4.58Z" transform="translate(68-321.43)" fill="#eeece9"/><path d="M267,450.16c-.225274-1.658117.057132-3.34558.81-4.84.680159-1.488086,1.888049-2.671034,3.39-3.32c1.19-.54,2.36-1.14,3.56-1.64c2.06505-.848745,4.386705-.81986,6.43.08c1.749022.713195,3.144181,2.090375,3.88,3.83.685327,1.372541.685327,2.987459,0,4.36-.491008.845777-1.17664,1.562263-2,2.09-1.602804,1.046492-3.381303,1.795155-5.25,2.21-2.471175.657057-5.050371.80337-7.58.43-1.704901-.15757-3.061264-1.497187-3.24-3.2Z" transform="translate(68-321.43)" fill="#eeece9"/></g></g><g id="exXRqKQyLbs20_to" transform="translate(358.83403,28.354339)"><g id="exXRqKQyLbs20" transform="translate(-420.895126,-28.333221)" opacity="0"><path d="M338.27,323.54c-3.002088.992654-5.677606,2.783246-7.74,5.18-1.699455,2.00299-3.097518,4.24326-4.15,6.65-1.329407,2.940515-2.439112,5.975489-3.32,9.08-.820078,2.690728-1.188405,5.498797-1.09,8.31.100945,1.640186.355391,3.267301.76,4.86.480406,2.048794,1.125846,4.055345,1.93,6c.497623,1.031381,1.174851,1.965956,2,2.76c2.127723,2.288135,4.609369,4.21943,7.35,5.72c2.579563,1.369909,5.311795,2.430579,8.14,3.16l1.18.3c.4.1.58,0,.77-.3.218477-.409968.408914-.834274.57-1.27.51-1.46,1-2.91,1.5-4.38.462578-1.588711,1.453984-2.971739,2.81-3.92c1.415455-1.010761,2.933912-1.868874,4.53-2.56c1.610563-.665922,3.337206-1.005812,5.08-1c.532415-.023463,1.061427-.097123,1.58-.22c1.121493-.186475,2.003291-1.060256,2.2-2.18.185833-.769394.416221-1.527339.69-2.27.443426-1.391053,1.392652-2.565096,2.66-3.29.29-.16.57-.36.85-.54.608451-.352649,1.147309-.813559,1.59-1.36.409346-.481188.480855-1.164489.18-1.72-.444564-.773562-1.004311-1.474932-1.66-2.08-.46-.47-.92-.93-1.39-1.38-.972059-.984116-1.605942-2.251883-1.81-3.62-.161694-.964487-.22868-1.942474-.2-2.92c0-1.56-.39-2.07-1.87-2.57-3.031948-1.029678-5.774522-2.767784-8-5.07-1.242216-1.251239-2.096469-2.834733-2.46-4.56-.14501-.699228-.14501-1.420772,0-2.12.14-.7.24-1.42.35-2.13.014971-.149626.014971-.300374,0-.45.040619-.541978-.359076-1.01717-.9-1.07-1.09-.19-2.2-.33-3.31-.45-1.597951-.142478-3.208413-.027686-4.77.34-1.368172.283949-2.720116.64113-4.05,1.07Z" transform="translate(68-321.43)" fill="#eeece9"/><path d="M372,334.58c-.401125.257535-.78221.545021-1.14.86-.79.68-1.59,1.36-2.35,2.08-1.093539,1.014121-1.764798,2.403058-1.88,3.89-.028513.622141.008356,1.245556.11,1.86.126827,1.435591.585561,2.822063,1.34,4.05c1.052041,1.631181,2.509599,2.961245,4.23,3.86.94301.567426,1.978977.963531,3.06,1.17c2.574986.494126,5.206407-.522736,6.78-2.62c1.151974-1.33491,1.752642-3.058253,1.68-4.82-.112475-1.063099-.289468-2.118379-.53-3.16h-.07c-.421608-1.849679-1.094526-3.632912-2-5.3-.507211-.897614-1.186915-1.68607-2-2.32-.766625-.598946-1.730279-.888042-2.7-.81-1.591163.037581-3.147954.470596-4.53,1.26Z" transform="translate(68-321.43)" fill="#eeece9"/><path d="M371.2,354.45v.08c-1.618789.389304-3.120723,1.160845-4.38,2.25-1.712003,1.418824-2.519782,3.654572-2.11,5.84.415811,2.578761,1.482807,5.008758,3.1,7.06.300735.364411.635589.699265,1,1c1.08607.850282,2.546169,1.049039,3.82.52c1.422443-.503592,2.699727-1.348248,3.72-2.46c1.772244-1.73918,3.203525-3.794526,4.22-6.06.544712-1.227569.995994-2.494501,1.35-3.79.264473-.707511.230783-1.492021-.093372-2.174254s-.911072-1.203884-1.626628-1.445746c-1.920195-.886978-4.027815-1.292026-6.14-1.18-.94.06-1.9.24-2.86.36Z" transform="translate(68-321.43)" fill="#eeece9"/><path d="M348.35,368.82c-1.624884,1.427443-2.38371,3.601477-2,5.73.089427.560447.38555,1.067066.83,1.42.512565.391235,1.091986.686028,1.71.87c3.525684,1.162803,7.263475,1.538289,10.95,1.1c1.425925-.103178,2.82825-.420049,4.16-.94.641667-.265241,1.252041-.600611,1.82-1c.97671-.66303,1.473786-1.837227,1.27-3-.08-.65-.21-1.29-.32-1.93-.55-2.93-4-5.47-6.25-6-1.58254-.372912-3.227298-.396799-4.82-.07-2.758724.56178-5.30492,1.885109-7.35,3.82Z" transform="translate(68-321.43)" fill="#eeece9"/><path d="M353.49,324.27c-.408004,1.621636-.320928,3.328309.25,4.9.509736,1.555872,1.578757,2.867204,3,3.68c1.12.67,2.2,1.41,3.35,2c1.951936,1.079959,4.260585,1.314798,6.39.65c1.820198-.51022,3.36328-1.722385,4.29-3.37.822657-1.29223.989354-2.896222.45-4.33-.397841-.902589-1.008628-1.69524-1.78-2.31-1.48658-1.221274-3.180021-2.166214-5-2.79-2.383366-.932575-4.932197-1.368156-7.49-1.28-1.677611.024764-3.114342,1.208198-3.46,2.85Z" transform="translate(68-321.43)" fill="#eeece9"/></g></g><g id="exXRqKQyLbs26_to" transform="translate(439.531723,111.946402)"><g id="exXRqKQyLbs26" transform="translate(-496.703781,-111.955322)" opacity="0"><path d="M411.39,457.33c-2.870008-1.314372-5.325422-3.38937-7.1-6-1.467496-2.178038-2.606371-4.560241-3.38-7.07-.991324-3.071974-1.750132-6.214175-2.27-9.4-.509665-2.766161-.560343-5.597371-.15-8.38.292648-1.616314.731106-3.202796,1.31-4.74.706422-1.99643,1.579499-3.92991,2.61-5.78.608838-.971514,1.387988-1.825192,2.3-2.52c2.387643-2.037544,5.089214-3.675372,8-4.85c2.720035-1.068281,5.556131-1.813386,8.45-2.22l1.2-.16c.41-.06.58,0,.73.38.174499.431692.314928.876384.42,1.33.35,1.5.7,3,1,4.52.281633,1.629793,1.110578,3.114839,2.35,4.21c1.291795,1.165242,2.702942,2.190921,4.21,3.06c1.524377.845375,3.198947,1.38545,4.93,1.59.52696.089674,1.045452.223478,1.55.4c1.090153.313892,1.866207,1.27796,1.94,2.41.094552.784176.23479,1.562166.42,2.33.290491,1.434485,1.102928,2.710154,2.28,3.58.27.19.52.42.78.63.565853.418671,1.050473.93718,1.43,1.53.360173.520428.360173,1.209572,0,1.73-.530807.715707-1.164293,1.349193-1.88,1.88-.51.41-1,.82-1.54,1.21-1.078297.870553-1.852177,2.061139-2.21,3.4-.266006.941392-.443444,1.905585-.53,2.88-.19,1.54-.61,2-2.14,2.34-3.136635.675177-6.067444,2.08745-8.55,4.12-1.392134,1.098858-2.434494,2.579009-3,4.26-.234191.673811-.326126,1.388862-.27,2.1.06.72.07,1.44.1,2.16.019643.146009.019643.293991,0,.44-.1.62-.38.94-1,1-1.11.06-2.23.08-3.35.07-1.603991-.036814-3.191342-.33402-4.7-.88-1.39-.51-2.69-.98-3.94-1.56Z" transform="translate(68-321.43)" fill="#eeece9"/><path d="M446.18,450.17c-.360039-.305513-.694487-.639961-1-1-.71-.76-1.43-1.53-2.11-2.33-.971245-1.132074-1.478498-2.589535-1.42-4.08.042568-.622771.149812-1.239424.32-1.84.289943-1.410876.902608-2.735463,1.79-3.87c1.232052-1.495973,2.82574-2.652515,4.63-3.36c1.00499-.452417,2.08104-.726505,3.18-.81c2.166512-.064926,4.252567.823263,5.707316,2.430029s2.131915,3.770548,1.852684,5.919971c-.226915,1.043449-.517457,2.072037-.87,3.08h-.08c-.641828,1.780005-1.526889,3.46263-2.63,5-.591589.830181-1.342933,1.533928-2.21,2.07-.826138.512824-1.815388.694961-2.77.51-1.583354-.200303-3.091997-.791389-4.39-1.72Z" transform="translate(68-321.43)" fill="#eeece9"/><path d="M447.61,430.34v-.08c-1.567105-.570371-2.973535-1.510278-4.1-2.74-1.529129-1.592874-2.076289-3.888652-1.43-6c.700564-2.519015,2.036611-4.815777,3.88-6.67.340515-.328718.712274-.623446,1.11-.88c1.174501-.726936,2.649435-.765147,3.86-.1c1.353602.668955,2.523974,1.657422,3.41,2.88c1.568279,1.924566,2.762198,4.125854,3.52,6.49.392783,1.284275.696833,2.594028.91,3.92.182028.732795.059272,1.508079-.340233,2.148796s-1.041644,1.09215-1.779767,1.251204c-2.010434.662981-4.151821.827703-6.24.48-.94-.19-1.87-.48-2.8-.7Z" transform="translate(68-321.43)" fill="#eeece9"/><path d="M426.52,413.48c-1.437653-1.606635-1.934106-3.846359-1.31-5.91.157408-.551734.513676-1.025571,1-1.33.553395-.332743,1.163724-.559921,1.8-.67c3.633701-.748789,7.386533-.701026,11,.14c1.377814.281946,2.708039.760153,3.95,1.42.609126.327282,1.176556.726834,1.69,1.19.888611.763163,1.251778,1.97372.93,3.1-.16.63-.36,1.25-.54,1.88-.87,2.85-4.54,5-6.88,5.25-1.615898.187364-3.253201.023634-4.8-.48-2.66179-.865567-5.030156-2.454866-6.84-4.59Z" transform="translate(68-321.43)" fill="#eeece9"/><path d="M426.6,458.32c-.228192-1.653859.05076-3.338034.8-4.83.680574-1.493641,1.892526-2.680642,3.4-3.33c1.19-.53,2.35-1.14,3.56-1.63c2.064156-.853412,4.387715-.824503,6.43.08c1.751489.70945,3.147894,2.08786,3.88,3.83.68514,1.369066.68514,2.980934,0,4.35-.491008.845777-1.17664,1.562263-2,2.09-1.605432,1.043731-3.382804,1.795305-5.25,2.22-2.475198.653183-5.056866.799443-7.59.43-1.70261-.166625-3.052803-1.508457-3.23-3.21Z" transform="translate(68-321.43)" fill="#eeece9"/></g></g><g><g id="exXRqKQyLbs33_ts" transform="translate(97,79.07) scale(-0.000082,1)"><line x1="2" y1="79.07" x2="97" y2="79.07" transform="translate(-97,-79.07)" fill="none" stroke="#eeece9" stroke-width="4" stroke-linecap="round" stroke-linejoin="round" stroke-dasharray="0"/></g><g id="exXRqKQyLbs34_ts" transform="translate(116,60.07) scale(-0.000286,1)"><line x1="54" y1="60.07" x2="116" y2="60.07" transform="translate(-116,-60.07)" fill="none" stroke="#eeece9" stroke-width="4" stroke-linecap="round" stroke-linejoin="round"/></g><g id="exXRqKQyLbs35_ts" transform="translate(127,96.07) scale(0.000859,1)"><line x1="97" y1="96.07" x2="127" y2="96.07" transform="translate(-127,-96.07)" fill="none" stroke="#eeece9" stroke-width="4" stroke-linecap="round" stroke-linejoin="round"/></g></g><g><g id="exXRqKQyLbs37_ts" transform="translate(583,68.07) scale(0,1)"><line x1="583" y1="68.07" x2="601" y2="68.07" transform="translate(-583,-68.07)" fill="none" stroke="#eeece9" stroke-width="4" stroke-linecap="round" stroke-linejoin="round"/></g><g id="exXRqKQyLbs38_ts" transform="translate(592,44.485222) scale(0,1)"><line x1="592" y1="44.07" x2="661" y2="44.07" transform="translate(-592,-44.485222)" fill="none" stroke="#eeece9" stroke-width="4" stroke-linecap="round" stroke-linejoin="round"/></g><g id="exXRqKQyLbs39_ts" transform="translate(557.499966,26.070032) scale(-0.000074,1)"><line x1="550" y1="26.07" x2="601" y2="26.07" transform="translate(-549.999966,-26.07)" fill="none" stroke="#eeece9" stroke-width="4" stroke-linecap="round" stroke-linejoin="round"/></g></g></svg>