<svg xmlns="http://www.w3.org/2000/svg" viewBox="0 0 49.35 47.38">
  <defs>
    <style>
      .cls-1 {
        fill: #ff1a2e;
        stroke: #212121;
        stroke-miterlimit: 10;
      }
    </style>
  </defs>
  <g id="Layer_2" data-name="Layer 2">
    <g id="Layer_1-2" data-name="Layer 1">
      <g id="Layer_2-2" data-name="Layer 2">
        <g id="Layer_1-2-2" data-name="Layer 1-2">
          <path class="cls-1" d="M42.92.5H9.12a.34.34,0,0,1,0,.14,21.14,21.14,0,0,0-.71,12.61,17.38,17.38,0,0,0,5,8.27A20.06,20.06,0,0,0,22.73,26c3.45.78,7.48.46,9.45-2.89a5.19,5.19,0,0,0,.5-4.44,9,9,0,0,0-3.47-3.87c-.55-.38,0-1.29.53-.9a10,10,0,0,1,4,4.6A4.93,4.93,0,0,1,34,19.82a7.7,7.7,0,0,1,6.86,3.08,9.66,9.66,0,0,1,1.55,7.78,15.21,15.21,0,0,1-4.05,7.39A28.87,28.87,0,0,1,35.13,41c-1.05.81-2.41,1.59-3,2.85a3.36,3.36,0,0,0,.28,3.05H42.93A5.92,5.92,0,0,0,48.85,41V6.41A5.92,5.92,0,0,0,42.93.5ZM37.61,12.78A1.42,1.42,0,1,1,39,11.36h0a1.41,1.41,0,0,1-1.41,1.41h0Z"/>
          <path class="cls-1" d="M31.26,46.87a4.4,4.4,0,0,1-.32-1.07c-.53-3.1,2.26-4.57,4.29-6.25a18,18,0,0,0,5.49-6.85c1.09-2.67,1.32-5.93-.21-8.48A6.71,6.71,0,0,0,34,20.86a6.91,6.91,0,0,1-1,3c-2.18,3.38-6.24,4-9.92,3.25a21.27,21.27,0,0,1-10.48-4.9C6.62,16.67,5.43,7.93,8.06.5H6.41A5.92,5.92,0,0,0,.5,6.41V41a5.91,5.91,0,0,0,5.91,5.91H8.92v-9.5a4,4,0,0,1,3.95-4h1a4,4,0,0,1,4,4h0v9.5Z"/>
          <circle class="cls-1" cx="16.03" cy="40.93" r="0.43"/>
        </g>
      </g>
    </g>
  </g>
</svg>
