<svg xmlns="http://www.w3.org/2000/svg" viewBox="0 0 49.1 47.13">
  <defs>
    <style>
      .cls-1 {
        fill: #212121;
        stroke: #f0eeeb;
        stroke-miterlimit: 10;
        stroke-width: 0.75px;
      }
    </style>
  </defs>
  <g id="Layer_2" data-name="Layer 2">
    <g id="Layer_1-2" data-name="Layer 1">
      <g id="Layer_2-2" data-name="Layer 2">
        <g id="Layer_1-2-2" data-name="Layer 1-2">
          <path class="cls-1" d="M42.8.38H9A.59.59,0,0,1,9,.51a21.1,21.1,0,0,0-.72,12.62,17.37,17.37,0,0,0,5,8.26,20,20,0,0,0,9.36,4.44c3.45.77,7.49.46,9.46-2.9a5.13,5.13,0,0,0,.49-4.43,8.87,8.87,0,0,0-3.46-3.87c-.55-.39,0-1.29.52-.91a10,10,0,0,1,4,4.61,5.79,5.79,0,0,1,.29,1.36,7.73,7.73,0,0,1,6.86,3.08,9.7,9.7,0,0,1,1.54,7.78,15.19,15.19,0,0,1-4,7.39A27.13,27.13,0,0,1,35,40.85c-1,.82-2.4,1.59-3,2.86a3.37,3.37,0,0,0,.28,3H42.81a5.91,5.91,0,0,0,5.91-5.91V6.29A5.9,5.9,0,0,0,42.81.38ZM37.48,12.65a1.41,1.41,0,1,1,1.41-1.41h0a1.41,1.41,0,0,1-1.41,1.41Z"/>
          <path class="cls-1" d="M31.13,46.75a5.15,5.15,0,0,1-.32-1.08c-.53-3.09,2.27-4.57,4.3-6.25a18.05,18.05,0,0,0,5.48-6.84,9.63,9.63,0,0,0-.21-8.49,6.72,6.72,0,0,0-6.51-3.36,6.84,6.84,0,0,1-1,3c-2.18,3.37-6.23,4-9.92,3.25a21.17,21.17,0,0,1-10.47-4.91C6.5,16.54,5.3,7.8,7.93.38H6.29A5.9,5.9,0,0,0,.38,6.29V40.84a5.91,5.91,0,0,0,5.91,5.91H8.8v-9.5a4,4,0,0,1,3.94-4h1a4,4,0,0,1,4,4h0v9.51Z"/>
          <circle class="cls-1" cx="15.91" cy="40.81" r="0.43"/>
        </g>
      </g>
    </g>
  </g>
</svg>
