<svg id="Layer_1" data-name="Layer 1" xmlns="http://www.w3.org/2000/svg" viewBox="0 0 287.63 275.9">
  <defs>
    <style>
      .cls-1 {
        fill: #de4b44;
      }
    </style>
  </defs>
  <g id="Layer_2" data-name="Layer 2">
    <g id="Layer_1-2" data-name="Layer 1-2">
      <path class="cls-1" d="M464.53,319.57h-201a2.86,2.86,0,0,1-.12.82c-8.67,23.95-10.92,50.28-4.28,75A103.54,103.54,0,0,0,288.7,444.6c15.43,14.2,35.51,21.9,55.7,26.38,20.52,4.62,44.55,2.74,56.26-17.21a30.65,30.65,0,0,0,2.93-26.38c-3.71-9.87-12.21-17.15-20.61-23-3.27-2.29-.14-7.68,3.14-5.38,10,7.08,19.55,15.58,23.7,27.38a31.78,31.78,0,0,1,1.72,8.12c15.8-1.77,31.16,5.86,40.81,18.34,10.07,13.12,12.28,30.34,9.21,46.26-3.23,16.77-12.51,31.64-24.09,44a166,166,0,0,1-19.31,17.3c-6.23,4.85-14.3,9.47-17.59,17-2.68,6.07-1.46,12.55,1.67,18.11h62.38a35.18,35.18,0,0,0,35.18-35.18V354.75a35.18,35.18,0,0,0-35.18-35.18Zm-31.6,73a8.4,8.4,0,1,1,8.38-8.41h0a8.39,8.39,0,0,1-8.37,8.4Z" transform="translate(-212.17 -319.57)"/>
      <path class="cls-1" d="M395.15,595.44a29.36,29.36,0,0,1-1.91-6.41c-3.15-18.39,13.49-27.18,25.57-37.16,13.43-11.08,25.95-24.41,32.63-40.74,6.51-15.87,7.84-35.28-1.26-50.45-7.86-13.12-23.25-22.37-38.77-20a40.18,40.18,0,0,1-6.22,17.75c-13,20.08-37.07,23.6-59,19.35-22.59-4.4-45.31-13.34-62.32-29.17-35.27-32.84-42.38-84.85-26.75-129h-9.76a35.19,35.19,0,0,0-35.19,35.18V560.27a35.19,35.19,0,0,0,35.19,35.18h14.92V538.93a23.55,23.55,0,0,1,23.53-23.56h6a23.54,23.54,0,0,1,23.56,23.53v56.54Z" transform="translate(-212.17 -319.57)"/>
      <circle class="cls-1" cx="92.4" cy="240.53" r="2.57"/>
    </g>
  </g>
</svg>
