<svg id="Layer_1" data-name="Layer 1" xmlns="http://www.w3.org/2000/svg" viewBox="0 0 288.63 282.71">
  <defs>
    <style>
      .cls-1 {
        fill: #f1efed;
        stroke: #20201f;
        stroke-miterlimit: 10;
      }
    </style>
  </defs>
  <g id="Layer_2" data-name="Layer 2">
    <g id="Layer_1-2" data-name="Layer 1-2">
      <path class="cls-1" d="M571,280.09H370a2.66,2.66,0,0,1-.11.84c-8.68,24.46-10.92,51.34-4.28,76.62a106,106,0,0,0,29.61,50.2c15.43,14.5,35.52,22.36,55.7,26.94,20.52,4.72,44.55,2.8,56.26-17.57a31.91,31.91,0,0,0,2.94-26.94c-3.71-10.07-12.22-17.51-20.62-23.52-3.26-2.33-.14-7.84,3.14-5.49,10,7.23,19.56,15.91,23.71,28a33.5,33.5,0,0,1,1.71,8.29c15.8-1.81,31.17,6,40.81,18.73,10.07,13.39,12.29,31,9.21,47.24-3.23,17.12-12.51,32.3-24.09,44.9A167.08,167.08,0,0,1,524.65,526c-6.23,5-14.31,9.67-17.59,17.36-2.69,6.2-1.47,12.82,1.67,18.49H571.1c19.43,0,35.18-16.08,35.18-35.92V316c0-19.84-15.75-35.92-35.18-35.92Zm-31.6,74.57a8.58,8.58,0,1,1,8.38-8.59h0a8.48,8.48,0,0,1-8.37,8.58Z" transform="translate(-318.16 -279.59)"/>
      <path class="cls-1" d="M501.63,561.77a29.72,29.72,0,0,1-1.9-6.54c-3.16-18.79,13.48-27.75,25.56-37.94,13.43-11.32,26-24.93,32.63-41.6,6.51-16.21,7.85-36-1.26-51.52-7.86-13.4-23.25-22.84-38.77-20.43a41.62,41.62,0,0,1-6.22,18.13c-13,20.5-37.07,24.09-59,19.75-22.59-4.49-45.31-13.62-62.32-29.78C355.08,378.31,348,325.2,363.6,280.09h-9.76c-19.43,0-35.18,16.08-35.18,35.92V525.86c0,19.84,15.75,35.92,35.18,35.92h14.92V504.07A23.79,23.79,0,0,1,392.29,480h6a23.79,23.79,0,0,1,23.56,24v57.73Z" transform="translate(-318.16 -279.59)"/>
      <ellipse class="cls-1" cx="92.9" cy="246.09" rx="2.57" ry="2.62"/>
    </g>
  </g>
</svg>
