<svg id="SvgjsSvg1001" width="288" height="288" xmlns="http://www.w3.org/2000/svg" version="1.1" xmlns:xlink="http://www.w3.org/1999/xlink" xmlns:svgjs="http://svgjs.com/svgjs"><defs id="SvgjsDefs1002"></defs><g id="SvgjsG1008"><svg xmlns="http://www.w3.org/2000/svg" width="288" height="288" version="1.0" viewBox="0 0 174 181"><path d="M804 1782 c-11 -15 -33 -71 -49 -125 -36 -122 -55 -142 -131 -134-45 5 -58 12 -105 56 -29 28 -59 51 -65 51 -6 0 -17 7 -24 15 -36 43 -120 -10
-120 -76 0 -18 14 -72 30 -118 36 -101 37 -131 6 -168 -24 -28 -25 -28 -158
-30 -129 -2 -134 -3 -155 -28 -52 -59 -25 -107 105 -195 79 -53 96 -78 89
-130 -6 -47 -8 -49 -114 -120 -109 -73 -130 -121 -76 -172 27 -25 34 -26 159
-30 148 -3 162 -10 171 -78 4 -30 -2 -61 -25 -123 -49 -129 -49 -128 -7 -170
43 -43 77 -47 118 -14 16 12 43 33 60 47 75 59 101 73 138 73 52 0 68 -20 100
-127 15 -50 36 -107 46 -126 18 -32 24 -35 69 -38 70 -4 82 14 125 193 18 70
49 99 110 99 36 0 55 -6 72 -22 13 -12 26 -22 30 -22 4 0 28 -20 54 -45 58
-56 104 -61 146 -17 34 36 34 50 -4 163 -23 70 -29 103 -25 132 11 67 22 72
173 75 l133 4 25 30 c14 16 25 40 25 52 0 29 -83 114 -119 123 -14 3 -43 23
-63 44 -32 32 -38 45 -38 82 0 50 10 62 115 134 89 62 110 90 101 136 -11 59
-40 70 -177 68 -112 -2 -117 -1 -148 24 -41 35 -41 77 -1 187 37 102 38 134 3
170 -33 35 -68 36 -117 3 -41 -28 -45 -31 -99 -76 -25 -21 -52 -33 -81 -36
-66 -8 -96 26 -130 147 -33 114 -53 140 -110 139 -32 0 -45 -6 -62 -27z" transform="matrix(.1 0 0 -.1 0 181)" fill="#eb5d37" class="color000 svgShape"></path></svg></g></svg>