<svg id="Layer_1" data-name="Layer 1" xmlns="http://www.w3.org/2000/svg" viewBox="0 0 118.42 44.63"><defs><style>.cls-1{fill:#ee3724;}.cls-2{fill:#010101;}</style></defs><g id="LOGO_TEDxITS" data-name="LOGO TEDxITS"><polygon class="cls-1" points="2.12 30.93 0.61 28.75 2.05 28.75 2.86 29.95 3.67 28.75 5.07 28.75 3.55 30.9 5.25 33.35 3.81 33.35 2.85 31.9 1.88 33.35 0.47 33.35 2.12 30.93"/><path d="M258.54,404.81H254v-.95h4.5Zm0,1.91H254v-1h4.5Z" transform="translate(-247.29 -374.18)"/><path d="M262,402.22h-1.27v-1.05H262Zm-1.27.71H262v4.61h-1.27Z" transform="translate(-247.29 -374.18)"/><path d="M262.81,402.93H264v.64h0a1.65,1.65,0,0,1,1.41-.76c1.35,0,1.68.75,1.68,1.89v2.84h-1.26v-2.6c0-.76-.22-1.14-.81-1.14s-1,.39-1,1.32v2.42h-1.27Z" transform="translate(-247.29 -374.18)"/><path d="M271.21,407h0a1.52,1.52,0,0,1-1.4.71c-1.39,0-2.07-1.19-2.07-2.47a2.14,2.14,0,0,1,2-2.38,1.63,1.63,0,0,1,1.38.68h0v-2.32h1.26v6.37h-1.2Zm-1.11-3.19c-.83,0-1.11.71-1.11,1.47s.33,1.48,1.11,1.48,1.09-.73,1.09-1.49-.27-1.46-1.09-1.46" transform="translate(-247.29 -374.18)"/><path d="M274.23,405.54c0,.8.43,1.17,1.13,1.17a1,1,0,0,0,1-.6h1.11a2.06,2.06,0,0,1-2.15,1.55,2.25,2.25,0,0,1-2.36-2.42,2.32,2.32,0,1,1,4.59.3Zm2.06-.8c-.12-.64-.39-1-1-1a1,1,0,0,0-1,1Z" transform="translate(-247.29 -374.18)"/><path d="M278.12,402.93h1.21v.59h0a1.52,1.52,0,0,1,1.37-.71c1.44,0,2.09,1.16,2.09,2.47a2.12,2.12,0,0,1-2,2.38,1.64,1.64,0,0,1-1.38-.69h0v2.19h-1.27Zm3.43,2.32c0-.73-.3-1.49-1.11-1.49s-1.09.74-1.09,1.49.28,1.46,1.1,1.46,1.1-.71,1.1-1.46" transform="translate(-247.29 -374.18)"/><path d="M284.44,405.54c0,.8.42,1.17,1.13,1.17a1,1,0,0,0,1-.6h1.11a2.07,2.07,0,0,1-2.16,1.55,2.24,2.24,0,0,1-2.35-2.42,2.32,2.32,0,1,1,4.59.3Zm2.05-.8c-.11-.64-.39-1-1-1a1,1,0,0,0-1.05,1Z" transform="translate(-247.29 -374.18)"/><path d="M288.33,402.93h1.2v.64h0a1.65,1.65,0,0,1,1.41-.76c1.34,0,1.68.75,1.68,1.89v2.84h-1.26v-2.6c0-.76-.23-1.14-.81-1.14s-1,.39-1,1.32v2.42h-1.27Z" transform="translate(-247.29 -374.18)"/><path d="M296.73,407h0a1.52,1.52,0,0,1-1.4.71c-1.39,0-2.07-1.19-2.07-2.47a2.14,2.14,0,0,1,2-2.38,1.63,1.63,0,0,1,1.38.68h0v-2.32h1.26v6.37h-1.2Zm-1.11-3.19c-.83,0-1.11.71-1.11,1.47s.33,1.48,1.11,1.48,1.09-.73,1.09-1.49-.27-1.46-1.09-1.46" transform="translate(-247.29 -374.18)"/><path d="M299.75,405.54c0,.8.43,1.17,1.13,1.17a1,1,0,0,0,1-.6H303a2.06,2.06,0,0,1-2.15,1.55,2.25,2.25,0,0,1-2.36-2.42,2.32,2.32,0,1,1,4.59.3Zm2.06-.8c-.12-.64-.39-1-1-1a1,1,0,0,0-1.05,1Z" transform="translate(-247.29 -374.18)"/><path d="M303.64,402.93h1.21v.64h0a1.67,1.67,0,0,1,1.41-.76c1.35,0,1.69.75,1.69,1.89v2.84H306.7v-2.6c0-.76-.22-1.14-.81-1.14s-1,.39-1,1.32v2.42h-1.27Z" transform="translate(-247.29 -374.18)"/><path d="M310.36,402.93h.92v.85h-.92v2.28c0,.43.1.53.53.53a1.71,1.71,0,0,0,.39,0v1a5.7,5.7,0,0,1-.74,0c-.77,0-1.45-.18-1.45-1.09v-2.72h-.77v-.85h.77v-1.38h1.27Z" transform="translate(-247.29 -374.18)"/><rect x="64.46" y="26.99" width="1.27" height="6.37"/><path d="M316.11,408.12a1.45,1.45,0,0,1-1.59,1c-.26,0-.52,0-.78,0v-1.05a6,6,0,0,0,.74.05.6.6,0,0,0,.44-.87l-1.62-4.32h1.35l1.05,3.16h0l1-3.16H318Z" transform="translate(-247.29 -374.18)"/><path d="M250,412.34a2.43,2.43,0,1,1-2.38,2.43,2.26,2.26,0,0,1,2.38-2.43m0,3.9c.86,0,1.12-.74,1.12-1.47s-.26-1.48-1.12-1.48-1.11.74-1.11,1.48.25,1.47,1.11,1.47" transform="translate(-247.29 -374.18)"/><path d="M252.85,412.46h1.21v.86h0a1.64,1.64,0,0,1,1.47-1,.86.86,0,0,1,.28,0v1.18a2.06,2.06,0,0,0-.45-.05c-.93,0-1.25.67-1.25,1.48v2.08h-1.27Z" transform="translate(-247.29 -374.18)"/><path d="M260.57,416.77c0,.76-.27,2.05-2.39,2.05-.91,0-2-.43-2-1.48h1.26a.85.85,0,0,0,.94.63c.71,0,1-.48,1-1.14v-.61h0a1.57,1.57,0,0,1-1.38.72c-1.38,0-2-1.06-2-2.32a2.05,2.05,0,0,1,2-2.28,1.43,1.43,0,0,1,1.37.73h0v-.61h1.2Zm-1.2-2.06c0-.75-.26-1.42-1.08-1.42s-1,.62-1,1.31.25,1.38,1,1.38a1.13,1.13,0,0,0,1.08-1.27" transform="translate(-247.29 -374.18)"/><path d="M261.18,413.88c.07-1.19,1.13-1.55,2.16-1.55s2,.21,2,1.32V416a2.33,2.33,0,0,0,.16,1h-1.29a2.24,2.24,0,0,1-.09-.45,2.11,2.11,0,0,1-1.55.57c-.87,0-1.57-.43-1.57-1.38s.79-1.29,1.57-1.4,1.5-.09,1.5-.6-.37-.63-.82-.63a.73.73,0,0,0-.84.7Zm2.92.93a2.44,2.44,0,0,1-1.05.27c-.39.08-.75.22-.75.68s.37.59.78.59a.94.94,0,0,0,1-1.06Z" transform="translate(-247.29 -374.18)"/><path d="M266.17,412.46h1.2v.64h0a1.63,1.63,0,0,1,1.41-.76c1.34,0,1.68.75,1.68,1.89v2.84h-1.26v-2.6c0-.76-.23-1.14-.81-1.14s-1,.39-1,1.32v2.42h-1.26Z" transform="translate(-247.29 -374.18)"/><path d="M272.4,411.75h-1.27V410.7h1.27Zm-1.27.71h1.27v4.61h-1.27Z" transform="translate(-247.29 -374.18)"/><polygon points="25.64 41.93 28.04 39.23 25.82 39.23 25.82 38.28 29.71 38.28 29.71 39.23 27.31 41.93 29.88 41.93 29.88 42.88 25.64 42.88 25.64 41.93"/><path d="M278.71,415.07c0,.8.43,1.17,1.13,1.17a1,1,0,0,0,1-.6H282a2.08,2.08,0,0,1-2.16,1.55,2.25,2.25,0,0,1-2.36-2.42,2.32,2.32,0,1,1,4.6.3Zm2.06-.8c-.12-.64-.39-1-1-1a1,1,0,0,0-1.05,1Z" transform="translate(-247.29 -374.18)"/><path d="M285.9,416.48h0a1.53,1.53,0,0,1-1.4.71c-1.39,0-2.07-1.19-2.07-2.47a2.14,2.14,0,0,1,2-2.38,1.6,1.6,0,0,1,1.37.68h0V410.7h1.27v6.37h-1.2Zm-1.11-3.19c-.83,0-1.11.71-1.11,1.47s.33,1.48,1.11,1.48,1.09-.73,1.09-1.49-.27-1.46-1.09-1.46" transform="translate(-247.29 -374.18)"/><polygon points="44.42 37.7 42.52 37.7 42.52 36.52 47.73 36.52 47.73 37.7 45.83 37.7 45.83 42.88 44.42 42.88 44.42 37.7"/><polygon points="48.28 36.52 53.05 36.52 53.05 37.7 49.68 37.7 49.68 39.06 52.77 39.06 52.77 40.15 49.68 40.15 49.68 41.71 53.12 41.71 53.12 42.88 48.28 42.88 48.28 36.52"/><path d="M301,410.7h2.75c1.65,0,2.89,1,2.89,3.15,0,1.85-.95,3.22-2.89,3.22H301Zm1.4,5.19h1.25c.81,0,1.59-.5,1.59-1.91s-.45-2.1-1.84-2.1h-1Z" transform="translate(-247.29 -374.18)"/><path d="M310.63,415.07c0,.8.43,1.17,1.13,1.17a1,1,0,0,0,1-.6h1.12a2.08,2.08,0,0,1-2.16,1.55,2.25,2.25,0,0,1-2.36-2.42,2.32,2.32,0,1,1,4.6.3Zm2.06-.8c-.12-.64-.39-1-1-1a1,1,0,0,0-1.05,1Z" transform="translate(-247.29 -374.18)"/><polygon points="69.61 42.88 68.2 42.88 66.62 38.28 67.95 38.28 68.92 41.42 68.94 41.42 69.91 38.28 71.17 38.28 69.61 42.88"/><path d="M319.67,415.07c0,.8.43,1.17,1.13,1.17a1,1,0,0,0,1-.6h1.11a2.06,2.06,0,0,1-2.15,1.55,2.25,2.25,0,0,1-2.36-2.42,2.32,2.32,0,1,1,4.59.3Zm2.06-.8c-.12-.64-.39-1-1-1a1,1,0,0,0-1.05,1Z" transform="translate(-247.29 -374.18)"/><path d="M323.56,412.46h1.21v.64h0a1.65,1.65,0,0,1,1.41-.76c1.35,0,1.69.75,1.69,1.89v2.84h-1.27v-2.6c0-.76-.22-1.14-.81-1.14s-1,.39-1,1.32v2.42h-1.27Z" transform="translate(-247.29 -374.18)"/><path d="M330.28,412.46h.92v.85h-.92v2.28c0,.43.1.53.53.53a1.71,1.71,0,0,0,.39,0v1a5.7,5.7,0,0,1-.74,0c-.77,0-1.45-.18-1.45-1.09v-2.72h-.77v-.85H329v-1.38h1.27Z" transform="translate(-247.29 -374.18)"/><polygon class="cls-1" points="5.94 5.93 0 5.93 0 0.5 18.4 0.5 18.4 5.93 12.46 5.93 12.46 21.69 5.94 21.69 5.94 5.93"/><polygon class="cls-1" points="19.41 0.5 37.28 0.5 37.28 5.93 25.95 5.93 25.95 8.57 37.28 8.57 37.28 13.62 25.95 13.62 25.95 16.26 37.28 16.26 37.28 21.69 19.41 21.69 19.41 0.5"/><path class="cls-1" d="M285.67,374.68h10.71c7.06,0,9.56,5.23,9.56,10.57,0,6.5-3.44,10.63-10.83,10.63h-9.44Zm6.53,15.77h2.55c4.07,0,4.66-3.3,4.66-5.29,0-1.33-.42-5-5.14-5H292.2Z" transform="translate(-247.29 -374.18)"/><polygon class="cls-1" points="68.03 13.53 66.04 10.22 64.1 13.53 59.31 13.53 63.86 6.85 59.48 0.46 64.27 0.46 66.04 3.62 67.86 0.46 72.65 0.46 68.28 6.85 72.82 13.53 68.03 13.53"/><polygon class="cls-2" points="76.7 0.57 78.12 0.57 79.56 0.57 79.56 21.69 78.14 21.69 76.7 21.69 76.7 0.57"/><polygon class="cls-2" points="89.76 3.1 82.62 3.1 82.62 1.84 82.62 0.57 99.76 0.57 99.76 1.84 99.76 3.1 92.62 3.1 92.62 21.69 91.2 21.69 89.76 21.69 89.76 3.1"/><path class="cls-2" d="M362.57,380.88A4.2,4.2,0,0,0,361,377.8a5.87,5.87,0,0,0-3.73-1.09,6,6,0,0,0-3.66.94,3.17,3.17,0,0,0-1.25,2.72,2.09,2.09,0,0,0,.83,1.83,10.5,10.5,0,0,0,3.35,1.19l3.68.88a8.21,8.21,0,0,1,4.22,2.08,6.12,6.12,0,0,1-.91,8.42,9.42,9.42,0,0,1-5.9,1.68,9.75,9.75,0,0,1-6.46-1.94,6.44,6.44,0,0,1-2.27-5.23v-.16h2.62a4.44,4.44,0,0,0,1.67,3.55,7,7,0,0,0,4.44,1.25,7.29,7.29,0,0,0,4-.9,3,3,0,0,0,1.37-2.66,2.74,2.74,0,0,0-.9-2.26,10.29,10.29,0,0,0-3.6-1.36l-3.68-.88a8.34,8.34,0,0,1-4-1.84,4.34,4.34,0,0,1-1.19-3.26,6,6,0,0,1,2.06-4.8,8.25,8.25,0,0,1,5.56-1.78A8.52,8.52,0,0,1,363,376a6.51,6.51,0,0,1,2.25,4.91Z" transform="translate(-247.29 -374.18)"/></g></svg>