<svg role="img" id="Layer_1" data-name="Layer 1" xmlns="http://www.w3.org/2000/svg" xmlns:xlink="http://www.w3.org/1999/xlink" viewBox="0 0 559.97 50">
  <defs>
    <clipPath id="clip-path">
      <rect x="-0.02" width="560" height="50" style="fill: none"/>
    </clipPath>
  </defs>
  <g style="clip-path: url(#clip-path)">
    <path id="TICKET" d="M560-641.5v-.5h-.5A17.46,17.46,0,0,0,542-624.5v.5h0a18.86,18.86,0,0,1-17,12,19,19,0,0,1-18-12h0v-.5A17.55,17.55,0,0,0,490-642v0h-.5A17.46,17.46,0,0,0,472-624.5v.5h0a18.85,18.85,0,0,1-18,12,18.86,18.86,0,0,1-17-12h0v-.5A17.55,17.55,0,0,0,420-642v0h-.5A17.46,17.46,0,0,0,402-624.5v.5h0a18.85,18.85,0,0,1-18,12,18.86,18.86,0,0,1-17-12h0v-.5A17.55,17.55,0,0,0,350-642v0h-.5A17.46,17.46,0,0,0,332-624.5v.5h0a18.85,18.85,0,0,1-18,12,18.86,18.86,0,0,1-17-12h0v-.5A17.55,17.55,0,0,0,280-642v0h-.5A17.46,17.46,0,0,0,262-624.5v.5h0a18.85,18.85,0,0,1-18,12,18.86,18.86,0,0,1-17-12h0v-.5A17.55,17.55,0,0,0,210-642h-.5A17.46,17.46,0,0,0,192-624.5v.5h0a18.85,18.85,0,0,1-18,12,18.86,18.86,0,0,1-17-12h0v-.5A17.55,17.55,0,0,0,140-642v0h-.5A17.46,17.46,0,0,0,122-624.5v.5h0a18.86,18.86,0,0,1-17,12,19,19,0,0,1-18-12h0v-.5A17.55,17.55,0,0,0,70-642v0h-.5A17.46,17.46,0,0,0,52-624.5v.5h0a18.86,18.86,0,0,1-17,12,19,19,0,0,1-18-12h0v-.5A17.55,17.55,0,0,0,0-642v53H0V-3H0V50A17.55,17.55,0,0,0,17,32.5V32h0a18.76,18.76,0,0,1,35,0h0v.5A17.46,17.46,0,0,0,69.48,50H70v0A17.55,17.55,0,0,0,87,32.5V32h0a18.76,18.76,0,0,1,35,0h0v.5A17.46,17.46,0,0,0,139.48,50h.5v0a17.55,17.55,0,0,0,17-17.5V32h0a18.76,18.76,0,0,1,35,0h0v.5A17.46,17.46,0,0,0,209.48,50h.5a17.55,17.55,0,0,0,17-17.5V32h0a18.76,18.76,0,0,1,35,0h0v.5A17.46,17.46,0,0,0,279.48,50h.5v0a17.55,17.55,0,0,0,17-17.5V32h0a18.76,18.76,0,0,1,35,0h0v.5A17.46,17.46,0,0,0,349.48,50h.5v0a17.55,17.55,0,0,0,17-17.5V32h0a18.76,18.76,0,0,1,35,0h0v.5A17.46,17.46,0,0,0,419.48,50h.5v0a17.55,17.55,0,0,0,17-17.5V32h0a18.76,18.76,0,0,1,35,0h0v.5A17.46,17.46,0,0,0,489.48,50h.5v0a17.55,17.55,0,0,0,17-17.5V32h0a18.76,18.76,0,0,1,35,0h0v.5A17.46,17.46,0,0,0,559.48,50h.5V-641.5Z" style="fill: #efedea"/>
  </g>
</svg>
