<svg id="Layer_1" data-name="Layer 1" xmlns="http://www.w3.org/2000/svg" xmlns:xlink="http://www.w3.org/1999/xlink" viewBox="0 0 559.97 50">
  <defs>
    <clipPath id="clip-path">
      <rect width="559.97" height="50" style="fill: none"/>
    </clipPath>
  </defs>
  <g style="clip-path: url(#clip-path)">
    <path id="TICKET" d="M560,.5c0-.16,0-.33,0-.49h-.49A17.51,17.51,0,0,0,542,17.5c0,.16,0,.33,0,.49h0a18.74,18.74,0,0,1-35,0h0c0-.16,0-.33,0-.49A17.5,17.5,0,0,0,490,0c0,.16,0,.33,0,.49,0-.16,0-.33,0-.49h-.49A17.51,17.51,0,0,0,472,17.5c0,.16,0,.33,0,.49h0a18.73,18.73,0,0,1-35,0h0c0-.16,0-.33,0-.49A17.5,17.5,0,0,0,420,0c0,.16,0,.33,0,.49,0-.16,0-.33,0-.49h-.49A17.51,17.51,0,0,0,402,17.5c0,.16,0,.33,0,.49h0a18.74,18.74,0,0,1-35,0h0c0-.16,0-.33,0-.49A17.5,17.5,0,0,0,350,0c0,.16,0,.33,0,.49,0-.16,0-.33,0-.49h-.49A17.51,17.51,0,0,0,332,17.5c0,.16,0,.33,0,.49h0a18.74,18.74,0,0,1-35,0h0c0-.16,0-.33,0-.49A17.5,17.5,0,0,0,280,0c0,.16,0,.33,0,.49,0-.16,0-.33,0-.49h-.49A17.5,17.5,0,0,0,262,17.5c0,.16,0,.33,0,.49h0a18.74,18.74,0,0,1-35,0h0c0-.16,0-.33,0-.49A17.5,17.5,0,0,0,210,0h-.51A17.51,17.51,0,0,0,192,17.5c0,.16,0,.33,0,.49h0a18.74,18.74,0,0,1-35,0h0c0-.16,0-.33,0-.49A17.5,17.5,0,0,0,140,0c0,.16,0,.33,0,.49,0-.16,0-.33,0-.49h-.49A17.51,17.51,0,0,0,122,17.5c0,.16,0,.33,0,.49h0a18.74,18.74,0,0,1-35,0h0c0-.16,0-.33,0-.49A17.49,17.49,0,0,0,70,0c0,.16,0,.33,0,.49,0-.16,0-.33,0-.49H69.5A17.51,17.51,0,0,0,52,17.5c0,.16,0,.33,0,.49h0a18.74,18.74,0,0,1-35,0h0c0-.16,0-.33,0-.49A17.5,17.5,0,0,0,0,0C0,.17,0,.34,0,.5V53H0c0,.16,0,.33,0,.49v585c0,.16,0,.33,0,.49H0V691.5c0,.16,0,.33,0,.49A17.5,17.5,0,0,0,17,674.5c0-.16,0-.33,0-.49h0a18.74,18.74,0,0,1,35,0h0c0,.16,0,.33,0,.49A17.51,17.51,0,0,0,69.5,692H70c0-.16,0-.33,0-.49,0,.16,0,.33,0,.49A17.49,17.49,0,0,0,87,674.5c0-.16,0-.33,0-.49h0a18.74,18.74,0,0,1,35,0h0c0,.16,0,.33,0,.49a17.51,17.51,0,0,0,17.5,17.5H140c0-.16,0-.33,0-.49,0,.16,0,.33,0,.49a17.5,17.5,0,0,0,17-17.49c0-.16,0-.33,0-.49h0a18.74,18.74,0,0,1,35,0h0c0,.16,0,.33,0,.49a17.51,17.51,0,0,0,17.5,17.5H210a17.5,17.5,0,0,0,17-17.49c0-.16,0-.33,0-.49h0a18.74,18.74,0,0,1,35,0h0c0,.16,0,.33,0,.49A17.5,17.5,0,0,0,279.48,692H280c0-.16,0-.33,0-.49,0,.16,0,.33,0,.49a17.5,17.5,0,0,0,17-17.49c0-.16,0-.33,0-.49h0a18.74,18.74,0,0,1,35,0h0c0,.16,0,.33,0,.49a17.51,17.51,0,0,0,17.5,17.5H350c0-.16,0-.33,0-.49,0,.16,0,.33,0,.49a17.5,17.5,0,0,0,17-17.49c0-.16,0-.33,0-.49h0a18.74,18.74,0,0,1,35,0h0c0,.16,0,.33,0,.49a17.51,17.51,0,0,0,17.5,17.5H420c0-.16,0-.33,0-.49,0,.16,0,.33,0,.49a17.5,17.5,0,0,0,17-17.49c0-.16,0-.33,0-.49h0a18.73,18.73,0,0,1,35,0h0c0,.16,0,.33,0,.49a17.51,17.51,0,0,0,17.5,17.5H490c0-.16,0-.33,0-.49,0,.16,0,.33,0,.49a17.5,17.5,0,0,0,17-17.49c0-.16,0-.33,0-.49h0a18.74,18.74,0,0,1,35,0h0c0,.16,0,.33,0,.49a17.51,17.51,0,0,0,17.5,17.5H560c0-.16,0-.33,0-.49q0-172.75,0-345.5T560,.5Z" style="fill: #efedea"/>
  </g>
</svg>
