<svg id="eLnYxX4SFyH1" xmlns="http://www.w3.org/2000/svg" xmlns:xlink="http://www.w3.org/1999/xlink" viewBox="0 0 648 333.11" shape-rendering="geometricPrecision" text-rendering="geometricPrecision"><style><![CDATA[#eLnYxX4SFyH2_to {animation: eLnYxX4SFyH2_to__to 7000ms linear infinite normal forwards}@keyframes eLnYxX4SFyH2_to__to { 0% {transform: translate(648.000566px,140.858706px)} 11.428571% {transform: translate(648.000566px,140.858706px);animation-timing-function: cubic-bezier(0.42,0,1,1)} 15.714286% {transform: translate(554.207886px,139.290882px)} 91.428571% {transform: translate(554.207886px,139.290882px)} 97.142857% {transform: translate(648.000566px,140.858706px);animation-timing-function: cubic-bezier(0.42,0,1,1)} 100% {transform: translate(648.000566px,140.858706px)}} #eLnYxX4SFyH2 {animation: eLnYxX4SFyH2_c_o 7000ms linear infinite normal forwards}@keyframes eLnYxX4SFyH2_c_o { 0% {opacity: 0} 11.428571% {opacity: 0;animation-timing-function: cubic-bezier(0.42,0,1,1)} 15.714286% {opacity: 1} 91.428571% {opacity: 1} 97.142857% {opacity: 0;animation-timing-function: cubic-bezier(0.42,0,1,1)} 100% {opacity: 0}} #eLnYxX4SFyH3_to {animation: eLnYxX4SFyH3_to__to 7000ms linear infinite normal forwards}@keyframes eLnYxX4SFyH3_to__to { 0% {transform: translate(359.305011px,259.330011px)} 8.571429% {transform: translate(359.305011px,259.330011px);animation-timing-function: cubic-bezier(0.42,0,1,1)} 12.857143% {transform: translate(357.105011px,129.605011px)} 88.571429% {transform: translate(357.105011px,129.605011px)} 94.285714% {transform: translate(359.305011px,259.330011px);animation-timing-function: cubic-bezier(0.42,0,1,1)} 100% {transform: translate(359.305011px,259.330011px)}} #eLnYxX4SFyH3 {animation: eLnYxX4SFyH3_c_o 7000ms linear infinite normal forwards}@keyframes eLnYxX4SFyH3_c_o { 0% {opacity: 0} 8.571429% {opacity: 0;animation-timing-function: cubic-bezier(0.42,0,1,1)} 12.857143% {opacity: 1} 88.571429% {opacity: 1} 94.285714% {opacity: 0;animation-timing-function: cubic-bezier(0.42,0,1,1)} 100% {opacity: 0}} #eLnYxX4SFyH4_to {animation: eLnYxX4SFyH4_to__to 7000ms linear infinite normal forwards}@keyframes eLnYxX4SFyH4_to__to { 0% {transform: translate(-121.215561px,185.409996px)} 5.714286% {transform: translate(-121.215561px,185.409996px);animation-timing-function: cubic-bezier(0.42,0,1,1)} 10% {transform: translate(127.417862px,185.409996px)} 85.714286% {transform: translate(127.417862px,185.409996px)} 91.428571% {transform: translate(-121.215561px,185.409996px);animation-timing-function: cubic-bezier(0.42,0,1,1)} 100% {transform: translate(-121.215561px,185.409996px)}} #eLnYxX4SFyH4 {animation: eLnYxX4SFyH4_c_o 7000ms linear infinite normal forwards}@keyframes eLnYxX4SFyH4_c_o { 0% {opacity: 0} 5.714286% {opacity: 0;animation-timing-function: cubic-bezier(0.42,0,1,1)} 10% {opacity: 1} 85.714286% {opacity: 1} 91.428571% {opacity: 0;animation-timing-function: cubic-bezier(0.42,0,1,1)} 100% {opacity: 0}} #eLnYxX4SFyH5_to {animation: eLnYxX4SFyH5_to__to 7000ms linear infinite normal forwards}@keyframes eLnYxX4SFyH5_to__to { 0% {transform: translate(327.295016px,365.764999px)} 17.142857% {transform: translate(327.295016px,365.764999px);animation-timing-function: cubic-bezier(0.42,0,1,1)} 22.857143% {transform: translate(327.294998px,285.654999px)} 94.285714% {transform: translate(327.294998px,285.654999px)} 100% {transform: translate(327.295016px,365.764999px)}} #eLnYxX4SFyH5 {animation: eLnYxX4SFyH5_c_o 7000ms linear infinite normal forwards}@keyframes eLnYxX4SFyH5_c_o { 0% {opacity: 0} 17.142857% {opacity: 0;animation-timing-function: cubic-bezier(0.42,0,1,1)} 22.857143% {opacity: 1} 94.285714% {opacity: 1} 100% {opacity: 0}} #eLnYxX4SFyH13 {animation: eLnYxX4SFyH13_c_o 7000ms linear infinite normal forwards}@keyframes eLnYxX4SFyH13_c_o { 0% {opacity: 0;animation-timing-function: cubic-bezier(0.42,0,1,1)} 4.285714% {opacity: 1} 82.857143% {opacity: 1} 88.571429% {opacity: 0;animation-timing-function: cubic-bezier(0.42,0,1,1)} 100% {opacity: 0}}]]></style><g id="eLnYxX4SFyH2_to" transform="translate(648.000566,140.858706)"><path id="eLnYxX4SFyH2" d="M646.39,214.47c0,16.28-15.76,26.87-62,26.87-66.12,0-122.42-26.6-122.42-73.62c0-23.51,22-35.91,47.26-25.58l51.66,21.18c11.88,4.91,17-4.65,6.71-11.88L490.66,98C479,89.7,472.58,80.4,472.58,70.84c0-25.84,31-33.59,65.34-33.59c34.61-.26,73.35,5.68,88.33,12.66c13.68,6.46,20.91,14.72,20.14,29.45-.78,15.5-12.4,21.7-34.61,14L506.16,56.37c-12.66-4.39-19.63,6.2-19.63,11.88c0,6.46,2.06,11.63,14.2,15.5l100.72,32c22.73,7.23,26.34,19.37,26.34,28.93c0,12.4-6.71,24.29-26.34,26.61L509,182.7c-15.76,2.07-21.7,7.24-21.7,14.73c0,7.23,6.72,14.21,21.7,12.91l113.63-10.07c19.37-1.81,23.76,5.94,23.76,14.2Z" transform="translate(-554.207886,-139.290882)" opacity="0" fill="#e8e7e7"/></g><g id="eLnYxX4SFyH3_to" transform="translate(359.305011,259.330011)"><path id="eLnYxX4SFyH3" d="M417.16,231.63c-10.33,0-24-4.91-38.22-22.22l-63.79-77.24c-5.68-7.23-8.26-12.66-8.26-16.27.26-6.72,5.42-8.53,15-7.24l78.51,10.07c27.63,3.62,36.67-8.78,36.67-22.21c0-12.66-9.81-22.48-28.67-22.48h-80.85c-26.6,0-41.06,15.76-41.06,34.11.122979,5.17121,1.261222,10.267819,3.35,15l26.34,62c10.08,23.77,7,46.5-22.46,46.5-16,0-33.84-12.39-33.84-49.34c0-87.84,36.94-154.75,115.45-154.75c63.79,0,79,40.3,79,63.55c0,17.57-6.45,33.33-42.87,46.25l-42.35,15c-6.2,2.07-11.11,5.17-11.11,11.37c0,5.94,4.13,8,14,8l50.87.51c17.05.26,30,10.85,30,26.87-.07,16.25-8.87,32.52-35.71,32.52Z" transform="translate(-357.105011,-129.605011)" opacity="0" fill="#e8e7e7"/></g><g id="eLnYxX4SFyH4_to" transform="translate(-121.215561,185.409996)"><path id="eLnYxX4SFyH4" d="M247.9,138.77c-6.77,47-41,85-112.78,85h-53.76L68.2,317h-62L43,53.82h115.82c71.8,0,95.48,38,88.71,85Zm-61.27,0c3.39-25.19-7.89-41.36-36.46-41.35h-50.75L87.76,180.16h50.75c28.94,0,44.36-16.18,47.74-41.37Z" transform="translate(-127.417862,-185.409996)" opacity="0" fill="#e8e7e7"/></g><g id="eLnYxX4SFyH5_to" transform="translate(327.295016,365.764999)"><g id="eLnYxX4SFyH5" transform="translate(-327.294998,-285.654999)" opacity="0"><path d="M184.6,268.88h-27.92l-1.9,13.51h24.63L178.09,292h-24.62l-2.14,15.49h27.91L177.92,317h-41.5l8.07-57.67h41.51l-1.32,9.56Z" fill="#e8e7e7"/><path d="M203,259.32l6.34,52.89l21.16-52.89h13.59L220.41,317h-23.63l-7.49-57.67h13.71Z" fill="#e8e7e7"/><path d="M299.71,309.74c0,5.19-5,8.57-19.76,8.57-21.08,0-39-8.49-39-23.48c0-7.5,7-11.45,15.07-8.16l16.47,6.76c3.78,1.56,5.43-1.48,2.14-3.79l-24.54-17.05c-3.71-2.64-5.77-5.61-5.77-8.65c0-8.24,9.88-10.71,20.84-10.71s23.38,1.81,28.16,4c4.37,2.06,6.67,4.7,6.42,9.39-.24,5-3.95,6.92-11,4.45L255,259.32c-1.334492-.562486-2.857701-.451474-4.096537.298556s-2.043273,2.048248-2.163463,3.491444c0,2.06.66,3.71,4.53,4.95l32.12,10.21c7.24,2.31,8.4,6.18,8.4,9.22c0,4-2.15,7.75-8.41,8.49l-29.48,3.63c-5,.66-6.91,2.3-6.91,4.69s2.14,4.53,6.91,4.12l36.24-3.21c6.17-.58,7.57,1.89,7.57,4.53Z" fill="#e8e7e7"/><path d="M372,259.32L363.94,317h-22.94l-9.64-54.05L323.75,317h-12.92l8.07-57.67h23l9.64,54l7.57-54Z" fill="#e8e7e7"/><path d="M427,269.61h-17L403.38,317h-13.5l6.67-47.38h-17l1.49-10.3h47.46Z" fill="#e8e7e7"/><path d="M426.35,298.12c0-4.53,1.82-9.8,6.76-9.8c1.76321.036128,3.43761.780676,4.645483,2.065688s1.847473,3.002242,1.774517,4.764312v14c0,3.95,2.47,6,7.41,3.62l28.82-13.92c3.46-1.65,6.43-3,5.61-6s-3.38-3.46-6.18-2.15l-17.46,8.08c-7.82,3.62-13.18-1.65-13.34-7.58l-.08-3.13c-.09-3.05-1.4-3.46-4.7-4.2l-5.19-1.24c-3.348378-.945308-5.644918-4.021031-5.6-7.5C428.82,260.8,443.48,253,458,253c14.24,0,28.33,6.1,28.33,20.93c0,5.85-2.23,9.88-7.09,9.88-3.21,0-8.07-3.13-3.62-9.8l3.62-5.44c1-1.48.74-3-.08-3.54-1.32-.91-3.05-.82-5.76-.25l-35.5,7.67c-3.54.74-4.36,2.3-4.11,4s1.31,2.56,4,3.05l41.92,7.58c4.69.82,7,4.12,7,8.07c0,11.45-14.91,23-33.77,23-19.83-.01-26.59-10.48-26.59-20.03Z" fill="#e8e7e7"/><path d="M511.5,311.05c-.66,4.7-3.13,6.76-8.07,6.76s-6.75-2.06-6.09-6.76s3.12-6.84,8.07-6.84s6.75,2.06,6.09,6.84Zm6.67-51.74L516,275l-5.6,20.92h-7.58L503.1,275l2.22-15.66Z" fill="#e8e7e7"/></g></g><g id="eLnYxX4SFyH13" opacity="0"><path d="M51,38.15h-7.95L46.29,15h7.93c7.47,0,10.18,3.47,9.05,11.57s-4.82,11.58-12.27,11.58Zm2.71-20.79h-4.91L46.22,35.8h4.89c5.49,0,8.17-2.71,9.09-9.22s-1-9.22-6.44-9.22Z" fill="#e8e7e7"/><path d="M73.08,15L69.85,38.15h-2.91L70.18,15Z" fill="#e8e7e7"/><path d="M74.54,30.58c0-1.82.72-3.94,2.71-3.94.707431.01814,1.377962.319535,1.861148.836563s.73857,1.206398.708852,1.913437v5.61c0,1.58,1,2.41,3,1.45l11.57-5.59c1.38-.66,2.57-1.19,2.24-2.41s-1.35-1.39-2.47-.86l-7,3.24c-3.14,1.46-5.29-.66-5.36-3v-1.26c0-1.22-.56-1.38-1.88-1.68l-2.08-.5c-1.342492-.375582-2.265339-1.606045-2.25-3c0-5.75,5.88-8.9,11.7-8.9s11.37,2.45,11.37,8.4c0,2.35-.9,4-2.85,4-1.28,0-3.23-1.26-1.45-3.94l1.45-2.18c.189313-.187767.295798-.443362.295798-.71s-.106485-.522233-.295798-.71c-.724026-.347425-1.558659-.383557-2.31-.1L79.16,20.27c-1.42.29-1.75.92-1.65,1.61s.53,1,1.59,1.23l16.82,3c1.640785.177156,2.866688,1.590653,2.81,3.24c0,4.59-6,9.22-13.55,9.22-7.93.04-10.64-4.16-10.64-7.99Z" fill="#e8e7e7"/><path d="M124.67,30.58c-2.42,5.75-5.79,8.23-11.37,8.23-7.47,0-10.25-3.67-9.06-12.23s5-12.23,12.5-12.23c6.14,0,8.75,2.48,9.05,8.23h-2.91c-.39-4.13-2.18-5.72-6.47-5.72-5.39,0-8.14,2.84-9.09,9.72s1,9.71,6.37,9.71c3.9,0,6.19-1.58,8.14-5.71Z" fill="#e8e7e7"/><path d="M151.23,26.58c-1.19,8.56-5,12.23-12.69,12.23s-10.47-3.67-9.28-12.23s5-12.23,12.72-12.23s10.44,3.65,9.25,12.23Zm-18.93,0c-1,6.87,1,9.71,6.61,9.71s8.36-2.84,9.32-9.71-1-9.72-6.61-9.72-8.37,2.84-9.32,9.72Z" fill="#e8e7e7"/><path d="M172.74,15h2.91l-10.8,23.14h-5L155.53,15h2.94l4,22Z" fill="#e8e7e7"/><path d="M182.82,17.36l-1.06,7.53h11.31l-.34,2.35h-11.3l-1.19,8.56h12.63l-.33,2.35h-15.54L180.24,15h15.54l-.34,2.35Z" fill="#e8e7e7"/><path d="M208.83,29.35h-7.14l-1.26,8.83h-2.91L200.76,15h9.88c5.66,0,7.61,2.75,7,7.24-.53,3.67-2.38,6-6,6.74l3.81,9.13h-3Zm0-2.24c3.66,0,5.45-1.62,5.91-4.86s-.82-4.89-4.53-4.89h-6.84L202,27.11Z" fill="#e8e7e7"/><path d="M252.91,26.58c-1.19,8.56-5,12.23-12.7,12.23s-10.47-3.67-9.28-12.23s5-12.23,12.72-12.23s10.45,3.65,9.26,12.23Zm-18.94,0c-1,6.87,1,9.71,6.61,9.71s8.36-2.84,9.32-9.71-1-9.72-6.61-9.72-8.36,2.84-9.29,9.72Z" fill="#e8e7e7"/><path d="M259.51,15h2.91l-2.08,14.74c-.66,4.63.86,6.54,5.19,6.54s6.34-1.91,7-6.54L274.61,15h2.91l-2.08,14.74c-.89,6.35-4,9.06-10.28,9.06s-8.62-2.71-7.73-9.06Z" fill="#e8e7e7"/><path d="M291.86,29.35h-7.14l-1.25,8.83h-2.91L283.8,15h9.88c5.65,0,7.6,2.75,7,7.24-.53,3.67-2.38,6-6,6.74l3.8,9.13h-3Zm0-2.24c3.67,0,5.45-1.62,5.92-4.86s-.83-4.89-4.53-4.89h-6.84l-1.36,9.75Z" fill="#e8e7e7"/></g></svg>